%TF.GenerationSoftware,KiCad,Pcbnew,9.0.8*%
%TF.CreationDate,2026-03-19T19:04:42+01:00*%
%TF.ProjectId,RocSync_testing,526f6353-796e-4635-9f74-657374696e67,rev?*%
%TF.SameCoordinates,Original*%
%TF.FileFunction,Soldermask,Bot*%
%TF.FilePolarity,Negative*%
%FSLAX46Y46*%
G04 Gerber Fmt 4.6, Leading zero omitted, Abs format (unit mm)*
G04 Created by KiCad (PCBNEW 9.0.8) date 2026-03-19 19:04:42*
%MOMM*%
%LPD*%
G01*
G04 APERTURE LIST*
G04 Aperture macros list*
%AMRoundRect*
0 Rectangle with rounded corners*
0 $1 Rounding radius*
0 $2 $3 $4 $5 $6 $7 $8 $9 X,Y pos of 4 corners*
0 Add a 4 corners polygon primitive as box body*
4,1,4,$2,$3,$4,$5,$6,$7,$8,$9,$2,$3,0*
0 Add four circle primitives for the rounded corners*
1,1,$1+$1,$2,$3*
1,1,$1+$1,$4,$5*
1,1,$1+$1,$6,$7*
1,1,$1+$1,$8,$9*
0 Add four rect primitives between the rounded corners*
20,1,$1+$1,$2,$3,$4,$5,0*
20,1,$1+$1,$4,$5,$6,$7,0*
20,1,$1+$1,$6,$7,$8,$9,0*
20,1,$1+$1,$8,$9,$2,$3,0*%
G04 Aperture macros list end*
%ADD10R,1.700000X1.700000*%
%ADD11C,1.700000*%
%ADD12C,3.200000*%
%ADD13RoundRect,0.218750X0.218750X0.256250X-0.218750X0.256250X-0.218750X-0.256250X0.218750X-0.256250X0*%
%ADD14C,0.660000*%
%ADD15O,1.000000X0.580000*%
%ADD16R,0.300000X0.850000*%
%ADD17C,1.100000*%
%ADD18RoundRect,0.250000X-0.450000X0.450000X-0.450000X-0.450000X0.450000X-0.450000X0.450000X0.450000X0*%
%ADD19C,1.400000*%
%ADD20R,1.300000X1.550000*%
%ADD21RoundRect,0.250000X-0.350000X-0.625000X0.350000X-0.625000X0.350000X0.625000X-0.350000X0.625000X0*%
%ADD22O,1.200000X1.750000*%
%ADD23R,1.550000X1.300000*%
G04 APERTURE END LIST*
D10*
%TO.C,J4*%
X128870000Y-21000000D03*
D11*
X126330000Y-21000000D03*
X123790000Y-21000000D03*
X121250000Y-21000000D03*
%TD*%
%TO.C,J3*%
X43960000Y-109250000D03*
X46500000Y-109250000D03*
D10*
X49040000Y-109250000D03*
%TD*%
D12*
%TO.C,H3*%
X190000000Y-190000000D03*
%TD*%
%TO.C,H2*%
X190000000Y-60000000D03*
%TD*%
%TO.C,H1*%
X60000000Y-60000000D03*
%TD*%
%TO.C,H4*%
X60000000Y-190000000D03*
%TD*%
D13*
%TO.C,D277*%
X187787500Y-103250000D03*
X186212500Y-103250000D03*
%TD*%
D14*
%TO.C,J1*%
X50250000Y-125000000D03*
D15*
X42750000Y-125000000D03*
D16*
X49250000Y-124165000D03*
X48750000Y-124165000D03*
X48250000Y-124165000D03*
X47750000Y-124165000D03*
X47250000Y-124165000D03*
X46750000Y-124165000D03*
X46250000Y-124165000D03*
X45750000Y-124165000D03*
X45250000Y-124165000D03*
X44750000Y-124165000D03*
X44250000Y-124165000D03*
X43750000Y-124165000D03*
X43750000Y-125835000D03*
X44250000Y-125835000D03*
X44750000Y-125835000D03*
X45250000Y-125835000D03*
X45750000Y-125835000D03*
X46250000Y-125835000D03*
X46750000Y-125835000D03*
X47250000Y-125835000D03*
X47750000Y-125835000D03*
X48250000Y-125835000D03*
X48750000Y-125835000D03*
X49250000Y-125835000D03*
D17*
X48900000Y-127150000D03*
X48900000Y-122850000D03*
X44100000Y-127150000D03*
X44100000Y-122850000D03*
%TD*%
D13*
%TO.C,D276*%
X72787500Y-121000000D03*
X71212500Y-121000000D03*
%TD*%
D18*
%TO.C,SW1*%
X57857500Y-122500000D03*
D19*
X57857500Y-125000000D03*
X57857500Y-127500000D03*
X61157500Y-127500000D03*
X61157500Y-125000000D03*
X61157500Y-122500000D03*
%TD*%
D20*
%TO.C,SW7*%
X194750000Y-115275000D03*
X194750000Y-123225000D03*
X199250000Y-115275000D03*
X199250000Y-123225000D03*
%TD*%
%TO.C,SW6*%
X179250000Y-123225000D03*
X179250000Y-115275000D03*
X174750000Y-123225000D03*
X174750000Y-115275000D03*
%TD*%
D21*
%TO.C,J2*%
X60000000Y-148500000D03*
D22*
X62000000Y-148500000D03*
%TD*%
D13*
%TO.C,D275*%
X72787500Y-129000000D03*
X71212500Y-129000000D03*
%TD*%
D23*
%TO.C,SW2*%
X190975000Y-141750000D03*
X183025000Y-141750000D03*
X190975000Y-146250000D03*
X183025000Y-146250000D03*
%TD*%
%TO.C,SW5*%
X190975000Y-127000000D03*
X183025000Y-127000000D03*
X190975000Y-131500000D03*
X183025000Y-131500000D03*
%TD*%
%TO.C,SW4*%
X190975000Y-117000000D03*
X183025000Y-117000000D03*
X190975000Y-121500000D03*
X183025000Y-121500000D03*
%TD*%
%TO.C,SW3*%
X190975000Y-107000000D03*
X183025000Y-107000000D03*
X190975000Y-111500000D03*
X183025000Y-111500000D03*
%TD*%
M02*
