M48
; DRILL file {KiCad 8.0.4} date 2024-08-19T15:11:55+0200
; FORMAT={-:-/ absolute / inch / decimal}
; #@! TF.CreationDate,2024-08-19T15:11:55+02:00
; #@! TF.GenerationSoftware,Kicad,Pcbnew,8.0.4
; #@! TF.FileFunction,Plated,1,2,PTH
FMAT,2
INCH
; #@! TA.AperFunction,Plated,PTH,ComponentDrill
T1C0.0079
; #@! TA.AperFunction,Plated,PTH,ViaDrill
T2C0.0118
; #@! TA.AperFunction,Plated,PTH,ViaDrill
T3C0.0236
; #@! TA.AperFunction,Plated,PTH,ComponentDrill
T4C0.0276
; #@! TA.AperFunction,Plated,PTH,ComponentDrill
T5C0.0295
; #@! TA.AperFunction,Plated,PTH,ComponentDrill
T6C0.0354
; #@! TA.AperFunction,Plated,PTH,ComponentDrill
T7C0.0394
%
G90
G05
T1
X0.9921Y-4.7126
X0.9921Y-4.7441
X0.9921Y-4.7756
X1.0236Y-4.7126
X1.0236Y-4.7441
X1.0236Y-4.7756
X1.0551Y-4.7126
X1.0551Y-4.7441
X1.0551Y-4.7756
X2.2012Y-5.3705
X2.2012Y-5.4169
X2.2476Y-5.3705
X2.2476Y-5.4169
X2.7244Y-8.1575
X2.7244Y-8.189
X2.7244Y-8.2205
X2.7559Y-8.1575
X2.7559Y-8.189
X2.7559Y-8.2205
X2.7874Y-8.1575
X2.7874Y-8.189
X2.7874Y-8.2205
X3.1181Y-1.3858
X3.1181Y-1.4173
X3.1181Y-1.4488
X3.1496Y-1.3858
X3.1496Y-1.4173
X3.1496Y-1.4488
X3.1811Y-1.3858
X3.1811Y-1.4173
X3.1811Y-1.4488
X4.2687Y-1.2372
X4.2687Y-1.2825
X4.314Y-1.2372
X4.314Y-1.2825
X4.8898Y-1.5433
X4.8898Y-1.5748
X4.8898Y-1.6063
X4.9213Y-1.5433
X4.9213Y-1.5748
X4.9213Y-1.6063
X4.9528Y-1.5433
X4.9528Y-1.5748
X4.9528Y-1.6063
X5.2835Y-0.9528
X5.2835Y-0.9843
X5.2835Y-1.0157
X5.315Y-0.9528
X5.315Y-0.9843
X5.315Y-1.0157
X5.3465Y-0.9528
X5.3465Y-0.9843
X5.3465Y-1.0157
X6.2677Y-8.5709
X6.2677Y-8.6024
X6.2677Y-8.6339
X6.2992Y-8.5709
X6.2992Y-8.6024
X6.2992Y-8.6339
X6.3307Y-8.5709
X6.3307Y-8.6024
X6.3307Y-8.6339
X6.7402Y-1.3858
X6.7402Y-1.4173
X6.7402Y-1.4488
X6.7717Y-1.3858
X6.7717Y-1.4173
X6.7717Y-1.4488
X6.8031Y-1.3858
X6.8031Y-1.4173
X6.8031Y-1.4488
X8.7283Y-5.7756
X8.7283Y-5.8071
X8.7283Y-5.8386
X8.7598Y-5.7756
X8.7598Y-5.8071
X8.7598Y-5.8386
X8.7913Y-5.7756
X8.7913Y-5.8071
X8.7913Y-5.8386
T2
X0.2362Y-2.9528
X0.2559Y-6.5748
X0.2953Y-0.6496
X0.3937Y-1.4567
X0.3937Y-7.3031
X0.4331Y-8.7402
X0.5118Y-2.4213
X0.5315Y-0.9843
X0.5906Y-8.2677
X0.748Y-4.7835
X0.8858Y-7.9331
X0.9252Y-1.7323
X0.9449Y-9.5276
X0.9843Y-2.1654
X1.0039Y-1.122
X1.063Y-0.315
X1.063Y-8.622
X1.0728Y-4.8603
X1.0882Y-4.617
X1.0965Y-4.5866
X1.1002Y-4.8411
X1.1104Y-4.6713
X1.1324Y-4.75
X1.1417Y-1.4961
X1.1811Y-4.9213
X1.3189Y-8.0906
X1.3583Y-3.2087
X1.378Y-8.3661
X1.4567Y-6.7913
X1.4961Y-9.5472
X1.5748Y-9.252
X1.5922Y-2.9776
X1.6142Y-6.7913
X1.6535Y-0.7087
X1.7323Y-8.7598
X1.7913Y-5.0197
X1.811Y-3.3268
X1.8504Y-7.0669
X1.8701Y-4.8228
X1.9685Y-6.437
X2.0332Y-5.2306
X2.0866Y-5.5512
X2.126Y-2.6181
X2.2638Y-5.2953
X2.3265Y-5.3621
X2.3425Y-9.5472
X2.4409Y-3.248
X2.4412Y-5.1828
X2.4492Y-5.146
X2.541Y-8.773
X2.7559Y-2.3228
X2.7791Y-8.0446
X2.8031Y-8.0118
X2.8346Y-8.2874
X2.8444Y-8.1149
X2.8543Y-1.6142
X2.874Y-0.3543
X2.874Y-8.1594
X2.874Y-8.1929
X2.8977Y-8.1358
X2.9134Y-8.3091
X2.9356Y-8.3314
X2.9587Y-1.4705
X3.015Y-1.4902
X3.0315Y-7.5394
X3.0512Y-1.5098
X3.0512Y-8.2677
X3.0709Y-8.3268
X3.2087Y-0.9252
X3.2235Y-1.4929
X3.2385Y-1.548
X3.2446Y-1.5166
X3.2677Y-1.6004
X3.3465Y-1.4961
X3.3465Y-1.5748
X3.4449Y-8.1693
X3.5039Y-1.5945
X3.6417Y-1.2795
X3.8583Y-1.6339
X3.9764Y-1.1811
X4.0354Y-0.9449
X4.0354Y-1.4985
X4.0748Y-1.5354
X4.1142Y-1.122
X4.1929Y-1.2854
X4.1969Y-1.2133
X4.252Y-1.1614
X4.2638Y-1.4075
X4.311Y-1.1417
X4.311Y-1.3602
X4.4291Y-1.1024
X4.5472Y-1.0236
X4.626Y-8.1299
X4.7047Y-1.4567
X4.7621Y-1.4013
X4.7949Y-1.3468
X4.7953Y-1.3966
X4.7953Y-1.5197
X4.8425Y-0.9843
X4.9016Y-1.4567
X5.0Y-1.4961
X5.0984Y-1.0433
X5.2165Y-1.1417
X5.2598Y-1.0984
X5.2953Y-1.378
X5.315Y-0.748
X5.3425Y-0.8583
X5.3452Y-1.1306
X5.3917Y-1.0682
X5.3964Y-1.1194
X5.7874Y-1.2598
X5.9252Y-0.9449
X6.1811Y-8.5531
X6.2087Y-8.5335
X6.2205Y-0.9449
X6.2318Y-8.5079
X6.2598Y-8.4252
X6.3091Y-8.4646
X6.3583Y-1.2598
X6.4014Y-8.4897
X6.4114Y-8.5217
X6.4508Y-8.5531
X6.4764Y-8.4055
X6.5Y-8.7717
X6.5787Y-1.4921
X6.6147Y-1.4407
X6.6299Y-1.4075
X6.6518Y-1.3246
X6.6535Y-1.4311
X6.6535Y-1.4961
X6.6688Y-1.2874
X6.6929Y-8.3858
X6.7717Y-0.1969
X6.811Y-1.2165
X6.8209Y-1.6043
X6.9685Y-7.9331
X7.4409Y-0.4134
X7.5197Y-3.6024
X7.6969Y-2.8937
X7.6969Y-9.5276
X7.8543Y-7.3425
X7.8957Y-2.9016
X7.9134Y-2.5984
X8.1299Y-0.6693
X8.1496Y-3.189
X8.2283Y-5.9252
X8.2283Y-9.2717
X8.2677Y-7.1654
X8.2874Y-2.9528
X8.3465Y-6.6339
X8.4055Y-6.9094
X8.5433Y-5.4331
X8.6417Y-5.8071
X8.6811Y-8.5039
X8.6988Y-5.9185
X8.7008Y-1.9882
X8.7132Y-5.693
X8.8189Y-7.7165
X8.9173Y-9.685
X8.937Y-6.0236
X9.252Y-7.5591
X9.6063Y-8.9961
X9.626Y-6.7126
T3
X0.2559Y-4.4882
X0.2953Y-4.4882
X0.3346Y-4.4882
X0.374Y-4.4882
X1.8898Y-1.4961
X1.9291Y-4.2913
X2.126Y-4.2913
X2.3622Y-2.0866
X4.7638Y-0.2362
X4.7638Y-0.2756
X4.7638Y-0.315
T4
X1.7362Y-4.8431
X1.7362Y-5.0124
X1.9252Y-4.8431
X1.9252Y-5.0124
T5
X2.3031Y-5.8248
X2.3819Y-5.8248
T6
X2.2779Y-4.8228
X2.2779Y-4.9213
X2.2779Y-5.0197
X2.4078Y-4.8228
X2.4078Y-4.9213
X2.4078Y-5.0197
T7
X4.8207Y-1.1811
X4.9207Y-1.1811
X5.0207Y-1.1811
M30
