%TF.GenerationSoftware,KiCad,Pcbnew,8.0.4*%
%TF.CreationDate,2024-08-19T15:11:55+02:00*%
%TF.ProjectId,RocSync_testing,526f6353-796e-4635-9f74-657374696e67,rev?*%
%TF.SameCoordinates,Original*%
%TF.FileFunction,Legend,Bot*%
%TF.FilePolarity,Positive*%
%FSLAX46Y46*%
G04 Gerber Fmt 4.6, Leading zero omitted, Abs format (unit mm)*
G04 Created by KiCad (PCBNEW 8.0.4) date 2024-08-19 15:11:55*
%MOMM*%
%LPD*%
G01*
G04 APERTURE LIST*
G04 Aperture macros list*
%AMRoundRect*
0 Rectangle with rounded corners*
0 $1 Rounding radius*
0 $2 $3 $4 $5 $6 $7 $8 $9 X,Y pos of 4 corners*
0 Add a 4 corners polygon primitive as box body*
4,1,4,$2,$3,$4,$5,$6,$7,$8,$9,$2,$3,0*
0 Add four circle primitives for the rounded corners*
1,1,$1+$1,$2,$3*
1,1,$1+$1,$4,$5*
1,1,$1+$1,$6,$7*
1,1,$1+$1,$8,$9*
0 Add four rect primitives between the rounded corners*
20,1,$1+$1,$2,$3,$4,$5,0*
20,1,$1+$1,$4,$5,$6,$7,0*
20,1,$1+$1,$6,$7,$8,$9,0*
20,1,$1+$1,$8,$9,$2,$3,0*%
%AMFreePoly0*
4,1,19,0.500000,-0.750000,0.000000,-0.750000,0.000000,-0.744911,-0.071157,-0.744911,-0.207708,-0.704816,-0.327430,-0.627875,-0.420627,-0.520320,-0.479746,-0.390866,-0.500000,-0.250000,-0.500000,0.250000,-0.479746,0.390866,-0.420627,0.520320,-0.327430,0.627875,-0.207708,0.704816,-0.071157,0.744911,0.000000,0.744911,0.000000,0.750000,0.500000,0.750000,0.500000,-0.750000,0.500000,-0.750000,
$1*%
%AMFreePoly1*
4,1,19,0.000000,0.744911,0.071157,0.744911,0.207708,0.704816,0.327430,0.627875,0.420627,0.520320,0.479746,0.390866,0.500000,0.250000,0.500000,-0.250000,0.479746,-0.390866,0.420627,-0.520320,0.327430,-0.627875,0.207708,-0.704816,0.071157,-0.744911,0.000000,-0.744911,0.000000,-0.750000,-0.500000,-0.750000,-0.500000,0.750000,0.000000,0.750000,0.000000,0.744911,0.000000,0.744911,
$1*%
G04 Aperture macros list end*
%ADD10C,0.800000*%
%ADD11C,0.500000*%
%ADD12C,0.150000*%
%ADD13C,0.120000*%
%ADD14C,0.000000*%
%ADD15RoundRect,0.218750X0.218750X0.256250X-0.218750X0.256250X-0.218750X-0.256250X0.218750X-0.256250X0*%
%ADD16C,3.200000*%
%ADD17R,1.550000X1.300000*%
%ADD18R,1.700000X1.700000*%
%ADD19O,1.700000X1.700000*%
%ADD20FreePoly0,180.000000*%
%ADD21FreePoly1,180.000000*%
%ADD22C,0.660000*%
%ADD23O,1.000000X0.580000*%
%ADD24R,0.300000X0.850000*%
%ADD25C,1.100000*%
%ADD26RoundRect,0.250000X-0.450000X0.450000X-0.450000X-0.450000X0.450000X-0.450000X0.450000X0.450000X0*%
%ADD27C,1.400000*%
%ADD28RoundRect,0.250000X0.350000X0.625000X-0.350000X0.625000X-0.350000X-0.625000X0.350000X-0.625000X0*%
%ADD29O,1.200000X1.750000*%
G04 APERTURE END LIST*
D10*
G36*
X141254885Y-213127581D02*
G01*
X141725549Y-213376709D01*
X142034368Y-213678960D01*
X142306136Y-214122127D01*
X142464667Y-214613155D01*
X142537138Y-215122936D01*
X142549720Y-215476587D01*
X142517511Y-216029644D01*
X142420882Y-216514009D01*
X142235174Y-216976808D01*
X142034368Y-217276657D01*
X141651780Y-217631250D01*
X141169896Y-217850210D01*
X140764305Y-217899476D01*
X140274302Y-217825881D01*
X139805585Y-217577727D01*
X139499127Y-217276657D01*
X139228647Y-216830771D01*
X139070867Y-216335256D01*
X138998739Y-215819865D01*
X138986217Y-215461933D01*
X139018274Y-214915439D01*
X139114445Y-214436113D01*
X139299273Y-213977155D01*
X139499127Y-213678960D01*
X139878934Y-213322976D01*
X140359100Y-213103157D01*
X140764305Y-213053698D01*
X141254885Y-213127581D01*
G37*
G36*
X152131367Y-213210013D02*
G01*
X150626831Y-213210013D01*
X150116841Y-213205806D01*
X149619525Y-213190262D01*
X149091541Y-213148187D01*
X148799895Y-213090334D01*
X148374540Y-212840453D01*
X148230809Y-212672679D01*
X148043477Y-212195900D01*
X148023203Y-211932623D01*
X148108983Y-211433137D01*
X148294312Y-211129064D01*
X148695471Y-210845733D01*
X149061235Y-210743161D01*
X149555216Y-210717515D01*
X150050430Y-210710603D01*
X150543789Y-210708967D01*
X152131367Y-210708967D01*
X152131367Y-213210013D01*
G37*
G36*
X155274579Y-223231104D02*
G01*
X94514674Y-223231104D01*
X94514674Y-216805268D01*
X95625785Y-216805268D01*
X95781027Y-217318045D01*
X95988161Y-217772851D01*
X96288427Y-218221648D01*
X96656470Y-218594729D01*
X96759071Y-218676168D01*
X97213668Y-218951857D01*
X97670045Y-219128471D01*
X98181118Y-219244777D01*
X98746888Y-219300777D01*
X99006106Y-219306315D01*
X99583272Y-219270680D01*
X100114930Y-219163776D01*
X100601078Y-218985603D01*
X101041717Y-218736161D01*
X101436847Y-218415449D01*
X101558443Y-218292707D01*
X101881330Y-217884383D01*
X102137413Y-217421447D01*
X102326692Y-216903900D01*
X102449166Y-216331742D01*
X102500197Y-215813227D01*
X102508548Y-215483914D01*
X102485233Y-214936431D01*
X102437555Y-214589986D01*
X103995987Y-214589986D01*
X103995987Y-219150000D01*
X105925505Y-219150000D01*
X105925505Y-215356908D01*
X105933291Y-214807972D01*
X105960661Y-214317416D01*
X106042406Y-213821603D01*
X106050069Y-213798639D01*
X106306372Y-213371560D01*
X106450627Y-213249092D01*
X106908922Y-213069154D01*
X107119853Y-213053698D01*
X107624799Y-213132970D01*
X108021109Y-213334577D01*
X108373797Y-213682805D01*
X108568213Y-214077076D01*
X108663096Y-214581535D01*
X108700448Y-215082373D01*
X108714186Y-215631691D01*
X108714759Y-215784333D01*
X108714759Y-219150000D01*
X110644277Y-219150000D01*
X110644277Y-211803175D01*
X111828855Y-211803175D01*
X114405617Y-218883775D01*
X114864794Y-220236880D01*
X115067551Y-220687014D01*
X115321747Y-221130895D01*
X115350837Y-221172330D01*
X115681624Y-221542888D01*
X115878401Y-221695010D01*
X116329452Y-221920009D01*
X116613572Y-222007641D01*
X117109800Y-222095306D01*
X117600313Y-222119993D01*
X118117553Y-222096379D01*
X118625132Y-222025539D01*
X118692079Y-222012526D01*
X118863049Y-220613014D01*
X118380564Y-220693986D01*
X118044835Y-220713154D01*
X117556748Y-220640193D01*
X117136824Y-220374687D01*
X117050767Y-220271074D01*
X116795982Y-219840110D01*
X116612139Y-219357045D01*
X116554954Y-219150000D01*
X117677588Y-216180006D01*
X120059839Y-216180006D01*
X120106827Y-216712713D01*
X120247791Y-217223954D01*
X120482732Y-217713728D01*
X120540997Y-217809106D01*
X120843141Y-218205467D01*
X121208267Y-218540003D01*
X121636376Y-218812715D01*
X121901430Y-218937508D01*
X122368086Y-219098861D01*
X122888782Y-219214113D01*
X123388719Y-219277142D01*
X123930029Y-219304874D01*
X124092288Y-219306315D01*
X124667511Y-219284908D01*
X125199443Y-219220687D01*
X125688084Y-219113652D01*
X126217308Y-218928695D01*
X126684194Y-218682086D01*
X127025645Y-218429483D01*
X127380474Y-218071505D01*
X127677430Y-217657027D01*
X127916511Y-217186048D01*
X128047322Y-216805268D01*
X129077285Y-216805268D01*
X129232527Y-217318045D01*
X129439661Y-217772851D01*
X129739927Y-218221648D01*
X130107971Y-218594729D01*
X130210572Y-218676168D01*
X130665169Y-218951857D01*
X131121545Y-219128471D01*
X131632618Y-219244777D01*
X132198389Y-219300777D01*
X132457606Y-219306315D01*
X133034773Y-219270680D01*
X133566430Y-219163776D01*
X134052578Y-218985603D01*
X134493217Y-218736161D01*
X134888347Y-218415449D01*
X135009944Y-218292707D01*
X135332831Y-217884383D01*
X135588914Y-217421447D01*
X135778192Y-216903900D01*
X135900667Y-216331742D01*
X135951698Y-215813227D01*
X135960048Y-215483914D01*
X135958904Y-215457048D01*
X137000523Y-215457048D01*
X137000776Y-215461933D01*
X137026641Y-215962230D01*
X137126933Y-216531926D01*
X137302444Y-217061780D01*
X137553175Y-217551793D01*
X137879124Y-218001963D01*
X138070306Y-218212107D01*
X138489965Y-218583967D01*
X138948436Y-218878890D01*
X139445718Y-219096877D01*
X139981812Y-219237927D01*
X140556718Y-219302041D01*
X140756978Y-219306315D01*
X141253096Y-219277922D01*
X141737613Y-219192742D01*
X141879995Y-219150000D01*
X145109385Y-219150000D01*
X147542044Y-219150000D01*
X149012386Y-216915177D01*
X149288962Y-216511175D01*
X149603501Y-216066271D01*
X149909521Y-215660838D01*
X150084612Y-215457048D01*
X150477609Y-215141588D01*
X150695219Y-215041835D01*
X151177704Y-214950988D01*
X151675155Y-214929593D01*
X151718597Y-214929483D01*
X152131367Y-214929483D01*
X152131367Y-219150000D01*
X154163468Y-219150000D01*
X154163468Y-208989497D01*
X149884333Y-208989497D01*
X149310000Y-208999114D01*
X148797834Y-209027965D01*
X148278880Y-209085935D01*
X147789402Y-209184243D01*
X147539602Y-209263049D01*
X147070484Y-209501622D01*
X146670631Y-209841208D01*
X146367236Y-210237578D01*
X146135396Y-210695486D01*
X145989423Y-211192987D01*
X145929316Y-211730083D01*
X145927599Y-211842254D01*
X145934475Y-211932623D01*
X145969273Y-212389968D01*
X146094295Y-212887613D01*
X146302664Y-213335188D01*
X146594382Y-213732693D01*
X146967921Y-214070817D01*
X147424197Y-214340247D01*
X147891309Y-214519649D01*
X148421767Y-214646457D01*
X148584961Y-214673028D01*
X148159003Y-214948963D01*
X147756861Y-215270390D01*
X147498080Y-215525436D01*
X147167336Y-215928226D01*
X146882565Y-216328479D01*
X146602835Y-216752832D01*
X146340369Y-217171632D01*
X145109385Y-219150000D01*
X141879995Y-219150000D01*
X142210528Y-219050776D01*
X142671842Y-218852023D01*
X143098961Y-218597247D01*
X143514513Y-218247491D01*
X143861285Y-217830888D01*
X144054256Y-217516015D01*
X144261557Y-217052411D01*
X144409630Y-216540875D01*
X144490607Y-216053961D01*
X144526236Y-215530349D01*
X144528087Y-215374005D01*
X144490607Y-214834977D01*
X144378164Y-214305996D01*
X144215285Y-213844224D01*
X144054256Y-213503105D01*
X143792611Y-213077970D01*
X143439141Y-212663556D01*
X143023074Y-212316762D01*
X142710921Y-212123133D01*
X142263651Y-211914763D01*
X141791346Y-211765928D01*
X141294007Y-211676626D01*
X140771632Y-211646859D01*
X140268752Y-211673216D01*
X139703864Y-211774424D01*
X139181051Y-211951538D01*
X138700312Y-212204558D01*
X138261648Y-212533485D01*
X138058094Y-212726413D01*
X137698685Y-213151338D01*
X137413637Y-213616449D01*
X137202949Y-214121745D01*
X137066621Y-214667227D01*
X137009818Y-215152493D01*
X137000523Y-215457048D01*
X135958904Y-215457048D01*
X135936733Y-214936431D01*
X135866788Y-214428184D01*
X135721301Y-213870080D01*
X135508667Y-213368476D01*
X135228884Y-212923372D01*
X135005059Y-212658025D01*
X134623238Y-212314386D01*
X134194020Y-212041846D01*
X133717403Y-211840403D01*
X133193387Y-211710057D01*
X132621974Y-211650809D01*
X132420969Y-211646859D01*
X131864666Y-211672805D01*
X131360488Y-211750643D01*
X130848112Y-211903142D01*
X130403819Y-212123419D01*
X130303384Y-212189078D01*
X129895968Y-212537525D01*
X129592535Y-212922513D01*
X129344361Y-213378331D01*
X129172540Y-213835275D01*
X131075191Y-214147906D01*
X131232117Y-213671022D01*
X131512386Y-213329692D01*
X131958463Y-213106525D01*
X132394103Y-213053698D01*
X132893618Y-213128574D01*
X133342512Y-213378679D01*
X133544487Y-213586147D01*
X133789225Y-214036768D01*
X133913904Y-214531253D01*
X133967637Y-215065839D01*
X133974354Y-215366678D01*
X133959070Y-215858321D01*
X133902603Y-216359628D01*
X133787122Y-216837237D01*
X133566349Y-217291280D01*
X133539602Y-217327948D01*
X133169803Y-217676223D01*
X132716198Y-217863756D01*
X132367236Y-217899476D01*
X131867759Y-217820708D01*
X131468422Y-217584403D01*
X131184311Y-217186375D01*
X131022710Y-216723440D01*
X130972609Y-216492637D01*
X129077285Y-216805268D01*
X128047322Y-216805268D01*
X128097718Y-216658570D01*
X128204515Y-216175844D01*
X128249302Y-215867376D01*
X126270935Y-215711060D01*
X126141662Y-216214539D01*
X125930049Y-216678791D01*
X125614627Y-217073764D01*
X125547976Y-217132554D01*
X125126819Y-217391198D01*
X124615617Y-217542481D01*
X124072749Y-217586845D01*
X123558708Y-217554581D01*
X123077283Y-217443050D01*
X122624250Y-217204054D01*
X122592637Y-217178960D01*
X122252033Y-216793743D01*
X122098761Y-216322908D01*
X122094382Y-216221528D01*
X122222585Y-215736083D01*
X122304431Y-215623133D01*
X122713707Y-215326707D01*
X123034717Y-215193265D01*
X123523250Y-215043800D01*
X124021470Y-214907229D01*
X124508617Y-214779102D01*
X124663817Y-214738974D01*
X125150645Y-214604044D01*
X125672027Y-214430479D01*
X126124887Y-214244205D01*
X126566621Y-214010825D01*
X126957257Y-213722923D01*
X127318899Y-213337690D01*
X127591716Y-212917161D01*
X127775709Y-212461335D01*
X127870878Y-211970214D01*
X127885380Y-211673726D01*
X127834008Y-211151583D01*
X127679891Y-210653106D01*
X127450627Y-210220481D01*
X127139933Y-209827832D01*
X126754345Y-209498629D01*
X126293861Y-209232872D01*
X126192777Y-209187334D01*
X125703122Y-209016137D01*
X125223109Y-208910998D01*
X124700963Y-208850128D01*
X124209525Y-208833182D01*
X123640134Y-208853992D01*
X123116538Y-208916425D01*
X122638738Y-209020478D01*
X122125828Y-209200283D01*
X121678864Y-209440023D01*
X121356768Y-209685589D01*
X120980417Y-210085749D01*
X120691254Y-210540372D01*
X120489279Y-211049459D01*
X120385553Y-211529167D01*
X120348045Y-211959490D01*
X122382588Y-211959490D01*
X122521921Y-211456541D01*
X122791266Y-211019966D01*
X122941905Y-210882379D01*
X123400318Y-210656979D01*
X123924219Y-210564243D01*
X124231507Y-210552651D01*
X124746897Y-210587475D01*
X125227874Y-210706224D01*
X125618806Y-210909246D01*
X125915704Y-211320032D01*
X125941207Y-211524738D01*
X125770847Y-211992310D01*
X125638346Y-212123133D01*
X125195846Y-212367795D01*
X124728732Y-212538155D01*
X124207056Y-212691978D01*
X123769888Y-212804570D01*
X123240234Y-212940640D01*
X122765019Y-213077741D01*
X122279408Y-213238993D01*
X121815156Y-213425000D01*
X121574145Y-213542184D01*
X121160220Y-213804220D01*
X120774877Y-214154720D01*
X120462840Y-214570446D01*
X120233397Y-215054860D01*
X120107459Y-215557848D01*
X120061413Y-216061520D01*
X120059839Y-216180006D01*
X117677588Y-216180006D01*
X119331995Y-211803175D01*
X117277913Y-211803175D01*
X115531577Y-217005547D01*
X113829204Y-211803175D01*
X111828855Y-211803175D01*
X110644277Y-211803175D01*
X108851535Y-211803175D01*
X108851535Y-212875401D01*
X108476069Y-212457889D01*
X108065912Y-212126758D01*
X107621066Y-211882010D01*
X107141529Y-211723643D01*
X106627303Y-211651658D01*
X106448185Y-211646859D01*
X105946796Y-211685153D01*
X105448311Y-211812045D01*
X105280704Y-211878890D01*
X104840709Y-212124325D01*
X104479588Y-212469958D01*
X104227140Y-212904786D01*
X104103454Y-213285729D01*
X104026317Y-213798567D01*
X103998611Y-214334031D01*
X103995987Y-214589986D01*
X102437555Y-214589986D01*
X102415287Y-214428184D01*
X102269801Y-213870080D01*
X102057166Y-213368476D01*
X101777384Y-212923372D01*
X101553558Y-212658025D01*
X101171738Y-212314386D01*
X100742519Y-212041846D01*
X100265902Y-211840403D01*
X99741887Y-211710057D01*
X99170473Y-211650809D01*
X98969469Y-211646859D01*
X98413165Y-211672805D01*
X97908988Y-211750643D01*
X97396612Y-211903142D01*
X96952319Y-212123419D01*
X96851884Y-212189078D01*
X96444468Y-212537525D01*
X96141034Y-212922513D01*
X95892861Y-213378331D01*
X95721039Y-213835275D01*
X97623691Y-214147906D01*
X97780617Y-213671022D01*
X98060886Y-213329692D01*
X98506963Y-213106525D01*
X98942602Y-213053698D01*
X99442117Y-213128574D01*
X99891011Y-213378679D01*
X100092986Y-213586147D01*
X100337725Y-214036768D01*
X100462403Y-214531253D01*
X100516137Y-215065839D01*
X100522854Y-215366678D01*
X100507569Y-215858321D01*
X100451102Y-216359628D01*
X100335621Y-216837237D01*
X100114849Y-217291280D01*
X100088101Y-217327948D01*
X99718302Y-217676223D01*
X99264698Y-217863756D01*
X98915736Y-217899476D01*
X98416259Y-217820708D01*
X98016922Y-217584403D01*
X97732811Y-217186375D01*
X97571210Y-216723440D01*
X97521109Y-216492637D01*
X95625785Y-216805268D01*
X94514674Y-216805268D01*
X94514674Y-207722071D01*
X155274579Y-207722071D01*
X155274579Y-223231104D01*
G37*
D11*
G36*
X160077075Y-245610739D02*
G01*
X160133787Y-245515118D01*
X160199875Y-245439281D01*
X160288830Y-245375808D01*
X160390547Y-245339263D01*
X160487891Y-245329371D01*
X160529153Y-245331096D01*
X160632174Y-245350502D01*
X160724729Y-245386403D01*
X160817131Y-245439769D01*
X160837433Y-245454004D01*
X160914370Y-245519644D01*
X160984467Y-245599206D01*
X161040193Y-245680243D01*
X161090683Y-245771939D01*
X161122064Y-245842224D01*
X161157063Y-245944428D01*
X161181637Y-246051074D01*
X161195785Y-246162161D01*
X161199615Y-246260914D01*
X161198404Y-246314557D01*
X161188718Y-246414529D01*
X161165177Y-246518834D01*
X161122129Y-246621782D01*
X161061862Y-246707390D01*
X161007583Y-246759682D01*
X160917019Y-246817836D01*
X160815482Y-246851646D01*
X160716014Y-246861263D01*
X160629672Y-246852727D01*
X160530633Y-246821195D01*
X160433417Y-246766428D01*
X160351541Y-246700992D01*
X160271004Y-246618485D01*
X160314967Y-246830000D01*
X160085379Y-246830000D01*
X159896133Y-245914577D01*
X160154255Y-245914577D01*
X160157133Y-245999429D01*
X160168823Y-246100620D01*
X160189505Y-246196397D01*
X160226193Y-246304183D01*
X160275829Y-246404172D01*
X160338415Y-246496364D01*
X160373227Y-246537923D01*
X160455182Y-246611172D01*
X160542161Y-246656368D01*
X160644695Y-246673684D01*
X160728083Y-246662184D01*
X160819084Y-246613600D01*
X160877982Y-246550267D01*
X160922155Y-246462658D01*
X160935405Y-246413077D01*
X160948862Y-246314796D01*
X160952441Y-246214508D01*
X160948538Y-246147038D01*
X160931193Y-246048062D01*
X160903104Y-245948283D01*
X160877001Y-245875651D01*
X160836422Y-245786650D01*
X160781471Y-245697690D01*
X160713479Y-245617848D01*
X160635902Y-245557983D01*
X160573391Y-245531416D01*
X160472748Y-245516950D01*
X160414939Y-245521999D01*
X160319486Y-245558166D01*
X160245114Y-245622463D01*
X160234111Y-245635911D01*
X160186287Y-245721339D01*
X160161442Y-245815831D01*
X160154255Y-245914577D01*
X159896133Y-245914577D01*
X159665281Y-244797899D01*
X159912455Y-244797899D01*
X160077075Y-245610739D01*
G37*
G36*
X158968121Y-245336241D02*
G01*
X159065054Y-245356849D01*
X159158386Y-245391195D01*
X159248115Y-245439281D01*
X159269843Y-245453412D01*
X159351679Y-245519022D01*
X159425395Y-245599164D01*
X159483234Y-245681210D01*
X159534856Y-245774382D01*
X159560730Y-245831031D01*
X159597709Y-245931269D01*
X159624123Y-246032909D01*
X159639971Y-246135952D01*
X159645253Y-246240397D01*
X159644631Y-246274396D01*
X159635293Y-246372220D01*
X159611775Y-246473571D01*
X159574423Y-246567194D01*
X159523857Y-246650275D01*
X159453689Y-246726236D01*
X159368282Y-246786036D01*
X159272081Y-246828865D01*
X159169531Y-246853916D01*
X159070794Y-246861263D01*
X159007070Y-246858751D01*
X158900951Y-246842272D01*
X158801705Y-246810412D01*
X158709331Y-246763172D01*
X158623830Y-246700551D01*
X158548239Y-246629375D01*
X158477706Y-246545912D01*
X158424087Y-246460191D01*
X158383983Y-246361053D01*
X158625784Y-246329790D01*
X158630142Y-246340155D01*
X158679601Y-246435352D01*
X158739746Y-246515189D01*
X158818247Y-246585268D01*
X158872503Y-246619719D01*
X158966384Y-246659092D01*
X159069329Y-246673684D01*
X159126944Y-246668168D01*
X159223278Y-246628652D01*
X159299894Y-246558401D01*
X159326913Y-246519847D01*
X159367213Y-246427569D01*
X159387821Y-246327226D01*
X159393683Y-246224277D01*
X159388310Y-246142212D01*
X158314130Y-246142212D01*
X158311764Y-246128370D01*
X158298884Y-246025774D01*
X158294590Y-245925324D01*
X158295278Y-245899923D01*
X158528087Y-245899923D01*
X158529552Y-245954633D01*
X159348254Y-245954633D01*
X159321738Y-245876266D01*
X159279118Y-245783850D01*
X159221244Y-245696378D01*
X159152860Y-245626371D01*
X159067966Y-245568668D01*
X158968192Y-245529880D01*
X158861722Y-245516950D01*
X158791564Y-245523148D01*
X158698919Y-245555685D01*
X158621387Y-245616113D01*
X158568268Y-245694168D01*
X158537198Y-245792656D01*
X158528087Y-245899923D01*
X158295278Y-245899923D01*
X158295964Y-245874597D01*
X158309856Y-245764181D01*
X158338707Y-245664891D01*
X158382518Y-245576728D01*
X158450906Y-245489595D01*
X158470794Y-245470193D01*
X158558554Y-245405102D01*
X158659442Y-245360039D01*
X158758487Y-245337038D01*
X158867584Y-245329371D01*
X158968121Y-245336241D01*
G37*
G36*
X158116782Y-246329790D02*
G01*
X157868142Y-246298527D01*
X157860951Y-246397474D01*
X157835414Y-246491967D01*
X157776509Y-246576767D01*
X157713781Y-246622882D01*
X157617549Y-246660983D01*
X157514023Y-246673634D01*
X157506663Y-246673684D01*
X157403184Y-246665488D01*
X157305895Y-246634666D01*
X157259489Y-246604319D01*
X157195074Y-246523726D01*
X157176935Y-246441165D01*
X157204687Y-246343162D01*
X157226272Y-246312205D01*
X157306100Y-246250159D01*
X157395096Y-246202951D01*
X157474423Y-246167124D01*
X157564182Y-246128046D01*
X157658489Y-246084681D01*
X157726482Y-246048911D01*
X157807448Y-245988339D01*
X157865700Y-245917997D01*
X157903224Y-245825862D01*
X157912106Y-245744584D01*
X157898701Y-245642498D01*
X157858487Y-245549953D01*
X157791464Y-245466949D01*
X157774842Y-245451493D01*
X157688898Y-245392460D01*
X157597841Y-245356205D01*
X157492984Y-245335215D01*
X157389915Y-245329371D01*
X157291569Y-245333613D01*
X157188466Y-245349284D01*
X157085976Y-245381334D01*
X156999850Y-245428465D01*
X156971771Y-245450027D01*
X156901923Y-245523688D01*
X156853945Y-245609482D01*
X156827837Y-245707408D01*
X156822783Y-245767055D01*
X157065560Y-245798318D01*
X157083551Y-245701692D01*
X157133399Y-245617650D01*
X157158861Y-245592665D01*
X157249823Y-245540907D01*
X157350115Y-245519612D01*
X157407989Y-245516950D01*
X157509890Y-245528170D01*
X157599557Y-245568470D01*
X157608757Y-245575568D01*
X157670046Y-245652047D01*
X157680075Y-245701598D01*
X157645179Y-245793921D01*
X157618038Y-245820788D01*
X157530454Y-245872720D01*
X157436147Y-245916630D01*
X157405058Y-245930209D01*
X157305332Y-245974768D01*
X157207783Y-246022239D01*
X157121084Y-246070538D01*
X157045044Y-246126580D01*
X156982705Y-246204204D01*
X156940799Y-246301050D01*
X156926946Y-246399510D01*
X156926830Y-246409902D01*
X156941535Y-246512892D01*
X156981793Y-246607272D01*
X156993753Y-246627278D01*
X157059340Y-246706787D01*
X157140490Y-246767729D01*
X157196963Y-246797759D01*
X157296769Y-246833914D01*
X157397519Y-246853759D01*
X157496351Y-246861015D01*
X157519364Y-246861263D01*
X157626253Y-246855279D01*
X157725943Y-246837327D01*
X157831059Y-246802156D01*
X157926772Y-246751353D01*
X157949231Y-246736210D01*
X158026198Y-246663914D01*
X158079779Y-246572079D01*
X158107478Y-246475695D01*
X158117272Y-246364351D01*
X158116782Y-246329790D01*
G37*
G36*
X156388031Y-245048004D02*
G01*
X156328924Y-244797899D01*
X156081750Y-244797899D01*
X156140857Y-245048004D01*
X156388031Y-245048004D01*
G37*
G36*
X156750487Y-246830000D02*
G01*
X156445672Y-245360635D01*
X156197033Y-245360635D01*
X156501848Y-246830000D01*
X156750487Y-246830000D01*
G37*
G36*
X155387833Y-245331028D02*
G01*
X155493363Y-245349661D01*
X155586791Y-245384132D01*
X155678750Y-245435373D01*
X155688842Y-245442067D01*
X155766458Y-245502761D01*
X155838517Y-245576156D01*
X155905020Y-245662252D01*
X155958652Y-245748004D01*
X155986129Y-245800417D01*
X156025399Y-245895188D01*
X156053449Y-245993840D01*
X156070278Y-246096372D01*
X156075888Y-246202784D01*
X156073560Y-246275637D01*
X156061339Y-246376931D01*
X156033840Y-246482996D01*
X155992083Y-246576017D01*
X155926900Y-246666357D01*
X155847674Y-246737950D01*
X155759472Y-246789089D01*
X155662294Y-246819772D01*
X155556140Y-246830000D01*
X155501941Y-246827023D01*
X155395878Y-246803209D01*
X155305628Y-246762837D01*
X155217762Y-246704234D01*
X155144346Y-246639490D01*
X155168770Y-246757704D01*
X155182715Y-246823329D01*
X155207816Y-246923700D01*
X155241395Y-247025684D01*
X155288449Y-247114298D01*
X155322386Y-247149480D01*
X155408863Y-247201954D01*
X155507902Y-247228787D01*
X155612804Y-247236420D01*
X155693194Y-247230857D01*
X155787193Y-247202714D01*
X155793437Y-247199335D01*
X155861443Y-247128953D01*
X155875319Y-247086683D01*
X155881960Y-246986315D01*
X156133530Y-246955052D01*
X156140369Y-247032233D01*
X156140124Y-247046723D01*
X156122722Y-247148833D01*
X156077842Y-247239351D01*
X156056729Y-247266530D01*
X155980861Y-247331338D01*
X155888310Y-247376615D01*
X155795221Y-247403592D01*
X155690588Y-247419371D01*
X155585449Y-247423998D01*
X155562782Y-247423716D01*
X155454542Y-247413831D01*
X155354794Y-247389827D01*
X155263537Y-247351702D01*
X155182231Y-247301003D01*
X155106678Y-247231789D01*
X155045672Y-247148492D01*
X155008272Y-247076563D01*
X154970796Y-246980169D01*
X154941571Y-246880731D01*
X154919154Y-246783105D01*
X154743642Y-245934117D01*
X154992916Y-245934117D01*
X154994091Y-245976027D01*
X155007314Y-246083141D01*
X155031778Y-246182399D01*
X155068142Y-246284361D01*
X155077666Y-246306885D01*
X155125009Y-246398985D01*
X155186222Y-246483554D01*
X155264025Y-246554982D01*
X155316882Y-246589053D01*
X155407821Y-246627990D01*
X155506803Y-246642421D01*
X155585262Y-246631388D01*
X155676796Y-246584780D01*
X155681524Y-246581127D01*
X155747836Y-246508922D01*
X155794032Y-246417718D01*
X155802335Y-246391421D01*
X155818800Y-246290063D01*
X155822853Y-246184710D01*
X155822265Y-246165178D01*
X155808160Y-246065222D01*
X155785239Y-245967334D01*
X155766887Y-245906466D01*
X155727594Y-245811257D01*
X155673865Y-245721137D01*
X155664601Y-245708459D01*
X155597295Y-245631256D01*
X155515107Y-245567752D01*
X155439613Y-245533024D01*
X155339252Y-245516950D01*
X155260293Y-245525914D01*
X155166676Y-245565757D01*
X155092567Y-245630279D01*
X155080500Y-245644689D01*
X155028047Y-245734860D01*
X155000798Y-245832863D01*
X154992916Y-245934117D01*
X154743642Y-245934117D01*
X154625086Y-245360635D01*
X154853209Y-245360635D01*
X154902546Y-245600969D01*
X154912383Y-245584260D01*
X154976818Y-245495142D01*
X155050525Y-245425120D01*
X155148239Y-245367565D01*
X155242040Y-245338920D01*
X155345114Y-245329371D01*
X155387833Y-245331028D01*
G37*
G36*
X154562560Y-246830000D02*
G01*
X154257256Y-245360635D01*
X154032064Y-245360635D01*
X154085798Y-245626859D01*
X154013502Y-245554472D01*
X153935088Y-245485663D01*
X153851588Y-245424888D01*
X153811269Y-245400690D01*
X153714526Y-245357230D01*
X153616271Y-245333829D01*
X153549929Y-245329371D01*
X153446593Y-245339008D01*
X153350225Y-245371867D01*
X153271981Y-245428046D01*
X153210363Y-245511393D01*
X153178862Y-245604210D01*
X153170864Y-245691828D01*
X153179779Y-245796242D01*
X153196250Y-245895087D01*
X153206523Y-245947306D01*
X153391660Y-246830000D01*
X153640787Y-246830000D01*
X153446858Y-245886734D01*
X153428198Y-245786977D01*
X153418066Y-245687715D01*
X153418038Y-245683524D01*
X153446339Y-245588086D01*
X153468352Y-245563356D01*
X153558103Y-245521482D01*
X153612944Y-245516950D01*
X153717095Y-245528271D01*
X153814679Y-245562236D01*
X153905693Y-245618844D01*
X153953418Y-245660076D01*
X154022966Y-245744157D01*
X154075706Y-245838665D01*
X154114885Y-245935224D01*
X154148498Y-246046141D01*
X154172260Y-246149539D01*
X154313921Y-246830000D01*
X154562560Y-246830000D01*
G37*
G36*
X152275867Y-245336241D02*
G01*
X152372800Y-245356849D01*
X152466132Y-245391195D01*
X152555860Y-245439281D01*
X152577589Y-245453412D01*
X152659425Y-245519022D01*
X152733141Y-245599164D01*
X152790980Y-245681210D01*
X152842602Y-245774382D01*
X152868476Y-245831031D01*
X152905455Y-245931269D01*
X152931869Y-246032909D01*
X152947717Y-246135952D01*
X152952999Y-246240397D01*
X152952377Y-246274396D01*
X152943039Y-246372220D01*
X152919521Y-246473571D01*
X152882169Y-246567194D01*
X152831603Y-246650275D01*
X152761435Y-246726236D01*
X152676028Y-246786036D01*
X152579827Y-246828865D01*
X152477277Y-246853916D01*
X152378540Y-246861263D01*
X152314816Y-246858751D01*
X152208697Y-246842272D01*
X152109451Y-246810412D01*
X152017077Y-246763172D01*
X151931576Y-246700551D01*
X151855985Y-246629375D01*
X151785452Y-246545912D01*
X151731833Y-246460191D01*
X151691729Y-246361053D01*
X151933530Y-246329790D01*
X151937888Y-246340155D01*
X151987347Y-246435352D01*
X152047492Y-246515189D01*
X152125993Y-246585268D01*
X152180249Y-246619719D01*
X152274130Y-246659092D01*
X152377075Y-246673684D01*
X152434690Y-246668168D01*
X152531024Y-246628652D01*
X152607640Y-246558401D01*
X152634659Y-246519847D01*
X152674959Y-246427569D01*
X152695567Y-246327226D01*
X152701429Y-246224277D01*
X152696056Y-246142212D01*
X151621876Y-246142212D01*
X151619510Y-246128370D01*
X151606630Y-246025774D01*
X151602336Y-245925324D01*
X151603024Y-245899923D01*
X151835833Y-245899923D01*
X151837298Y-245954633D01*
X152656000Y-245954633D01*
X152629484Y-245876266D01*
X152586864Y-245783850D01*
X152528990Y-245696378D01*
X152460606Y-245626371D01*
X152375712Y-245568668D01*
X152275938Y-245529880D01*
X152169468Y-245516950D01*
X152099310Y-245523148D01*
X152006665Y-245555685D01*
X151929133Y-245616113D01*
X151876014Y-245694168D01*
X151844944Y-245792656D01*
X151835833Y-245899923D01*
X151603024Y-245899923D01*
X151603710Y-245874597D01*
X151617602Y-245764181D01*
X151646453Y-245664891D01*
X151690264Y-245576728D01*
X151758652Y-245489595D01*
X151778540Y-245470193D01*
X151866300Y-245405102D01*
X151967188Y-245360039D01*
X152066233Y-245337038D01*
X152175330Y-245329371D01*
X152275867Y-245336241D01*
G37*
G36*
X150270236Y-245610739D02*
G01*
X150326948Y-245515118D01*
X150393037Y-245439281D01*
X150481991Y-245375808D01*
X150583708Y-245339263D01*
X150681052Y-245329371D01*
X150722314Y-245331096D01*
X150825335Y-245350502D01*
X150917891Y-245386403D01*
X151010292Y-245439769D01*
X151030594Y-245454004D01*
X151107531Y-245519644D01*
X151177629Y-245599206D01*
X151233354Y-245680243D01*
X151283844Y-245771939D01*
X151315226Y-245842224D01*
X151350224Y-245944428D01*
X151374798Y-246051074D01*
X151388946Y-246162161D01*
X151392776Y-246260914D01*
X151391565Y-246314557D01*
X151381880Y-246414529D01*
X151358338Y-246518834D01*
X151315290Y-246621782D01*
X151255023Y-246707390D01*
X151200744Y-246759682D01*
X151110180Y-246817836D01*
X151008643Y-246851646D01*
X150909175Y-246861263D01*
X150822833Y-246852727D01*
X150723794Y-246821195D01*
X150626579Y-246766428D01*
X150544702Y-246700992D01*
X150464165Y-246618485D01*
X150508128Y-246830000D01*
X150278540Y-246830000D01*
X150089294Y-245914577D01*
X150347417Y-245914577D01*
X150350294Y-245999429D01*
X150361984Y-246100620D01*
X150382666Y-246196397D01*
X150419354Y-246304183D01*
X150468990Y-246404172D01*
X150531576Y-246496364D01*
X150566388Y-246537923D01*
X150648343Y-246611172D01*
X150735322Y-246656368D01*
X150837856Y-246673684D01*
X150921244Y-246662184D01*
X151012246Y-246613600D01*
X151071143Y-246550267D01*
X151115316Y-246462658D01*
X151128566Y-246413077D01*
X151142024Y-246314796D01*
X151145602Y-246214508D01*
X151141700Y-246147038D01*
X151124355Y-246048062D01*
X151096265Y-245948283D01*
X151070162Y-245875651D01*
X151029584Y-245786650D01*
X150974632Y-245697690D01*
X150906640Y-245617848D01*
X150829064Y-245557983D01*
X150766553Y-245531416D01*
X150665909Y-245516950D01*
X150608100Y-245521999D01*
X150512647Y-245558166D01*
X150438275Y-245622463D01*
X150427273Y-245635911D01*
X150379448Y-245721339D01*
X150354604Y-245815831D01*
X150347417Y-245914577D01*
X150089294Y-245914577D01*
X149858442Y-244797899D01*
X150105616Y-244797899D01*
X150270236Y-245610739D01*
G37*
G36*
X149113013Y-246830000D02*
G01*
X148894660Y-246830000D01*
X148836530Y-246554494D01*
X148797847Y-246635573D01*
X148740283Y-246717564D01*
X148664583Y-246785547D01*
X148607492Y-246818673D01*
X148513840Y-246850615D01*
X148410571Y-246861263D01*
X148330651Y-246854179D01*
X148236181Y-246829023D01*
X148230507Y-246826945D01*
X148140885Y-246785012D01*
X148058861Y-246730837D01*
X148026627Y-246704745D01*
X147952883Y-246631842D01*
X147891311Y-246555959D01*
X147838679Y-246474336D01*
X147792282Y-246380591D01*
X147755512Y-246284849D01*
X147739610Y-246233511D01*
X147717778Y-246137014D01*
X147704679Y-246035262D01*
X147700313Y-245928255D01*
X147700576Y-245916531D01*
X147945044Y-245916531D01*
X147947517Y-245980994D01*
X147960500Y-246081746D01*
X147984611Y-246187366D01*
X148015386Y-246285338D01*
X148024272Y-246309900D01*
X148068086Y-246410226D01*
X148124109Y-246502123D01*
X148194660Y-246579406D01*
X148243347Y-246616142D01*
X148331595Y-246658125D01*
X148434018Y-246673684D01*
X148482481Y-246670078D01*
X148576880Y-246637520D01*
X148656768Y-246571102D01*
X148667593Y-246557913D01*
X148714646Y-246472275D01*
X148739089Y-246375189D01*
X148746161Y-246272149D01*
X148744695Y-246227697D01*
X148739209Y-246154815D01*
X148718143Y-246053882D01*
X148688519Y-245958541D01*
X148663964Y-245891031D01*
X148620954Y-245794921D01*
X148567094Y-245704315D01*
X148500452Y-245625394D01*
X148442658Y-245577950D01*
X148350815Y-245532200D01*
X148252790Y-245516950D01*
X148205357Y-245520642D01*
X148112720Y-245553975D01*
X148033948Y-245621974D01*
X148028479Y-245628591D01*
X147976386Y-245721018D01*
X147952076Y-245816406D01*
X147945044Y-245916531D01*
X147700576Y-245916531D01*
X147701515Y-245874620D01*
X147711132Y-245774717D01*
X147734507Y-245670579D01*
X147777249Y-245567936D01*
X147837089Y-245482756D01*
X147890767Y-245430629D01*
X147980236Y-245372661D01*
X148080446Y-245338958D01*
X148178540Y-245329371D01*
X148281000Y-245339752D01*
X148379308Y-245370893D01*
X148428798Y-245395134D01*
X148515079Y-245450414D01*
X148593753Y-245512554D01*
X148443788Y-244797899D01*
X148692427Y-244797899D01*
X149113013Y-246830000D01*
G37*
G36*
X147649022Y-247394200D02*
G01*
X147633879Y-247151912D01*
X147534472Y-247171296D01*
X147483914Y-247173893D01*
X147387010Y-247154659D01*
X147361792Y-247139699D01*
X147290248Y-247064257D01*
X147234348Y-246978819D01*
X147229901Y-246971172D01*
X147150278Y-246829023D01*
X147393544Y-245360635D01*
X147148812Y-245360635D01*
X147038903Y-246093852D01*
X147023119Y-246202509D01*
X147008495Y-246311106D01*
X146995031Y-246419641D01*
X146982727Y-246528115D01*
X146330110Y-245360635D01*
X146070236Y-245360635D01*
X147000313Y-247013182D01*
X147049806Y-247100680D01*
X147104857Y-247187784D01*
X147164223Y-247267583D01*
X147233108Y-247337707D01*
X147239671Y-247342909D01*
X147329530Y-247395411D01*
X147430031Y-247421147D01*
X147480006Y-247423998D01*
X147581302Y-247413493D01*
X147649022Y-247394200D01*
G37*
G36*
X145358512Y-246236001D02*
G01*
X145108408Y-246236001D01*
X145124894Y-246334797D01*
X145130389Y-246403551D01*
X145113048Y-246501493D01*
X145061024Y-246577452D01*
X144972021Y-246628146D01*
X144868073Y-246642421D01*
X144769496Y-246628128D01*
X144710780Y-246601877D01*
X144635408Y-246533641D01*
X144599894Y-246475847D01*
X144564325Y-246378110D01*
X144538886Y-246273925D01*
X144532483Y-246243328D01*
X144233041Y-244797899D01*
X143965351Y-244797899D01*
X144271632Y-246284361D01*
X144298868Y-246394465D01*
X144332219Y-246492135D01*
X144378855Y-246590370D01*
X144433813Y-246671681D01*
X144487542Y-246727906D01*
X144568265Y-246786250D01*
X144659489Y-246827923D01*
X144761216Y-246852928D01*
X144858843Y-246861132D01*
X144873446Y-246861263D01*
X144977023Y-246855699D01*
X145081086Y-246835717D01*
X145179910Y-246795867D01*
X145251534Y-246745003D01*
X145318767Y-246663182D01*
X145361100Y-246563042D01*
X145377908Y-246457254D01*
X145379029Y-246418695D01*
X145373238Y-246320909D01*
X145358512Y-246236001D01*
G37*
G36*
X143173176Y-245329812D02*
G01*
X143277768Y-245338297D01*
X143374039Y-245357581D01*
X143473873Y-245392844D01*
X143562839Y-245442212D01*
X143640722Y-245504829D01*
X143707308Y-245579842D01*
X143762599Y-245667251D01*
X143806593Y-245767055D01*
X143555512Y-245798318D01*
X143536569Y-245749923D01*
X143482449Y-245659915D01*
X143410431Y-245590223D01*
X143349895Y-245554803D01*
X143255236Y-245525608D01*
X143154465Y-245516950D01*
X143094965Y-245519509D01*
X142992658Y-245539979D01*
X142901429Y-245589734D01*
X142863030Y-245634202D01*
X142838415Y-245733349D01*
X142845620Y-245813339D01*
X142867235Y-245911646D01*
X142894713Y-245921187D01*
X142991685Y-245942544D01*
X143094381Y-245954694D01*
X143203313Y-245961472D01*
X143310902Y-245966784D01*
X143418942Y-245974627D01*
X143520829Y-245987850D01*
X143561501Y-245996423D01*
X143657872Y-246026078D01*
X143746509Y-246069916D01*
X143757848Y-246077146D01*
X143833883Y-246140737D01*
X143894032Y-246220858D01*
X143903984Y-246238784D01*
X143939061Y-246335885D01*
X143949720Y-246437745D01*
X143949237Y-246460689D01*
X143932340Y-246567622D01*
X143891305Y-246661579D01*
X143826133Y-246742561D01*
X143794007Y-246770381D01*
X143702941Y-246823705D01*
X143607848Y-246851873D01*
X143500313Y-246861263D01*
X143441672Y-246858855D01*
X143344734Y-246843525D01*
X143244835Y-246810949D01*
X143161459Y-246768864D01*
X143075889Y-246712465D01*
X142996195Y-246648771D01*
X142987433Y-246731704D01*
X142967375Y-246830000D01*
X142715805Y-246830000D01*
X142735414Y-246734503D01*
X142746091Y-246631186D01*
X142741531Y-246548340D01*
X142727851Y-246450255D01*
X142707500Y-246347864D01*
X142647037Y-246075778D01*
X142904360Y-246075778D01*
X142914092Y-246129755D01*
X142936257Y-246228185D01*
X142965499Y-246323738D01*
X143007431Y-246418695D01*
X143038406Y-246468743D01*
X143108333Y-246548296D01*
X143187193Y-246606273D01*
X143230218Y-246629182D01*
X143325795Y-246662559D01*
X143424597Y-246673684D01*
X143441028Y-246673413D01*
X143542689Y-246656343D01*
X143630250Y-246604319D01*
X143684472Y-246525062D01*
X143702546Y-246426999D01*
X143697178Y-246372982D01*
X143657117Y-246279476D01*
X143608951Y-246227931D01*
X143522295Y-246182267D01*
X143516583Y-246180385D01*
X143419672Y-246157731D01*
X143316489Y-246142609D01*
X143216014Y-246131953D01*
X143115407Y-246121876D01*
X143016223Y-246108018D01*
X143001439Y-246105056D01*
X142904360Y-246075778D01*
X142647037Y-246075778D01*
X142626412Y-245982965D01*
X142613088Y-245917018D01*
X142597861Y-245812341D01*
X142592218Y-245710879D01*
X142601762Y-245628374D01*
X142644180Y-245532673D01*
X142712874Y-245459309D01*
X142733096Y-245443574D01*
X142822764Y-245390787D01*
X142926476Y-245354242D01*
X143028744Y-245335589D01*
X143141764Y-245329371D01*
X143173176Y-245329812D01*
G37*
G36*
X142422713Y-246830000D02*
G01*
X142117410Y-245360635D01*
X141897591Y-245360635D01*
X141959629Y-245614647D01*
X141896581Y-245538754D01*
X141827525Y-245468477D01*
X141746044Y-245403665D01*
X141739322Y-245399225D01*
X141650802Y-245353998D01*
X141553670Y-245331077D01*
X141518526Y-245329371D01*
X141418300Y-245340393D01*
X141335833Y-245360635D01*
X141437438Y-245610739D01*
X141509532Y-245537558D01*
X141579098Y-245516950D01*
X141677879Y-245539207D01*
X141761666Y-245591757D01*
X141838216Y-245665482D01*
X141846789Y-245675219D01*
X141904037Y-245756333D01*
X141948642Y-245845096D01*
X141989125Y-245951617D01*
X142019713Y-246053948D01*
X142047438Y-246168611D01*
X142062699Y-246243328D01*
X142186286Y-246830000D01*
X142422713Y-246830000D01*
G37*
G36*
X140712948Y-245331411D02*
G01*
X140811199Y-245343873D01*
X140920788Y-245373784D01*
X141021309Y-245420008D01*
X141112763Y-245482548D01*
X141195149Y-245561402D01*
X141267623Y-245652943D01*
X141327813Y-245751711D01*
X141375719Y-245857706D01*
X141411342Y-245970929D01*
X141430996Y-246066710D01*
X141442788Y-246167117D01*
X141446719Y-246272149D01*
X141446647Y-246283039D01*
X141438061Y-246387586D01*
X141415163Y-246484215D01*
X141373446Y-246581360D01*
X141320953Y-246659098D01*
X141248444Y-246730946D01*
X141160466Y-246788478D01*
X141142883Y-246797292D01*
X141051358Y-246832831D01*
X140953823Y-246854155D01*
X140850278Y-246861263D01*
X140747726Y-246854027D01*
X140647678Y-246832320D01*
X140550134Y-246796141D01*
X140455093Y-246745491D01*
X140431981Y-246730564D01*
X140346252Y-246662955D01*
X140271270Y-246582706D01*
X140214475Y-246502119D01*
X140165909Y-246411856D01*
X140142096Y-246356962D01*
X140108062Y-246258254D01*
X140083752Y-246156179D01*
X140069166Y-246050739D01*
X140064304Y-245941933D01*
X140064412Y-245939002D01*
X140310501Y-245939002D01*
X140313157Y-246003207D01*
X140327102Y-246102148D01*
X140352999Y-246204249D01*
X140386461Y-246299748D01*
X140429203Y-246388897D01*
X140478025Y-246464960D01*
X140543997Y-246541304D01*
X140600623Y-246590036D01*
X140690054Y-246640956D01*
X140748879Y-246660899D01*
X140847835Y-246673684D01*
X140920711Y-246666937D01*
X141017546Y-246631514D01*
X141099405Y-246565729D01*
X141122532Y-246537160D01*
X141170231Y-246442303D01*
X141191912Y-246346918D01*
X141198080Y-246248702D01*
X141196350Y-246197838D01*
X141183959Y-246095439D01*
X141161932Y-245991758D01*
X141141049Y-245921721D01*
X141100108Y-245825139D01*
X141047626Y-245738722D01*
X141022901Y-245705969D01*
X140954375Y-245632866D01*
X140873725Y-245573614D01*
X140855501Y-245563488D01*
X140758973Y-245527796D01*
X140660745Y-245516950D01*
X140579898Y-245525721D01*
X140484723Y-245564705D01*
X140410152Y-245627836D01*
X140398085Y-245642046D01*
X140345632Y-245732685D01*
X140318384Y-245833416D01*
X140310501Y-245939002D01*
X140064412Y-245939002D01*
X140066831Y-245873399D01*
X140083410Y-245762172D01*
X140115464Y-245662024D01*
X140162991Y-245572956D01*
X140225993Y-245494968D01*
X140267896Y-245456156D01*
X140348940Y-245400688D01*
X140439801Y-245361068D01*
X140540480Y-245337296D01*
X140650976Y-245329371D01*
X140712948Y-245331411D01*
G37*
G36*
X139125435Y-246830000D02*
G01*
X138704849Y-244797899D01*
X138373655Y-244797899D01*
X138170445Y-246121207D01*
X138156552Y-246221831D01*
X138142731Y-246320386D01*
X138128739Y-246417286D01*
X138118177Y-246485617D01*
X138047416Y-246402246D01*
X137988502Y-246311686D01*
X137929408Y-246210844D01*
X137874103Y-246110437D01*
X137838275Y-246043049D01*
X137131925Y-244797899D01*
X136795358Y-244797899D01*
X137215456Y-246830000D01*
X137480703Y-246830000D01*
X137270655Y-245854982D01*
X137246359Y-245744348D01*
X137218963Y-245627989D01*
X137194813Y-245530780D01*
X137168679Y-245429908D01*
X137140561Y-245325372D01*
X137110458Y-245217172D01*
X137078371Y-245105309D01*
X137061583Y-245048004D01*
X137101564Y-245144785D01*
X137145425Y-245242362D01*
X137193166Y-245340733D01*
X137244788Y-245439899D01*
X137276028Y-245496922D01*
X138026342Y-246830000D01*
X138285728Y-246830000D01*
X138487961Y-245535512D01*
X138502150Y-245430008D01*
X138512752Y-245327014D01*
X138521461Y-245215349D01*
X138527528Y-245110530D01*
X138540466Y-245209637D01*
X138555385Y-245314627D01*
X138572208Y-245420590D01*
X138590841Y-245521917D01*
X138594939Y-245541863D01*
X138863118Y-246830000D01*
X139125435Y-246830000D01*
G37*
G36*
X136095266Y-245336241D02*
G01*
X136192200Y-245356849D01*
X136285532Y-245391195D01*
X136375260Y-245439281D01*
X136396988Y-245453412D01*
X136478825Y-245519022D01*
X136552541Y-245599164D01*
X136610380Y-245681210D01*
X136662001Y-245774382D01*
X136687876Y-245831031D01*
X136724855Y-245931269D01*
X136751268Y-246032909D01*
X136767117Y-246135952D01*
X136772399Y-246240397D01*
X136771777Y-246274396D01*
X136762439Y-246372220D01*
X136738921Y-246473571D01*
X136701569Y-246567194D01*
X136651003Y-246650275D01*
X136580835Y-246726236D01*
X136495428Y-246786036D01*
X136399227Y-246828865D01*
X136296677Y-246853916D01*
X136197940Y-246861263D01*
X136134216Y-246858751D01*
X136028097Y-246842272D01*
X135928851Y-246810412D01*
X135836477Y-246763172D01*
X135750976Y-246700551D01*
X135675385Y-246629375D01*
X135604852Y-246545912D01*
X135551233Y-246460191D01*
X135511129Y-246361053D01*
X135752930Y-246329790D01*
X135757288Y-246340155D01*
X135806747Y-246435352D01*
X135866892Y-246515189D01*
X135945393Y-246585268D01*
X135999649Y-246619719D01*
X136093530Y-246659092D01*
X136196475Y-246673684D01*
X136254090Y-246668168D01*
X136350424Y-246628652D01*
X136427040Y-246558401D01*
X136454059Y-246519847D01*
X136494359Y-246427569D01*
X136514967Y-246327226D01*
X136520829Y-246224277D01*
X136515456Y-246142212D01*
X135441276Y-246142212D01*
X135438910Y-246128370D01*
X135426030Y-246025774D01*
X135421736Y-245925324D01*
X135422424Y-245899923D01*
X135655232Y-245899923D01*
X135656698Y-245954633D01*
X136475400Y-245954633D01*
X136448884Y-245876266D01*
X136406264Y-245783850D01*
X136348390Y-245696378D01*
X136280006Y-245626371D01*
X136195112Y-245568668D01*
X136095338Y-245529880D01*
X135988868Y-245516950D01*
X135918709Y-245523148D01*
X135826065Y-245555685D01*
X135748533Y-245616113D01*
X135695414Y-245694168D01*
X135664344Y-245792656D01*
X135655232Y-245899923D01*
X135422424Y-245899923D01*
X135423110Y-245874597D01*
X135437001Y-245764181D01*
X135465853Y-245664891D01*
X135509664Y-245576728D01*
X135578052Y-245489595D01*
X135597940Y-245470193D01*
X135685700Y-245405102D01*
X135786587Y-245360039D01*
X135885633Y-245337038D01*
X135994730Y-245329371D01*
X136095266Y-245336241D01*
G37*
G36*
X135360676Y-247394200D02*
G01*
X135345533Y-247151912D01*
X135246126Y-247171296D01*
X135195567Y-247173893D01*
X135098664Y-247154659D01*
X135073446Y-247139699D01*
X135001902Y-247064257D01*
X134946002Y-246978819D01*
X134941555Y-246971172D01*
X134861932Y-246829023D01*
X135105198Y-245360635D01*
X134860466Y-245360635D01*
X134750557Y-246093852D01*
X134734773Y-246202509D01*
X134720149Y-246311106D01*
X134706685Y-246419641D01*
X134694381Y-246528115D01*
X134041764Y-245360635D01*
X133781890Y-245360635D01*
X134711967Y-247013182D01*
X134761460Y-247100680D01*
X134816511Y-247187784D01*
X134875877Y-247267583D01*
X134944761Y-247337707D01*
X134951325Y-247342909D01*
X135041184Y-247395411D01*
X135141685Y-247421147D01*
X135191660Y-247423998D01*
X135292955Y-247413493D01*
X135360676Y-247394200D01*
G37*
G36*
X133138951Y-245336241D02*
G01*
X133235885Y-245356849D01*
X133329216Y-245391195D01*
X133418945Y-245439281D01*
X133440673Y-245453412D01*
X133522510Y-245519022D01*
X133596225Y-245599164D01*
X133654064Y-245681210D01*
X133705686Y-245774382D01*
X133731561Y-245831031D01*
X133768539Y-245931269D01*
X133794953Y-246032909D01*
X133810801Y-246135952D01*
X133816084Y-246240397D01*
X133815461Y-246274396D01*
X133806123Y-246372220D01*
X133782605Y-246473571D01*
X133745253Y-246567194D01*
X133694687Y-246650275D01*
X133624519Y-246726236D01*
X133539112Y-246786036D01*
X133442912Y-246828865D01*
X133340362Y-246853916D01*
X133241625Y-246861263D01*
X133177900Y-246858751D01*
X133071782Y-246842272D01*
X132972536Y-246810412D01*
X132880162Y-246763172D01*
X132794660Y-246700551D01*
X132719069Y-246629375D01*
X132648537Y-246545912D01*
X132594918Y-246460191D01*
X132554814Y-246361053D01*
X132796614Y-246329790D01*
X132800972Y-246340155D01*
X132850432Y-246435352D01*
X132910576Y-246515189D01*
X132989078Y-246585268D01*
X133043334Y-246619719D01*
X133137215Y-246659092D01*
X133240159Y-246673684D01*
X133297775Y-246668168D01*
X133394108Y-246628652D01*
X133470724Y-246558401D01*
X133497744Y-246519847D01*
X133538044Y-246427569D01*
X133558652Y-246327226D01*
X133564514Y-246224277D01*
X133559140Y-246142212D01*
X132484960Y-246142212D01*
X132482594Y-246128370D01*
X132469714Y-246025774D01*
X132465421Y-245925324D01*
X132466109Y-245899923D01*
X132698917Y-245899923D01*
X132700382Y-245954633D01*
X133519084Y-245954633D01*
X133492569Y-245876266D01*
X133449949Y-245783850D01*
X133392074Y-245696378D01*
X133323690Y-245626371D01*
X133238797Y-245568668D01*
X133139023Y-245529880D01*
X133032553Y-245516950D01*
X132962394Y-245523148D01*
X132869750Y-245555685D01*
X132792218Y-245616113D01*
X132739098Y-245694168D01*
X132708028Y-245792656D01*
X132698917Y-245899923D01*
X132466109Y-245899923D01*
X132466795Y-245874597D01*
X132480686Y-245764181D01*
X132509537Y-245664891D01*
X132553348Y-245576728D01*
X132621736Y-245489595D01*
X132641625Y-245470193D01*
X132729384Y-245405102D01*
X132830272Y-245360039D01*
X132929318Y-245337038D01*
X133038415Y-245329371D01*
X133138951Y-245336241D01*
G37*
G36*
X132311059Y-246830000D02*
G01*
X132005756Y-245360635D01*
X131785937Y-245360635D01*
X131847975Y-245614647D01*
X131784927Y-245538754D01*
X131715872Y-245468477D01*
X131634390Y-245403665D01*
X131627668Y-245399225D01*
X131539148Y-245353998D01*
X131442016Y-245331077D01*
X131406872Y-245329371D01*
X131306646Y-245340393D01*
X131224179Y-245360635D01*
X131325784Y-245610739D01*
X131397878Y-245537558D01*
X131467445Y-245516950D01*
X131566226Y-245539207D01*
X131650012Y-245591757D01*
X131726562Y-245665482D01*
X131735135Y-245675219D01*
X131792383Y-245756333D01*
X131836988Y-245845096D01*
X131877471Y-245951617D01*
X131908059Y-246053948D01*
X131935784Y-246168611D01*
X131951045Y-246243328D01*
X132074632Y-246830000D01*
X132311059Y-246830000D01*
G37*
G36*
X131474283Y-246830000D02*
G01*
X131415177Y-246579895D01*
X131131855Y-246579895D01*
X131183146Y-246830000D01*
X131213581Y-246927647D01*
X131256915Y-247020917D01*
X131316153Y-247105002D01*
X131328226Y-247118206D01*
X131406514Y-247183144D01*
X131502643Y-247225587D01*
X131559280Y-247236420D01*
X131535833Y-247127976D01*
X131444690Y-247079356D01*
X131381179Y-247001011D01*
X131339451Y-246903864D01*
X131320410Y-246830000D01*
X131474283Y-246830000D01*
G37*
G36*
X129943369Y-246830000D02*
G01*
X129523272Y-244797899D01*
X128213641Y-244797899D01*
X128262001Y-245016741D01*
X129301987Y-245016741D01*
X129435344Y-245704528D01*
X128375819Y-245704528D01*
X128424179Y-245923370D01*
X129483216Y-245923370D01*
X129674214Y-246830000D01*
X129943369Y-246830000D01*
G37*
G36*
X128268352Y-246830000D02*
G01*
X127963048Y-245360635D01*
X127743230Y-245360635D01*
X127805267Y-245614647D01*
X127742220Y-245538754D01*
X127673164Y-245468477D01*
X127591682Y-245403665D01*
X127584960Y-245399225D01*
X127496440Y-245353998D01*
X127399308Y-245331077D01*
X127364165Y-245329371D01*
X127263938Y-245340393D01*
X127181471Y-245360635D01*
X127283076Y-245610739D01*
X127355171Y-245537558D01*
X127424737Y-245516950D01*
X127523518Y-245539207D01*
X127607305Y-245591757D01*
X127683855Y-245665482D01*
X127692427Y-245675219D01*
X127749675Y-245756333D01*
X127794280Y-245845096D01*
X127834763Y-245951617D01*
X127865351Y-246053948D01*
X127893076Y-246168611D01*
X127908338Y-246243328D01*
X128031925Y-246830000D01*
X128268352Y-246830000D01*
G37*
G36*
X126606920Y-245336241D02*
G01*
X126703854Y-245356849D01*
X126797186Y-245391195D01*
X126886914Y-245439281D01*
X126908642Y-245453412D01*
X126990479Y-245519022D01*
X127064194Y-245599164D01*
X127122034Y-245681210D01*
X127173655Y-245774382D01*
X127199530Y-245831031D01*
X127236509Y-245931269D01*
X127262922Y-246032909D01*
X127278770Y-246135952D01*
X127284053Y-246240397D01*
X127283431Y-246274396D01*
X127274093Y-246372220D01*
X127250575Y-246473571D01*
X127213223Y-246567194D01*
X127162657Y-246650275D01*
X127092488Y-246726236D01*
X127007082Y-246786036D01*
X126910881Y-246828865D01*
X126808331Y-246853916D01*
X126709594Y-246861263D01*
X126645869Y-246858751D01*
X126539751Y-246842272D01*
X126440505Y-246810412D01*
X126348131Y-246763172D01*
X126262630Y-246700551D01*
X126187039Y-246629375D01*
X126116506Y-246545912D01*
X126062887Y-246460191D01*
X126022783Y-246361053D01*
X126264583Y-246329790D01*
X126268942Y-246340155D01*
X126318401Y-246435352D01*
X126378546Y-246515189D01*
X126457047Y-246585268D01*
X126511303Y-246619719D01*
X126605184Y-246659092D01*
X126708128Y-246673684D01*
X126765744Y-246668168D01*
X126862078Y-246628652D01*
X126938694Y-246558401D01*
X126965713Y-246519847D01*
X127006013Y-246427569D01*
X127026621Y-246327226D01*
X127032483Y-246224277D01*
X127027110Y-246142212D01*
X125952930Y-246142212D01*
X125950563Y-246128370D01*
X125937683Y-246025774D01*
X125933390Y-245925324D01*
X125934078Y-245899923D01*
X126166886Y-245899923D01*
X126168352Y-245954633D01*
X126987054Y-245954633D01*
X126960538Y-245876266D01*
X126917918Y-245783850D01*
X126860044Y-245696378D01*
X126791660Y-245626371D01*
X126706766Y-245568668D01*
X126606992Y-245529880D01*
X126500522Y-245516950D01*
X126430363Y-245523148D01*
X126337719Y-245555685D01*
X126260187Y-245616113D01*
X126207068Y-245694168D01*
X126175998Y-245792656D01*
X126166886Y-245899923D01*
X125934078Y-245899923D01*
X125934764Y-245874597D01*
X125948655Y-245764181D01*
X125977507Y-245664891D01*
X126021318Y-245576728D01*
X126089706Y-245489595D01*
X126109594Y-245470193D01*
X126197354Y-245405102D01*
X126298241Y-245360039D01*
X126397287Y-245337038D01*
X126506384Y-245329371D01*
X126606920Y-245336241D01*
G37*
G36*
X126643648Y-245204319D02*
G01*
X126437507Y-245204319D01*
X126072120Y-244829162D01*
X126385239Y-244829162D01*
X126643648Y-245204319D01*
G37*
G36*
X124601290Y-245610739D02*
G01*
X124658002Y-245515118D01*
X124724090Y-245439281D01*
X124813045Y-245375808D01*
X124914762Y-245339263D01*
X125012106Y-245329371D01*
X125053368Y-245331096D01*
X125156389Y-245350502D01*
X125248944Y-245386403D01*
X125341345Y-245439769D01*
X125361648Y-245454004D01*
X125438585Y-245519644D01*
X125508682Y-245599206D01*
X125564408Y-245680243D01*
X125614897Y-245771939D01*
X125646279Y-245842224D01*
X125681278Y-245944428D01*
X125705852Y-246051074D01*
X125720000Y-246162161D01*
X125723830Y-246260914D01*
X125722619Y-246314557D01*
X125712933Y-246414529D01*
X125689392Y-246518834D01*
X125646344Y-246621782D01*
X125586077Y-246707390D01*
X125531798Y-246759682D01*
X125441234Y-246817836D01*
X125339697Y-246851646D01*
X125240229Y-246861263D01*
X125153887Y-246852727D01*
X125054848Y-246821195D01*
X124957632Y-246766428D01*
X124875756Y-246700992D01*
X124795218Y-246618485D01*
X124839182Y-246830000D01*
X124609594Y-246830000D01*
X124420348Y-245914577D01*
X124678470Y-245914577D01*
X124681348Y-245999429D01*
X124693038Y-246100620D01*
X124713720Y-246196397D01*
X124750408Y-246304183D01*
X124800044Y-246404172D01*
X124862630Y-246496364D01*
X124897442Y-246537923D01*
X124979397Y-246611172D01*
X125066376Y-246656368D01*
X125168910Y-246673684D01*
X125252298Y-246662184D01*
X125343299Y-246613600D01*
X125402197Y-246550267D01*
X125446370Y-246462658D01*
X125459620Y-246413077D01*
X125473077Y-246314796D01*
X125476656Y-246214508D01*
X125472753Y-246147038D01*
X125455408Y-246048062D01*
X125427319Y-245948283D01*
X125401216Y-245875651D01*
X125360637Y-245786650D01*
X125305686Y-245697690D01*
X125237694Y-245617848D01*
X125160117Y-245557983D01*
X125097606Y-245531416D01*
X124996963Y-245516950D01*
X124939154Y-245521999D01*
X124843701Y-245558166D01*
X124769329Y-245622463D01*
X124758326Y-245635911D01*
X124710502Y-245721339D01*
X124685657Y-245815831D01*
X124678470Y-245914577D01*
X124420348Y-245914577D01*
X124189496Y-244797899D01*
X124436670Y-244797899D01*
X124601290Y-245610739D01*
G37*
G36*
X123492336Y-245336241D02*
G01*
X123589269Y-245356849D01*
X123682601Y-245391195D01*
X123772329Y-245439281D01*
X123794058Y-245453412D01*
X123875894Y-245519022D01*
X123949610Y-245599164D01*
X124007449Y-245681210D01*
X124059071Y-245774382D01*
X124084945Y-245831031D01*
X124121924Y-245931269D01*
X124148337Y-246032909D01*
X124164186Y-246135952D01*
X124169468Y-246240397D01*
X124168846Y-246274396D01*
X124159508Y-246372220D01*
X124135990Y-246473571D01*
X124098638Y-246567194D01*
X124048072Y-246650275D01*
X123977904Y-246726236D01*
X123892497Y-246786036D01*
X123796296Y-246828865D01*
X123693746Y-246853916D01*
X123595009Y-246861263D01*
X123531285Y-246858751D01*
X123425166Y-246842272D01*
X123325920Y-246810412D01*
X123233546Y-246763172D01*
X123148045Y-246700551D01*
X123072454Y-246629375D01*
X123001921Y-246545912D01*
X122948302Y-246460191D01*
X122908198Y-246361053D01*
X123149999Y-246329790D01*
X123154357Y-246340155D01*
X123203816Y-246435352D01*
X123263961Y-246515189D01*
X123342462Y-246585268D01*
X123396718Y-246619719D01*
X123490599Y-246659092D01*
X123593544Y-246673684D01*
X123651159Y-246668168D01*
X123747493Y-246628652D01*
X123824109Y-246558401D01*
X123851128Y-246519847D01*
X123891428Y-246427569D01*
X123912036Y-246327226D01*
X123917898Y-246224277D01*
X123912525Y-246142212D01*
X122838345Y-246142212D01*
X122835979Y-246128370D01*
X122823099Y-246025774D01*
X122818805Y-245925324D01*
X122819493Y-245899923D01*
X123052302Y-245899923D01*
X123053767Y-245954633D01*
X123872469Y-245954633D01*
X123845953Y-245876266D01*
X123803333Y-245783850D01*
X123745459Y-245696378D01*
X123677075Y-245626371D01*
X123592181Y-245568668D01*
X123492407Y-245529880D01*
X123385937Y-245516950D01*
X123315778Y-245523148D01*
X123223134Y-245555685D01*
X123145602Y-245616113D01*
X123092483Y-245694168D01*
X123061413Y-245792656D01*
X123052302Y-245899923D01*
X122819493Y-245899923D01*
X122820179Y-245874597D01*
X122834071Y-245764181D01*
X122862922Y-245664891D01*
X122906733Y-245576728D01*
X122975121Y-245489595D01*
X122995009Y-245470193D01*
X123082769Y-245405102D01*
X123183656Y-245360039D01*
X123282702Y-245337038D01*
X123391799Y-245329371D01*
X123492336Y-245336241D01*
G37*
G36*
X123529064Y-245204319D02*
G01*
X123322923Y-245204319D01*
X122957535Y-244829162D01*
X123270655Y-244829162D01*
X123529064Y-245204319D01*
G37*
G36*
X122664444Y-246830000D02*
G01*
X122359140Y-245360635D01*
X122139322Y-245360635D01*
X122201359Y-245614647D01*
X122138312Y-245538754D01*
X122069256Y-245468477D01*
X121987774Y-245403665D01*
X121981052Y-245399225D01*
X121892532Y-245353998D01*
X121795400Y-245331077D01*
X121760257Y-245329371D01*
X121660030Y-245340393D01*
X121577563Y-245360635D01*
X121679168Y-245610739D01*
X121751263Y-245537558D01*
X121820829Y-245516950D01*
X121919610Y-245539207D01*
X122003397Y-245591757D01*
X122079947Y-245665482D01*
X122088519Y-245675219D01*
X122145767Y-245756333D01*
X122190372Y-245845096D01*
X122230856Y-245951617D01*
X122261443Y-246053948D01*
X122289169Y-246168611D01*
X122304430Y-246243328D01*
X122428017Y-246830000D01*
X122664444Y-246830000D01*
G37*
G36*
X121379238Y-245048004D02*
G01*
X121320131Y-244797899D01*
X121072957Y-244797899D01*
X121132064Y-245048004D01*
X121379238Y-245048004D01*
G37*
G36*
X121741694Y-246830000D02*
G01*
X121436879Y-245360635D01*
X121188240Y-245360635D01*
X121493055Y-246830000D01*
X121741694Y-246830000D01*
G37*
G36*
X120103802Y-246298527D02*
G01*
X119855163Y-246329790D01*
X119892933Y-246426029D01*
X119944030Y-246525980D01*
X120002701Y-246612654D01*
X120068945Y-246686051D01*
X120120899Y-246730348D01*
X120210078Y-246787623D01*
X120305180Y-246828534D01*
X120406205Y-246853080D01*
X120513153Y-246861263D01*
X120612930Y-246853876D01*
X120716428Y-246827345D01*
X120808691Y-246781519D01*
X120889718Y-246716398D01*
X120899057Y-246706901D01*
X120963598Y-246621813D01*
X121009699Y-246521399D01*
X121034910Y-246420964D01*
X121046003Y-246308795D01*
X121046579Y-246274591D01*
X121042045Y-246170032D01*
X121028440Y-246066222D01*
X121005767Y-245963159D01*
X120974024Y-245860844D01*
X120951813Y-245802714D01*
X120906449Y-245706530D01*
X120853278Y-245621005D01*
X120782952Y-245536314D01*
X120702428Y-245465544D01*
X120680703Y-245450027D01*
X120589173Y-245397240D01*
X120491415Y-245359535D01*
X120387429Y-245336912D01*
X120277214Y-245329371D01*
X120179094Y-245335940D01*
X120078404Y-245359532D01*
X119979727Y-245406583D01*
X119904988Y-245466636D01*
X119838399Y-245550644D01*
X119793602Y-245648793D01*
X119772078Y-245747910D01*
X119767235Y-245829581D01*
X120011967Y-245860844D01*
X120022152Y-245758052D01*
X120054197Y-245665007D01*
X120092567Y-245608297D01*
X120171106Y-245545853D01*
X120269093Y-245518377D01*
X120300662Y-245516950D01*
X120398751Y-245528437D01*
X120495094Y-245567168D01*
X120560048Y-245614159D01*
X120630011Y-245692938D01*
X120683897Y-245785292D01*
X120724482Y-245885297D01*
X120732483Y-245909692D01*
X120759838Y-246007664D01*
X120779378Y-246103743D01*
X120792017Y-246209570D01*
X120795009Y-246290223D01*
X120788479Y-246390597D01*
X120762761Y-246492601D01*
X120712455Y-246577941D01*
X120632927Y-246643390D01*
X120538814Y-246672188D01*
X120509245Y-246673684D01*
X120412589Y-246658366D01*
X120319480Y-246612413D01*
X120277703Y-246580872D01*
X120207125Y-246505635D01*
X120152781Y-246417402D01*
X120111866Y-246321841D01*
X120103802Y-246298527D01*
G37*
G36*
X117874842Y-246017159D02*
G01*
X117826970Y-245798318D01*
X116944765Y-245798318D01*
X117116712Y-246628255D01*
X117202685Y-246677409D01*
X117294521Y-246721800D01*
X117392218Y-246761428D01*
X117495777Y-246796294D01*
X117601839Y-246824718D01*
X117707047Y-246845020D01*
X117811400Y-246857202D01*
X117914897Y-246861263D01*
X118021326Y-246857095D01*
X118120794Y-246844593D01*
X118235340Y-246817244D01*
X118339010Y-246776873D01*
X118431803Y-246723478D01*
X118513720Y-246657060D01*
X118571422Y-246594549D01*
X118633510Y-246505586D01*
X118682751Y-246407589D01*
X118719147Y-246300559D01*
X118739665Y-246204467D01*
X118751261Y-246102102D01*
X118754116Y-246015694D01*
X118750216Y-245903273D01*
X118738517Y-245794072D01*
X118719018Y-245688091D01*
X118691719Y-245585330D01*
X118656621Y-245485789D01*
X118613724Y-245389469D01*
X118594381Y-245351842D01*
X118542272Y-245262223D01*
X118486084Y-245180213D01*
X118413275Y-245091845D01*
X118334593Y-245014434D01*
X118250037Y-244947979D01*
X118190403Y-244909762D01*
X118096923Y-244861122D01*
X117999665Y-244822545D01*
X117898629Y-244794031D01*
X117793814Y-244775581D01*
X117685221Y-244767195D01*
X117648184Y-244766636D01*
X117543740Y-244771521D01*
X117444852Y-244786175D01*
X117340245Y-244814340D01*
X117263746Y-244844794D01*
X117174187Y-244892617D01*
X117089542Y-244955452D01*
X117020543Y-245028496D01*
X117002895Y-245052400D01*
X116951069Y-245141387D01*
X116912910Y-245234771D01*
X116882788Y-245340752D01*
X116871981Y-245391898D01*
X117135763Y-245423161D01*
X117162752Y-245323357D01*
X117206836Y-245225894D01*
X117265448Y-245144119D01*
X117312595Y-245098318D01*
X117393910Y-245043771D01*
X117487282Y-245007076D01*
X117592709Y-244988232D01*
X117656489Y-244985478D01*
X117763894Y-244993019D01*
X117867759Y-245015642D01*
X117968081Y-245053346D01*
X118064863Y-245106133D01*
X118144137Y-245164574D01*
X118216118Y-245234748D01*
X118280806Y-245316657D01*
X118338201Y-245410300D01*
X118367724Y-245469078D01*
X118406238Y-245562438D01*
X118436783Y-245660435D01*
X118459361Y-245763069D01*
X118473969Y-245870339D01*
X118480610Y-245982246D01*
X118481052Y-246020579D01*
X118475797Y-246130528D01*
X118460032Y-246229933D01*
X118428356Y-246332578D01*
X118382374Y-246420872D01*
X118331576Y-246485129D01*
X118249480Y-246553944D01*
X118153156Y-246603098D01*
X118057203Y-246629979D01*
X117950357Y-246641807D01*
X117917828Y-246642421D01*
X117818051Y-246636136D01*
X117715458Y-246617279D01*
X117610048Y-246585852D01*
X117501822Y-246541854D01*
X117409482Y-246495586D01*
X117353139Y-246463635D01*
X117262281Y-246017159D01*
X117874842Y-246017159D01*
G37*
G36*
X116404500Y-245048004D02*
G01*
X116345393Y-244797899D01*
X116098219Y-244797899D01*
X116157326Y-245048004D01*
X116404500Y-245048004D01*
G37*
G36*
X116766956Y-246830000D02*
G01*
X116462141Y-245360635D01*
X116213502Y-245360635D01*
X116518317Y-246830000D01*
X116766956Y-246830000D01*
G37*
G36*
X116136321Y-246830000D02*
G01*
X115831018Y-245360635D01*
X115611199Y-245360635D01*
X115673237Y-245614647D01*
X115610189Y-245538754D01*
X115541133Y-245468477D01*
X115459651Y-245403665D01*
X115452930Y-245399225D01*
X115364410Y-245353998D01*
X115267277Y-245331077D01*
X115232134Y-245329371D01*
X115131908Y-245340393D01*
X115049440Y-245360635D01*
X115151045Y-245610739D01*
X115223140Y-245537558D01*
X115292706Y-245516950D01*
X115391487Y-245539207D01*
X115475274Y-245591757D01*
X115551824Y-245665482D01*
X115560396Y-245675219D01*
X115617645Y-245756333D01*
X115662250Y-245845096D01*
X115702733Y-245951617D01*
X115733320Y-246053948D01*
X115761046Y-246168611D01*
X115776307Y-246243328D01*
X115899894Y-246830000D01*
X116136321Y-246830000D01*
G37*
G36*
X114397461Y-245329812D02*
G01*
X114502053Y-245338297D01*
X114598324Y-245357581D01*
X114698158Y-245392844D01*
X114787124Y-245442212D01*
X114865007Y-245504829D01*
X114931593Y-245579842D01*
X114986884Y-245667251D01*
X115030878Y-245767055D01*
X114779796Y-245798318D01*
X114760854Y-245749923D01*
X114706734Y-245659915D01*
X114634716Y-245590223D01*
X114574180Y-245554803D01*
X114479521Y-245525608D01*
X114378750Y-245516950D01*
X114319250Y-245519509D01*
X114216942Y-245539979D01*
X114125714Y-245589734D01*
X114087314Y-245634202D01*
X114062699Y-245733349D01*
X114069904Y-245813339D01*
X114091520Y-245911646D01*
X114118997Y-245921187D01*
X114215969Y-245942544D01*
X114318666Y-245954694D01*
X114427598Y-245961472D01*
X114535187Y-245966784D01*
X114643226Y-245974627D01*
X114745114Y-245987850D01*
X114785786Y-245996423D01*
X114882157Y-246026078D01*
X114970794Y-246069916D01*
X114982132Y-246077146D01*
X115058167Y-246140737D01*
X115118317Y-246220858D01*
X115128269Y-246238784D01*
X115163345Y-246335885D01*
X115174004Y-246437745D01*
X115173521Y-246460689D01*
X115156625Y-246567622D01*
X115115590Y-246661579D01*
X115050417Y-246742561D01*
X115018292Y-246770381D01*
X114927225Y-246823705D01*
X114832132Y-246851873D01*
X114724597Y-246861263D01*
X114665957Y-246858855D01*
X114569019Y-246843525D01*
X114469119Y-246810949D01*
X114385743Y-246768864D01*
X114300174Y-246712465D01*
X114220480Y-246648771D01*
X114211717Y-246731704D01*
X114191660Y-246830000D01*
X113940089Y-246830000D01*
X113959698Y-246734503D01*
X113970375Y-246631186D01*
X113965815Y-246548340D01*
X113952136Y-246450255D01*
X113931785Y-246347864D01*
X113871321Y-246075778D01*
X114128645Y-246075778D01*
X114138376Y-246129755D01*
X114160541Y-246228185D01*
X114189783Y-246323738D01*
X114231715Y-246418695D01*
X114262690Y-246468743D01*
X114332618Y-246548296D01*
X114411478Y-246606273D01*
X114454503Y-246629182D01*
X114550080Y-246662559D01*
X114648882Y-246673684D01*
X114665313Y-246673413D01*
X114766974Y-246656343D01*
X114854535Y-246604319D01*
X114908757Y-246525062D01*
X114926830Y-246426999D01*
X114921462Y-246372982D01*
X114881401Y-246279476D01*
X114833236Y-246227931D01*
X114746579Y-246182267D01*
X114740868Y-246180385D01*
X114643957Y-246157731D01*
X114540774Y-246142609D01*
X114440299Y-246131953D01*
X114339692Y-246121876D01*
X114240508Y-246108018D01*
X114225724Y-246105056D01*
X114128645Y-246075778D01*
X113871321Y-246075778D01*
X113850696Y-245982965D01*
X113837373Y-245917018D01*
X113822146Y-245812341D01*
X113816502Y-245710879D01*
X113826047Y-245628374D01*
X113868465Y-245532673D01*
X113937158Y-245459309D01*
X113957381Y-245443574D01*
X114047049Y-245390787D01*
X114150760Y-245354242D01*
X114253028Y-245335589D01*
X114366049Y-245329371D01*
X114397461Y-245329812D01*
G37*
G36*
X112650976Y-246564263D02*
G01*
X112733248Y-246649825D01*
X112816116Y-246720884D01*
X112899581Y-246777441D01*
X113000526Y-246826168D01*
X113102329Y-246854012D01*
X113187821Y-246861263D01*
X113287112Y-246851865D01*
X113381675Y-246819819D01*
X113460885Y-246765031D01*
X113523991Y-246686514D01*
X113559488Y-246587967D01*
X113564444Y-246529092D01*
X113556704Y-246431673D01*
X113540218Y-246326782D01*
X113520434Y-246224116D01*
X113517549Y-246210111D01*
X113341694Y-245360635D01*
X113093055Y-245360635D01*
X113287961Y-246303900D01*
X113305843Y-246402783D01*
X113312874Y-246487083D01*
X113291416Y-246585868D01*
X113263048Y-246624347D01*
X113171470Y-246668866D01*
X113115037Y-246673684D01*
X113011844Y-246660739D01*
X112917541Y-246625090D01*
X112911339Y-246621905D01*
X112823926Y-246565419D01*
X112748535Y-246493047D01*
X112739392Y-246482198D01*
X112681275Y-246398663D01*
X112636519Y-246310044D01*
X112621666Y-246273126D01*
X112591477Y-246175574D01*
X112566473Y-246071429D01*
X112551813Y-246002993D01*
X112419922Y-245360635D01*
X112171283Y-245360635D01*
X112476098Y-246830000D01*
X112705686Y-246830000D01*
X112650976Y-246564263D01*
G37*
G36*
X110911967Y-245610739D02*
G01*
X110968679Y-245515118D01*
X111034767Y-245439281D01*
X111123722Y-245375808D01*
X111225439Y-245339263D01*
X111322783Y-245329371D01*
X111364045Y-245331096D01*
X111467066Y-245350502D01*
X111559621Y-245386403D01*
X111652022Y-245439769D01*
X111672325Y-245454004D01*
X111749262Y-245519644D01*
X111819359Y-245599206D01*
X111875085Y-245680243D01*
X111925574Y-245771939D01*
X111956956Y-245842224D01*
X111991955Y-245944428D01*
X112016529Y-246051074D01*
X112030677Y-246162161D01*
X112034507Y-246260914D01*
X112033296Y-246314557D01*
X112023610Y-246414529D01*
X112000068Y-246518834D01*
X111957021Y-246621782D01*
X111896754Y-246707390D01*
X111842475Y-246759682D01*
X111751911Y-246817836D01*
X111650374Y-246851646D01*
X111550906Y-246861263D01*
X111464564Y-246852727D01*
X111365525Y-246821195D01*
X111268309Y-246766428D01*
X111186433Y-246700992D01*
X111105895Y-246618485D01*
X111149859Y-246830000D01*
X110920271Y-246830000D01*
X110731025Y-245914577D01*
X110989147Y-245914577D01*
X110992025Y-245999429D01*
X111003715Y-246100620D01*
X111024397Y-246196397D01*
X111061084Y-246304183D01*
X111110721Y-246404172D01*
X111173306Y-246496364D01*
X111208119Y-246537923D01*
X111290074Y-246611172D01*
X111377053Y-246656368D01*
X111479587Y-246673684D01*
X111562975Y-246662184D01*
X111653976Y-246613600D01*
X111712874Y-246550267D01*
X111757047Y-246462658D01*
X111770297Y-246413077D01*
X111783754Y-246314796D01*
X111787333Y-246214508D01*
X111783430Y-246147038D01*
X111766085Y-246048062D01*
X111737996Y-245948283D01*
X111711892Y-245875651D01*
X111671314Y-245786650D01*
X111616363Y-245697690D01*
X111548371Y-245617848D01*
X111470794Y-245557983D01*
X111408283Y-245531416D01*
X111307640Y-245516950D01*
X111249831Y-245521999D01*
X111154378Y-245558166D01*
X111080006Y-245622463D01*
X111069003Y-245635911D01*
X111021178Y-245721339D01*
X110996334Y-245815831D01*
X110989147Y-245914577D01*
X110731025Y-245914577D01*
X110500173Y-244797899D01*
X110747347Y-244797899D01*
X110911967Y-245610739D01*
G37*
G36*
X108947914Y-245329812D02*
G01*
X109052507Y-245338297D01*
X109148777Y-245357581D01*
X109248612Y-245392844D01*
X109337577Y-245442212D01*
X109415460Y-245504829D01*
X109482047Y-245579842D01*
X109537337Y-245667251D01*
X109581332Y-245767055D01*
X109330250Y-245798318D01*
X109311308Y-245749923D01*
X109257187Y-245659915D01*
X109185170Y-245590223D01*
X109124634Y-245554803D01*
X109029974Y-245525608D01*
X108929203Y-245516950D01*
X108869703Y-245519509D01*
X108767396Y-245539979D01*
X108676168Y-245589734D01*
X108637768Y-245634202D01*
X108613153Y-245733349D01*
X108620358Y-245813339D01*
X108641974Y-245911646D01*
X108669451Y-245921187D01*
X108766423Y-245942544D01*
X108869119Y-245954694D01*
X108978052Y-245961472D01*
X109085641Y-245966784D01*
X109193680Y-245974627D01*
X109295567Y-245987850D01*
X109336240Y-245996423D01*
X109432611Y-246026078D01*
X109521248Y-246069916D01*
X109532586Y-246077146D01*
X109608621Y-246140737D01*
X109668770Y-246220858D01*
X109678722Y-246238784D01*
X109713799Y-246335885D01*
X109724458Y-246437745D01*
X109723975Y-246460689D01*
X109707078Y-246567622D01*
X109666044Y-246661579D01*
X109600871Y-246742561D01*
X109568745Y-246770381D01*
X109477679Y-246823705D01*
X109382586Y-246851873D01*
X109275051Y-246861263D01*
X109216410Y-246858855D01*
X109119473Y-246843525D01*
X109019573Y-246810949D01*
X108936197Y-246768864D01*
X108850628Y-246712465D01*
X108770934Y-246648771D01*
X108762171Y-246731704D01*
X108742113Y-246830000D01*
X108490543Y-246830000D01*
X108510152Y-246734503D01*
X108520829Y-246631186D01*
X108516269Y-246548340D01*
X108502589Y-246450255D01*
X108482239Y-246347864D01*
X108421775Y-246075778D01*
X108679098Y-246075778D01*
X108688830Y-246129755D01*
X108710995Y-246228185D01*
X108740237Y-246323738D01*
X108782169Y-246418695D01*
X108813144Y-246468743D01*
X108883072Y-246548296D01*
X108961932Y-246606273D01*
X109004957Y-246629182D01*
X109100534Y-246662559D01*
X109199336Y-246673684D01*
X109215767Y-246673413D01*
X109317427Y-246656343D01*
X109404988Y-246604319D01*
X109459210Y-246525062D01*
X109477284Y-246426999D01*
X109471916Y-246372982D01*
X109431855Y-246279476D01*
X109383689Y-246227931D01*
X109297033Y-246182267D01*
X109291321Y-246180385D01*
X109194411Y-246157731D01*
X109091228Y-246142609D01*
X108990752Y-246131953D01*
X108890146Y-246121876D01*
X108790962Y-246108018D01*
X108776177Y-246105056D01*
X108679098Y-246075778D01*
X108421775Y-246075778D01*
X108401150Y-245982965D01*
X108387826Y-245917018D01*
X108372599Y-245812341D01*
X108366956Y-245710879D01*
X108376500Y-245628374D01*
X108418918Y-245532673D01*
X108487612Y-245459309D01*
X108507835Y-245443574D01*
X108597502Y-245390787D01*
X108701214Y-245354242D01*
X108803482Y-245335589D01*
X108916502Y-245329371D01*
X108947914Y-245329812D01*
G37*
G36*
X108197452Y-246830000D02*
G01*
X107892148Y-245360635D01*
X107666956Y-245360635D01*
X107720690Y-245626859D01*
X107648394Y-245554472D01*
X107569980Y-245485663D01*
X107486480Y-245424888D01*
X107446161Y-245400690D01*
X107349417Y-245357230D01*
X107251163Y-245333829D01*
X107184821Y-245329371D01*
X107081485Y-245339008D01*
X106985116Y-245371867D01*
X106906872Y-245428046D01*
X106845254Y-245511393D01*
X106813754Y-245604210D01*
X106805756Y-245691828D01*
X106814671Y-245796242D01*
X106831142Y-245895087D01*
X106841415Y-245947306D01*
X107026551Y-246830000D01*
X107275679Y-246830000D01*
X107081750Y-245886734D01*
X107063090Y-245786977D01*
X107052958Y-245687715D01*
X107052930Y-245683524D01*
X107081231Y-245588086D01*
X107103244Y-245563356D01*
X107192995Y-245521482D01*
X107247835Y-245516950D01*
X107351987Y-245528271D01*
X107449570Y-245562236D01*
X107540585Y-245618844D01*
X107588310Y-245660076D01*
X107657858Y-245744157D01*
X107710598Y-245838665D01*
X107749776Y-245935224D01*
X107783390Y-246046141D01*
X107807151Y-246149539D01*
X107948812Y-246830000D01*
X108197452Y-246830000D01*
G37*
G36*
X105462420Y-245610739D02*
G01*
X105519132Y-245515118D01*
X105585221Y-245439281D01*
X105674175Y-245375808D01*
X105775892Y-245339263D01*
X105873237Y-245329371D01*
X105914498Y-245331096D01*
X106017519Y-245350502D01*
X106110075Y-245386403D01*
X106202476Y-245439769D01*
X106222779Y-245454004D01*
X106299715Y-245519644D01*
X106369813Y-245599206D01*
X106425538Y-245680243D01*
X106476028Y-245771939D01*
X106507410Y-245842224D01*
X106542409Y-245944428D01*
X106566982Y-246051074D01*
X106581131Y-246162161D01*
X106584960Y-246260914D01*
X106583750Y-246314557D01*
X106574064Y-246414529D01*
X106550522Y-246518834D01*
X106507474Y-246621782D01*
X106447207Y-246707390D01*
X106392928Y-246759682D01*
X106302365Y-246817836D01*
X106200827Y-246851646D01*
X106101359Y-246861263D01*
X106015018Y-246852727D01*
X105915979Y-246821195D01*
X105818763Y-246766428D01*
X105736886Y-246700992D01*
X105656349Y-246618485D01*
X105700313Y-246830000D01*
X105470724Y-246830000D01*
X105281478Y-245914577D01*
X105539601Y-245914577D01*
X105542478Y-245999429D01*
X105554168Y-246100620D01*
X105574850Y-246196397D01*
X105611538Y-246304183D01*
X105661175Y-246404172D01*
X105723760Y-246496364D01*
X105758572Y-246537923D01*
X105840528Y-246611172D01*
X105927506Y-246656368D01*
X106030041Y-246673684D01*
X106113428Y-246662184D01*
X106204430Y-246613600D01*
X106263327Y-246550267D01*
X106307500Y-246462658D01*
X106320751Y-246413077D01*
X106334208Y-246314796D01*
X106337787Y-246214508D01*
X106333884Y-246147038D01*
X106316539Y-246048062D01*
X106288449Y-245948283D01*
X106262346Y-245875651D01*
X106221768Y-245786650D01*
X106166817Y-245697690D01*
X106098824Y-245617848D01*
X106021248Y-245557983D01*
X105958737Y-245531416D01*
X105858094Y-245516950D01*
X105800284Y-245521999D01*
X105704831Y-245558166D01*
X105630459Y-245622463D01*
X105619457Y-245635911D01*
X105571632Y-245721339D01*
X105546788Y-245815831D01*
X105539601Y-245914577D01*
X105281478Y-245914577D01*
X105050627Y-244797899D01*
X105297800Y-244797899D01*
X105462420Y-245610739D01*
G37*
G36*
X104285658Y-246830000D02*
G01*
X103865560Y-244797899D01*
X103595916Y-244797899D01*
X103968631Y-246611158D01*
X102922783Y-246611158D01*
X102971143Y-246830000D01*
X104285658Y-246830000D01*
G37*
G36*
X102394730Y-245048004D02*
G01*
X102335623Y-244797899D01*
X102088449Y-244797899D01*
X102147556Y-245048004D01*
X102394730Y-245048004D01*
G37*
G36*
X102757186Y-246830000D02*
G01*
X102452371Y-245360635D01*
X102203732Y-245360635D01*
X102508547Y-246830000D01*
X102757186Y-246830000D01*
G37*
G36*
X102145602Y-246830000D02*
G01*
X101725016Y-244797899D01*
X101476377Y-244797899D01*
X101896963Y-246830000D01*
X102145602Y-246830000D01*
G37*
G36*
X101152022Y-245048004D02*
G01*
X101092916Y-244797899D01*
X100845742Y-244797899D01*
X100904849Y-245048004D01*
X101152022Y-245048004D01*
G37*
G36*
X101514479Y-246830000D02*
G01*
X101209664Y-245360635D01*
X100961024Y-245360635D01*
X101265840Y-246830000D01*
X101514479Y-246830000D01*
G37*
G36*
X100077014Y-245329812D02*
G01*
X100181606Y-245338297D01*
X100277877Y-245357581D01*
X100377711Y-245392844D01*
X100466677Y-245442212D01*
X100544560Y-245504829D01*
X100611147Y-245579842D01*
X100666437Y-245667251D01*
X100710431Y-245767055D01*
X100459350Y-245798318D01*
X100440407Y-245749923D01*
X100386287Y-245659915D01*
X100314269Y-245590223D01*
X100253733Y-245554803D01*
X100159074Y-245525608D01*
X100058303Y-245516950D01*
X99998803Y-245519509D01*
X99896496Y-245539979D01*
X99805267Y-245589734D01*
X99766868Y-245634202D01*
X99742253Y-245733349D01*
X99749458Y-245813339D01*
X99771073Y-245911646D01*
X99798551Y-245921187D01*
X99895523Y-245942544D01*
X99998219Y-245954694D01*
X100107151Y-245961472D01*
X100214740Y-245966784D01*
X100322780Y-245974627D01*
X100424667Y-245987850D01*
X100465339Y-245996423D01*
X100561710Y-246026078D01*
X100650348Y-246069916D01*
X100661686Y-246077146D01*
X100737721Y-246140737D01*
X100797870Y-246220858D01*
X100807822Y-246238784D01*
X100842899Y-246335885D01*
X100853558Y-246437745D01*
X100853075Y-246460689D01*
X100836178Y-246567622D01*
X100795144Y-246661579D01*
X100729971Y-246742561D01*
X100697845Y-246770381D01*
X100606779Y-246823705D01*
X100511686Y-246851873D01*
X100404151Y-246861263D01*
X100345510Y-246858855D01*
X100248572Y-246843525D01*
X100148673Y-246810949D01*
X100065297Y-246768864D01*
X99979727Y-246712465D01*
X99900034Y-246648771D01*
X99891271Y-246731704D01*
X99871213Y-246830000D01*
X99619643Y-246830000D01*
X99639252Y-246734503D01*
X99649929Y-246631186D01*
X99645369Y-246548340D01*
X99631689Y-246450255D01*
X99611339Y-246347864D01*
X99550875Y-246075778D01*
X99808198Y-246075778D01*
X99817930Y-246129755D01*
X99840095Y-246228185D01*
X99869337Y-246323738D01*
X99911269Y-246418695D01*
X99942244Y-246468743D01*
X100012172Y-246548296D01*
X100091031Y-246606273D01*
X100134056Y-246629182D01*
X100229634Y-246662559D01*
X100328436Y-246673684D01*
X100344867Y-246673413D01*
X100446527Y-246656343D01*
X100534088Y-246604319D01*
X100588310Y-246525062D01*
X100606384Y-246426999D01*
X100601016Y-246372982D01*
X100560955Y-246279476D01*
X100512789Y-246227931D01*
X100426133Y-246182267D01*
X100420421Y-246180385D01*
X100323511Y-246157731D01*
X100220328Y-246142609D01*
X100119852Y-246131953D01*
X100019246Y-246121876D01*
X99920061Y-246108018D01*
X99905277Y-246105056D01*
X99808198Y-246075778D01*
X99550875Y-246075778D01*
X99530250Y-245982965D01*
X99516926Y-245917018D01*
X99501699Y-245812341D01*
X99496056Y-245710879D01*
X99505600Y-245628374D01*
X99548018Y-245532673D01*
X99616712Y-245459309D01*
X99636934Y-245443574D01*
X99726602Y-245390787D01*
X99830314Y-245354242D01*
X99932582Y-245335589D01*
X100045602Y-245329371D01*
X100077014Y-245329812D01*
G37*
G36*
X99326551Y-246830000D02*
G01*
X99021248Y-245360635D01*
X98796056Y-245360635D01*
X98849789Y-245626859D01*
X98777493Y-245554472D01*
X98699080Y-245485663D01*
X98615579Y-245424888D01*
X98575260Y-245400690D01*
X98478517Y-245357230D01*
X98380263Y-245333829D01*
X98313921Y-245329371D01*
X98210585Y-245339008D01*
X98114216Y-245371867D01*
X98035972Y-245428046D01*
X97974354Y-245511393D01*
X97942854Y-245604210D01*
X97934856Y-245691828D01*
X97943770Y-245796242D01*
X97960242Y-245895087D01*
X97970515Y-245947306D01*
X98155651Y-246830000D01*
X98404779Y-246830000D01*
X98210850Y-245886734D01*
X98192190Y-245786977D01*
X98182058Y-245687715D01*
X98182029Y-245683524D01*
X98210331Y-245588086D01*
X98232343Y-245563356D01*
X98322095Y-245521482D01*
X98376935Y-245516950D01*
X98481087Y-245528271D01*
X98578670Y-245562236D01*
X98669685Y-245618844D01*
X98717410Y-245660076D01*
X98786958Y-245744157D01*
X98839698Y-245838665D01*
X98878876Y-245935224D01*
X98912490Y-246046141D01*
X98936251Y-246149539D01*
X99077912Y-246830000D01*
X99326551Y-246830000D01*
G37*
G36*
X95388380Y-246110949D02*
G01*
X95121666Y-246142212D01*
X95164018Y-246248968D01*
X95211998Y-246347280D01*
X95265608Y-246437149D01*
X95324846Y-246518575D01*
X95403362Y-246605140D01*
X95489985Y-246679546D01*
X95582738Y-246741301D01*
X95679647Y-246790280D01*
X95780712Y-246826481D01*
X95885933Y-246849905D01*
X95995310Y-246860553D01*
X96032692Y-246861263D01*
X96143625Y-246855765D01*
X96247139Y-246839271D01*
X96343236Y-246811782D01*
X96448760Y-246764281D01*
X96543603Y-246700945D01*
X96614479Y-246636071D01*
X96687523Y-246544772D01*
X96736848Y-246458220D01*
X96775679Y-246362152D01*
X96804015Y-246256567D01*
X96821856Y-246141466D01*
X96828573Y-246042532D01*
X96829412Y-245990781D01*
X96826540Y-245889861D01*
X96817924Y-245792263D01*
X96797499Y-245667302D01*
X96766862Y-245548249D01*
X96726012Y-245435104D01*
X96674950Y-245327866D01*
X96613675Y-245226536D01*
X96542189Y-245131113D01*
X96502616Y-245085617D01*
X96427503Y-245010856D01*
X96347979Y-244946063D01*
X96264044Y-244891238D01*
X96175696Y-244846381D01*
X96082938Y-244811493D01*
X95985767Y-244786572D01*
X95884185Y-244771620D01*
X95778191Y-244766636D01*
X95662483Y-244772595D01*
X95555327Y-244790473D01*
X95456724Y-244820268D01*
X95366673Y-244861982D01*
X95272422Y-244925712D01*
X95259908Y-244936140D01*
X95180921Y-245015885D01*
X95117923Y-245106803D01*
X95070913Y-245208894D01*
X95043344Y-245305294D01*
X95029343Y-245391898D01*
X95280913Y-245423161D01*
X95306222Y-245319999D01*
X95347323Y-245220655D01*
X95401792Y-245139009D01*
X95445533Y-245094410D01*
X95530140Y-245036965D01*
X95628867Y-245000796D01*
X95729795Y-244986435D01*
X95765979Y-244985478D01*
X95877937Y-244993587D01*
X95983002Y-245017916D01*
X96081174Y-245058464D01*
X96172453Y-245115232D01*
X96256838Y-245188218D01*
X96334330Y-245277424D01*
X96363397Y-245317648D01*
X96420391Y-245409714D01*
X96467725Y-245507003D01*
X96505399Y-245609516D01*
X96533413Y-245717252D01*
X96551767Y-245830212D01*
X96560461Y-245948395D01*
X96561234Y-245997131D01*
X96555876Y-246109863D01*
X96539802Y-246212119D01*
X96507504Y-246318177D01*
X96460621Y-246409976D01*
X96408826Y-246477313D01*
X96326852Y-246549548D01*
X96233338Y-246601144D01*
X96128283Y-246632102D01*
X96026893Y-246642260D01*
X96011687Y-246642421D01*
X95909869Y-246633750D01*
X95812996Y-246607739D01*
X95721069Y-246564385D01*
X95634088Y-246503691D01*
X95555350Y-246427121D01*
X95495921Y-246348301D01*
X95445328Y-246258448D01*
X95403571Y-246157563D01*
X95388380Y-246110949D01*
G37*
G36*
X94164383Y-245329812D02*
G01*
X94268976Y-245338297D01*
X94365246Y-245357581D01*
X94465081Y-245392844D01*
X94554046Y-245442212D01*
X94631929Y-245504829D01*
X94698516Y-245579842D01*
X94753806Y-245667251D01*
X94797800Y-245767055D01*
X94546719Y-245798318D01*
X94527777Y-245749923D01*
X94473656Y-245659915D01*
X94401639Y-245590223D01*
X94341103Y-245554803D01*
X94246443Y-245525608D01*
X94145672Y-245516950D01*
X94086172Y-245519509D01*
X93983865Y-245539979D01*
X93892636Y-245589734D01*
X93854237Y-245634202D01*
X93829622Y-245733349D01*
X93836827Y-245813339D01*
X93858442Y-245911646D01*
X93885920Y-245921187D01*
X93982892Y-245942544D01*
X94085588Y-245954694D01*
X94194521Y-245961472D01*
X94302110Y-245966784D01*
X94410149Y-245974627D01*
X94512036Y-245987850D01*
X94552709Y-245996423D01*
X94649079Y-246026078D01*
X94737717Y-246069916D01*
X94749055Y-246077146D01*
X94825090Y-246140737D01*
X94885239Y-246220858D01*
X94895191Y-246238784D01*
X94930268Y-246335885D01*
X94940927Y-246437745D01*
X94940444Y-246460689D01*
X94923547Y-246567622D01*
X94882513Y-246661579D01*
X94817340Y-246742561D01*
X94785214Y-246770381D01*
X94694148Y-246823705D01*
X94599055Y-246851873D01*
X94491520Y-246861263D01*
X94432879Y-246858855D01*
X94335942Y-246843525D01*
X94236042Y-246810949D01*
X94152666Y-246768864D01*
X94067096Y-246712465D01*
X93987403Y-246648771D01*
X93978640Y-246731704D01*
X93958582Y-246830000D01*
X93707012Y-246830000D01*
X93726621Y-246734503D01*
X93737298Y-246631186D01*
X93732738Y-246548340D01*
X93719058Y-246450255D01*
X93698708Y-246347864D01*
X93638244Y-246075778D01*
X93895567Y-246075778D01*
X93905299Y-246129755D01*
X93927464Y-246228185D01*
X93956706Y-246323738D01*
X93998638Y-246418695D01*
X94029613Y-246468743D01*
X94099541Y-246548296D01*
X94178401Y-246606273D01*
X94221426Y-246629182D01*
X94317003Y-246662559D01*
X94415805Y-246673684D01*
X94432236Y-246673413D01*
X94533896Y-246656343D01*
X94621457Y-246604319D01*
X94675679Y-246525062D01*
X94693753Y-246426999D01*
X94688385Y-246372982D01*
X94648324Y-246279476D01*
X94600158Y-246227931D01*
X94513502Y-246182267D01*
X94507790Y-246180385D01*
X94410880Y-246157731D01*
X94307697Y-246142609D01*
X94207221Y-246131953D01*
X94106615Y-246121876D01*
X94007431Y-246108018D01*
X93992646Y-246105056D01*
X93895567Y-246075778D01*
X93638244Y-246075778D01*
X93617619Y-245982965D01*
X93604295Y-245917018D01*
X93589068Y-245812341D01*
X93583425Y-245710879D01*
X93592969Y-245628374D01*
X93635387Y-245532673D01*
X93704081Y-245459309D01*
X93724304Y-245443574D01*
X93813971Y-245390787D01*
X93917683Y-245354242D01*
X94019951Y-245335589D01*
X94132971Y-245329371D01*
X94164383Y-245329812D01*
G37*
G36*
X93432971Y-246830000D02*
G01*
X93012385Y-244797899D01*
X92763746Y-244797899D01*
X93184332Y-246830000D01*
X93432971Y-246830000D01*
G37*
G36*
X92424248Y-246830000D02*
G01*
X92663118Y-245360635D01*
X92421318Y-245360635D01*
X92296265Y-246146608D01*
X92281006Y-246254489D01*
X92268458Y-246357094D01*
X92256477Y-246463553D01*
X92245463Y-246567194D01*
X92202177Y-246478262D01*
X92152555Y-246382375D01*
X92103126Y-246291303D01*
X92062769Y-246219392D01*
X91575260Y-245360635D01*
X91312944Y-245360635D01*
X92148254Y-246830000D01*
X92424248Y-246830000D01*
G37*
G36*
X90664143Y-245336241D02*
G01*
X90761077Y-245356849D01*
X90854408Y-245391195D01*
X90944137Y-245439281D01*
X90965865Y-245453412D01*
X91047702Y-245519022D01*
X91121417Y-245599164D01*
X91179256Y-245681210D01*
X91230878Y-245774382D01*
X91256752Y-245831031D01*
X91293731Y-245931269D01*
X91320145Y-246032909D01*
X91335993Y-246135952D01*
X91341276Y-246240397D01*
X91340653Y-246274396D01*
X91331315Y-246372220D01*
X91307797Y-246473571D01*
X91270445Y-246567194D01*
X91219879Y-246650275D01*
X91149711Y-246726236D01*
X91064304Y-246786036D01*
X90968104Y-246828865D01*
X90865554Y-246853916D01*
X90766817Y-246861263D01*
X90703092Y-246858751D01*
X90596974Y-246842272D01*
X90497728Y-246810412D01*
X90405354Y-246763172D01*
X90319852Y-246700551D01*
X90244261Y-246629375D01*
X90173729Y-246545912D01*
X90120110Y-246460191D01*
X90080006Y-246361053D01*
X90321806Y-246329790D01*
X90326164Y-246340155D01*
X90375623Y-246435352D01*
X90435768Y-246515189D01*
X90514269Y-246585268D01*
X90568526Y-246619719D01*
X90662407Y-246659092D01*
X90765351Y-246673684D01*
X90822967Y-246668168D01*
X90919300Y-246628652D01*
X90995916Y-246558401D01*
X91022936Y-246519847D01*
X91063236Y-246427569D01*
X91083844Y-246327226D01*
X91089706Y-246224277D01*
X91084332Y-246142212D01*
X90010152Y-246142212D01*
X90007786Y-246128370D01*
X89994906Y-246025774D01*
X89990613Y-245925324D01*
X89991301Y-245899923D01*
X90224109Y-245899923D01*
X90225574Y-245954633D01*
X91044276Y-245954633D01*
X91017761Y-245876266D01*
X90975140Y-245783850D01*
X90917266Y-245696378D01*
X90848882Y-245626371D01*
X90763989Y-245568668D01*
X90664214Y-245529880D01*
X90557745Y-245516950D01*
X90487586Y-245523148D01*
X90394942Y-245555685D01*
X90317410Y-245616113D01*
X90264290Y-245694168D01*
X90233220Y-245792656D01*
X90224109Y-245899923D01*
X89991301Y-245899923D01*
X89991987Y-245874597D01*
X90005878Y-245764181D01*
X90034729Y-245664891D01*
X90078540Y-245576728D01*
X90146928Y-245489595D01*
X90166817Y-245470193D01*
X90254576Y-245405102D01*
X90355464Y-245360039D01*
X90454510Y-245337038D01*
X90563606Y-245329371D01*
X90664143Y-245336241D01*
G37*
G36*
X89254953Y-246637048D02*
G01*
X89295986Y-246840258D01*
X89394853Y-246857242D01*
X89469399Y-246861263D01*
X89571958Y-246850821D01*
X89663994Y-246815944D01*
X89705337Y-246787013D01*
X89762429Y-246701566D01*
X89771771Y-246635094D01*
X89759028Y-246532139D01*
X89740001Y-246431447D01*
X89735623Y-246409902D01*
X89558791Y-245548213D01*
X89755163Y-245548213D01*
X89715107Y-245360635D01*
X89518736Y-245360635D01*
X89443020Y-244980104D01*
X89158722Y-244797899D01*
X89270096Y-245360635D01*
X89025365Y-245360635D01*
X89066886Y-245548213D01*
X89310152Y-245548213D01*
X89478680Y-246387431D01*
X89498028Y-246489533D01*
X89510431Y-246579406D01*
X89485030Y-246649260D01*
X89401987Y-246673684D01*
X89301419Y-246657906D01*
X89254953Y-246637048D01*
G37*
D12*
X176809523Y-119604819D02*
X176809523Y-118604819D01*
X176809523Y-118604819D02*
X176476190Y-119319104D01*
X176476190Y-119319104D02*
X176142857Y-118604819D01*
X176142857Y-118604819D02*
X176142857Y-119604819D01*
X175476190Y-118604819D02*
X175285714Y-118604819D01*
X175285714Y-118604819D02*
X175190476Y-118652438D01*
X175190476Y-118652438D02*
X175095238Y-118747676D01*
X175095238Y-118747676D02*
X175047619Y-118938152D01*
X175047619Y-118938152D02*
X175047619Y-119271485D01*
X175047619Y-119271485D02*
X175095238Y-119461961D01*
X175095238Y-119461961D02*
X175190476Y-119557200D01*
X175190476Y-119557200D02*
X175285714Y-119604819D01*
X175285714Y-119604819D02*
X175476190Y-119604819D01*
X175476190Y-119604819D02*
X175571428Y-119557200D01*
X175571428Y-119557200D02*
X175666666Y-119461961D01*
X175666666Y-119461961D02*
X175714285Y-119271485D01*
X175714285Y-119271485D02*
X175714285Y-118938152D01*
X175714285Y-118938152D02*
X175666666Y-118747676D01*
X175666666Y-118747676D02*
X175571428Y-118652438D01*
X175571428Y-118652438D02*
X175476190Y-118604819D01*
X174619047Y-119604819D02*
X174619047Y-118604819D01*
X174619047Y-118604819D02*
X174380952Y-118604819D01*
X174380952Y-118604819D02*
X174238095Y-118652438D01*
X174238095Y-118652438D02*
X174142857Y-118747676D01*
X174142857Y-118747676D02*
X174095238Y-118842914D01*
X174095238Y-118842914D02*
X174047619Y-119033390D01*
X174047619Y-119033390D02*
X174047619Y-119176247D01*
X174047619Y-119176247D02*
X174095238Y-119366723D01*
X174095238Y-119366723D02*
X174142857Y-119461961D01*
X174142857Y-119461961D02*
X174238095Y-119557200D01*
X174238095Y-119557200D02*
X174380952Y-119604819D01*
X174380952Y-119604819D02*
X174619047Y-119604819D01*
X173619047Y-119081009D02*
X173285714Y-119081009D01*
X173142857Y-119604819D02*
X173619047Y-119604819D01*
X173619047Y-119604819D02*
X173619047Y-118604819D01*
X173619047Y-118604819D02*
X173142857Y-118604819D01*
X126785713Y-32954819D02*
X126785713Y-31954819D01*
X126785713Y-31954819D02*
X126404761Y-31954819D01*
X126404761Y-31954819D02*
X126309523Y-32002438D01*
X126309523Y-32002438D02*
X126261904Y-32050057D01*
X126261904Y-32050057D02*
X126214285Y-32145295D01*
X126214285Y-32145295D02*
X126214285Y-32288152D01*
X126214285Y-32288152D02*
X126261904Y-32383390D01*
X126261904Y-32383390D02*
X126309523Y-32431009D01*
X126309523Y-32431009D02*
X126404761Y-32478628D01*
X126404761Y-32478628D02*
X126785713Y-32478628D01*
X125214285Y-32954819D02*
X125547618Y-32478628D01*
X125785713Y-32954819D02*
X125785713Y-31954819D01*
X125785713Y-31954819D02*
X125404761Y-31954819D01*
X125404761Y-31954819D02*
X125309523Y-32002438D01*
X125309523Y-32002438D02*
X125261904Y-32050057D01*
X125261904Y-32050057D02*
X125214285Y-32145295D01*
X125214285Y-32145295D02*
X125214285Y-32288152D01*
X125214285Y-32288152D02*
X125261904Y-32383390D01*
X125261904Y-32383390D02*
X125309523Y-32431009D01*
X125309523Y-32431009D02*
X125404761Y-32478628D01*
X125404761Y-32478628D02*
X125785713Y-32478628D01*
X124595237Y-31954819D02*
X124404761Y-31954819D01*
X124404761Y-31954819D02*
X124309523Y-32002438D01*
X124309523Y-32002438D02*
X124214285Y-32097676D01*
X124214285Y-32097676D02*
X124166666Y-32288152D01*
X124166666Y-32288152D02*
X124166666Y-32621485D01*
X124166666Y-32621485D02*
X124214285Y-32811961D01*
X124214285Y-32811961D02*
X124309523Y-32907200D01*
X124309523Y-32907200D02*
X124404761Y-32954819D01*
X124404761Y-32954819D02*
X124595237Y-32954819D01*
X124595237Y-32954819D02*
X124690475Y-32907200D01*
X124690475Y-32907200D02*
X124785713Y-32811961D01*
X124785713Y-32811961D02*
X124833332Y-32621485D01*
X124833332Y-32621485D02*
X124833332Y-32288152D01*
X124833332Y-32288152D02*
X124785713Y-32097676D01*
X124785713Y-32097676D02*
X124690475Y-32002438D01*
X124690475Y-32002438D02*
X124595237Y-31954819D01*
X123214285Y-32002438D02*
X123309523Y-31954819D01*
X123309523Y-31954819D02*
X123452380Y-31954819D01*
X123452380Y-31954819D02*
X123595237Y-32002438D01*
X123595237Y-32002438D02*
X123690475Y-32097676D01*
X123690475Y-32097676D02*
X123738094Y-32192914D01*
X123738094Y-32192914D02*
X123785713Y-32383390D01*
X123785713Y-32383390D02*
X123785713Y-32526247D01*
X123785713Y-32526247D02*
X123738094Y-32716723D01*
X123738094Y-32716723D02*
X123690475Y-32811961D01*
X123690475Y-32811961D02*
X123595237Y-32907200D01*
X123595237Y-32907200D02*
X123452380Y-32954819D01*
X123452380Y-32954819D02*
X123357142Y-32954819D01*
X123357142Y-32954819D02*
X123214285Y-32907200D01*
X123214285Y-32907200D02*
X123166666Y-32859580D01*
X123166666Y-32859580D02*
X123166666Y-32526247D01*
X123166666Y-32526247D02*
X123357142Y-32526247D01*
X74000000Y-131259580D02*
X74047619Y-131307200D01*
X74047619Y-131307200D02*
X74190476Y-131354819D01*
X74190476Y-131354819D02*
X74285714Y-131354819D01*
X74285714Y-131354819D02*
X74428571Y-131307200D01*
X74428571Y-131307200D02*
X74523809Y-131211961D01*
X74523809Y-131211961D02*
X74571428Y-131116723D01*
X74571428Y-131116723D02*
X74619047Y-130926247D01*
X74619047Y-130926247D02*
X74619047Y-130783390D01*
X74619047Y-130783390D02*
X74571428Y-130592914D01*
X74571428Y-130592914D02*
X74523809Y-130497676D01*
X74523809Y-130497676D02*
X74428571Y-130402438D01*
X74428571Y-130402438D02*
X74285714Y-130354819D01*
X74285714Y-130354819D02*
X74190476Y-130354819D01*
X74190476Y-130354819D02*
X74047619Y-130402438D01*
X74047619Y-130402438D02*
X74000000Y-130450057D01*
X73571428Y-131354819D02*
X73571428Y-130354819D01*
X73571428Y-130831009D02*
X73000000Y-130831009D01*
X73000000Y-131354819D02*
X73000000Y-130354819D01*
X72000000Y-130402438D02*
X72095238Y-130354819D01*
X72095238Y-130354819D02*
X72238095Y-130354819D01*
X72238095Y-130354819D02*
X72380952Y-130402438D01*
X72380952Y-130402438D02*
X72476190Y-130497676D01*
X72476190Y-130497676D02*
X72523809Y-130592914D01*
X72523809Y-130592914D02*
X72571428Y-130783390D01*
X72571428Y-130783390D02*
X72571428Y-130926247D01*
X72571428Y-130926247D02*
X72523809Y-131116723D01*
X72523809Y-131116723D02*
X72476190Y-131211961D01*
X72476190Y-131211961D02*
X72380952Y-131307200D01*
X72380952Y-131307200D02*
X72238095Y-131354819D01*
X72238095Y-131354819D02*
X72142857Y-131354819D01*
X72142857Y-131354819D02*
X72000000Y-131307200D01*
X72000000Y-131307200D02*
X71952381Y-131259580D01*
X71952381Y-131259580D02*
X71952381Y-130926247D01*
X71952381Y-130926247D02*
X72142857Y-130926247D01*
X70428571Y-130831009D02*
X70285714Y-130878628D01*
X70285714Y-130878628D02*
X70238095Y-130926247D01*
X70238095Y-130926247D02*
X70190476Y-131021485D01*
X70190476Y-131021485D02*
X70190476Y-131164342D01*
X70190476Y-131164342D02*
X70238095Y-131259580D01*
X70238095Y-131259580D02*
X70285714Y-131307200D01*
X70285714Y-131307200D02*
X70380952Y-131354819D01*
X70380952Y-131354819D02*
X70761904Y-131354819D01*
X70761904Y-131354819D02*
X70761904Y-130354819D01*
X70761904Y-130354819D02*
X70428571Y-130354819D01*
X70428571Y-130354819D02*
X70333333Y-130402438D01*
X70333333Y-130402438D02*
X70285714Y-130450057D01*
X70285714Y-130450057D02*
X70238095Y-130545295D01*
X70238095Y-130545295D02*
X70238095Y-130640533D01*
X70238095Y-130640533D02*
X70285714Y-130735771D01*
X70285714Y-130735771D02*
X70333333Y-130783390D01*
X70333333Y-130783390D02*
X70428571Y-130831009D01*
X70428571Y-130831009D02*
X70761904Y-130831009D01*
X69571428Y-130354819D02*
X69380952Y-130354819D01*
X69380952Y-130354819D02*
X69285714Y-130402438D01*
X69285714Y-130402438D02*
X69190476Y-130497676D01*
X69190476Y-130497676D02*
X69142857Y-130688152D01*
X69142857Y-130688152D02*
X69142857Y-131021485D01*
X69142857Y-131021485D02*
X69190476Y-131211961D01*
X69190476Y-131211961D02*
X69285714Y-131307200D01*
X69285714Y-131307200D02*
X69380952Y-131354819D01*
X69380952Y-131354819D02*
X69571428Y-131354819D01*
X69571428Y-131354819D02*
X69666666Y-131307200D01*
X69666666Y-131307200D02*
X69761904Y-131211961D01*
X69761904Y-131211961D02*
X69809523Y-131021485D01*
X69809523Y-131021485D02*
X69809523Y-130688152D01*
X69809523Y-130688152D02*
X69761904Y-130497676D01*
X69761904Y-130497676D02*
X69666666Y-130402438D01*
X69666666Y-130402438D02*
X69571428Y-130354819D01*
X68523809Y-130354819D02*
X68333333Y-130354819D01*
X68333333Y-130354819D02*
X68238095Y-130402438D01*
X68238095Y-130402438D02*
X68142857Y-130497676D01*
X68142857Y-130497676D02*
X68095238Y-130688152D01*
X68095238Y-130688152D02*
X68095238Y-131021485D01*
X68095238Y-131021485D02*
X68142857Y-131211961D01*
X68142857Y-131211961D02*
X68238095Y-131307200D01*
X68238095Y-131307200D02*
X68333333Y-131354819D01*
X68333333Y-131354819D02*
X68523809Y-131354819D01*
X68523809Y-131354819D02*
X68619047Y-131307200D01*
X68619047Y-131307200D02*
X68714285Y-131211961D01*
X68714285Y-131211961D02*
X68761904Y-131021485D01*
X68761904Y-131021485D02*
X68761904Y-130688152D01*
X68761904Y-130688152D02*
X68714285Y-130497676D01*
X68714285Y-130497676D02*
X68619047Y-130402438D01*
X68619047Y-130402438D02*
X68523809Y-130354819D01*
X67714285Y-131307200D02*
X67571428Y-131354819D01*
X67571428Y-131354819D02*
X67333333Y-131354819D01*
X67333333Y-131354819D02*
X67238095Y-131307200D01*
X67238095Y-131307200D02*
X67190476Y-131259580D01*
X67190476Y-131259580D02*
X67142857Y-131164342D01*
X67142857Y-131164342D02*
X67142857Y-131069104D01*
X67142857Y-131069104D02*
X67190476Y-130973866D01*
X67190476Y-130973866D02*
X67238095Y-130926247D01*
X67238095Y-130926247D02*
X67333333Y-130878628D01*
X67333333Y-130878628D02*
X67523809Y-130831009D01*
X67523809Y-130831009D02*
X67619047Y-130783390D01*
X67619047Y-130783390D02*
X67666666Y-130735771D01*
X67666666Y-130735771D02*
X67714285Y-130640533D01*
X67714285Y-130640533D02*
X67714285Y-130545295D01*
X67714285Y-130545295D02*
X67666666Y-130450057D01*
X67666666Y-130450057D02*
X67619047Y-130402438D01*
X67619047Y-130402438D02*
X67523809Y-130354819D01*
X67523809Y-130354819D02*
X67285714Y-130354819D01*
X67285714Y-130354819D02*
X67142857Y-130402438D01*
X66857142Y-130354819D02*
X66285714Y-130354819D01*
X66571428Y-131354819D02*
X66571428Y-130354819D01*
X71214285Y-122789580D02*
X71261904Y-122837200D01*
X71261904Y-122837200D02*
X71404761Y-122884819D01*
X71404761Y-122884819D02*
X71499999Y-122884819D01*
X71499999Y-122884819D02*
X71642856Y-122837200D01*
X71642856Y-122837200D02*
X71738094Y-122741961D01*
X71738094Y-122741961D02*
X71785713Y-122646723D01*
X71785713Y-122646723D02*
X71833332Y-122456247D01*
X71833332Y-122456247D02*
X71833332Y-122313390D01*
X71833332Y-122313390D02*
X71785713Y-122122914D01*
X71785713Y-122122914D02*
X71738094Y-122027676D01*
X71738094Y-122027676D02*
X71642856Y-121932438D01*
X71642856Y-121932438D02*
X71499999Y-121884819D01*
X71499999Y-121884819D02*
X71404761Y-121884819D01*
X71404761Y-121884819D02*
X71261904Y-121932438D01*
X71261904Y-121932438D02*
X71214285Y-121980057D01*
X70785713Y-122884819D02*
X70785713Y-121884819D01*
X70785713Y-122361009D02*
X70214285Y-122361009D01*
X70214285Y-122884819D02*
X70214285Y-121884819D01*
X69214285Y-121932438D02*
X69309523Y-121884819D01*
X69309523Y-121884819D02*
X69452380Y-121884819D01*
X69452380Y-121884819D02*
X69595237Y-121932438D01*
X69595237Y-121932438D02*
X69690475Y-122027676D01*
X69690475Y-122027676D02*
X69738094Y-122122914D01*
X69738094Y-122122914D02*
X69785713Y-122313390D01*
X69785713Y-122313390D02*
X69785713Y-122456247D01*
X69785713Y-122456247D02*
X69738094Y-122646723D01*
X69738094Y-122646723D02*
X69690475Y-122741961D01*
X69690475Y-122741961D02*
X69595237Y-122837200D01*
X69595237Y-122837200D02*
X69452380Y-122884819D01*
X69452380Y-122884819D02*
X69357142Y-122884819D01*
X69357142Y-122884819D02*
X69214285Y-122837200D01*
X69214285Y-122837200D02*
X69166666Y-122789580D01*
X69166666Y-122789580D02*
X69166666Y-122456247D01*
X69166666Y-122456247D02*
X69357142Y-122456247D01*
X62312319Y-122976190D02*
X62312319Y-123166666D01*
X62312319Y-123166666D02*
X62359938Y-123261904D01*
X62359938Y-123261904D02*
X62455176Y-123357142D01*
X62455176Y-123357142D02*
X62645652Y-123404761D01*
X62645652Y-123404761D02*
X62978985Y-123404761D01*
X62978985Y-123404761D02*
X63169461Y-123357142D01*
X63169461Y-123357142D02*
X63264700Y-123261904D01*
X63264700Y-123261904D02*
X63312319Y-123166666D01*
X63312319Y-123166666D02*
X63312319Y-122976190D01*
X63312319Y-122976190D02*
X63264700Y-122880952D01*
X63264700Y-122880952D02*
X63169461Y-122785714D01*
X63169461Y-122785714D02*
X62978985Y-122738095D01*
X62978985Y-122738095D02*
X62645652Y-122738095D01*
X62645652Y-122738095D02*
X62455176Y-122785714D01*
X62455176Y-122785714D02*
X62359938Y-122880952D01*
X62359938Y-122880952D02*
X62312319Y-122976190D01*
X63312319Y-123833333D02*
X62312319Y-123833333D01*
X62312319Y-123833333D02*
X63312319Y-124404761D01*
X63312319Y-124404761D02*
X62312319Y-124404761D01*
X62264700Y-125595237D02*
X63550414Y-124738095D01*
X62312319Y-126119047D02*
X62312319Y-126309523D01*
X62312319Y-126309523D02*
X62359938Y-126404761D01*
X62359938Y-126404761D02*
X62455176Y-126499999D01*
X62455176Y-126499999D02*
X62645652Y-126547618D01*
X62645652Y-126547618D02*
X62978985Y-126547618D01*
X62978985Y-126547618D02*
X63169461Y-126499999D01*
X63169461Y-126499999D02*
X63264700Y-126404761D01*
X63264700Y-126404761D02*
X63312319Y-126309523D01*
X63312319Y-126309523D02*
X63312319Y-126119047D01*
X63312319Y-126119047D02*
X63264700Y-126023809D01*
X63264700Y-126023809D02*
X63169461Y-125928571D01*
X63169461Y-125928571D02*
X62978985Y-125880952D01*
X62978985Y-125880952D02*
X62645652Y-125880952D01*
X62645652Y-125880952D02*
X62455176Y-125928571D01*
X62455176Y-125928571D02*
X62359938Y-126023809D01*
X62359938Y-126023809D02*
X62312319Y-126119047D01*
X62788509Y-127309523D02*
X62788509Y-126976190D01*
X63312319Y-126976190D02*
X62312319Y-126976190D01*
X62312319Y-126976190D02*
X62312319Y-127452380D01*
X62788509Y-128166666D02*
X62788509Y-127833333D01*
X63312319Y-127833333D02*
X62312319Y-127833333D01*
X62312319Y-127833333D02*
X62312319Y-128309523D01*
X60619047Y-151881009D02*
X60476190Y-151928628D01*
X60476190Y-151928628D02*
X60428571Y-151976247D01*
X60428571Y-151976247D02*
X60380952Y-152071485D01*
X60380952Y-152071485D02*
X60380952Y-152214342D01*
X60380952Y-152214342D02*
X60428571Y-152309580D01*
X60428571Y-152309580D02*
X60476190Y-152357200D01*
X60476190Y-152357200D02*
X60571428Y-152404819D01*
X60571428Y-152404819D02*
X60952380Y-152404819D01*
X60952380Y-152404819D02*
X60952380Y-151404819D01*
X60952380Y-151404819D02*
X60619047Y-151404819D01*
X60619047Y-151404819D02*
X60523809Y-151452438D01*
X60523809Y-151452438D02*
X60476190Y-151500057D01*
X60476190Y-151500057D02*
X60428571Y-151595295D01*
X60428571Y-151595295D02*
X60428571Y-151690533D01*
X60428571Y-151690533D02*
X60476190Y-151785771D01*
X60476190Y-151785771D02*
X60523809Y-151833390D01*
X60523809Y-151833390D02*
X60619047Y-151881009D01*
X60619047Y-151881009D02*
X60952380Y-151881009D01*
X59999999Y-152119104D02*
X59523809Y-152119104D01*
X60095237Y-152404819D02*
X59761904Y-151404819D01*
X59761904Y-151404819D02*
X59428571Y-152404819D01*
X59238094Y-151404819D02*
X58666666Y-151404819D01*
X58952380Y-152404819D02*
X58952380Y-151404819D01*
X58476189Y-151404819D02*
X57904761Y-151404819D01*
X58190475Y-152404819D02*
X58190475Y-151404819D01*
X71833332Y-126884819D02*
X71833332Y-125884819D01*
X71833332Y-125884819D02*
X71452380Y-125884819D01*
X71452380Y-125884819D02*
X71357142Y-125932438D01*
X71357142Y-125932438D02*
X71309523Y-125980057D01*
X71309523Y-125980057D02*
X71261904Y-126075295D01*
X71261904Y-126075295D02*
X71261904Y-126218152D01*
X71261904Y-126218152D02*
X71309523Y-126313390D01*
X71309523Y-126313390D02*
X71357142Y-126361009D01*
X71357142Y-126361009D02*
X71452380Y-126408628D01*
X71452380Y-126408628D02*
X71833332Y-126408628D01*
X70928570Y-125884819D02*
X70690475Y-126884819D01*
X70690475Y-126884819D02*
X70499999Y-126170533D01*
X70499999Y-126170533D02*
X70309523Y-126884819D01*
X70309523Y-126884819D02*
X70071428Y-125884819D01*
X69119047Y-126884819D02*
X69452380Y-126408628D01*
X69690475Y-126884819D02*
X69690475Y-125884819D01*
X69690475Y-125884819D02*
X69309523Y-125884819D01*
X69309523Y-125884819D02*
X69214285Y-125932438D01*
X69214285Y-125932438D02*
X69166666Y-125980057D01*
X69166666Y-125980057D02*
X69119047Y-126075295D01*
X69119047Y-126075295D02*
X69119047Y-126218152D01*
X69119047Y-126218152D02*
X69166666Y-126313390D01*
X69166666Y-126313390D02*
X69214285Y-126361009D01*
X69214285Y-126361009D02*
X69309523Y-126408628D01*
X69309523Y-126408628D02*
X69690475Y-126408628D01*
X176452381Y-139604819D02*
X176785714Y-139128628D01*
X177023809Y-139604819D02*
X177023809Y-138604819D01*
X177023809Y-138604819D02*
X176642857Y-138604819D01*
X176642857Y-138604819D02*
X176547619Y-138652438D01*
X176547619Y-138652438D02*
X176500000Y-138700057D01*
X176500000Y-138700057D02*
X176452381Y-138795295D01*
X176452381Y-138795295D02*
X176452381Y-138938152D01*
X176452381Y-138938152D02*
X176500000Y-139033390D01*
X176500000Y-139033390D02*
X176547619Y-139081009D01*
X176547619Y-139081009D02*
X176642857Y-139128628D01*
X176642857Y-139128628D02*
X177023809Y-139128628D01*
X176023809Y-139081009D02*
X175690476Y-139081009D01*
X175547619Y-139604819D02*
X176023809Y-139604819D01*
X176023809Y-139604819D02*
X176023809Y-138604819D01*
X176023809Y-138604819D02*
X175547619Y-138604819D01*
X175166666Y-139557200D02*
X175023809Y-139604819D01*
X175023809Y-139604819D02*
X174785714Y-139604819D01*
X174785714Y-139604819D02*
X174690476Y-139557200D01*
X174690476Y-139557200D02*
X174642857Y-139509580D01*
X174642857Y-139509580D02*
X174595238Y-139414342D01*
X174595238Y-139414342D02*
X174595238Y-139319104D01*
X174595238Y-139319104D02*
X174642857Y-139223866D01*
X174642857Y-139223866D02*
X174690476Y-139176247D01*
X174690476Y-139176247D02*
X174785714Y-139128628D01*
X174785714Y-139128628D02*
X174976190Y-139081009D01*
X174976190Y-139081009D02*
X175071428Y-139033390D01*
X175071428Y-139033390D02*
X175119047Y-138985771D01*
X175119047Y-138985771D02*
X175166666Y-138890533D01*
X175166666Y-138890533D02*
X175166666Y-138795295D01*
X175166666Y-138795295D02*
X175119047Y-138700057D01*
X175119047Y-138700057D02*
X175071428Y-138652438D01*
X175071428Y-138652438D02*
X174976190Y-138604819D01*
X174976190Y-138604819D02*
X174738095Y-138604819D01*
X174738095Y-138604819D02*
X174595238Y-138652438D01*
X174166666Y-139081009D02*
X173833333Y-139081009D01*
X173690476Y-139604819D02*
X174166666Y-139604819D01*
X174166666Y-139604819D02*
X174166666Y-138604819D01*
X174166666Y-138604819D02*
X173690476Y-138604819D01*
X173404761Y-138604819D02*
X172833333Y-138604819D01*
X173119047Y-139604819D02*
X173119047Y-138604819D01*
D13*
%TO.C,D243*%
X176485000Y-110735000D02*
X176485000Y-109265000D01*
X174200000Y-110735000D02*
X176485000Y-110735000D01*
X176485000Y-109265000D02*
X174200000Y-109265000D01*
%TO.C,SW3*%
X171770000Y-111770000D02*
X178230000Y-111770000D01*
X171770000Y-111800000D02*
X171770000Y-111770000D01*
X171770000Y-116300000D02*
X171770000Y-113700000D01*
X171770000Y-118200000D02*
X171770000Y-118230000D01*
X171770000Y-118230000D02*
X178230000Y-118230000D01*
X178230000Y-111770000D02*
X178230000Y-111800000D01*
X178230000Y-116300000D02*
X178230000Y-113700000D01*
X178230000Y-118200000D02*
X178230000Y-118230000D01*
%TO.C,J3*%
X121115000Y-28670000D02*
X121115000Y-31330000D01*
X121115000Y-28670000D02*
X126255000Y-28670000D01*
X121115000Y-31330000D02*
X126255000Y-31330000D01*
X126255000Y-28670000D02*
X126255000Y-31330000D01*
X128855000Y-30000000D02*
X128855000Y-31330000D01*
X128855000Y-31330000D02*
X127525000Y-31330000D01*
%TO.C,JP1*%
X69100000Y-129300000D02*
X69100000Y-128700000D01*
X69800000Y-128000000D02*
X71200000Y-128000000D01*
X71200000Y-130000000D02*
X69800000Y-130000000D01*
X71900000Y-128700000D02*
X71900000Y-129300000D01*
X69100000Y-128700000D02*
G75*
G02*
X69800000Y-128000000I700000J0D01*
G01*
X69800000Y-130000000D02*
G75*
G02*
X69100000Y-129300000I0J700000D01*
G01*
X71200000Y-128000000D02*
G75*
G02*
X71900000Y-128700000I1J-699999D01*
G01*
X71900000Y-129300000D02*
G75*
G02*
X71200000Y-130000000I-699999J-1D01*
G01*
%TO.C,J1*%
X42230000Y-124045000D02*
X42230000Y-123145000D01*
X42230000Y-126285000D02*
X42230000Y-127185000D01*
X43030000Y-123145000D02*
X42230000Y-123145000D01*
X43030000Y-127185000D02*
X42230000Y-127185000D01*
X49970000Y-123145000D02*
X50770000Y-123145000D01*
X49970000Y-127185000D02*
X50770000Y-127185000D01*
X50420000Y-122995000D02*
X50920000Y-122995000D01*
X50770000Y-124045000D02*
X50770000Y-123145000D01*
X50770000Y-126285000D02*
X50770000Y-127185000D01*
X50920000Y-123495000D02*
X50920000Y-122995000D01*
%TO.C,D242*%
X69700000Y-121735000D02*
X71985000Y-121735000D01*
X71985000Y-120265000D02*
X69700000Y-120265000D01*
X71985000Y-121735000D02*
X71985000Y-120265000D01*
%TO.C,SW1*%
X57407500Y-120400000D02*
X57407500Y-120750000D01*
X57407500Y-129600000D02*
X57407500Y-128400000D01*
X61607500Y-120400000D02*
X57407500Y-120400000D01*
X61607500Y-121600000D02*
X61607500Y-120400000D01*
X61607500Y-128400000D02*
X61607500Y-129600000D01*
X61607500Y-129600000D02*
X57407500Y-129600000D01*
X57407500Y-121500000D02*
X56927500Y-121500000D01*
X57407500Y-121020000D01*
X57407500Y-121500000D01*
G36*
X57407500Y-121500000D02*
G01*
X56927500Y-121500000D01*
X57407500Y-121020000D01*
X57407500Y-121500000D01*
G37*
%TO.C,J2*%
X56440000Y-146140000D02*
X56440000Y-150860000D01*
X56440000Y-150860000D02*
X62560000Y-150860000D01*
X57050000Y-146750000D02*
X57050000Y-150250000D01*
X57050000Y-147450000D02*
X56440000Y-147450000D01*
X57050000Y-148750000D02*
X56440000Y-148750000D01*
X57050000Y-150250000D02*
X61950000Y-150250000D01*
X59000000Y-146140000D02*
X59000000Y-146750000D01*
X59000000Y-146750000D02*
X57050000Y-146750000D01*
X59400000Y-149750000D02*
X59600000Y-149750000D01*
X59400000Y-150250000D02*
X59400000Y-149750000D01*
X59500000Y-149750000D02*
X59500000Y-150250000D01*
X59600000Y-149750000D02*
X59600000Y-150250000D01*
X60000000Y-146750000D02*
X60000000Y-146140000D01*
X60800000Y-145940000D02*
X60800000Y-146140000D01*
X61100000Y-145940000D02*
X60800000Y-145940000D01*
X61100000Y-146040000D02*
X60800000Y-146040000D01*
X61100000Y-146140000D02*
X61100000Y-145940000D01*
X61950000Y-146750000D02*
X60000000Y-146750000D01*
X61950000Y-147450000D02*
X62560000Y-147450000D01*
X61950000Y-148750000D02*
X62560000Y-148750000D01*
X61950000Y-150250000D02*
X61950000Y-146750000D01*
X62560000Y-146140000D02*
X56440000Y-146140000D01*
X62560000Y-150860000D02*
X62560000Y-146140000D01*
X62860000Y-145840000D02*
X61610000Y-145840000D01*
X62860000Y-147090000D02*
X62860000Y-145840000D01*
%TO.C,D241*%
X69700000Y-125735000D02*
X71985000Y-125735000D01*
X71985000Y-124265000D02*
X69700000Y-124265000D01*
X71985000Y-125735000D02*
X71985000Y-124265000D01*
D14*
%TO.C,G\u002A\u002A\u002A*%
G36*
X123465478Y-230599189D02*
G01*
X123851725Y-230599328D01*
X124170618Y-230599912D01*
X124428993Y-230601237D01*
X124633682Y-230603602D01*
X124791521Y-230607303D01*
X124909345Y-230612638D01*
X124993989Y-230619904D01*
X125052286Y-230629398D01*
X125091071Y-230641418D01*
X125117179Y-230656261D01*
X125137445Y-230674225D01*
X125155690Y-230694298D01*
X125177993Y-230731497D01*
X125193578Y-230785806D01*
X125203630Y-230868809D01*
X125209340Y-230992092D01*
X125211894Y-231167239D01*
X125212482Y-231405835D01*
X125212273Y-231565686D01*
X125210570Y-231762546D01*
X125206145Y-231903334D01*
X125197807Y-231999633D01*
X125184370Y-232063028D01*
X125164646Y-232105104D01*
X125137445Y-232137445D01*
X125137434Y-232137455D01*
X125116956Y-232155590D01*
X125090570Y-232170541D01*
X125051365Y-232182616D01*
X124992427Y-232192121D01*
X124906842Y-232199364D01*
X124787700Y-232204650D01*
X124628085Y-232208288D01*
X124421085Y-232210583D01*
X124159788Y-232211842D01*
X123837279Y-232212373D01*
X123446647Y-232212482D01*
X123336337Y-232212441D01*
X122914911Y-232211356D01*
X122564190Y-232208723D01*
X122280683Y-232204455D01*
X122060896Y-232198463D01*
X121901338Y-232190656D01*
X121798515Y-232180948D01*
X121748937Y-232169248D01*
X121711032Y-232143362D01*
X121622798Y-232071438D01*
X121506450Y-231969800D01*
X121376153Y-231851559D01*
X121246071Y-231729827D01*
X121130366Y-231617715D01*
X121043204Y-231528334D01*
X120998746Y-231474796D01*
X120984325Y-231440719D01*
X120986024Y-231385112D01*
X121020941Y-231316030D01*
X121095288Y-231224962D01*
X121215280Y-231103396D01*
X121387131Y-230942822D01*
X121762579Y-230599188D01*
X123412493Y-230599188D01*
X123465478Y-230599189D01*
G37*
G36*
X116853987Y-232073164D02*
G01*
X116947868Y-232138317D01*
X117085957Y-232262803D01*
X117268659Y-232446972D01*
X117349586Y-232531528D01*
X117501991Y-232692379D01*
X117610477Y-232811744D01*
X117680815Y-232898307D01*
X117718776Y-232960750D01*
X117730127Y-233007756D01*
X117720640Y-233048009D01*
X117696085Y-233090190D01*
X117670401Y-233125615D01*
X117594052Y-233222516D01*
X117478294Y-233364640D01*
X117329036Y-233545034D01*
X117152188Y-233756744D01*
X116953660Y-233992816D01*
X116739362Y-234246298D01*
X116515204Y-234510236D01*
X116287096Y-234777676D01*
X116060947Y-235041666D01*
X115842667Y-235295252D01*
X115638167Y-235531481D01*
X115453355Y-235743399D01*
X115294143Y-235924054D01*
X115166439Y-236066491D01*
X115033939Y-236205974D01*
X114828014Y-236390222D01*
X114623695Y-236524955D01*
X114402148Y-236621703D01*
X114144535Y-236691995D01*
X113986184Y-236718527D01*
X113703476Y-236741703D01*
X113385450Y-236745108D01*
X113054321Y-236728732D01*
X112732304Y-236692567D01*
X112563233Y-236666092D01*
X112370064Y-236629984D01*
X112242541Y-236596522D01*
X112175152Y-236564145D01*
X112162386Y-236531294D01*
X112176224Y-236515660D01*
X112239153Y-236451417D01*
X112349275Y-236341452D01*
X112502645Y-236189639D01*
X112695317Y-235999849D01*
X112923348Y-235775954D01*
X113182792Y-235521825D01*
X113469703Y-235241336D01*
X113780138Y-234938357D01*
X114110150Y-234616760D01*
X114455794Y-234280417D01*
X114479793Y-234257083D01*
X114928314Y-233821729D01*
X115325271Y-233437978D01*
X115672112Y-233104469D01*
X115970287Y-232819841D01*
X116221245Y-232582735D01*
X116426435Y-232391789D01*
X116587306Y-232245644D01*
X116705308Y-232142939D01*
X116781889Y-232082314D01*
X116818498Y-232062408D01*
X116853987Y-232073164D01*
G37*
G36*
X117042008Y-229020573D02*
G01*
X117198096Y-229207305D01*
X117411819Y-229461100D01*
X117608634Y-229692641D01*
X117783397Y-229895996D01*
X117930961Y-230065228D01*
X118046181Y-230194405D01*
X118123913Y-230277592D01*
X118159010Y-230308853D01*
X118184787Y-230313669D01*
X118261649Y-230308746D01*
X118280960Y-230291808D01*
X118345665Y-230222945D01*
X118449783Y-230106697D01*
X118588196Y-229948943D01*
X118755790Y-229755562D01*
X118947449Y-229532436D01*
X119158056Y-229285443D01*
X119382496Y-229020465D01*
X120456984Y-227747785D01*
X121384457Y-227747785D01*
X121431176Y-227747789D01*
X121709238Y-227748189D01*
X121923004Y-227749745D01*
X122081843Y-227753164D01*
X122195121Y-227759154D01*
X122272205Y-227768423D01*
X122322464Y-227781677D01*
X122355265Y-227799625D01*
X122379976Y-227822974D01*
X122386418Y-227830233D01*
X122426689Y-227903010D01*
X122408821Y-227982427D01*
X122408544Y-227982994D01*
X122375736Y-228027583D01*
X122297983Y-228123244D01*
X122179681Y-228264828D01*
X122025228Y-228447187D01*
X121839022Y-228665171D01*
X121625460Y-228913633D01*
X121388939Y-229187423D01*
X121133857Y-229481394D01*
X120864612Y-229790397D01*
X120849238Y-229808007D01*
X120581988Y-230115048D01*
X120330243Y-230405944D01*
X120098258Y-230675669D01*
X119890288Y-230919197D01*
X119710588Y-231131502D01*
X119563414Y-231307559D01*
X119453022Y-231442340D01*
X119383666Y-231530821D01*
X119359601Y-231567975D01*
X119359618Y-231569699D01*
X119361516Y-231583073D01*
X119369093Y-231600710D01*
X119385936Y-231626421D01*
X119415635Y-231664015D01*
X119461775Y-231717302D01*
X119527945Y-231790091D01*
X119617733Y-231886191D01*
X119734727Y-232009413D01*
X119882514Y-232163566D01*
X120064682Y-232352459D01*
X120284818Y-232579902D01*
X120546511Y-232849704D01*
X120853349Y-233165676D01*
X121208918Y-233531627D01*
X121442926Y-233773275D01*
X121675815Y-234015545D01*
X121887191Y-234237263D01*
X122071888Y-234432920D01*
X122224740Y-234597007D01*
X122340580Y-234724018D01*
X122414243Y-234808442D01*
X122440561Y-234844773D01*
X122440967Y-234849583D01*
X122430375Y-234972840D01*
X122370072Y-235054505D01*
X122340448Y-235067154D01*
X122263468Y-235080308D01*
X122137120Y-235090001D01*
X121954995Y-235096542D01*
X121710684Y-235100240D01*
X121397779Y-235101403D01*
X120486339Y-235101403D01*
X120377654Y-234998228D01*
X120352516Y-234973419D01*
X120273268Y-234892635D01*
X120153662Y-234769119D01*
X120000757Y-234610215D01*
X119821612Y-234423266D01*
X119623287Y-234215616D01*
X119412840Y-233994609D01*
X119406813Y-233988270D01*
X119153826Y-233723042D01*
X118875982Y-233433146D01*
X118588557Y-233134429D01*
X118306823Y-232842734D01*
X118046056Y-232573908D01*
X117821530Y-232343796D01*
X117722525Y-232241378D01*
X117544235Y-232052254D01*
X117338128Y-231829148D01*
X117108790Y-231577341D01*
X116860811Y-231302112D01*
X116598779Y-231008744D01*
X116327281Y-230702515D01*
X116050906Y-230388708D01*
X115774242Y-230072602D01*
X115501878Y-229759478D01*
X115238401Y-229454617D01*
X114988400Y-229163299D01*
X114756464Y-228890806D01*
X114547179Y-228642417D01*
X114365135Y-228423413D01*
X114214920Y-228239076D01*
X114101122Y-228094685D01*
X114028329Y-227995521D01*
X114001130Y-227946865D01*
X113995864Y-227891616D01*
X114001566Y-227845348D01*
X114026680Y-227810238D01*
X114079150Y-227784748D01*
X114166924Y-227767341D01*
X114297948Y-227756479D01*
X114480168Y-227750624D01*
X114721532Y-227748238D01*
X115029985Y-227747785D01*
X115981284Y-227747785D01*
X117042008Y-229020573D01*
G37*
G36*
X138311181Y-231854981D02*
G01*
X138308122Y-232205812D01*
X138303197Y-232536933D01*
X138296403Y-232839126D01*
X138287742Y-233103175D01*
X138277215Y-233319862D01*
X138264819Y-233479970D01*
X138250557Y-233574282D01*
X138176760Y-233801375D01*
X138005803Y-234141459D01*
X137777432Y-234444160D01*
X137499620Y-234702539D01*
X137180339Y-234909655D01*
X136827562Y-235058567D01*
X136449262Y-235142336D01*
X136365275Y-235148817D01*
X136210916Y-235154671D01*
X136005580Y-235158817D01*
X135762011Y-235161082D01*
X135492954Y-235161290D01*
X135211152Y-235159269D01*
X134901423Y-235155063D01*
X134643142Y-235149558D01*
X134440633Y-235142300D01*
X134284070Y-235132679D01*
X134163628Y-235120086D01*
X134069480Y-235103909D01*
X133991802Y-235083539D01*
X133847946Y-235033293D01*
X133489966Y-234855715D01*
X133174417Y-234619590D01*
X132907193Y-234330868D01*
X132694186Y-233995496D01*
X132541290Y-233619424D01*
X132537940Y-233608328D01*
X132522892Y-233552018D01*
X132510318Y-233488697D01*
X132499999Y-233411561D01*
X132491716Y-233313809D01*
X132485249Y-233188638D01*
X132480380Y-233029245D01*
X132476887Y-232828829D01*
X132474553Y-232580585D01*
X132473158Y-232277713D01*
X132472481Y-231913409D01*
X132472364Y-231628374D01*
X134066963Y-231628374D01*
X134067161Y-232021682D01*
X134068238Y-232349472D01*
X134070877Y-232618385D01*
X134075761Y-232835062D01*
X134083571Y-233006141D01*
X134094990Y-233138265D01*
X134110701Y-233238074D01*
X134131385Y-233312207D01*
X134157724Y-233367305D01*
X134190402Y-233410010D01*
X134230100Y-233446960D01*
X134277501Y-233484797D01*
X134298502Y-233500463D01*
X134333506Y-233520356D01*
X134379616Y-233535530D01*
X134445963Y-233546623D01*
X134541681Y-233554270D01*
X134675903Y-233559109D01*
X134857763Y-233561777D01*
X135096392Y-233562910D01*
X135400926Y-233563146D01*
X136424745Y-233563146D01*
X136539501Y-233466585D01*
X136550093Y-233457244D01*
X136637021Y-233350751D01*
X136694529Y-233232095D01*
X136700893Y-233197998D01*
X136710681Y-233078062D01*
X136718049Y-232883685D01*
X136722997Y-232614755D01*
X136725529Y-232271160D01*
X136725644Y-231852791D01*
X136723346Y-231359534D01*
X136711891Y-229624903D01*
X136570635Y-229483611D01*
X136429379Y-229342319D01*
X135457467Y-229331180D01*
X135150503Y-229328412D01*
X134882429Y-229328827D01*
X134672494Y-229334249D01*
X134511931Y-229346175D01*
X134391972Y-229366102D01*
X134303850Y-229395530D01*
X134238799Y-229435956D01*
X134188051Y-229488877D01*
X134142838Y-229555793D01*
X134135132Y-229568749D01*
X134118768Y-229601081D01*
X134105259Y-229640512D01*
X134094333Y-229693836D01*
X134085714Y-229767847D01*
X134079130Y-229869339D01*
X134074305Y-230005106D01*
X134070965Y-230181941D01*
X134068837Y-230406638D01*
X134067646Y-230685990D01*
X134067118Y-231026792D01*
X134066979Y-231435837D01*
X134066963Y-231628374D01*
X132472364Y-231628374D01*
X132472304Y-231480872D01*
X132472347Y-231226804D01*
X132472856Y-230814319D01*
X132474367Y-230466018D01*
X132477408Y-230174873D01*
X132482502Y-229933858D01*
X132490175Y-229735944D01*
X132500953Y-229574106D01*
X132515360Y-229441316D01*
X132533923Y-229330547D01*
X132557167Y-229234771D01*
X132585616Y-229146962D01*
X132619797Y-229060092D01*
X132660235Y-228967135D01*
X132736808Y-228815784D01*
X132942211Y-228520191D01*
X133201017Y-228255497D01*
X133499258Y-228034863D01*
X133822969Y-227871451D01*
X134085598Y-227768222D01*
X135278108Y-227755613D01*
X135423459Y-227754263D01*
X135806921Y-227752876D01*
X136126035Y-227755268D01*
X136378151Y-227761382D01*
X136560617Y-227771164D01*
X136670782Y-227784558D01*
X136771307Y-227808657D01*
X137105921Y-227935965D01*
X137418506Y-228125367D01*
X137699162Y-228367288D01*
X137937989Y-228652155D01*
X138125087Y-228970391D01*
X138250557Y-229312424D01*
X138254691Y-229331409D01*
X138268436Y-229444852D01*
X138280315Y-229621540D01*
X138290326Y-229852256D01*
X138298470Y-230127784D01*
X138304747Y-230438905D01*
X138309155Y-230776402D01*
X138311698Y-231131059D01*
X138312373Y-231493658D01*
X138311188Y-231852791D01*
X138311181Y-231854981D01*
G37*
G36*
X131659021Y-230234023D02*
G01*
X131661675Y-230518651D01*
X131663567Y-230857363D01*
X131664795Y-231255396D01*
X131665458Y-231717988D01*
X131665657Y-232250379D01*
X131665555Y-232582466D01*
X131664884Y-233089217D01*
X131663532Y-233527118D01*
X131661437Y-233900061D01*
X131658535Y-234211940D01*
X131654763Y-234466648D01*
X131650058Y-234668077D01*
X131644356Y-234820120D01*
X131637593Y-234926670D01*
X131629708Y-234991620D01*
X131620635Y-235018863D01*
X131597746Y-235030651D01*
X131515970Y-235045659D01*
X131374406Y-235055993D01*
X131168002Y-235061964D01*
X130891705Y-235063885D01*
X130641924Y-235062943D01*
X130456163Y-235059558D01*
X130324463Y-235052896D01*
X130236335Y-235042125D01*
X130181290Y-235026413D01*
X130148840Y-235004927D01*
X130148607Y-235004694D01*
X130131515Y-234979032D01*
X130118025Y-234935049D01*
X130107728Y-234864642D01*
X130100217Y-234759710D01*
X130095084Y-234612152D01*
X130091922Y-234413864D01*
X130090324Y-234156747D01*
X130089882Y-233832699D01*
X130089882Y-232719428D01*
X128917430Y-233887558D01*
X128746589Y-234057386D01*
X128510333Y-234290932D01*
X128292994Y-234504262D01*
X128100246Y-234691888D01*
X127937766Y-234848321D01*
X127811232Y-234968073D01*
X127726317Y-235045657D01*
X127688700Y-235075584D01*
X127669272Y-235078732D01*
X127581406Y-235084366D01*
X127435997Y-235089437D01*
X127244440Y-235093662D01*
X127018131Y-235096758D01*
X126768466Y-235098441D01*
X126544537Y-235098805D01*
X126309824Y-235097549D01*
X126133417Y-235093815D01*
X126005830Y-235087048D01*
X125917576Y-235076693D01*
X125859169Y-235062195D01*
X125821125Y-235042998D01*
X125810062Y-235035163D01*
X125770246Y-235003209D01*
X125743913Y-234969362D01*
X125734671Y-234928983D01*
X125746126Y-234877427D01*
X125781886Y-234810053D01*
X125845557Y-234722219D01*
X125940748Y-234609283D01*
X126071065Y-234466601D01*
X126240115Y-234289533D01*
X126451506Y-234073435D01*
X126708844Y-233813665D01*
X127015737Y-233505582D01*
X128293735Y-232224072D01*
X127924105Y-232199848D01*
X127732712Y-232182400D01*
X127359455Y-232112351D01*
X127031862Y-231994086D01*
X126738225Y-231822736D01*
X126466837Y-231593427D01*
X126445477Y-231572183D01*
X126215979Y-231305080D01*
X126044957Y-231019526D01*
X125928261Y-230704567D01*
X125861739Y-230349248D01*
X125849158Y-230099697D01*
X127433543Y-230099697D01*
X127434960Y-230146414D01*
X127441658Y-230306215D01*
X127452631Y-230413179D01*
X127472285Y-230485307D01*
X127505024Y-230540598D01*
X127555253Y-230597054D01*
X127572611Y-230614087D01*
X127684296Y-230696528D01*
X127799123Y-230749290D01*
X127868337Y-230758876D01*
X128002672Y-230767818D01*
X128189622Y-230775427D01*
X128417796Y-230781334D01*
X128675808Y-230785171D01*
X128952269Y-230786571D01*
X129152680Y-230786429D01*
X129419504Y-230785218D01*
X129625061Y-230782390D01*
X129777838Y-230777484D01*
X129886324Y-230770036D01*
X129959008Y-230759585D01*
X130004378Y-230745668D01*
X130030924Y-230727822D01*
X130059140Y-230665989D01*
X130080603Y-230543809D01*
X130092861Y-230381427D01*
X130096064Y-230196614D01*
X130090363Y-230007143D01*
X130075906Y-229830786D01*
X130052844Y-229685315D01*
X130021326Y-229588503D01*
X129983954Y-229523706D01*
X129936086Y-229461410D01*
X129876077Y-229413534D01*
X129794943Y-229378192D01*
X129683701Y-229353500D01*
X129533367Y-229337575D01*
X129334958Y-229328533D01*
X129079489Y-229324489D01*
X128757976Y-229323560D01*
X128571928Y-229323723D01*
X128317655Y-229324980D01*
X128122618Y-229328020D01*
X127976961Y-229333475D01*
X127870827Y-229341979D01*
X127794362Y-229354165D01*
X127737709Y-229370666D01*
X127691014Y-229392116D01*
X127587392Y-229461236D01*
X127506875Y-229557419D01*
X127457601Y-229687079D01*
X127434760Y-229863432D01*
X127433543Y-230099697D01*
X125849158Y-230099697D01*
X125841239Y-229942615D01*
X125842396Y-229811156D01*
X125849497Y-229627533D01*
X125865843Y-229479725D01*
X125894677Y-229342906D01*
X125939243Y-229192245D01*
X126061463Y-228890946D01*
X126266239Y-228560802D01*
X126529111Y-228276834D01*
X126847723Y-228041498D01*
X127219719Y-227857250D01*
X127246971Y-227846554D01*
X127310077Y-227823800D01*
X127374538Y-227805747D01*
X127449563Y-227791734D01*
X127544364Y-227781099D01*
X127668150Y-227773183D01*
X127830130Y-227767322D01*
X128039515Y-227762857D01*
X128305515Y-227759125D01*
X128637339Y-227755465D01*
X128979823Y-227752409D01*
X129289966Y-227751668D01*
X129543431Y-227754703D01*
X129749782Y-227762619D01*
X129918587Y-227776519D01*
X130059409Y-227797509D01*
X130181817Y-227826692D01*
X130295374Y-227865173D01*
X130409647Y-227914056D01*
X130534202Y-227974445D01*
X130762024Y-228109787D01*
X131048101Y-228349060D01*
X131291393Y-228637516D01*
X131481942Y-228962766D01*
X131609789Y-229312424D01*
X131610695Y-229315958D01*
X131621483Y-229368671D01*
X131630810Y-229438799D01*
X131638775Y-229531583D01*
X131645480Y-229652258D01*
X131651022Y-229806065D01*
X131655503Y-229998241D01*
X131658463Y-230196614D01*
X131659021Y-230234023D01*
G37*
D13*
%TO.C,SW2*%
X171770000Y-131770000D02*
X178230000Y-131770000D01*
X171770000Y-131800000D02*
X171770000Y-131770000D01*
X171770000Y-136300000D02*
X171770000Y-133700000D01*
X171770000Y-138200000D02*
X171770000Y-138230000D01*
X171770000Y-138230000D02*
X178230000Y-138230000D01*
X178230000Y-131770000D02*
X178230000Y-131800000D01*
X178230000Y-136300000D02*
X178230000Y-133700000D01*
X178230000Y-138200000D02*
X178230000Y-138230000D01*
%TD*%
%LPC*%
D15*
%TO.C,D243*%
X175787500Y-110000000D03*
X174212500Y-110000000D03*
%TD*%
D16*
%TO.C,H3*%
X190000000Y-190000000D03*
%TD*%
%TO.C,H2*%
X190000000Y-60000000D03*
%TD*%
%TO.C,H1*%
X60000000Y-60000000D03*
%TD*%
%TO.C,H4*%
X60000000Y-190000000D03*
%TD*%
D17*
%TO.C,SW3*%
X178975000Y-112750000D03*
X171025000Y-112750000D03*
X178975000Y-117250000D03*
X171025000Y-117250000D03*
%TD*%
D18*
%TO.C,J3*%
X127525000Y-30000000D03*
D19*
X124985000Y-30000000D03*
X122445000Y-30000000D03*
%TD*%
D20*
%TO.C,JP1*%
X71150000Y-129000000D03*
D21*
X69850000Y-129000000D03*
%TD*%
D22*
%TO.C,J1*%
X50250000Y-125165000D03*
D23*
X42750000Y-125165000D03*
D24*
X49250000Y-124330000D03*
X48750000Y-124330000D03*
X48250000Y-124330000D03*
X47750000Y-124330000D03*
X47250000Y-124330000D03*
X46750000Y-124330000D03*
X46250000Y-124330000D03*
X45750000Y-124330000D03*
X45250000Y-124330000D03*
X44750000Y-124330000D03*
X44250000Y-124330000D03*
X43750000Y-124330000D03*
X43750000Y-126000000D03*
X44250000Y-126000000D03*
X44750000Y-126000000D03*
X45250000Y-126000000D03*
X45750000Y-126000000D03*
X46250000Y-126000000D03*
X46750000Y-126000000D03*
X47250000Y-126000000D03*
X47750000Y-126000000D03*
X48250000Y-126000000D03*
X48750000Y-126000000D03*
X49250000Y-126000000D03*
D25*
X48900000Y-127315000D03*
X48900000Y-123015000D03*
X44100000Y-127315000D03*
X44100000Y-123015000D03*
%TD*%
D15*
%TO.C,D242*%
X71287500Y-121000000D03*
X69712500Y-121000000D03*
%TD*%
D26*
%TO.C,SW1*%
X57857500Y-122500000D03*
D27*
X57857500Y-125000000D03*
X57857500Y-127500000D03*
X61157500Y-127500000D03*
X61157500Y-125000000D03*
X61157500Y-122500000D03*
%TD*%
D28*
%TO.C,J2*%
X60500000Y-147950000D03*
D29*
X58500000Y-147950000D03*
%TD*%
D15*
%TO.C,D241*%
X71287500Y-125000000D03*
X69712500Y-125000000D03*
%TD*%
D17*
%TO.C,SW2*%
X178975000Y-132750000D03*
X171025000Y-132750000D03*
X178975000Y-137250000D03*
X171025000Y-137250000D03*
%TD*%
%LPD*%
M02*
