%TF.GenerationSoftware,KiCad,Pcbnew,8.0.4*%
%TF.CreationDate,2024-08-19T15:11:55+02:00*%
%TF.ProjectId,RocSync_testing,526f6353-796e-4635-9f74-657374696e67,rev?*%
%TF.SameCoordinates,Original*%
%TF.FileFunction,Legend,Top*%
%TF.FilePolarity,Positive*%
%FSLAX46Y46*%
G04 Gerber Fmt 4.6, Leading zero omitted, Abs format (unit mm)*
G04 Created by KiCad (PCBNEW 8.0.4) date 2024-08-19 15:11:55*
%MOMM*%
%LPD*%
G01*
G04 APERTURE LIST*
G04 Aperture macros list*
%AMRoundRect*
0 Rectangle with rounded corners*
0 $1 Rounding radius*
0 $2 $3 $4 $5 $6 $7 $8 $9 X,Y pos of 4 corners*
0 Add a 4 corners polygon primitive as box body*
4,1,4,$2,$3,$4,$5,$6,$7,$8,$9,$2,$3,0*
0 Add four circle primitives for the rounded corners*
1,1,$1+$1,$2,$3*
1,1,$1+$1,$4,$5*
1,1,$1+$1,$6,$7*
1,1,$1+$1,$8,$9*
0 Add four rect primitives between the rounded corners*
20,1,$1+$1,$2,$3,$4,$5,0*
20,1,$1+$1,$4,$5,$6,$7,0*
20,1,$1+$1,$6,$7,$8,$9,0*
20,1,$1+$1,$8,$9,$2,$3,0*%
%AMRotRect*
0 Rectangle, with rotation*
0 The origin of the aperture is its center*
0 $1 length*
0 $2 width*
0 $3 Rotation angle, in degrees counterclockwise*
0 Add horizontal line*
21,1,$1,$2,0,0,$3*%
G04 Aperture macros list end*
%ADD10C,3.050000*%
%ADD11C,0.800000*%
%ADD12C,0.500000*%
%ADD13C,0.120000*%
%ADD14C,15.000000*%
%ADD15C,0.000000*%
%ADD16RoundRect,0.135000X-0.185000X0.135000X-0.185000X-0.135000X0.185000X-0.135000X0.185000X0.135000X0*%
%ADD17RotRect,1.500000X2.200000X223.200000*%
%ADD18RotRect,2.000000X2.200000X223.200000*%
%ADD19RotRect,1.500000X2.200000X154.800000*%
%ADD20RotRect,2.000000X2.200000X154.800000*%
%ADD21RotRect,1.500000X2.200000X244.800000*%
%ADD22RotRect,2.000000X2.200000X244.800000*%
%ADD23RotRect,1.500000X2.200000X338.400000*%
%ADD24RotRect,2.000000X2.200000X338.400000*%
%ADD25RotRect,1.500000X2.200000X14.400000*%
%ADD26RotRect,2.000000X2.200000X14.400000*%
%ADD27R,2.200000X1.500000*%
%ADD28R,2.200000X2.000000*%
%ADD29RotRect,1.500000X2.200000X3.600000*%
%ADD30RotRect,2.000000X2.200000X3.600000*%
%ADD31R,1.500000X2.200000*%
%ADD32R,2.000000X2.200000*%
%ADD33RotRect,1.500000X2.200000X75.600000*%
%ADD34RotRect,2.000000X2.200000X75.600000*%
%ADD35RotRect,1.500000X2.200000X133.200000*%
%ADD36RotRect,2.000000X2.200000X133.200000*%
%ADD37RotRect,1.500000X2.200000X280.800000*%
%ADD38RotRect,2.000000X2.200000X280.800000*%
%ADD39RotRect,1.500000X2.200000X158.400000*%
%ADD40RotRect,2.000000X2.200000X158.400000*%
%ADD41RotRect,1.500000X2.200000X298.800000*%
%ADD42RotRect,2.000000X2.200000X298.800000*%
%ADD43RotRect,1.500000X2.200000X54.000000*%
%ADD44RotRect,2.000000X2.200000X54.000000*%
%ADD45RotRect,1.500000X2.200000X115.200000*%
%ADD46RotRect,2.000000X2.200000X115.200000*%
%ADD47RotRect,1.500000X2.200000X7.200000*%
%ADD48RotRect,2.000000X2.200000X7.200000*%
%ADD49RotRect,1.500000X2.200000X320.400000*%
%ADD50RotRect,2.000000X2.200000X320.400000*%
%ADD51RotRect,1.500000X2.200000X72.000000*%
%ADD52RotRect,2.000000X2.200000X72.000000*%
%ADD53RotRect,1.500000X2.200000X237.600000*%
%ADD54RotRect,2.000000X2.200000X237.600000*%
%ADD55RotRect,1.500000X2.200000X194.400000*%
%ADD56RotRect,2.000000X2.200000X194.400000*%
%ADD57RotRect,1.500000X2.200000X32.400000*%
%ADD58RotRect,2.000000X2.200000X32.400000*%
%ADD59RotRect,1.500000X2.200000X36.000000*%
%ADD60RotRect,2.000000X2.200000X36.000000*%
%ADD61RotRect,1.500000X2.200000X104.400000*%
%ADD62RotRect,2.000000X2.200000X104.400000*%
%ADD63RotRect,1.500000X2.200000X57.600000*%
%ADD64RotRect,2.000000X2.200000X57.600000*%
%ADD65RotRect,1.500000X2.200000X309.600000*%
%ADD66RotRect,2.000000X2.200000X309.600000*%
%ADD67RotRect,1.500000X2.200000X356.400000*%
%ADD68RotRect,2.000000X2.200000X356.400000*%
%ADD69RotRect,1.500000X2.200000X313.200000*%
%ADD70RotRect,2.000000X2.200000X313.200000*%
%ADD71RotRect,1.500000X2.200000X302.400000*%
%ADD72RotRect,2.000000X2.200000X302.400000*%
%ADD73RotRect,1.500000X2.200000X288.000000*%
%ADD74RotRect,2.000000X2.200000X288.000000*%
%ADD75RotRect,1.500000X2.200000X208.800000*%
%ADD76RotRect,2.000000X2.200000X208.800000*%
%ADD77RotRect,1.500000X2.200000X187.200000*%
%ADD78RotRect,2.000000X2.200000X187.200000*%
%ADD79RotRect,1.500000X2.200000X118.800000*%
%ADD80RotRect,2.000000X2.200000X118.800000*%
%ADD81RotRect,1.500000X2.200000X342.000000*%
%ADD82RotRect,2.000000X2.200000X342.000000*%
%ADD83RotRect,1.500000X2.200000X284.400000*%
%ADD84RotRect,2.000000X2.200000X284.400000*%
%ADD85RotRect,1.500000X2.200000X151.200000*%
%ADD86RotRect,2.000000X2.200000X151.200000*%
%ADD87RotRect,1.500000X2.200000X147.600000*%
%ADD88RotRect,2.000000X2.200000X147.600000*%
%ADD89RotRect,1.500000X2.200000X18.000000*%
%ADD90RotRect,2.000000X2.200000X18.000000*%
%ADD91RotRect,1.500000X2.200000X100.800000*%
%ADD92RotRect,2.000000X2.200000X100.800000*%
%ADD93RotRect,1.500000X2.200000X144.000000*%
%ADD94RotRect,2.000000X2.200000X144.000000*%
%ADD95RotRect,1.500000X2.200000X234.000000*%
%ADD96RotRect,2.000000X2.200000X234.000000*%
%ADD97RotRect,1.500000X2.200000X108.000000*%
%ADD98RotRect,2.000000X2.200000X108.000000*%
%ADD99RotRect,1.500000X2.200000X331.200000*%
%ADD100RotRect,2.000000X2.200000X331.200000*%
%ADD101RotRect,1.500000X2.200000X129.600000*%
%ADD102RotRect,2.000000X2.200000X129.600000*%
%ADD103RotRect,1.500000X2.200000X327.600000*%
%ADD104RotRect,2.000000X2.200000X327.600000*%
%ADD105RotRect,1.500000X2.200000X295.200000*%
%ADD106RotRect,2.000000X2.200000X295.200000*%
%ADD107RotRect,1.500000X2.200000X82.800000*%
%ADD108RotRect,2.000000X2.200000X82.800000*%
%ADD109RotRect,1.500000X2.200000X39.600000*%
%ADD110RotRect,2.000000X2.200000X39.600000*%
%ADD111RotRect,1.500000X2.200000X316.800000*%
%ADD112RotRect,2.000000X2.200000X316.800000*%
%ADD113RotRect,1.500000X2.200000X79.200000*%
%ADD114RotRect,2.000000X2.200000X79.200000*%
%ADD115RotRect,1.500000X2.200000X306.000000*%
%ADD116RotRect,2.000000X2.200000X306.000000*%
%ADD117RotRect,1.500000X2.200000X252.000000*%
%ADD118RotRect,2.000000X2.200000X252.000000*%
%ADD119RotRect,1.500000X2.200000X25.200000*%
%ADD120RotRect,2.000000X2.200000X25.200000*%
%ADD121RotRect,1.500000X2.200000X122.400000*%
%ADD122RotRect,2.000000X2.200000X122.400000*%
%ADD123RotRect,1.500000X2.200000X64.800000*%
%ADD124RotRect,2.000000X2.200000X64.800000*%
%ADD125RotRect,1.500000X2.200000X230.400000*%
%ADD126RotRect,2.000000X2.200000X230.400000*%
%ADD127RotRect,1.500000X2.200000X165.600000*%
%ADD128RotRect,2.000000X2.200000X165.600000*%
%ADD129RotRect,1.500000X2.200000X248.400000*%
%ADD130RotRect,2.000000X2.200000X248.400000*%
%ADD131RotRect,1.500000X2.200000X226.800000*%
%ADD132RotRect,2.000000X2.200000X226.800000*%
%ADD133RotRect,1.500000X2.200000X324.000000*%
%ADD134RotRect,2.000000X2.200000X324.000000*%
%ADD135RotRect,1.500000X2.200000X50.400000*%
%ADD136RotRect,2.000000X2.200000X50.400000*%
%ADD137RotRect,1.500000X2.200000X162.000000*%
%ADD138RotRect,2.000000X2.200000X162.000000*%
%ADD139RotRect,1.500000X2.200000X176.400000*%
%ADD140RotRect,2.000000X2.200000X176.400000*%
%ADD141RotRect,1.500000X2.200000X255.600000*%
%ADD142RotRect,2.000000X2.200000X255.600000*%
%ADD143RotRect,1.500000X2.200000X61.200000*%
%ADD144RotRect,2.000000X2.200000X61.200000*%
%ADD145RotRect,1.500000X2.200000X219.600000*%
%ADD146RotRect,2.000000X2.200000X219.600000*%
%ADD147RotRect,1.500000X2.200000X46.800000*%
%ADD148RotRect,2.000000X2.200000X46.800000*%
%ADD149RotRect,1.500000X2.200000X97.200000*%
%ADD150RotRect,2.000000X2.200000X97.200000*%
%ADD151RotRect,1.500000X2.200000X334.800000*%
%ADD152RotRect,2.000000X2.200000X334.800000*%
%ADD153RotRect,1.500000X2.200000X86.400000*%
%ADD154RotRect,2.000000X2.200000X86.400000*%
%ADD155RotRect,1.500000X2.200000X201.600000*%
%ADD156RotRect,2.000000X2.200000X201.600000*%
%ADD157RotRect,1.500000X2.200000X259.200000*%
%ADD158RotRect,2.000000X2.200000X259.200000*%
%ADD159RotRect,1.500000X2.200000X349.200000*%
%ADD160RotRect,2.000000X2.200000X349.200000*%
%ADD161RotRect,1.500000X2.200000X140.400000*%
%ADD162RotRect,2.000000X2.200000X140.400000*%
%ADD163RotRect,1.500000X2.200000X345.600000*%
%ADD164RotRect,2.000000X2.200000X345.600000*%
%ADD165RotRect,1.500000X2.200000X43.200000*%
%ADD166RotRect,2.000000X2.200000X43.200000*%
%ADD167RotRect,1.500000X2.200000X241.200000*%
%ADD168RotRect,2.000000X2.200000X241.200000*%
%ADD169RotRect,1.500000X2.200000X212.400000*%
%ADD170RotRect,2.000000X2.200000X212.400000*%
%ADD171RotRect,1.500000X2.200000X205.200000*%
%ADD172RotRect,2.000000X2.200000X205.200000*%
%ADD173RotRect,1.500000X2.200000X93.600000*%
%ADD174RotRect,2.000000X2.200000X93.600000*%
%ADD175RotRect,1.500000X2.200000X183.600000*%
%ADD176RotRect,2.000000X2.200000X183.600000*%
%ADD177RotRect,1.500000X2.200000X172.800000*%
%ADD178RotRect,2.000000X2.200000X172.800000*%
%ADD179RotRect,1.500000X2.200000X28.800000*%
%ADD180RotRect,2.000000X2.200000X28.800000*%
%ADD181RotRect,1.500000X2.200000X198.000000*%
%ADD182RotRect,2.000000X2.200000X198.000000*%
%ADD183RotRect,1.500000X2.200000X216.000000*%
%ADD184RotRect,2.000000X2.200000X216.000000*%
%ADD185RotRect,1.500000X2.200000X273.600000*%
%ADD186RotRect,2.000000X2.200000X273.600000*%
%ADD187RotRect,1.500000X2.200000X277.200000*%
%ADD188RotRect,2.000000X2.200000X277.200000*%
%ADD189RotRect,1.500000X2.200000X352.800000*%
%ADD190RotRect,2.000000X2.200000X352.800000*%
%ADD191RotRect,1.500000X2.200000X68.400000*%
%ADD192RotRect,2.000000X2.200000X68.400000*%
%ADD193RotRect,1.500000X2.200000X10.800000*%
%ADD194RotRect,2.000000X2.200000X10.800000*%
%ADD195RotRect,1.500000X2.200000X262.800000*%
%ADD196RotRect,2.000000X2.200000X262.800000*%
%ADD197RotRect,1.500000X2.200000X126.000000*%
%ADD198RotRect,2.000000X2.200000X126.000000*%
%ADD199RotRect,1.500000X2.200000X21.600000*%
%ADD200RotRect,2.000000X2.200000X21.600000*%
%ADD201RotRect,1.500000X2.200000X136.800000*%
%ADD202RotRect,2.000000X2.200000X136.800000*%
%ADD203RotRect,1.500000X2.200000X291.600000*%
%ADD204RotRect,2.000000X2.200000X291.600000*%
%ADD205RotRect,1.500000X2.200000X111.600000*%
%ADD206RotRect,2.000000X2.200000X111.600000*%
%ADD207RotRect,1.500000X2.200000X266.400000*%
%ADD208RotRect,2.000000X2.200000X266.400000*%
%ADD209RotRect,1.500000X2.200000X169.200000*%
%ADD210RotRect,2.000000X2.200000X169.200000*%
%ADD211RotRect,1.500000X2.200000X190.800000*%
%ADD212RotRect,2.000000X2.200000X190.800000*%
%ADD213RotRect,1.000000X2.400000X244.800000*%
%ADD214RotRect,1.000000X2.400000X46.800000*%
%ADD215RoundRect,0.140000X0.170000X-0.140000X0.170000X0.140000X-0.170000X0.140000X-0.170000X-0.140000X0*%
%ADD216RotRect,1.000000X2.400000X61.200000*%
%ADD217RotRect,1.000000X2.400000X190.800000*%
%ADD218RotRect,1.000000X2.400000X309.600000*%
%ADD219R,1.000000X2.400000*%
%ADD220RotRect,1.000000X2.400000X21.600000*%
%ADD221RotRect,1.000000X2.400000X126.000000*%
%ADD222RotRect,1.000000X2.400000X10.800000*%
%ADD223RotRect,1.000000X2.400000X288.000000*%
%ADD224RoundRect,0.200000X0.200000X0.275000X-0.200000X0.275000X-0.200000X-0.275000X0.200000X-0.275000X0*%
%ADD225C,3.200000*%
%ADD226RotRect,1.000000X2.400000X216.000000*%
%ADD227RoundRect,0.135000X-0.135000X-0.185000X0.135000X-0.185000X0.135000X0.185000X-0.135000X0.185000X0*%
%ADD228RoundRect,0.062500X0.062500X-0.375000X0.062500X0.375000X-0.062500X0.375000X-0.062500X-0.375000X0*%
%ADD229RoundRect,0.062500X0.375000X-0.062500X0.375000X0.062500X-0.375000X0.062500X-0.375000X-0.062500X0*%
%ADD230R,2.100000X2.100000*%
%ADD231RotRect,1.000000X2.400000X316.800000*%
%ADD232RotRect,1.000000X2.400000X241.200000*%
%ADD233RoundRect,0.200000X0.275000X-0.200000X0.275000X0.200000X-0.275000X0.200000X-0.275000X-0.200000X0*%
%ADD234RotRect,1.000000X2.400000X183.600000*%
%ADD235RotRect,1.000000X2.400000X205.200000*%
%ADD236RoundRect,0.140000X-0.170000X0.140000X-0.170000X-0.140000X0.170000X-0.140000X0.170000X0.140000X0*%
%ADD237RotRect,1.000000X2.400000X140.400000*%
%ADD238RoundRect,0.062500X-0.062500X0.375000X-0.062500X-0.375000X0.062500X-0.375000X0.062500X0.375000X0*%
%ADD239RoundRect,0.062500X-0.375000X0.062500X-0.375000X-0.062500X0.375000X-0.062500X0.375000X0.062500X0*%
%ADD240RoundRect,0.062500X0.375000X0.062500X-0.375000X0.062500X-0.375000X-0.062500X0.375000X-0.062500X0*%
%ADD241RoundRect,0.062500X0.062500X0.375000X-0.062500X0.375000X-0.062500X-0.375000X0.062500X-0.375000X0*%
%ADD242RotRect,1.000000X2.400000X39.600000*%
%ADD243RotRect,1.000000X2.400000X352.800000*%
%ADD244RotRect,1.000000X2.400000X252.000000*%
%ADD245RotRect,1.000000X2.400000X208.800000*%
%ADD246RoundRect,0.140000X0.140000X0.170000X-0.140000X0.170000X-0.140000X-0.170000X0.140000X-0.170000X0*%
%ADD247RotRect,1.000000X2.400000X72.000000*%
%ADD248RotRect,1.000000X2.400000X248.400000*%
%ADD249RotRect,1.000000X2.400000X32.400000*%
%ADD250RotRect,1.000000X2.400000X338.400000*%
%ADD251RotRect,1.000000X2.400000X64.800000*%
%ADD252RotRect,1.000000X2.400000X219.600000*%
%ADD253RotRect,1.000000X2.400000X187.200000*%
%ADD254RotRect,1.000000X2.400000X273.600000*%
%ADD255RotRect,1.000000X2.400000X122.400000*%
%ADD256RoundRect,0.140000X-0.140000X-0.170000X0.140000X-0.170000X0.140000X0.170000X-0.140000X0.170000X0*%
%ADD257RotRect,1.000000X2.400000X255.600000*%
%ADD258RotRect,1.000000X2.400000X111.600000*%
%ADD259RoundRect,0.062500X0.062500X-0.350000X0.062500X0.350000X-0.062500X0.350000X-0.062500X-0.350000X0*%
%ADD260RoundRect,0.062500X0.350000X-0.062500X0.350000X0.062500X-0.350000X0.062500X-0.350000X-0.062500X0*%
%ADD261R,1.680000X1.680000*%
%ADD262RotRect,1.000000X2.400000X104.400000*%
%ADD263RotRect,1.000000X2.400000X100.800000*%
%ADD264RotRect,1.000000X2.400000X327.600000*%
%ADD265RotRect,1.000000X2.400000X57.600000*%
%ADD266RotRect,1.000000X2.400000X151.200000*%
%ADD267RotRect,1.000000X2.400000X262.800000*%
%ADD268RoundRect,0.135000X0.135000X0.185000X-0.135000X0.185000X-0.135000X-0.185000X0.135000X-0.185000X0*%
%ADD269RotRect,1.000000X2.400000X158.400000*%
%ADD270RoundRect,0.200000X-0.275000X0.200000X-0.275000X-0.200000X0.275000X-0.200000X0.275000X0.200000X0*%
%ADD271RotRect,1.000000X2.400000X298.800000*%
%ADD272RotRect,1.000000X2.400000X82.800000*%
%ADD273RotRect,1.000000X2.400000X230.400000*%
%ADD274RotRect,1.000000X2.400000X198.000000*%
%ADD275RoundRect,0.062500X-0.375000X-0.062500X0.375000X-0.062500X0.375000X0.062500X-0.375000X0.062500X0*%
%ADD276RoundRect,0.062500X-0.062500X-0.375000X0.062500X-0.375000X0.062500X0.375000X-0.062500X0.375000X0*%
%ADD277RotRect,1.000000X2.400000X302.400000*%
%ADD278RotRect,1.000000X2.400000X3.600000*%
%ADD279R,2.400000X1.000000*%
%ADD280RoundRect,0.050000X-0.050000X0.375000X-0.050000X-0.375000X0.050000X-0.375000X0.050000X0.375000X0*%
%ADD281RoundRect,0.050000X-0.375000X0.050000X-0.375000X-0.050000X0.375000X-0.050000X0.375000X0.050000X0*%
%ADD282R,1.650000X1.650000*%
%ADD283RotRect,1.000000X2.400000X108.000000*%
%ADD284RotRect,1.000000X2.400000X75.600000*%
%ADD285RotRect,1.000000X2.400000X86.400000*%
%ADD286RotRect,1.000000X2.400000X25.200000*%
%ADD287RotRect,1.000000X2.400000X259.200000*%
%ADD288RotRect,1.000000X2.400000X169.200000*%
%ADD289RotRect,1.000000X2.400000X36.000000*%
%ADD290RotRect,1.000000X2.400000X147.600000*%
%ADD291RoundRect,0.150000X-0.512500X-0.150000X0.512500X-0.150000X0.512500X0.150000X-0.512500X0.150000X0*%
%ADD292RotRect,1.000000X2.400000X226.800000*%
%ADD293RotRect,1.000000X2.400000X194.400000*%
%ADD294RotRect,1.000000X2.400000X295.200000*%
%ADD295RoundRect,0.200000X-0.200000X-0.275000X0.200000X-0.275000X0.200000X0.275000X-0.200000X0.275000X0*%
%ADD296RotRect,1.000000X2.400000X291.600000*%
%ADD297RotRect,1.000000X2.400000X237.600000*%
%ADD298RotRect,1.000000X2.400000X356.400000*%
%ADD299RotRect,1.000000X2.400000X284.400000*%
%ADD300RoundRect,0.135000X0.185000X-0.135000X0.185000X0.135000X-0.185000X0.135000X-0.185000X-0.135000X0*%
%ADD301RotRect,1.000000X2.400000X320.400000*%
%ADD302RotRect,1.000000X2.400000X133.200000*%
%ADD303RotRect,1.000000X2.400000X165.600000*%
%ADD304RotRect,1.000000X2.400000X28.800000*%
%ADD305RotRect,1.000000X2.400000X154.800000*%
%ADD306RotRect,1.000000X2.400000X234.000000*%
%ADD307RotRect,1.000000X2.400000X93.600000*%
%ADD308RotRect,1.000000X2.400000X54.000000*%
%ADD309RotRect,1.000000X2.400000X201.600000*%
%ADD310RotRect,1.000000X2.400000X68.400000*%
%ADD311RotRect,1.000000X2.400000X306.000000*%
%ADD312RotRect,1.000000X2.400000X14.400000*%
%ADD313R,1.150000X1.000000*%
%ADD314RotRect,1.000000X2.400000X79.200000*%
%ADD315RotRect,1.000000X2.400000X144.000000*%
%ADD316RoundRect,0.150000X-0.150000X0.512500X-0.150000X-0.512500X0.150000X-0.512500X0.150000X0.512500X0*%
%ADD317RotRect,1.000000X2.400000X313.200000*%
%ADD318RotRect,1.000000X2.400000X43.200000*%
%ADD319RotRect,1.000000X2.400000X176.400000*%
%ADD320RotRect,1.000000X2.400000X172.800000*%
%ADD321RotRect,1.000000X2.400000X18.000000*%
%ADD322RotRect,1.000000X2.400000X162.000000*%
%ADD323RotRect,1.000000X2.400000X129.600000*%
%ADD324RotRect,1.000000X2.400000X280.800000*%
%ADD325RotRect,1.000000X2.400000X97.200000*%
%ADD326RotRect,1.000000X2.400000X115.200000*%
%ADD327RotRect,1.000000X2.400000X331.200000*%
%ADD328RotRect,1.000000X2.400000X266.400000*%
%ADD329RotRect,1.000000X2.400000X277.200000*%
%ADD330RotRect,1.000000X2.400000X345.600000*%
%ADD331RotRect,1.000000X2.400000X7.200000*%
%ADD332RotRect,1.000000X2.400000X349.200000*%
%ADD333RotRect,1.000000X2.400000X324.000000*%
%ADD334RotRect,1.000000X2.400000X118.800000*%
%ADD335RotRect,1.000000X2.400000X212.400000*%
%ADD336RotRect,1.000000X2.400000X50.400000*%
%ADD337RotRect,1.000000X2.400000X334.800000*%
%ADD338RotRect,1.000000X2.400000X342.000000*%
%ADD339RotRect,1.000000X2.400000X223.200000*%
%ADD340RotRect,1.000000X2.400000X136.800000*%
%ADD341R,1.700000X1.700000*%
%ADD342O,1.700000X1.700000*%
%ADD343C,0.660000*%
%ADD344O,1.000000X0.580000*%
%ADD345C,1.100000*%
%ADD346RoundRect,0.250000X-0.450000X0.450000X-0.450000X-0.450000X0.450000X-0.450000X0.450000X0.450000X0*%
%ADD347C,1.400000*%
%ADD348RoundRect,0.250000X0.350000X0.625000X-0.350000X0.625000X-0.350000X-0.625000X0.350000X-0.625000X0*%
%ADD349O,1.200000X1.750000*%
G04 APERTURE END LIST*
D10*
X21525000Y-20000000D02*
G75*
G02*
X18475000Y-20000000I-1525000J0D01*
G01*
X18475000Y-20000000D02*
G75*
G02*
X21525000Y-20000000I1525000J0D01*
G01*
X231525000Y-20000000D02*
G75*
G02*
X228475000Y-20000000I-1525000J0D01*
G01*
X228475000Y-20000000D02*
G75*
G02*
X231525000Y-20000000I1525000J0D01*
G01*
X21525000Y-230000000D02*
G75*
G02*
X18475000Y-230000000I-1525000J0D01*
G01*
X18475000Y-230000000D02*
G75*
G02*
X21525000Y-230000000I1525000J0D01*
G01*
X231525000Y-230000000D02*
G75*
G02*
X228475000Y-230000000I-1525000J0D01*
G01*
X228475000Y-230000000D02*
G75*
G02*
X231525000Y-230000000I1525000J0D01*
G01*
D11*
G36*
X109890899Y-200603157D02*
G01*
X110371065Y-200822976D01*
X110750872Y-201178960D01*
X110950726Y-201477155D01*
X111135554Y-201936113D01*
X111231725Y-202415439D01*
X111263782Y-202961933D01*
X111251260Y-203319865D01*
X111179132Y-203835256D01*
X111021352Y-204330771D01*
X110750872Y-204776657D01*
X110444414Y-205077727D01*
X109975697Y-205325881D01*
X109485694Y-205399476D01*
X109080103Y-205350210D01*
X108598219Y-205131250D01*
X108215631Y-204776657D01*
X108014825Y-204476808D01*
X107829117Y-204014009D01*
X107732488Y-203529644D01*
X107700279Y-202976587D01*
X107712861Y-202622936D01*
X107785332Y-202113155D01*
X107943863Y-201622127D01*
X108215631Y-201178960D01*
X108524450Y-200876709D01*
X108995114Y-200627581D01*
X109485694Y-200553698D01*
X109890899Y-200603157D01*
G37*
G36*
X100199569Y-198210603D02*
G01*
X100694783Y-198217515D01*
X101188764Y-198243161D01*
X101554528Y-198345733D01*
X101955687Y-198629064D01*
X102141016Y-198933137D01*
X102226796Y-199432623D01*
X102206522Y-199695900D01*
X102019190Y-200172679D01*
X101875459Y-200340453D01*
X101450104Y-200590334D01*
X101158458Y-200648187D01*
X100630474Y-200690262D01*
X100133158Y-200705806D01*
X99623168Y-200710013D01*
X98118632Y-200710013D01*
X98118632Y-198208967D01*
X99706210Y-198208967D01*
X100199569Y-198210603D01*
G37*
G36*
X155735325Y-210731104D02*
G01*
X94975420Y-210731104D01*
X94975420Y-200710013D01*
X96086531Y-200710013D01*
X96086531Y-206650000D01*
X98118632Y-206650000D01*
X98118632Y-202429483D01*
X98531402Y-202429483D01*
X98574844Y-202429593D01*
X99072295Y-202450988D01*
X99554780Y-202541835D01*
X99772390Y-202641588D01*
X100165387Y-202957048D01*
X100340478Y-203160838D01*
X100646498Y-203566271D01*
X100961037Y-204011175D01*
X101237613Y-204415177D01*
X102707955Y-206650000D01*
X105140614Y-206650000D01*
X103909630Y-204671632D01*
X103647164Y-204252832D01*
X103367434Y-203828479D01*
X103082663Y-203428226D01*
X102751919Y-203025436D01*
X102598270Y-202874005D01*
X105721912Y-202874005D01*
X105723126Y-202976587D01*
X105723763Y-203030349D01*
X105759392Y-203553961D01*
X105840369Y-204040875D01*
X105988442Y-204552411D01*
X106195743Y-205016015D01*
X106388714Y-205330888D01*
X106735486Y-205747491D01*
X107151038Y-206097247D01*
X107578157Y-206352023D01*
X108039471Y-206550776D01*
X108512386Y-206692742D01*
X108996903Y-206777922D01*
X109493021Y-206806315D01*
X109693281Y-206802041D01*
X110268187Y-206737927D01*
X110804281Y-206596877D01*
X111301563Y-206378890D01*
X111760034Y-206083967D01*
X112179693Y-205712107D01*
X112370875Y-205501963D01*
X112696824Y-205051793D01*
X112947555Y-204561780D01*
X113123066Y-204031926D01*
X113223358Y-203462230D01*
X113248087Y-202983914D01*
X114289951Y-202983914D01*
X114298301Y-203313227D01*
X114349332Y-203831742D01*
X114471807Y-204403900D01*
X114661085Y-204921447D01*
X114917168Y-205384383D01*
X115240055Y-205792707D01*
X115361652Y-205915449D01*
X115756782Y-206236161D01*
X116197421Y-206485603D01*
X116683569Y-206663776D01*
X117215226Y-206770680D01*
X117792393Y-206806315D01*
X118051610Y-206800777D01*
X118617381Y-206744777D01*
X119128454Y-206628471D01*
X119584830Y-206451857D01*
X120039427Y-206176168D01*
X120142028Y-206094729D01*
X120510072Y-205721648D01*
X120810338Y-205272851D01*
X121017472Y-204818045D01*
X121172714Y-204305268D01*
X119277390Y-203992637D01*
X119227289Y-204223440D01*
X119065688Y-204686375D01*
X118781577Y-205084403D01*
X118382240Y-205320708D01*
X117882763Y-205399476D01*
X117533801Y-205363756D01*
X117080196Y-205176223D01*
X116710397Y-204827948D01*
X116683650Y-204791280D01*
X116462877Y-204337237D01*
X116347396Y-203859628D01*
X116291949Y-203367376D01*
X122000697Y-203367376D01*
X122045484Y-203675844D01*
X122152281Y-204158570D01*
X122333488Y-204686048D01*
X122572569Y-205157027D01*
X122869525Y-205571505D01*
X123224354Y-205929483D01*
X123565805Y-206182086D01*
X124032691Y-206428695D01*
X124561915Y-206613652D01*
X125050556Y-206720687D01*
X125582488Y-206784908D01*
X126157711Y-206806315D01*
X126319970Y-206804874D01*
X126861280Y-206777142D01*
X127361217Y-206714113D01*
X127881913Y-206598861D01*
X128348569Y-206437508D01*
X128613623Y-206312715D01*
X129041732Y-206040003D01*
X129406858Y-205705467D01*
X129709002Y-205309106D01*
X129767267Y-205213728D01*
X130002208Y-204723954D01*
X130143172Y-204212713D01*
X130190160Y-203680006D01*
X130188586Y-203561520D01*
X130142540Y-203057848D01*
X130016602Y-202554860D01*
X129787159Y-202070446D01*
X129475122Y-201654720D01*
X129089779Y-201304220D01*
X128675854Y-201042184D01*
X128434843Y-200925000D01*
X127970591Y-200738993D01*
X127484980Y-200577741D01*
X127009765Y-200440640D01*
X126480111Y-200304570D01*
X126042943Y-200191978D01*
X125521267Y-200038155D01*
X125054153Y-199867795D01*
X124611653Y-199623133D01*
X124479152Y-199492310D01*
X124308792Y-199024738D01*
X124334295Y-198820032D01*
X124631193Y-198409246D01*
X125022125Y-198206224D01*
X125503102Y-198087475D01*
X126018492Y-198052651D01*
X126325780Y-198064243D01*
X126849681Y-198156979D01*
X127308094Y-198382379D01*
X127458733Y-198519966D01*
X127728078Y-198956541D01*
X127867411Y-199459490D01*
X129901954Y-199459490D01*
X129888329Y-199303175D01*
X130918004Y-199303175D01*
X133695045Y-206650000D01*
X133637860Y-206857045D01*
X133454017Y-207340110D01*
X133199232Y-207771074D01*
X133113175Y-207874687D01*
X132693251Y-208140193D01*
X132205164Y-208213154D01*
X131869435Y-208193986D01*
X131386950Y-208113014D01*
X131557920Y-209512526D01*
X131624867Y-209525539D01*
X132132446Y-209596379D01*
X132649686Y-209619993D01*
X133140199Y-209595306D01*
X133636427Y-209507641D01*
X133920547Y-209420009D01*
X134371598Y-209195010D01*
X134568375Y-209042888D01*
X134899162Y-208672330D01*
X134928252Y-208630895D01*
X135182448Y-208187014D01*
X135385205Y-207736880D01*
X135844382Y-206383775D01*
X138421144Y-199303175D01*
X139605722Y-199303175D01*
X139605722Y-206650000D01*
X141535240Y-206650000D01*
X141535240Y-203284333D01*
X141535813Y-203131691D01*
X141549551Y-202582373D01*
X141586903Y-202081535D01*
X141681786Y-201577076D01*
X141876202Y-201182805D01*
X142228890Y-200834577D01*
X142625200Y-200632970D01*
X143130146Y-200553698D01*
X143341077Y-200569154D01*
X143799372Y-200749092D01*
X143943627Y-200871560D01*
X144199930Y-201298639D01*
X144207593Y-201321603D01*
X144289338Y-201817416D01*
X144316708Y-202307972D01*
X144324494Y-202856908D01*
X144324494Y-206650000D01*
X146254012Y-206650000D01*
X146254012Y-202983914D01*
X147741451Y-202983914D01*
X147749802Y-203313227D01*
X147800833Y-203831742D01*
X147923307Y-204403900D01*
X148112586Y-204921447D01*
X148368669Y-205384383D01*
X148691556Y-205792707D01*
X148813152Y-205915449D01*
X149208282Y-206236161D01*
X149648921Y-206485603D01*
X150135069Y-206663776D01*
X150666727Y-206770680D01*
X151243893Y-206806315D01*
X151503111Y-206800777D01*
X152068881Y-206744777D01*
X152579954Y-206628471D01*
X153036331Y-206451857D01*
X153490928Y-206176168D01*
X153593529Y-206094729D01*
X153961572Y-205721648D01*
X154261838Y-205272851D01*
X154468972Y-204818045D01*
X154624214Y-204305268D01*
X152728890Y-203992637D01*
X152678789Y-204223440D01*
X152517188Y-204686375D01*
X152233077Y-205084403D01*
X151833740Y-205320708D01*
X151334263Y-205399476D01*
X150985301Y-205363756D01*
X150531697Y-205176223D01*
X150161898Y-204827948D01*
X150135150Y-204791280D01*
X149914378Y-204337237D01*
X149798897Y-203859628D01*
X149742430Y-203358321D01*
X149727145Y-202866678D01*
X149733862Y-202565839D01*
X149787596Y-202031253D01*
X149912274Y-201536768D01*
X150157013Y-201086147D01*
X150358988Y-200878679D01*
X150807882Y-200628574D01*
X151307397Y-200553698D01*
X151743036Y-200606525D01*
X152189113Y-200829692D01*
X152469382Y-201171022D01*
X152626308Y-201647906D01*
X154528960Y-201335275D01*
X154357138Y-200878331D01*
X154108965Y-200422513D01*
X153805531Y-200037525D01*
X153398115Y-199689078D01*
X153297680Y-199623419D01*
X152853387Y-199403142D01*
X152341011Y-199250643D01*
X151836834Y-199172805D01*
X151280530Y-199146859D01*
X151079526Y-199150809D01*
X150508112Y-199210057D01*
X149984097Y-199340403D01*
X149507480Y-199541846D01*
X149078261Y-199814386D01*
X148696441Y-200158025D01*
X148472615Y-200423372D01*
X148192833Y-200868476D01*
X147980198Y-201370080D01*
X147834712Y-201928184D01*
X147764766Y-202436431D01*
X147741451Y-202983914D01*
X146254012Y-202983914D01*
X146254012Y-202089986D01*
X146251388Y-201834031D01*
X146223682Y-201298567D01*
X146146545Y-200785729D01*
X146022859Y-200404786D01*
X145770411Y-199969958D01*
X145409290Y-199624325D01*
X144969295Y-199378890D01*
X144801688Y-199312045D01*
X144303203Y-199185153D01*
X143801814Y-199146859D01*
X143622696Y-199151658D01*
X143108470Y-199223643D01*
X142628933Y-199382010D01*
X142184087Y-199626758D01*
X141773930Y-199957889D01*
X141398464Y-200375401D01*
X141398464Y-199303175D01*
X139605722Y-199303175D01*
X138421144Y-199303175D01*
X136420795Y-199303175D01*
X134718422Y-204505547D01*
X132972086Y-199303175D01*
X130918004Y-199303175D01*
X129888329Y-199303175D01*
X129864446Y-199029167D01*
X129760720Y-198549459D01*
X129558745Y-198040372D01*
X129269582Y-197585749D01*
X128893231Y-197185589D01*
X128571135Y-196940023D01*
X128124171Y-196700283D01*
X127611261Y-196520478D01*
X127133461Y-196416425D01*
X126609865Y-196353992D01*
X126040474Y-196333182D01*
X125549036Y-196350128D01*
X125026890Y-196410998D01*
X124546877Y-196516137D01*
X124057222Y-196687334D01*
X123956138Y-196732872D01*
X123495654Y-196998629D01*
X123110066Y-197327832D01*
X122799372Y-197720481D01*
X122570108Y-198153106D01*
X122415991Y-198651583D01*
X122364619Y-199173726D01*
X122379121Y-199470214D01*
X122474290Y-199961335D01*
X122658283Y-200417161D01*
X122931100Y-200837690D01*
X123292742Y-201222923D01*
X123683378Y-201510825D01*
X124125112Y-201744205D01*
X124577972Y-201930479D01*
X125099354Y-202104044D01*
X125586182Y-202238974D01*
X125741382Y-202279102D01*
X126228529Y-202407229D01*
X126726749Y-202543800D01*
X127215282Y-202693265D01*
X127536292Y-202826707D01*
X127945568Y-203123133D01*
X128027414Y-203236083D01*
X128155617Y-203721528D01*
X128151238Y-203822908D01*
X127997966Y-204293743D01*
X127657362Y-204678960D01*
X127625749Y-204704054D01*
X127172716Y-204943050D01*
X126691291Y-205054581D01*
X126177250Y-205086845D01*
X125634382Y-205042481D01*
X125123180Y-204891198D01*
X124702023Y-204632554D01*
X124635372Y-204573764D01*
X124319950Y-204178791D01*
X124108337Y-203714539D01*
X123979064Y-203211060D01*
X122000697Y-203367376D01*
X116291949Y-203367376D01*
X116290929Y-203358321D01*
X116275645Y-202866678D01*
X116282362Y-202565839D01*
X116336095Y-202031253D01*
X116460774Y-201536768D01*
X116705512Y-201086147D01*
X116907487Y-200878679D01*
X117356381Y-200628574D01*
X117855896Y-200553698D01*
X118291536Y-200606525D01*
X118737613Y-200829692D01*
X119017882Y-201171022D01*
X119174808Y-201647906D01*
X121077459Y-201335275D01*
X120905638Y-200878331D01*
X120657464Y-200422513D01*
X120354031Y-200037525D01*
X119946615Y-199689078D01*
X119846180Y-199623419D01*
X119401887Y-199403142D01*
X118889511Y-199250643D01*
X118385333Y-199172805D01*
X117829030Y-199146859D01*
X117628025Y-199150809D01*
X117056612Y-199210057D01*
X116532596Y-199340403D01*
X116055979Y-199541846D01*
X115626761Y-199814386D01*
X115244940Y-200158025D01*
X115021115Y-200423372D01*
X114741332Y-200868476D01*
X114528698Y-201370080D01*
X114383211Y-201928184D01*
X114313266Y-202436431D01*
X114289951Y-202983914D01*
X113248087Y-202983914D01*
X113249476Y-202957048D01*
X113240181Y-202652493D01*
X113183378Y-202167227D01*
X113047050Y-201621745D01*
X112836362Y-201116449D01*
X112551314Y-200651338D01*
X112191905Y-200226413D01*
X111988351Y-200033485D01*
X111549687Y-199704558D01*
X111068948Y-199451538D01*
X110546135Y-199274424D01*
X109981247Y-199173216D01*
X109478367Y-199146859D01*
X108955992Y-199176626D01*
X108458653Y-199265928D01*
X107986348Y-199414763D01*
X107539078Y-199623133D01*
X107226925Y-199816762D01*
X106810858Y-200163556D01*
X106457388Y-200577970D01*
X106195743Y-201003105D01*
X106034714Y-201344224D01*
X105871835Y-201805996D01*
X105759392Y-202334977D01*
X105721912Y-202874005D01*
X102598270Y-202874005D01*
X102493138Y-202770390D01*
X102090996Y-202448963D01*
X101665038Y-202173028D01*
X101828232Y-202146457D01*
X102358690Y-202019649D01*
X102825802Y-201840247D01*
X103282078Y-201570817D01*
X103655617Y-201232693D01*
X103947335Y-200835188D01*
X104155704Y-200387613D01*
X104280726Y-199889968D01*
X104322400Y-199342254D01*
X104320683Y-199230083D01*
X104260576Y-198692987D01*
X104114603Y-198195486D01*
X103882763Y-197737578D01*
X103579368Y-197341208D01*
X103179515Y-197001622D01*
X102710397Y-196763049D01*
X102460597Y-196684243D01*
X101971119Y-196585935D01*
X101452165Y-196527965D01*
X100939999Y-196499114D01*
X100365666Y-196489497D01*
X96086531Y-196489497D01*
X96086531Y-200710013D01*
X94975420Y-200710013D01*
X94975420Y-195222071D01*
X155735325Y-195222071D01*
X155735325Y-210731104D01*
G37*
D12*
G36*
X90164620Y-246830000D02*
G01*
X89935032Y-246830000D01*
X89978995Y-246618485D01*
X89898458Y-246700992D01*
X89816582Y-246766428D01*
X89719366Y-246821195D01*
X89620327Y-246852727D01*
X89533985Y-246861263D01*
X89434517Y-246851646D01*
X89332980Y-246817836D01*
X89242416Y-246759682D01*
X89188137Y-246707390D01*
X89127870Y-246621782D01*
X89084822Y-246518834D01*
X89061281Y-246414529D01*
X89051595Y-246314557D01*
X89050384Y-246260914D01*
X89052184Y-246214508D01*
X89297558Y-246214508D01*
X89301137Y-246314796D01*
X89314594Y-246413077D01*
X89327844Y-246462658D01*
X89372017Y-246550267D01*
X89430915Y-246613600D01*
X89521916Y-246662184D01*
X89605304Y-246673684D01*
X89707838Y-246656368D01*
X89794817Y-246611172D01*
X89876772Y-246537923D01*
X89911584Y-246496364D01*
X89974170Y-246404172D01*
X90023806Y-246304183D01*
X90060494Y-246196397D01*
X90081176Y-246100620D01*
X90092866Y-245999429D01*
X90095744Y-245914577D01*
X90088557Y-245815831D01*
X90063712Y-245721339D01*
X90015888Y-245635911D01*
X90004885Y-245622463D01*
X89930513Y-245558166D01*
X89835060Y-245521999D01*
X89777251Y-245516950D01*
X89676608Y-245531416D01*
X89614097Y-245557983D01*
X89536520Y-245617848D01*
X89468528Y-245697690D01*
X89413577Y-245786650D01*
X89372998Y-245875651D01*
X89346895Y-245948283D01*
X89318806Y-246048062D01*
X89301461Y-246147038D01*
X89297558Y-246214508D01*
X89052184Y-246214508D01*
X89054214Y-246162161D01*
X89068362Y-246051074D01*
X89092936Y-245944428D01*
X89127935Y-245842224D01*
X89159316Y-245771939D01*
X89209806Y-245680243D01*
X89265532Y-245599206D01*
X89335629Y-245519644D01*
X89412566Y-245454004D01*
X89432868Y-245439769D01*
X89525270Y-245386403D01*
X89617825Y-245350502D01*
X89720846Y-245331096D01*
X89762108Y-245329371D01*
X89859452Y-245339263D01*
X89961169Y-245375808D01*
X90050124Y-245439281D01*
X90116212Y-245515118D01*
X90172924Y-245610739D01*
X90337544Y-244797899D01*
X90584718Y-244797899D01*
X90164620Y-246830000D01*
G37*
G36*
X91491512Y-245337038D02*
G01*
X91590557Y-245360039D01*
X91691445Y-245405102D01*
X91779205Y-245470193D01*
X91799093Y-245489595D01*
X91867481Y-245576728D01*
X91911292Y-245664891D01*
X91940143Y-245764181D01*
X91954035Y-245874597D01*
X91955409Y-245925324D01*
X91951115Y-246025774D01*
X91938235Y-246128370D01*
X91935869Y-246142212D01*
X90861689Y-246142212D01*
X90856316Y-246224277D01*
X90862178Y-246327226D01*
X90882786Y-246427569D01*
X90923086Y-246519847D01*
X90950105Y-246558401D01*
X91026721Y-246628652D01*
X91123055Y-246668168D01*
X91180670Y-246673684D01*
X91283615Y-246659092D01*
X91377496Y-246619719D01*
X91431752Y-246585268D01*
X91510253Y-246515189D01*
X91570398Y-246435352D01*
X91619857Y-246340155D01*
X91624215Y-246329790D01*
X91866016Y-246361053D01*
X91825912Y-246460191D01*
X91772293Y-246545912D01*
X91701760Y-246629375D01*
X91626169Y-246700551D01*
X91540668Y-246763172D01*
X91448294Y-246810412D01*
X91349048Y-246842272D01*
X91242929Y-246858751D01*
X91179205Y-246861263D01*
X91080468Y-246853916D01*
X90977918Y-246828865D01*
X90881717Y-246786036D01*
X90796310Y-246726236D01*
X90726142Y-246650275D01*
X90675576Y-246567194D01*
X90638224Y-246473571D01*
X90614706Y-246372220D01*
X90605368Y-246274396D01*
X90604746Y-246240397D01*
X90610028Y-246135952D01*
X90625876Y-246032909D01*
X90646218Y-245954633D01*
X90901745Y-245954633D01*
X91720447Y-245954633D01*
X91721912Y-245899923D01*
X91712801Y-245792656D01*
X91681731Y-245694168D01*
X91628612Y-245616113D01*
X91551080Y-245555685D01*
X91458435Y-245523148D01*
X91388277Y-245516950D01*
X91281807Y-245529880D01*
X91182033Y-245568668D01*
X91097139Y-245626371D01*
X91028755Y-245696378D01*
X90970881Y-245783850D01*
X90928261Y-245876266D01*
X90901745Y-245954633D01*
X90646218Y-245954633D01*
X90652290Y-245931269D01*
X90689269Y-245831031D01*
X90715143Y-245774382D01*
X90766765Y-245681210D01*
X90824604Y-245599164D01*
X90898320Y-245519022D01*
X90980156Y-245453412D01*
X91001885Y-245439281D01*
X91091613Y-245391195D01*
X91184945Y-245356849D01*
X91281878Y-245336241D01*
X91382415Y-245329371D01*
X91491512Y-245337038D01*
G37*
G36*
X92133217Y-246329790D02*
G01*
X92381857Y-246298527D01*
X92389048Y-246397474D01*
X92414585Y-246491967D01*
X92473490Y-246576767D01*
X92536218Y-246622882D01*
X92632450Y-246660983D01*
X92735976Y-246673634D01*
X92743336Y-246673684D01*
X92846815Y-246665488D01*
X92944104Y-246634666D01*
X92990510Y-246604319D01*
X93054925Y-246523726D01*
X93073064Y-246441165D01*
X93045312Y-246343162D01*
X93023727Y-246312205D01*
X92943899Y-246250159D01*
X92854903Y-246202951D01*
X92775576Y-246167124D01*
X92685817Y-246128046D01*
X92591510Y-246084681D01*
X92523517Y-246048911D01*
X92442551Y-245988339D01*
X92384299Y-245917997D01*
X92346775Y-245825862D01*
X92337893Y-245744584D01*
X92351298Y-245642498D01*
X92391512Y-245549953D01*
X92458535Y-245466949D01*
X92475157Y-245451493D01*
X92561101Y-245392460D01*
X92652158Y-245356205D01*
X92757015Y-245335215D01*
X92860084Y-245329371D01*
X92958430Y-245333613D01*
X93061533Y-245349284D01*
X93164023Y-245381334D01*
X93250149Y-245428465D01*
X93278228Y-245450027D01*
X93348076Y-245523688D01*
X93396054Y-245609482D01*
X93422162Y-245707408D01*
X93427216Y-245767055D01*
X93184439Y-245798318D01*
X93166448Y-245701692D01*
X93116600Y-245617650D01*
X93091138Y-245592665D01*
X93000176Y-245540907D01*
X92899884Y-245519612D01*
X92842010Y-245516950D01*
X92740109Y-245528170D01*
X92650442Y-245568470D01*
X92641242Y-245575568D01*
X92579953Y-245652047D01*
X92569924Y-245701598D01*
X92604820Y-245793921D01*
X92631961Y-245820788D01*
X92719545Y-245872720D01*
X92813852Y-245916630D01*
X92844941Y-245930209D01*
X92944667Y-245974768D01*
X93042216Y-246022239D01*
X93128915Y-246070538D01*
X93204955Y-246126580D01*
X93267294Y-246204204D01*
X93309200Y-246301050D01*
X93323053Y-246399510D01*
X93323169Y-246409902D01*
X93308464Y-246512892D01*
X93268206Y-246607272D01*
X93256246Y-246627278D01*
X93190659Y-246706787D01*
X93109509Y-246767729D01*
X93053036Y-246797759D01*
X92953230Y-246833914D01*
X92852480Y-246853759D01*
X92753648Y-246861015D01*
X92730635Y-246861263D01*
X92623746Y-246855279D01*
X92524056Y-246837327D01*
X92418940Y-246802156D01*
X92323227Y-246751353D01*
X92300768Y-246736210D01*
X92223801Y-246663914D01*
X92170220Y-246572079D01*
X92142521Y-246475695D01*
X92132727Y-246364351D01*
X92133217Y-246329790D01*
G37*
G36*
X93861968Y-245048004D02*
G01*
X93921075Y-244797899D01*
X94168249Y-244797899D01*
X94109142Y-245048004D01*
X93861968Y-245048004D01*
G37*
G36*
X93499512Y-246830000D02*
G01*
X93804327Y-245360635D01*
X94052966Y-245360635D01*
X93748151Y-246830000D01*
X93499512Y-246830000D01*
G37*
G36*
X95007959Y-245338920D02*
G01*
X95101760Y-245367565D01*
X95199474Y-245425120D01*
X95273181Y-245495142D01*
X95337616Y-245584260D01*
X95347453Y-245600969D01*
X95396790Y-245360635D01*
X95624913Y-245360635D01*
X95330845Y-246783105D01*
X95308428Y-246880731D01*
X95279203Y-246980169D01*
X95241727Y-247076563D01*
X95204327Y-247148492D01*
X95143321Y-247231789D01*
X95067768Y-247301003D01*
X94986462Y-247351702D01*
X94895205Y-247389827D01*
X94795457Y-247413831D01*
X94687217Y-247423716D01*
X94664550Y-247423998D01*
X94559411Y-247419371D01*
X94454778Y-247403592D01*
X94361689Y-247376615D01*
X94269138Y-247331338D01*
X94193270Y-247266530D01*
X94172157Y-247239351D01*
X94127277Y-247148833D01*
X94109875Y-247046723D01*
X94109630Y-247032233D01*
X94116469Y-246955052D01*
X94368039Y-246986315D01*
X94374680Y-247086683D01*
X94388556Y-247128953D01*
X94456562Y-247199335D01*
X94462806Y-247202714D01*
X94556805Y-247230857D01*
X94637195Y-247236420D01*
X94742097Y-247228787D01*
X94841136Y-247201954D01*
X94927613Y-247149480D01*
X94961550Y-247114298D01*
X95008604Y-247025684D01*
X95042183Y-246923700D01*
X95067284Y-246823329D01*
X95081229Y-246757704D01*
X95105653Y-246639490D01*
X95032237Y-246704234D01*
X94944371Y-246762837D01*
X94854121Y-246803209D01*
X94748058Y-246827023D01*
X94693859Y-246830000D01*
X94587705Y-246819772D01*
X94490527Y-246789089D01*
X94402325Y-246737950D01*
X94323099Y-246666357D01*
X94257916Y-246576017D01*
X94216159Y-246482996D01*
X94188660Y-246376931D01*
X94176439Y-246275637D01*
X94174111Y-246202784D01*
X94175064Y-246184710D01*
X94427146Y-246184710D01*
X94431199Y-246290063D01*
X94447664Y-246391421D01*
X94455967Y-246417718D01*
X94502163Y-246508922D01*
X94568475Y-246581127D01*
X94573203Y-246584780D01*
X94664737Y-246631388D01*
X94743196Y-246642421D01*
X94842178Y-246627990D01*
X94933117Y-246589053D01*
X94985974Y-246554982D01*
X95063777Y-246483554D01*
X95124990Y-246398985D01*
X95172333Y-246306885D01*
X95181857Y-246284361D01*
X95218221Y-246182399D01*
X95242685Y-246083141D01*
X95255908Y-245976027D01*
X95257083Y-245934117D01*
X95249201Y-245832863D01*
X95221952Y-245734860D01*
X95169499Y-245644689D01*
X95157432Y-245630279D01*
X95083323Y-245565757D01*
X94989706Y-245525914D01*
X94910747Y-245516950D01*
X94810386Y-245533024D01*
X94734892Y-245567752D01*
X94652704Y-245631256D01*
X94585398Y-245708459D01*
X94576134Y-245721137D01*
X94522405Y-245811257D01*
X94483112Y-245906466D01*
X94464760Y-245967334D01*
X94441839Y-246065222D01*
X94427734Y-246165178D01*
X94427146Y-246184710D01*
X94175064Y-246184710D01*
X94179721Y-246096372D01*
X94196550Y-245993840D01*
X94224600Y-245895188D01*
X94263870Y-245800417D01*
X94291347Y-245748004D01*
X94344979Y-245662252D01*
X94411482Y-245576156D01*
X94483541Y-245502761D01*
X94561157Y-245442067D01*
X94571249Y-245435373D01*
X94663208Y-245384132D01*
X94756636Y-245349661D01*
X94862166Y-245331028D01*
X94904885Y-245329371D01*
X95007959Y-245338920D01*
G37*
G36*
X95687439Y-246830000D02*
G01*
X95992743Y-245360635D01*
X96217935Y-245360635D01*
X96164201Y-245626859D01*
X96236497Y-245554472D01*
X96314911Y-245485663D01*
X96398411Y-245424888D01*
X96438730Y-245400690D01*
X96535473Y-245357230D01*
X96633728Y-245333829D01*
X96700070Y-245329371D01*
X96803406Y-245339008D01*
X96899774Y-245371867D01*
X96978018Y-245428046D01*
X97039636Y-245511393D01*
X97071137Y-245604210D01*
X97079135Y-245691828D01*
X97070220Y-245796242D01*
X97053749Y-245895087D01*
X97043476Y-245947306D01*
X96858339Y-246830000D01*
X96609212Y-246830000D01*
X96803141Y-245886734D01*
X96821801Y-245786977D01*
X96831933Y-245687715D01*
X96831961Y-245683524D01*
X96803660Y-245588086D01*
X96781647Y-245563356D01*
X96691896Y-245521482D01*
X96637055Y-245516950D01*
X96532904Y-245528271D01*
X96435320Y-245562236D01*
X96344306Y-245618844D01*
X96296581Y-245660076D01*
X96227033Y-245744157D01*
X96174293Y-245838665D01*
X96135114Y-245935224D01*
X96101501Y-246046141D01*
X96077739Y-246149539D01*
X95936078Y-246830000D01*
X95687439Y-246830000D01*
G37*
G36*
X98183766Y-245337038D02*
G01*
X98282811Y-245360039D01*
X98383699Y-245405102D01*
X98471459Y-245470193D01*
X98491347Y-245489595D01*
X98559735Y-245576728D01*
X98603546Y-245664891D01*
X98632397Y-245764181D01*
X98646289Y-245874597D01*
X98647663Y-245925324D01*
X98643369Y-246025774D01*
X98630489Y-246128370D01*
X98628123Y-246142212D01*
X97553943Y-246142212D01*
X97548570Y-246224277D01*
X97554432Y-246327226D01*
X97575040Y-246427569D01*
X97615340Y-246519847D01*
X97642359Y-246558401D01*
X97718975Y-246628652D01*
X97815309Y-246668168D01*
X97872924Y-246673684D01*
X97975869Y-246659092D01*
X98069750Y-246619719D01*
X98124006Y-246585268D01*
X98202507Y-246515189D01*
X98262652Y-246435352D01*
X98312111Y-246340155D01*
X98316469Y-246329790D01*
X98558270Y-246361053D01*
X98518166Y-246460191D01*
X98464547Y-246545912D01*
X98394014Y-246629375D01*
X98318423Y-246700551D01*
X98232922Y-246763172D01*
X98140548Y-246810412D01*
X98041302Y-246842272D01*
X97935183Y-246858751D01*
X97871459Y-246861263D01*
X97772722Y-246853916D01*
X97670172Y-246828865D01*
X97573971Y-246786036D01*
X97488564Y-246726236D01*
X97418396Y-246650275D01*
X97367830Y-246567194D01*
X97330478Y-246473571D01*
X97306960Y-246372220D01*
X97297622Y-246274396D01*
X97297000Y-246240397D01*
X97302282Y-246135952D01*
X97318130Y-246032909D01*
X97338472Y-245954633D01*
X97593999Y-245954633D01*
X98412701Y-245954633D01*
X98414166Y-245899923D01*
X98405055Y-245792656D01*
X98373985Y-245694168D01*
X98320866Y-245616113D01*
X98243334Y-245555685D01*
X98150689Y-245523148D01*
X98080531Y-245516950D01*
X97974061Y-245529880D01*
X97874287Y-245568668D01*
X97789393Y-245626371D01*
X97721009Y-245696378D01*
X97663135Y-245783850D01*
X97620515Y-245876266D01*
X97593999Y-245954633D01*
X97338472Y-245954633D01*
X97344544Y-245931269D01*
X97381523Y-245831031D01*
X97407397Y-245774382D01*
X97459019Y-245681210D01*
X97516858Y-245599164D01*
X97590574Y-245519022D01*
X97672410Y-245453412D01*
X97694139Y-245439281D01*
X97783867Y-245391195D01*
X97877199Y-245356849D01*
X97974132Y-245336241D01*
X98074669Y-245329371D01*
X98183766Y-245337038D01*
G37*
G36*
X99971459Y-246830000D02*
G01*
X99741871Y-246830000D01*
X99785834Y-246618485D01*
X99705297Y-246700992D01*
X99623420Y-246766428D01*
X99526205Y-246821195D01*
X99427166Y-246852727D01*
X99340824Y-246861263D01*
X99241356Y-246851646D01*
X99139819Y-246817836D01*
X99049255Y-246759682D01*
X98994976Y-246707390D01*
X98934709Y-246621782D01*
X98891661Y-246518834D01*
X98868119Y-246414529D01*
X98858434Y-246314557D01*
X98857223Y-246260914D01*
X98859023Y-246214508D01*
X99104397Y-246214508D01*
X99107975Y-246314796D01*
X99121433Y-246413077D01*
X99134683Y-246462658D01*
X99178856Y-246550267D01*
X99237753Y-246613600D01*
X99328755Y-246662184D01*
X99412143Y-246673684D01*
X99514677Y-246656368D01*
X99601656Y-246611172D01*
X99683611Y-246537923D01*
X99718423Y-246496364D01*
X99781009Y-246404172D01*
X99830645Y-246304183D01*
X99867333Y-246196397D01*
X99888015Y-246100620D01*
X99899705Y-245999429D01*
X99902582Y-245914577D01*
X99895395Y-245815831D01*
X99870551Y-245721339D01*
X99822726Y-245635911D01*
X99811724Y-245622463D01*
X99737352Y-245558166D01*
X99641899Y-245521999D01*
X99584090Y-245516950D01*
X99483446Y-245531416D01*
X99420935Y-245557983D01*
X99343359Y-245617848D01*
X99275367Y-245697690D01*
X99220415Y-245786650D01*
X99179837Y-245875651D01*
X99153734Y-245948283D01*
X99125644Y-246048062D01*
X99108299Y-246147038D01*
X99104397Y-246214508D01*
X98859023Y-246214508D01*
X98861053Y-246162161D01*
X98875201Y-246051074D01*
X98899775Y-245944428D01*
X98934773Y-245842224D01*
X98966155Y-245771939D01*
X99016645Y-245680243D01*
X99072370Y-245599206D01*
X99142468Y-245519644D01*
X99219405Y-245454004D01*
X99239707Y-245439769D01*
X99332108Y-245386403D01*
X99424664Y-245350502D01*
X99527685Y-245331096D01*
X99568947Y-245329371D01*
X99666291Y-245339263D01*
X99768008Y-245375808D01*
X99856962Y-245439281D01*
X99923051Y-245515118D01*
X99979763Y-245610739D01*
X100144383Y-244797899D01*
X100391557Y-244797899D01*
X99971459Y-246830000D01*
G37*
G36*
X101656246Y-245512554D02*
G01*
X101734920Y-245450414D01*
X101821201Y-245395134D01*
X101870691Y-245370893D01*
X101968999Y-245339752D01*
X102071459Y-245329371D01*
X102169553Y-245338958D01*
X102269763Y-245372661D01*
X102359232Y-245430629D01*
X102412910Y-245482756D01*
X102472750Y-245567936D01*
X102515492Y-245670579D01*
X102538867Y-245774717D01*
X102548484Y-245874620D01*
X102549686Y-245928255D01*
X102545320Y-246035262D01*
X102532221Y-246137014D01*
X102510389Y-246233511D01*
X102494487Y-246284849D01*
X102457717Y-246380591D01*
X102411320Y-246474336D01*
X102358688Y-246555959D01*
X102297116Y-246631842D01*
X102223372Y-246704745D01*
X102191138Y-246730837D01*
X102109114Y-246785012D01*
X102019492Y-246826945D01*
X102013818Y-246829023D01*
X101919348Y-246854179D01*
X101839428Y-246861263D01*
X101736159Y-246850615D01*
X101642507Y-246818673D01*
X101585416Y-246785547D01*
X101509716Y-246717564D01*
X101452152Y-246635573D01*
X101413469Y-246554494D01*
X101355339Y-246830000D01*
X101136986Y-246830000D01*
X101252445Y-246272149D01*
X101503838Y-246272149D01*
X101510910Y-246375189D01*
X101535353Y-246472275D01*
X101582406Y-246557913D01*
X101593231Y-246571102D01*
X101673119Y-246637520D01*
X101767518Y-246670078D01*
X101815981Y-246673684D01*
X101918404Y-246658125D01*
X102006652Y-246616142D01*
X102055339Y-246579406D01*
X102125890Y-246502123D01*
X102181913Y-246410226D01*
X102225727Y-246309900D01*
X102234613Y-246285338D01*
X102265388Y-246187366D01*
X102289499Y-246081746D01*
X102302482Y-245980994D01*
X102304955Y-245916531D01*
X102297923Y-245816406D01*
X102273613Y-245721018D01*
X102221520Y-245628591D01*
X102216051Y-245621974D01*
X102137279Y-245553975D01*
X102044642Y-245520642D01*
X101997209Y-245516950D01*
X101899184Y-245532200D01*
X101807341Y-245577950D01*
X101749547Y-245625394D01*
X101682905Y-245704315D01*
X101629045Y-245794921D01*
X101586035Y-245891031D01*
X101561480Y-245958541D01*
X101531856Y-246053882D01*
X101510790Y-246154815D01*
X101505304Y-246227697D01*
X101503838Y-246272149D01*
X101252445Y-246272149D01*
X101557572Y-244797899D01*
X101806211Y-244797899D01*
X101656246Y-245512554D01*
G37*
G36*
X102600977Y-247394200D02*
G01*
X102616120Y-247151912D01*
X102715527Y-247171296D01*
X102766085Y-247173893D01*
X102862989Y-247154659D01*
X102888207Y-247139699D01*
X102959751Y-247064257D01*
X103015651Y-246978819D01*
X103020098Y-246971172D01*
X103099721Y-246829023D01*
X102856455Y-245360635D01*
X103101187Y-245360635D01*
X103211096Y-246093852D01*
X103226880Y-246202509D01*
X103241504Y-246311106D01*
X103254968Y-246419641D01*
X103267272Y-246528115D01*
X103919889Y-245360635D01*
X104179763Y-245360635D01*
X103249686Y-247013182D01*
X103200193Y-247100680D01*
X103145142Y-247187784D01*
X103085776Y-247267583D01*
X103016891Y-247337707D01*
X103010328Y-247342909D01*
X102920469Y-247395411D01*
X102819968Y-247421147D01*
X102769993Y-247423998D01*
X102668697Y-247413493D01*
X102600977Y-247394200D01*
G37*
G36*
X104891487Y-246236001D02*
G01*
X105141591Y-246236001D01*
X105125105Y-246334797D01*
X105119610Y-246403551D01*
X105136951Y-246501493D01*
X105188975Y-246577452D01*
X105277978Y-246628146D01*
X105381926Y-246642421D01*
X105480503Y-246628128D01*
X105539219Y-246601877D01*
X105614591Y-246533641D01*
X105650105Y-246475847D01*
X105685674Y-246378110D01*
X105711113Y-246273925D01*
X105717516Y-246243328D01*
X106016958Y-244797899D01*
X106284648Y-244797899D01*
X105978367Y-246284361D01*
X105951131Y-246394465D01*
X105917780Y-246492135D01*
X105871144Y-246590370D01*
X105816186Y-246671681D01*
X105762457Y-246727906D01*
X105681734Y-246786250D01*
X105590510Y-246827923D01*
X105488783Y-246852928D01*
X105391156Y-246861132D01*
X105376553Y-246861263D01*
X105272976Y-246855699D01*
X105168913Y-246835717D01*
X105070089Y-246795867D01*
X104998465Y-246745003D01*
X104931232Y-246663182D01*
X104888899Y-246563042D01*
X104872091Y-246457254D01*
X104870970Y-246418695D01*
X104876761Y-246320909D01*
X104891487Y-246236001D01*
G37*
G36*
X107221255Y-245335589D02*
G01*
X107323523Y-245354242D01*
X107427235Y-245390787D01*
X107516903Y-245443574D01*
X107537125Y-245459309D01*
X107605819Y-245532673D01*
X107648237Y-245628374D01*
X107657781Y-245710879D01*
X107652138Y-245812341D01*
X107636911Y-245917018D01*
X107623587Y-245982965D01*
X107542499Y-246347864D01*
X107522148Y-246450255D01*
X107508468Y-246548340D01*
X107503908Y-246631186D01*
X107514585Y-246734503D01*
X107534194Y-246830000D01*
X107282624Y-246830000D01*
X107262566Y-246731704D01*
X107253804Y-246648771D01*
X107174110Y-246712465D01*
X107088540Y-246768864D01*
X107005164Y-246810949D01*
X106905265Y-246843525D01*
X106808327Y-246858855D01*
X106749686Y-246861263D01*
X106642151Y-246851873D01*
X106547058Y-246823705D01*
X106455992Y-246770381D01*
X106423866Y-246742561D01*
X106358694Y-246661579D01*
X106317659Y-246567622D01*
X106300762Y-246460689D01*
X106300279Y-246437745D01*
X106301404Y-246426999D01*
X106547453Y-246426999D01*
X106565527Y-246525062D01*
X106619749Y-246604319D01*
X106707310Y-246656343D01*
X106808971Y-246673413D01*
X106825402Y-246673684D01*
X106924204Y-246662559D01*
X107019781Y-246629182D01*
X107062806Y-246606273D01*
X107141666Y-246548296D01*
X107211593Y-246468743D01*
X107242568Y-246418695D01*
X107284500Y-246323738D01*
X107313742Y-246228185D01*
X107335907Y-246129755D01*
X107345639Y-246075778D01*
X107248560Y-246105056D01*
X107233776Y-246108018D01*
X107134592Y-246121876D01*
X107033985Y-246131953D01*
X106933510Y-246142609D01*
X106830327Y-246157731D01*
X106733416Y-246180385D01*
X106727704Y-246182267D01*
X106641048Y-246227931D01*
X106592882Y-246279476D01*
X106552821Y-246372982D01*
X106547453Y-246426999D01*
X106301404Y-246426999D01*
X106310938Y-246335885D01*
X106346015Y-246238784D01*
X106355967Y-246220858D01*
X106416116Y-246140737D01*
X106492151Y-246077146D01*
X106503490Y-246069916D01*
X106592127Y-246026078D01*
X106688498Y-245996423D01*
X106729170Y-245987850D01*
X106831057Y-245974627D01*
X106939097Y-245966784D01*
X107046686Y-245961472D01*
X107155618Y-245954694D01*
X107258314Y-245942544D01*
X107355286Y-245921187D01*
X107382764Y-245911646D01*
X107404379Y-245813339D01*
X107411584Y-245733349D01*
X107386969Y-245634202D01*
X107348570Y-245589734D01*
X107257341Y-245539979D01*
X107155034Y-245519509D01*
X107095534Y-245516950D01*
X106994763Y-245525608D01*
X106900104Y-245554803D01*
X106839568Y-245590223D01*
X106767550Y-245659915D01*
X106713430Y-245749923D01*
X106694487Y-245798318D01*
X106443406Y-245767055D01*
X106487400Y-245667251D01*
X106542691Y-245579842D01*
X106609277Y-245504829D01*
X106687160Y-245442212D01*
X106776126Y-245392844D01*
X106875960Y-245357581D01*
X106972231Y-245338297D01*
X107076823Y-245329812D01*
X107108235Y-245329371D01*
X107221255Y-245335589D01*
G37*
G36*
X107827286Y-246830000D02*
G01*
X108132589Y-245360635D01*
X108352408Y-245360635D01*
X108290370Y-245614647D01*
X108353418Y-245538754D01*
X108422474Y-245468477D01*
X108503955Y-245403665D01*
X108510677Y-245399225D01*
X108599197Y-245353998D01*
X108696329Y-245331077D01*
X108731473Y-245329371D01*
X108831699Y-245340393D01*
X108914166Y-245360635D01*
X108812561Y-245610739D01*
X108740467Y-245537558D01*
X108670901Y-245516950D01*
X108572120Y-245539207D01*
X108488333Y-245591757D01*
X108411783Y-245665482D01*
X108403210Y-245675219D01*
X108345962Y-245756333D01*
X108301357Y-245845096D01*
X108260874Y-245951617D01*
X108230286Y-246053948D01*
X108202561Y-246168611D01*
X108187300Y-246243328D01*
X108063713Y-246830000D01*
X107827286Y-246830000D01*
G37*
G36*
X109709519Y-245337296D02*
G01*
X109810198Y-245361068D01*
X109901059Y-245400688D01*
X109982103Y-245456156D01*
X110024006Y-245494968D01*
X110087008Y-245572956D01*
X110134535Y-245662024D01*
X110166589Y-245762172D01*
X110183168Y-245873399D01*
X110185695Y-245941933D01*
X110180833Y-246050739D01*
X110166247Y-246156179D01*
X110141937Y-246258254D01*
X110107903Y-246356962D01*
X110084090Y-246411856D01*
X110035524Y-246502119D01*
X109978729Y-246582706D01*
X109903747Y-246662955D01*
X109818018Y-246730564D01*
X109794906Y-246745491D01*
X109699865Y-246796141D01*
X109602321Y-246832320D01*
X109502273Y-246854027D01*
X109399721Y-246861263D01*
X109296176Y-246854155D01*
X109198641Y-246832831D01*
X109107116Y-246797292D01*
X109089533Y-246788478D01*
X109001555Y-246730946D01*
X108929046Y-246659098D01*
X108876553Y-246581360D01*
X108834836Y-246484215D01*
X108811938Y-246387586D01*
X108803352Y-246283039D01*
X108803280Y-246272149D01*
X108804158Y-246248702D01*
X109051919Y-246248702D01*
X109058087Y-246346918D01*
X109079768Y-246442303D01*
X109127467Y-246537160D01*
X109150594Y-246565729D01*
X109232453Y-246631514D01*
X109329288Y-246666937D01*
X109402164Y-246673684D01*
X109501120Y-246660899D01*
X109559945Y-246640956D01*
X109649376Y-246590036D01*
X109706002Y-246541304D01*
X109771974Y-246464960D01*
X109820796Y-246388897D01*
X109863538Y-246299748D01*
X109897000Y-246204249D01*
X109922897Y-246102148D01*
X109936842Y-246003207D01*
X109939498Y-245939002D01*
X109931615Y-245833416D01*
X109904367Y-245732685D01*
X109851914Y-245642046D01*
X109839847Y-245627836D01*
X109765276Y-245564705D01*
X109670101Y-245525721D01*
X109589254Y-245516950D01*
X109491026Y-245527796D01*
X109394498Y-245563488D01*
X109376274Y-245573614D01*
X109295624Y-245632866D01*
X109227098Y-245705969D01*
X109202373Y-245738722D01*
X109149891Y-245825139D01*
X109108950Y-245921721D01*
X109088067Y-245991758D01*
X109066040Y-246095439D01*
X109053649Y-246197838D01*
X109051919Y-246248702D01*
X108804158Y-246248702D01*
X108807211Y-246167117D01*
X108819003Y-246066710D01*
X108838657Y-245970929D01*
X108874280Y-245857706D01*
X108922186Y-245751711D01*
X108982376Y-245652943D01*
X109054850Y-245561402D01*
X109137236Y-245482548D01*
X109228690Y-245420008D01*
X109329211Y-245373784D01*
X109438800Y-245343873D01*
X109537051Y-245331411D01*
X109599023Y-245329371D01*
X109709519Y-245337296D01*
G37*
G36*
X111124564Y-246830000D02*
G01*
X111545150Y-244797899D01*
X111876344Y-244797899D01*
X112079554Y-246121207D01*
X112093447Y-246221831D01*
X112107268Y-246320386D01*
X112121260Y-246417286D01*
X112131822Y-246485617D01*
X112202583Y-246402246D01*
X112261497Y-246311686D01*
X112320591Y-246210844D01*
X112375896Y-246110437D01*
X112411724Y-246043049D01*
X113118074Y-244797899D01*
X113454641Y-244797899D01*
X113034543Y-246830000D01*
X112769296Y-246830000D01*
X112979344Y-245854982D01*
X113003640Y-245744348D01*
X113031036Y-245627989D01*
X113055186Y-245530780D01*
X113081320Y-245429908D01*
X113109438Y-245325372D01*
X113139541Y-245217172D01*
X113171628Y-245105309D01*
X113188416Y-245048004D01*
X113148435Y-245144785D01*
X113104574Y-245242362D01*
X113056833Y-245340733D01*
X113005211Y-245439899D01*
X112973971Y-245496922D01*
X112223657Y-246830000D01*
X111964271Y-246830000D01*
X111762038Y-245535512D01*
X111747849Y-245430008D01*
X111737247Y-245327014D01*
X111728538Y-245215349D01*
X111722471Y-245110530D01*
X111709533Y-245209637D01*
X111694614Y-245314627D01*
X111677791Y-245420590D01*
X111659158Y-245521917D01*
X111655060Y-245541863D01*
X111386881Y-246830000D01*
X111124564Y-246830000D01*
G37*
G36*
X114364366Y-245337038D02*
G01*
X114463412Y-245360039D01*
X114564299Y-245405102D01*
X114652059Y-245470193D01*
X114671947Y-245489595D01*
X114740335Y-245576728D01*
X114784146Y-245664891D01*
X114812998Y-245764181D01*
X114826889Y-245874597D01*
X114828263Y-245925324D01*
X114823969Y-246025774D01*
X114811089Y-246128370D01*
X114808723Y-246142212D01*
X113734543Y-246142212D01*
X113729170Y-246224277D01*
X113735032Y-246327226D01*
X113755640Y-246427569D01*
X113795940Y-246519847D01*
X113822959Y-246558401D01*
X113899575Y-246628652D01*
X113995909Y-246668168D01*
X114053524Y-246673684D01*
X114156469Y-246659092D01*
X114250350Y-246619719D01*
X114304606Y-246585268D01*
X114383107Y-246515189D01*
X114443252Y-246435352D01*
X114492711Y-246340155D01*
X114497069Y-246329790D01*
X114738870Y-246361053D01*
X114698766Y-246460191D01*
X114645147Y-246545912D01*
X114574614Y-246629375D01*
X114499023Y-246700551D01*
X114413522Y-246763172D01*
X114321148Y-246810412D01*
X114221902Y-246842272D01*
X114115783Y-246858751D01*
X114052059Y-246861263D01*
X113953322Y-246853916D01*
X113850772Y-246828865D01*
X113754571Y-246786036D01*
X113669164Y-246726236D01*
X113598996Y-246650275D01*
X113548430Y-246567194D01*
X113511078Y-246473571D01*
X113487560Y-246372220D01*
X113478222Y-246274396D01*
X113477600Y-246240397D01*
X113482882Y-246135952D01*
X113498731Y-246032909D01*
X113519072Y-245954633D01*
X113774599Y-245954633D01*
X114593301Y-245954633D01*
X114594767Y-245899923D01*
X114585655Y-245792656D01*
X114554585Y-245694168D01*
X114501466Y-245616113D01*
X114423934Y-245555685D01*
X114331290Y-245523148D01*
X114261131Y-245516950D01*
X114154661Y-245529880D01*
X114054887Y-245568668D01*
X113969993Y-245626371D01*
X113901609Y-245696378D01*
X113843735Y-245783850D01*
X113801115Y-245876266D01*
X113774599Y-245954633D01*
X113519072Y-245954633D01*
X113525144Y-245931269D01*
X113562123Y-245831031D01*
X113587998Y-245774382D01*
X113639619Y-245681210D01*
X113697458Y-245599164D01*
X113771174Y-245519022D01*
X113853011Y-245453412D01*
X113874739Y-245439281D01*
X113964467Y-245391195D01*
X114057799Y-245356849D01*
X114154733Y-245336241D01*
X114255269Y-245329371D01*
X114364366Y-245337038D01*
G37*
G36*
X114889323Y-247394200D02*
G01*
X114904466Y-247151912D01*
X115003873Y-247171296D01*
X115054432Y-247173893D01*
X115151335Y-247154659D01*
X115176553Y-247139699D01*
X115248097Y-247064257D01*
X115303997Y-246978819D01*
X115308444Y-246971172D01*
X115388067Y-246829023D01*
X115144801Y-245360635D01*
X115389533Y-245360635D01*
X115499442Y-246093852D01*
X115515226Y-246202509D01*
X115529850Y-246311106D01*
X115543314Y-246419641D01*
X115555618Y-246528115D01*
X116208235Y-245360635D01*
X116468109Y-245360635D01*
X115538032Y-247013182D01*
X115488539Y-247100680D01*
X115433488Y-247187784D01*
X115374122Y-247267583D01*
X115305238Y-247337707D01*
X115298674Y-247342909D01*
X115208815Y-247395411D01*
X115108314Y-247421147D01*
X115058339Y-247423998D01*
X114957044Y-247413493D01*
X114889323Y-247394200D01*
G37*
G36*
X117320681Y-245337038D02*
G01*
X117419727Y-245360039D01*
X117520615Y-245405102D01*
X117608374Y-245470193D01*
X117628263Y-245489595D01*
X117696651Y-245576728D01*
X117740462Y-245664891D01*
X117769313Y-245764181D01*
X117783204Y-245874597D01*
X117784578Y-245925324D01*
X117780285Y-246025774D01*
X117767405Y-246128370D01*
X117765039Y-246142212D01*
X116690859Y-246142212D01*
X116685485Y-246224277D01*
X116691347Y-246327226D01*
X116711955Y-246427569D01*
X116752255Y-246519847D01*
X116779275Y-246558401D01*
X116855891Y-246628652D01*
X116952224Y-246668168D01*
X117009840Y-246673684D01*
X117112784Y-246659092D01*
X117206665Y-246619719D01*
X117260921Y-246585268D01*
X117339423Y-246515189D01*
X117399567Y-246435352D01*
X117449027Y-246340155D01*
X117453385Y-246329790D01*
X117695185Y-246361053D01*
X117655081Y-246460191D01*
X117601462Y-246545912D01*
X117530930Y-246629375D01*
X117455339Y-246700551D01*
X117369837Y-246763172D01*
X117277463Y-246810412D01*
X117178217Y-246842272D01*
X117072099Y-246858751D01*
X117008374Y-246861263D01*
X116909637Y-246853916D01*
X116807087Y-246828865D01*
X116710887Y-246786036D01*
X116625480Y-246726236D01*
X116555312Y-246650275D01*
X116504746Y-246567194D01*
X116467394Y-246473571D01*
X116443876Y-246372220D01*
X116434538Y-246274396D01*
X116433915Y-246240397D01*
X116439198Y-246135952D01*
X116455046Y-246032909D01*
X116475388Y-245954633D01*
X116730915Y-245954633D01*
X117549617Y-245954633D01*
X117551082Y-245899923D01*
X117541971Y-245792656D01*
X117510901Y-245694168D01*
X117457781Y-245616113D01*
X117380249Y-245555685D01*
X117287605Y-245523148D01*
X117217446Y-245516950D01*
X117110976Y-245529880D01*
X117011202Y-245568668D01*
X116926309Y-245626371D01*
X116857925Y-245696378D01*
X116800050Y-245783850D01*
X116757430Y-245876266D01*
X116730915Y-245954633D01*
X116475388Y-245954633D01*
X116481460Y-245931269D01*
X116518438Y-245831031D01*
X116544313Y-245774382D01*
X116595935Y-245681210D01*
X116653774Y-245599164D01*
X116727489Y-245519022D01*
X116809326Y-245453412D01*
X116831054Y-245439281D01*
X116920783Y-245391195D01*
X117014114Y-245356849D01*
X117111048Y-245336241D01*
X117211584Y-245329371D01*
X117320681Y-245337038D01*
G37*
G36*
X117938940Y-246830000D02*
G01*
X118244243Y-245360635D01*
X118464062Y-245360635D01*
X118402024Y-245614647D01*
X118465072Y-245538754D01*
X118534127Y-245468477D01*
X118615609Y-245403665D01*
X118622331Y-245399225D01*
X118710851Y-245353998D01*
X118807983Y-245331077D01*
X118843127Y-245329371D01*
X118943353Y-245340393D01*
X119025820Y-245360635D01*
X118924215Y-245610739D01*
X118852121Y-245537558D01*
X118782554Y-245516950D01*
X118683773Y-245539207D01*
X118599987Y-245591757D01*
X118523437Y-245665482D01*
X118514864Y-245675219D01*
X118457616Y-245756333D01*
X118413011Y-245845096D01*
X118372528Y-245951617D01*
X118341940Y-246053948D01*
X118314215Y-246168611D01*
X118298954Y-246243328D01*
X118175367Y-246830000D01*
X117938940Y-246830000D01*
G37*
G36*
X118775716Y-246830000D02*
G01*
X118834822Y-246579895D01*
X119118144Y-246579895D01*
X119066853Y-246830000D01*
X119036418Y-246927647D01*
X118993084Y-247020917D01*
X118933846Y-247105002D01*
X118921773Y-247118206D01*
X118843485Y-247183144D01*
X118747356Y-247225587D01*
X118690719Y-247236420D01*
X118714166Y-247127976D01*
X118805309Y-247079356D01*
X118868820Y-247001011D01*
X118910548Y-246903864D01*
X118929589Y-246830000D01*
X118775716Y-246830000D01*
G37*
G36*
X120306630Y-246830000D02*
G01*
X120726727Y-244797899D01*
X122036358Y-244797899D01*
X121987998Y-245016741D01*
X120948012Y-245016741D01*
X120814655Y-245704528D01*
X121874180Y-245704528D01*
X121825820Y-245923370D01*
X120766783Y-245923370D01*
X120575785Y-246830000D01*
X120306630Y-246830000D01*
G37*
G36*
X121981647Y-246830000D02*
G01*
X122286951Y-245360635D01*
X122506769Y-245360635D01*
X122444732Y-245614647D01*
X122507779Y-245538754D01*
X122576835Y-245468477D01*
X122658317Y-245403665D01*
X122665039Y-245399225D01*
X122753559Y-245353998D01*
X122850691Y-245331077D01*
X122885834Y-245329371D01*
X122986061Y-245340393D01*
X123068528Y-245360635D01*
X122966923Y-245610739D01*
X122894828Y-245537558D01*
X122825262Y-245516950D01*
X122726481Y-245539207D01*
X122642694Y-245591757D01*
X122566144Y-245665482D01*
X122557572Y-245675219D01*
X122500324Y-245756333D01*
X122455719Y-245845096D01*
X122415236Y-245951617D01*
X122384648Y-246053948D01*
X122356923Y-246168611D01*
X122341661Y-246243328D01*
X122218074Y-246830000D01*
X121981647Y-246830000D01*
G37*
G36*
X123852712Y-245337038D02*
G01*
X123951758Y-245360039D01*
X124052645Y-245405102D01*
X124140405Y-245470193D01*
X124160293Y-245489595D01*
X124228681Y-245576728D01*
X124272492Y-245664891D01*
X124301344Y-245764181D01*
X124315235Y-245874597D01*
X124316609Y-245925324D01*
X124312316Y-246025774D01*
X124299436Y-246128370D01*
X124297069Y-246142212D01*
X123222889Y-246142212D01*
X123217516Y-246224277D01*
X123223378Y-246327226D01*
X123243986Y-246427569D01*
X123284286Y-246519847D01*
X123311305Y-246558401D01*
X123387921Y-246628652D01*
X123484255Y-246668168D01*
X123541871Y-246673684D01*
X123644815Y-246659092D01*
X123738696Y-246619719D01*
X123792952Y-246585268D01*
X123871453Y-246515189D01*
X123931598Y-246435352D01*
X123981057Y-246340155D01*
X123985416Y-246329790D01*
X124227216Y-246361053D01*
X124187112Y-246460191D01*
X124133493Y-246545912D01*
X124062960Y-246629375D01*
X123987369Y-246700551D01*
X123901868Y-246763172D01*
X123809494Y-246810412D01*
X123710248Y-246842272D01*
X123604130Y-246858751D01*
X123540405Y-246861263D01*
X123441668Y-246853916D01*
X123339118Y-246828865D01*
X123242917Y-246786036D01*
X123157511Y-246726236D01*
X123087342Y-246650275D01*
X123036776Y-246567194D01*
X122999424Y-246473571D01*
X122975906Y-246372220D01*
X122966568Y-246274396D01*
X122965946Y-246240397D01*
X122971229Y-246135952D01*
X122987077Y-246032909D01*
X123007418Y-245954633D01*
X123262945Y-245954633D01*
X124081647Y-245954633D01*
X124083113Y-245899923D01*
X124074001Y-245792656D01*
X124042931Y-245694168D01*
X123989812Y-245616113D01*
X123912280Y-245555685D01*
X123819636Y-245523148D01*
X123749477Y-245516950D01*
X123643007Y-245529880D01*
X123543233Y-245568668D01*
X123458339Y-245626371D01*
X123389955Y-245696378D01*
X123332081Y-245783850D01*
X123289461Y-245876266D01*
X123262945Y-245954633D01*
X123007418Y-245954633D01*
X123013490Y-245931269D01*
X123050469Y-245831031D01*
X123076344Y-245774382D01*
X123127965Y-245681210D01*
X123185805Y-245599164D01*
X123259520Y-245519022D01*
X123341357Y-245453412D01*
X123363085Y-245439281D01*
X123452813Y-245391195D01*
X123546145Y-245356849D01*
X123643079Y-245336241D01*
X123743615Y-245329371D01*
X123852712Y-245337038D01*
G37*
G36*
X123812492Y-245204319D02*
G01*
X123606351Y-245204319D01*
X123864760Y-244829162D01*
X124177879Y-244829162D01*
X123812492Y-245204319D01*
G37*
G36*
X125640405Y-246830000D02*
G01*
X125410817Y-246830000D01*
X125454781Y-246618485D01*
X125374243Y-246700992D01*
X125292367Y-246766428D01*
X125195151Y-246821195D01*
X125096112Y-246852727D01*
X125009770Y-246861263D01*
X124910302Y-246851646D01*
X124808765Y-246817836D01*
X124718201Y-246759682D01*
X124663922Y-246707390D01*
X124603655Y-246621782D01*
X124560607Y-246518834D01*
X124537066Y-246414529D01*
X124527380Y-246314557D01*
X124526169Y-246260914D01*
X124527969Y-246214508D01*
X124773343Y-246214508D01*
X124776922Y-246314796D01*
X124790379Y-246413077D01*
X124803629Y-246462658D01*
X124847802Y-246550267D01*
X124906700Y-246613600D01*
X124997701Y-246662184D01*
X125081089Y-246673684D01*
X125183623Y-246656368D01*
X125270602Y-246611172D01*
X125352557Y-246537923D01*
X125387369Y-246496364D01*
X125449955Y-246404172D01*
X125499591Y-246304183D01*
X125536279Y-246196397D01*
X125556961Y-246100620D01*
X125568651Y-245999429D01*
X125571529Y-245914577D01*
X125564342Y-245815831D01*
X125539497Y-245721339D01*
X125491673Y-245635911D01*
X125480670Y-245622463D01*
X125406298Y-245558166D01*
X125310845Y-245521999D01*
X125253036Y-245516950D01*
X125152393Y-245531416D01*
X125089882Y-245557983D01*
X125012305Y-245617848D01*
X124944313Y-245697690D01*
X124889362Y-245786650D01*
X124848783Y-245875651D01*
X124822680Y-245948283D01*
X124794591Y-246048062D01*
X124777246Y-246147038D01*
X124773343Y-246214508D01*
X124527969Y-246214508D01*
X124529999Y-246162161D01*
X124544147Y-246051074D01*
X124568721Y-245944428D01*
X124603720Y-245842224D01*
X124635102Y-245771939D01*
X124685591Y-245680243D01*
X124741317Y-245599206D01*
X124811414Y-245519644D01*
X124888351Y-245454004D01*
X124908654Y-245439769D01*
X125001055Y-245386403D01*
X125093610Y-245350502D01*
X125196631Y-245331096D01*
X125237893Y-245329371D01*
X125335237Y-245339263D01*
X125436954Y-245375808D01*
X125525909Y-245439281D01*
X125591997Y-245515118D01*
X125648709Y-245610739D01*
X125813329Y-244797899D01*
X126060503Y-244797899D01*
X125640405Y-246830000D01*
G37*
G36*
X126967297Y-245337038D02*
G01*
X127066343Y-245360039D01*
X127167230Y-245405102D01*
X127254990Y-245470193D01*
X127274878Y-245489595D01*
X127343266Y-245576728D01*
X127387077Y-245664891D01*
X127415928Y-245764181D01*
X127429820Y-245874597D01*
X127431194Y-245925324D01*
X127426900Y-246025774D01*
X127414020Y-246128370D01*
X127411654Y-246142212D01*
X126337474Y-246142212D01*
X126332101Y-246224277D01*
X126337963Y-246327226D01*
X126358571Y-246427569D01*
X126398871Y-246519847D01*
X126425890Y-246558401D01*
X126502506Y-246628652D01*
X126598840Y-246668168D01*
X126656455Y-246673684D01*
X126759400Y-246659092D01*
X126853281Y-246619719D01*
X126907537Y-246585268D01*
X126986038Y-246515189D01*
X127046183Y-246435352D01*
X127095642Y-246340155D01*
X127100000Y-246329790D01*
X127341801Y-246361053D01*
X127301697Y-246460191D01*
X127248078Y-246545912D01*
X127177545Y-246629375D01*
X127101954Y-246700551D01*
X127016453Y-246763172D01*
X126924079Y-246810412D01*
X126824833Y-246842272D01*
X126718714Y-246858751D01*
X126654990Y-246861263D01*
X126556253Y-246853916D01*
X126453703Y-246828865D01*
X126357502Y-246786036D01*
X126272095Y-246726236D01*
X126201927Y-246650275D01*
X126151361Y-246567194D01*
X126114009Y-246473571D01*
X126090491Y-246372220D01*
X126081153Y-246274396D01*
X126080531Y-246240397D01*
X126085813Y-246135952D01*
X126101662Y-246032909D01*
X126122003Y-245954633D01*
X126377530Y-245954633D01*
X127196232Y-245954633D01*
X127197697Y-245899923D01*
X127188586Y-245792656D01*
X127157516Y-245694168D01*
X127104397Y-245616113D01*
X127026865Y-245555685D01*
X126934221Y-245523148D01*
X126864062Y-245516950D01*
X126757592Y-245529880D01*
X126657818Y-245568668D01*
X126572924Y-245626371D01*
X126504540Y-245696378D01*
X126446666Y-245783850D01*
X126404046Y-245876266D01*
X126377530Y-245954633D01*
X126122003Y-245954633D01*
X126128075Y-245931269D01*
X126165054Y-245831031D01*
X126190928Y-245774382D01*
X126242550Y-245681210D01*
X126300389Y-245599164D01*
X126374105Y-245519022D01*
X126455941Y-245453412D01*
X126477670Y-245439281D01*
X126567398Y-245391195D01*
X126660730Y-245356849D01*
X126757663Y-245336241D01*
X126858200Y-245329371D01*
X126967297Y-245337038D01*
G37*
G36*
X126927076Y-245204319D02*
G01*
X126720935Y-245204319D01*
X126979344Y-244829162D01*
X127292464Y-244829162D01*
X126927076Y-245204319D01*
G37*
G36*
X127585555Y-246830000D02*
G01*
X127890859Y-245360635D01*
X128110677Y-245360635D01*
X128048640Y-245614647D01*
X128111687Y-245538754D01*
X128180743Y-245468477D01*
X128262225Y-245403665D01*
X128268947Y-245399225D01*
X128357467Y-245353998D01*
X128454599Y-245331077D01*
X128489742Y-245329371D01*
X128589969Y-245340393D01*
X128672436Y-245360635D01*
X128570831Y-245610739D01*
X128498736Y-245537558D01*
X128429170Y-245516950D01*
X128330389Y-245539207D01*
X128246602Y-245591757D01*
X128170052Y-245665482D01*
X128161480Y-245675219D01*
X128104232Y-245756333D01*
X128059627Y-245845096D01*
X128019143Y-245951617D01*
X127988556Y-246053948D01*
X127960830Y-246168611D01*
X127945569Y-246243328D01*
X127821982Y-246830000D01*
X127585555Y-246830000D01*
G37*
G36*
X128870761Y-245048004D02*
G01*
X128929868Y-244797899D01*
X129177042Y-244797899D01*
X129117935Y-245048004D01*
X128870761Y-245048004D01*
G37*
G36*
X128508305Y-246830000D02*
G01*
X128813120Y-245360635D01*
X129061759Y-245360635D01*
X128756944Y-246830000D01*
X128508305Y-246830000D01*
G37*
G36*
X130146197Y-246298527D02*
G01*
X130394836Y-246329790D01*
X130357066Y-246426029D01*
X130305969Y-246525980D01*
X130247298Y-246612654D01*
X130181054Y-246686051D01*
X130129100Y-246730348D01*
X130039921Y-246787623D01*
X129944819Y-246828534D01*
X129843794Y-246853080D01*
X129736846Y-246861263D01*
X129637069Y-246853876D01*
X129533571Y-246827345D01*
X129441308Y-246781519D01*
X129360281Y-246716398D01*
X129350942Y-246706901D01*
X129286401Y-246621813D01*
X129240300Y-246521399D01*
X129215089Y-246420964D01*
X129203996Y-246308795D01*
X129203420Y-246274591D01*
X129207954Y-246170032D01*
X129221559Y-246066222D01*
X129244232Y-245963159D01*
X129275975Y-245860844D01*
X129298186Y-245802714D01*
X129343550Y-245706530D01*
X129396721Y-245621005D01*
X129467047Y-245536314D01*
X129547571Y-245465544D01*
X129569296Y-245450027D01*
X129660826Y-245397240D01*
X129758584Y-245359535D01*
X129862570Y-245336912D01*
X129972785Y-245329371D01*
X130070905Y-245335940D01*
X130171595Y-245359532D01*
X130270272Y-245406583D01*
X130345011Y-245466636D01*
X130411600Y-245550644D01*
X130456397Y-245648793D01*
X130477921Y-245747910D01*
X130482764Y-245829581D01*
X130238032Y-245860844D01*
X130227847Y-245758052D01*
X130195802Y-245665007D01*
X130157432Y-245608297D01*
X130078893Y-245545853D01*
X129980906Y-245518377D01*
X129949337Y-245516950D01*
X129851248Y-245528437D01*
X129754905Y-245567168D01*
X129689951Y-245614159D01*
X129619988Y-245692938D01*
X129566102Y-245785292D01*
X129525517Y-245885297D01*
X129517516Y-245909692D01*
X129490161Y-246007664D01*
X129470621Y-246103743D01*
X129457982Y-246209570D01*
X129454990Y-246290223D01*
X129461520Y-246390597D01*
X129487238Y-246492601D01*
X129537544Y-246577941D01*
X129617072Y-246643390D01*
X129711185Y-246672188D01*
X129740754Y-246673684D01*
X129837410Y-246658366D01*
X129930519Y-246612413D01*
X129972296Y-246580872D01*
X130042874Y-246505635D01*
X130097218Y-246417402D01*
X130138133Y-246321841D01*
X130146197Y-246298527D01*
G37*
G36*
X132375157Y-246017159D02*
G01*
X132423029Y-245798318D01*
X133305234Y-245798318D01*
X133133287Y-246628255D01*
X133047314Y-246677409D01*
X132955478Y-246721800D01*
X132857781Y-246761428D01*
X132754222Y-246796294D01*
X132648160Y-246824718D01*
X132542952Y-246845020D01*
X132438599Y-246857202D01*
X132335102Y-246861263D01*
X132228673Y-246857095D01*
X132129205Y-246844593D01*
X132014659Y-246817244D01*
X131910989Y-246776873D01*
X131818196Y-246723478D01*
X131736279Y-246657060D01*
X131678577Y-246594549D01*
X131616489Y-246505586D01*
X131567248Y-246407589D01*
X131530852Y-246300559D01*
X131510334Y-246204467D01*
X131498738Y-246102102D01*
X131495883Y-246015694D01*
X131499783Y-245903273D01*
X131511482Y-245794072D01*
X131530981Y-245688091D01*
X131558280Y-245585330D01*
X131593378Y-245485789D01*
X131636275Y-245389469D01*
X131655618Y-245351842D01*
X131707727Y-245262223D01*
X131763915Y-245180213D01*
X131836724Y-245091845D01*
X131915406Y-245014434D01*
X131999962Y-244947979D01*
X132059596Y-244909762D01*
X132153076Y-244861122D01*
X132250334Y-244822545D01*
X132351370Y-244794031D01*
X132456185Y-244775581D01*
X132564778Y-244767195D01*
X132601815Y-244766636D01*
X132706259Y-244771521D01*
X132805147Y-244786175D01*
X132909754Y-244814340D01*
X132986253Y-244844794D01*
X133075812Y-244892617D01*
X133160457Y-244955452D01*
X133229456Y-245028496D01*
X133247104Y-245052400D01*
X133298930Y-245141387D01*
X133337089Y-245234771D01*
X133367211Y-245340752D01*
X133378018Y-245391898D01*
X133114236Y-245423161D01*
X133087247Y-245323357D01*
X133043163Y-245225894D01*
X132984551Y-245144119D01*
X132937404Y-245098318D01*
X132856089Y-245043771D01*
X132762717Y-245007076D01*
X132657290Y-244988232D01*
X132593510Y-244985478D01*
X132486105Y-244993019D01*
X132382240Y-245015642D01*
X132281918Y-245053346D01*
X132185136Y-245106133D01*
X132105862Y-245164574D01*
X132033881Y-245234748D01*
X131969193Y-245316657D01*
X131911798Y-245410300D01*
X131882275Y-245469078D01*
X131843761Y-245562438D01*
X131813216Y-245660435D01*
X131790638Y-245763069D01*
X131776030Y-245870339D01*
X131769389Y-245982246D01*
X131768947Y-246020579D01*
X131774202Y-246130528D01*
X131789967Y-246229933D01*
X131821643Y-246332578D01*
X131867625Y-246420872D01*
X131918423Y-246485129D01*
X132000519Y-246553944D01*
X132096843Y-246603098D01*
X132192796Y-246629979D01*
X132299642Y-246641807D01*
X132332171Y-246642421D01*
X132431948Y-246636136D01*
X132534541Y-246617279D01*
X132639951Y-246585852D01*
X132748177Y-246541854D01*
X132840517Y-246495586D01*
X132896860Y-246463635D01*
X132987718Y-246017159D01*
X132375157Y-246017159D01*
G37*
G36*
X133845499Y-245048004D02*
G01*
X133904606Y-244797899D01*
X134151780Y-244797899D01*
X134092673Y-245048004D01*
X133845499Y-245048004D01*
G37*
G36*
X133483043Y-246830000D02*
G01*
X133787858Y-245360635D01*
X134036497Y-245360635D01*
X133731682Y-246830000D01*
X133483043Y-246830000D01*
G37*
G36*
X134113678Y-246830000D02*
G01*
X134418981Y-245360635D01*
X134638800Y-245360635D01*
X134576762Y-245614647D01*
X134639810Y-245538754D01*
X134708866Y-245468477D01*
X134790348Y-245403665D01*
X134797069Y-245399225D01*
X134885589Y-245353998D01*
X134982722Y-245331077D01*
X135017865Y-245329371D01*
X135118091Y-245340393D01*
X135200559Y-245360635D01*
X135098954Y-245610739D01*
X135026859Y-245537558D01*
X134957293Y-245516950D01*
X134858512Y-245539207D01*
X134774725Y-245591757D01*
X134698175Y-245665482D01*
X134689603Y-245675219D01*
X134632354Y-245756333D01*
X134587749Y-245845096D01*
X134547266Y-245951617D01*
X134516679Y-246053948D01*
X134488953Y-246168611D01*
X134473692Y-246243328D01*
X134350105Y-246830000D01*
X134113678Y-246830000D01*
G37*
G36*
X135996971Y-245335589D02*
G01*
X136099239Y-245354242D01*
X136202950Y-245390787D01*
X136292618Y-245443574D01*
X136312841Y-245459309D01*
X136381534Y-245532673D01*
X136423952Y-245628374D01*
X136433497Y-245710879D01*
X136427853Y-245812341D01*
X136412626Y-245917018D01*
X136399303Y-245982965D01*
X136318214Y-246347864D01*
X136297863Y-246450255D01*
X136284184Y-246548340D01*
X136279624Y-246631186D01*
X136290301Y-246734503D01*
X136309910Y-246830000D01*
X136058339Y-246830000D01*
X136038282Y-246731704D01*
X136029519Y-246648771D01*
X135949825Y-246712465D01*
X135864256Y-246768864D01*
X135780880Y-246810949D01*
X135680980Y-246843525D01*
X135584042Y-246858855D01*
X135525402Y-246861263D01*
X135417867Y-246851873D01*
X135322774Y-246823705D01*
X135231707Y-246770381D01*
X135199582Y-246742561D01*
X135134409Y-246661579D01*
X135093374Y-246567622D01*
X135076478Y-246460689D01*
X135075995Y-246437745D01*
X135077120Y-246426999D01*
X135323169Y-246426999D01*
X135341242Y-246525062D01*
X135395464Y-246604319D01*
X135483025Y-246656343D01*
X135584686Y-246673413D01*
X135601117Y-246673684D01*
X135699919Y-246662559D01*
X135795496Y-246629182D01*
X135838521Y-246606273D01*
X135917381Y-246548296D01*
X135987309Y-246468743D01*
X136018284Y-246418695D01*
X136060216Y-246323738D01*
X136089458Y-246228185D01*
X136111623Y-246129755D01*
X136121354Y-246075778D01*
X136024275Y-246105056D01*
X136009491Y-246108018D01*
X135910307Y-246121876D01*
X135809700Y-246131953D01*
X135709225Y-246142609D01*
X135606042Y-246157731D01*
X135509131Y-246180385D01*
X135503420Y-246182267D01*
X135416763Y-246227931D01*
X135368598Y-246279476D01*
X135328537Y-246372982D01*
X135323169Y-246426999D01*
X135077120Y-246426999D01*
X135086654Y-246335885D01*
X135121730Y-246238784D01*
X135131682Y-246220858D01*
X135191832Y-246140737D01*
X135267867Y-246077146D01*
X135279205Y-246069916D01*
X135367842Y-246026078D01*
X135464213Y-245996423D01*
X135504885Y-245987850D01*
X135606773Y-245974627D01*
X135714812Y-245966784D01*
X135822401Y-245961472D01*
X135931333Y-245954694D01*
X136034030Y-245942544D01*
X136131002Y-245921187D01*
X136158479Y-245911646D01*
X136180095Y-245813339D01*
X136187300Y-245733349D01*
X136162685Y-245634202D01*
X136124285Y-245589734D01*
X136033057Y-245539979D01*
X135930749Y-245519509D01*
X135871249Y-245516950D01*
X135770478Y-245525608D01*
X135675819Y-245554803D01*
X135615283Y-245590223D01*
X135543265Y-245659915D01*
X135489145Y-245749923D01*
X135470203Y-245798318D01*
X135219121Y-245767055D01*
X135263115Y-245667251D01*
X135318406Y-245579842D01*
X135384992Y-245504829D01*
X135462875Y-245442212D01*
X135551841Y-245392844D01*
X135651675Y-245357581D01*
X135747946Y-245338297D01*
X135852538Y-245329812D01*
X135883950Y-245329371D01*
X135996971Y-245335589D01*
G37*
G36*
X137599023Y-246564263D02*
G01*
X137516751Y-246649825D01*
X137433883Y-246720884D01*
X137350418Y-246777441D01*
X137249473Y-246826168D01*
X137147670Y-246854012D01*
X137062178Y-246861263D01*
X136962887Y-246851865D01*
X136868324Y-246819819D01*
X136789114Y-246765031D01*
X136726008Y-246686514D01*
X136690511Y-246587967D01*
X136685555Y-246529092D01*
X136693295Y-246431673D01*
X136709781Y-246326782D01*
X136729565Y-246224116D01*
X136732450Y-246210111D01*
X136908305Y-245360635D01*
X137156944Y-245360635D01*
X136962038Y-246303900D01*
X136944156Y-246402783D01*
X136937125Y-246487083D01*
X136958583Y-246585868D01*
X136986951Y-246624347D01*
X137078529Y-246668866D01*
X137134962Y-246673684D01*
X137238155Y-246660739D01*
X137332458Y-246625090D01*
X137338660Y-246621905D01*
X137426073Y-246565419D01*
X137501464Y-246493047D01*
X137510607Y-246482198D01*
X137568724Y-246398663D01*
X137613480Y-246310044D01*
X137628333Y-246273126D01*
X137658522Y-246175574D01*
X137683526Y-246071429D01*
X137698186Y-246002993D01*
X137830077Y-245360635D01*
X138078716Y-245360635D01*
X137773901Y-246830000D01*
X137544313Y-246830000D01*
X137599023Y-246564263D01*
G37*
G36*
X139329728Y-246830000D02*
G01*
X139100140Y-246830000D01*
X139144104Y-246618485D01*
X139063566Y-246700992D01*
X138981690Y-246766428D01*
X138884474Y-246821195D01*
X138785435Y-246852727D01*
X138699093Y-246861263D01*
X138599625Y-246851646D01*
X138498088Y-246817836D01*
X138407524Y-246759682D01*
X138353245Y-246707390D01*
X138292978Y-246621782D01*
X138249931Y-246518834D01*
X138226389Y-246414529D01*
X138216703Y-246314557D01*
X138215492Y-246260914D01*
X138217292Y-246214508D01*
X138462666Y-246214508D01*
X138466245Y-246314796D01*
X138479702Y-246413077D01*
X138492952Y-246462658D01*
X138537125Y-246550267D01*
X138596023Y-246613600D01*
X138687024Y-246662184D01*
X138770412Y-246673684D01*
X138872946Y-246656368D01*
X138959925Y-246611172D01*
X139041880Y-246537923D01*
X139076693Y-246496364D01*
X139139278Y-246404172D01*
X139188915Y-246304183D01*
X139225602Y-246196397D01*
X139246284Y-246100620D01*
X139257974Y-245999429D01*
X139260852Y-245914577D01*
X139253665Y-245815831D01*
X139228821Y-245721339D01*
X139180996Y-245635911D01*
X139169993Y-245622463D01*
X139095621Y-245558166D01*
X139000168Y-245521999D01*
X138942359Y-245516950D01*
X138841716Y-245531416D01*
X138779205Y-245557983D01*
X138701628Y-245617848D01*
X138633636Y-245697690D01*
X138578685Y-245786650D01*
X138538107Y-245875651D01*
X138512003Y-245948283D01*
X138483914Y-246048062D01*
X138466569Y-246147038D01*
X138462666Y-246214508D01*
X138217292Y-246214508D01*
X138219322Y-246162161D01*
X138233470Y-246051074D01*
X138258044Y-245944428D01*
X138293043Y-245842224D01*
X138324425Y-245771939D01*
X138374914Y-245680243D01*
X138430640Y-245599206D01*
X138500737Y-245519644D01*
X138577674Y-245454004D01*
X138597977Y-245439769D01*
X138690378Y-245386403D01*
X138782933Y-245350502D01*
X138885954Y-245331096D01*
X138927216Y-245329371D01*
X139024560Y-245339263D01*
X139126277Y-245375808D01*
X139215232Y-245439281D01*
X139281320Y-245515118D01*
X139338032Y-245610739D01*
X139502652Y-244797899D01*
X139749826Y-244797899D01*
X139329728Y-246830000D01*
G37*
G36*
X141446517Y-245335589D02*
G01*
X141548785Y-245354242D01*
X141652497Y-245390787D01*
X141742164Y-245443574D01*
X141762387Y-245459309D01*
X141831081Y-245532673D01*
X141873499Y-245628374D01*
X141883043Y-245710879D01*
X141877400Y-245812341D01*
X141862173Y-245917018D01*
X141848849Y-245982965D01*
X141767760Y-246347864D01*
X141747410Y-246450255D01*
X141733730Y-246548340D01*
X141729170Y-246631186D01*
X141739847Y-246734503D01*
X141759456Y-246830000D01*
X141507886Y-246830000D01*
X141487828Y-246731704D01*
X141479065Y-246648771D01*
X141399371Y-246712465D01*
X141313802Y-246768864D01*
X141230426Y-246810949D01*
X141130526Y-246843525D01*
X141033589Y-246858855D01*
X140974948Y-246861263D01*
X140867413Y-246851873D01*
X140772320Y-246823705D01*
X140681254Y-246770381D01*
X140649128Y-246742561D01*
X140583955Y-246661579D01*
X140542921Y-246567622D01*
X140526024Y-246460689D01*
X140525541Y-246437745D01*
X140526666Y-246426999D01*
X140772715Y-246426999D01*
X140790789Y-246525062D01*
X140845011Y-246604319D01*
X140932572Y-246656343D01*
X141034232Y-246673413D01*
X141050663Y-246673684D01*
X141149465Y-246662559D01*
X141245042Y-246629182D01*
X141288067Y-246606273D01*
X141366927Y-246548296D01*
X141436855Y-246468743D01*
X141467830Y-246418695D01*
X141509762Y-246323738D01*
X141539004Y-246228185D01*
X141561169Y-246129755D01*
X141570901Y-246075778D01*
X141473822Y-246105056D01*
X141459037Y-246108018D01*
X141359853Y-246121876D01*
X141259247Y-246131953D01*
X141158771Y-246142609D01*
X141055588Y-246157731D01*
X140958678Y-246180385D01*
X140952966Y-246182267D01*
X140866310Y-246227931D01*
X140818144Y-246279476D01*
X140778083Y-246372982D01*
X140772715Y-246426999D01*
X140526666Y-246426999D01*
X140536200Y-246335885D01*
X140571277Y-246238784D01*
X140581229Y-246220858D01*
X140641378Y-246140737D01*
X140717413Y-246077146D01*
X140728751Y-246069916D01*
X140817388Y-246026078D01*
X140913759Y-245996423D01*
X140954432Y-245987850D01*
X141056319Y-245974627D01*
X141164358Y-245966784D01*
X141271947Y-245961472D01*
X141380880Y-245954694D01*
X141483576Y-245942544D01*
X141580548Y-245921187D01*
X141608025Y-245911646D01*
X141629641Y-245813339D01*
X141636846Y-245733349D01*
X141612231Y-245634202D01*
X141573831Y-245589734D01*
X141482603Y-245539979D01*
X141380296Y-245519509D01*
X141320796Y-245516950D01*
X141220025Y-245525608D01*
X141125365Y-245554803D01*
X141064829Y-245590223D01*
X140992812Y-245659915D01*
X140938691Y-245749923D01*
X140919749Y-245798318D01*
X140668667Y-245767055D01*
X140712662Y-245667251D01*
X140767952Y-245579842D01*
X140834539Y-245504829D01*
X140912422Y-245442212D01*
X141001387Y-245392844D01*
X141101222Y-245357581D01*
X141197492Y-245338297D01*
X141302085Y-245329812D01*
X141333497Y-245329371D01*
X141446517Y-245335589D01*
G37*
G36*
X142052547Y-246830000D02*
G01*
X142357851Y-245360635D01*
X142583043Y-245360635D01*
X142529309Y-245626859D01*
X142601605Y-245554472D01*
X142680019Y-245485663D01*
X142763519Y-245424888D01*
X142803838Y-245400690D01*
X142900582Y-245357230D01*
X142998836Y-245333829D01*
X143065178Y-245329371D01*
X143168514Y-245339008D01*
X143264883Y-245371867D01*
X143343127Y-245428046D01*
X143404745Y-245511393D01*
X143436245Y-245604210D01*
X143444243Y-245691828D01*
X143435328Y-245796242D01*
X143418857Y-245895087D01*
X143408584Y-245947306D01*
X143223448Y-246830000D01*
X142974320Y-246830000D01*
X143168249Y-245886734D01*
X143186909Y-245786977D01*
X143197041Y-245687715D01*
X143197069Y-245683524D01*
X143168768Y-245588086D01*
X143146755Y-245563356D01*
X143057004Y-245521482D01*
X143002164Y-245516950D01*
X142898012Y-245528271D01*
X142800429Y-245562236D01*
X142709414Y-245618844D01*
X142661689Y-245660076D01*
X142592141Y-245744157D01*
X142539401Y-245838665D01*
X142500223Y-245935224D01*
X142466609Y-246046141D01*
X142442848Y-246149539D01*
X142301187Y-246830000D01*
X142052547Y-246830000D01*
G37*
G36*
X144779275Y-246830000D02*
G01*
X144549686Y-246830000D01*
X144593650Y-246618485D01*
X144513113Y-246700992D01*
X144431236Y-246766428D01*
X144334020Y-246821195D01*
X144234981Y-246852727D01*
X144148640Y-246861263D01*
X144049172Y-246851646D01*
X143947634Y-246817836D01*
X143857071Y-246759682D01*
X143802792Y-246707390D01*
X143742525Y-246621782D01*
X143699477Y-246518834D01*
X143675935Y-246414529D01*
X143666249Y-246314557D01*
X143665039Y-246260914D01*
X143666838Y-246214508D01*
X143912212Y-246214508D01*
X143915791Y-246314796D01*
X143929248Y-246413077D01*
X143942499Y-246462658D01*
X143986672Y-246550267D01*
X144045569Y-246613600D01*
X144136571Y-246662184D01*
X144219958Y-246673684D01*
X144322493Y-246656368D01*
X144409471Y-246611172D01*
X144491427Y-246537923D01*
X144526239Y-246496364D01*
X144588824Y-246404172D01*
X144638461Y-246304183D01*
X144675149Y-246196397D01*
X144695831Y-246100620D01*
X144707521Y-245999429D01*
X144710398Y-245914577D01*
X144703211Y-245815831D01*
X144678367Y-245721339D01*
X144630542Y-245635911D01*
X144619540Y-245622463D01*
X144545168Y-245558166D01*
X144449715Y-245521999D01*
X144391905Y-245516950D01*
X144291262Y-245531416D01*
X144228751Y-245557983D01*
X144151175Y-245617848D01*
X144083182Y-245697690D01*
X144028231Y-245786650D01*
X143987653Y-245875651D01*
X143961550Y-245948283D01*
X143933460Y-246048062D01*
X143916115Y-246147038D01*
X143912212Y-246214508D01*
X143666838Y-246214508D01*
X143668868Y-246162161D01*
X143683017Y-246051074D01*
X143707590Y-245944428D01*
X143742589Y-245842224D01*
X143773971Y-245771939D01*
X143824461Y-245680243D01*
X143880186Y-245599206D01*
X143950284Y-245519644D01*
X144027220Y-245454004D01*
X144047523Y-245439769D01*
X144139924Y-245386403D01*
X144232480Y-245350502D01*
X144335501Y-245331096D01*
X144376762Y-245329371D01*
X144474107Y-245339263D01*
X144575824Y-245375808D01*
X144664778Y-245439281D01*
X144730867Y-245515118D01*
X144787579Y-245610739D01*
X144952199Y-244797899D01*
X145199372Y-244797899D01*
X144779275Y-246830000D01*
G37*
G36*
X145964341Y-246830000D02*
G01*
X146384439Y-244797899D01*
X146654083Y-244797899D01*
X146281368Y-246611158D01*
X147327216Y-246611158D01*
X147278856Y-246830000D01*
X145964341Y-246830000D01*
G37*
G36*
X147855269Y-245048004D02*
G01*
X147914376Y-244797899D01*
X148161550Y-244797899D01*
X148102443Y-245048004D01*
X147855269Y-245048004D01*
G37*
G36*
X147492813Y-246830000D02*
G01*
X147797628Y-245360635D01*
X148046267Y-245360635D01*
X147741452Y-246830000D01*
X147492813Y-246830000D01*
G37*
G36*
X148104397Y-246830000D02*
G01*
X148524983Y-244797899D01*
X148773622Y-244797899D01*
X148353036Y-246830000D01*
X148104397Y-246830000D01*
G37*
G36*
X149097977Y-245048004D02*
G01*
X149157083Y-244797899D01*
X149404257Y-244797899D01*
X149345150Y-245048004D01*
X149097977Y-245048004D01*
G37*
G36*
X148735520Y-246830000D02*
G01*
X149040335Y-245360635D01*
X149288975Y-245360635D01*
X148984159Y-246830000D01*
X148735520Y-246830000D01*
G37*
G36*
X150317417Y-245335589D02*
G01*
X150419685Y-245354242D01*
X150523397Y-245390787D01*
X150613065Y-245443574D01*
X150633287Y-245459309D01*
X150701981Y-245532673D01*
X150744399Y-245628374D01*
X150753943Y-245710879D01*
X150748300Y-245812341D01*
X150733073Y-245917018D01*
X150719749Y-245982965D01*
X150638660Y-246347864D01*
X150618310Y-246450255D01*
X150604630Y-246548340D01*
X150600070Y-246631186D01*
X150610747Y-246734503D01*
X150630356Y-246830000D01*
X150378786Y-246830000D01*
X150358728Y-246731704D01*
X150349965Y-246648771D01*
X150270272Y-246712465D01*
X150184702Y-246768864D01*
X150101326Y-246810949D01*
X150001427Y-246843525D01*
X149904489Y-246858855D01*
X149845848Y-246861263D01*
X149738313Y-246851873D01*
X149643220Y-246823705D01*
X149552154Y-246770381D01*
X149520028Y-246742561D01*
X149454855Y-246661579D01*
X149413821Y-246567622D01*
X149396924Y-246460689D01*
X149396441Y-246437745D01*
X149397566Y-246426999D01*
X149643615Y-246426999D01*
X149661689Y-246525062D01*
X149715911Y-246604319D01*
X149803472Y-246656343D01*
X149905132Y-246673413D01*
X149921563Y-246673684D01*
X150020365Y-246662559D01*
X150115943Y-246629182D01*
X150158968Y-246606273D01*
X150237827Y-246548296D01*
X150307755Y-246468743D01*
X150338730Y-246418695D01*
X150380662Y-246323738D01*
X150409904Y-246228185D01*
X150432069Y-246129755D01*
X150441801Y-246075778D01*
X150344722Y-246105056D01*
X150329938Y-246108018D01*
X150230753Y-246121876D01*
X150130147Y-246131953D01*
X150029671Y-246142609D01*
X149926488Y-246157731D01*
X149829578Y-246180385D01*
X149823866Y-246182267D01*
X149737210Y-246227931D01*
X149689044Y-246279476D01*
X149648983Y-246372982D01*
X149643615Y-246426999D01*
X149397566Y-246426999D01*
X149407100Y-246335885D01*
X149442177Y-246238784D01*
X149452129Y-246220858D01*
X149512278Y-246140737D01*
X149588313Y-246077146D01*
X149599651Y-246069916D01*
X149688289Y-246026078D01*
X149784660Y-245996423D01*
X149825332Y-245987850D01*
X149927219Y-245974627D01*
X150035259Y-245966784D01*
X150142848Y-245961472D01*
X150251780Y-245954694D01*
X150354476Y-245942544D01*
X150451448Y-245921187D01*
X150478926Y-245911646D01*
X150500541Y-245813339D01*
X150507746Y-245733349D01*
X150483131Y-245634202D01*
X150444732Y-245589734D01*
X150353503Y-245539979D01*
X150251196Y-245519509D01*
X150191696Y-245516950D01*
X150090925Y-245525608D01*
X149996266Y-245554803D01*
X149935730Y-245590223D01*
X149863712Y-245659915D01*
X149809592Y-245749923D01*
X149790649Y-245798318D01*
X149539568Y-245767055D01*
X149583562Y-245667251D01*
X149638852Y-245579842D01*
X149705439Y-245504829D01*
X149783322Y-245442212D01*
X149872288Y-245392844D01*
X149972122Y-245357581D01*
X150068393Y-245338297D01*
X150172985Y-245329812D01*
X150204397Y-245329371D01*
X150317417Y-245335589D01*
G37*
G36*
X150923448Y-246830000D02*
G01*
X151228751Y-245360635D01*
X151453943Y-245360635D01*
X151400210Y-245626859D01*
X151472506Y-245554472D01*
X151550919Y-245485663D01*
X151634420Y-245424888D01*
X151674739Y-245400690D01*
X151771482Y-245357230D01*
X151869736Y-245333829D01*
X151936078Y-245329371D01*
X152039414Y-245339008D01*
X152135783Y-245371867D01*
X152214027Y-245428046D01*
X152275645Y-245511393D01*
X152307145Y-245604210D01*
X152315143Y-245691828D01*
X152306229Y-245796242D01*
X152289757Y-245895087D01*
X152279484Y-245947306D01*
X152094348Y-246830000D01*
X151845220Y-246830000D01*
X152039149Y-245886734D01*
X152057809Y-245786977D01*
X152067941Y-245687715D01*
X152067970Y-245683524D01*
X152039668Y-245588086D01*
X152017656Y-245563356D01*
X151927904Y-245521482D01*
X151873064Y-245516950D01*
X151768912Y-245528271D01*
X151671329Y-245562236D01*
X151580314Y-245618844D01*
X151532589Y-245660076D01*
X151463041Y-245744157D01*
X151410301Y-245838665D01*
X151371123Y-245935224D01*
X151337509Y-246046141D01*
X151313748Y-246149539D01*
X151172087Y-246830000D01*
X150923448Y-246830000D01*
G37*
G36*
X154861619Y-246110949D02*
G01*
X155128333Y-246142212D01*
X155085981Y-246248968D01*
X155038001Y-246347280D01*
X154984391Y-246437149D01*
X154925153Y-246518575D01*
X154846637Y-246605140D01*
X154760014Y-246679546D01*
X154667261Y-246741301D01*
X154570352Y-246790280D01*
X154469287Y-246826481D01*
X154364066Y-246849905D01*
X154254689Y-246860553D01*
X154217307Y-246861263D01*
X154106374Y-246855765D01*
X154002860Y-246839271D01*
X153906763Y-246811782D01*
X153801239Y-246764281D01*
X153706396Y-246700945D01*
X153635520Y-246636071D01*
X153562476Y-246544772D01*
X153513151Y-246458220D01*
X153474320Y-246362152D01*
X153445984Y-246256567D01*
X153428143Y-246141466D01*
X153421426Y-246042532D01*
X153420587Y-245990781D01*
X153423459Y-245889861D01*
X153432075Y-245792263D01*
X153452500Y-245667302D01*
X153483137Y-245548249D01*
X153523987Y-245435104D01*
X153575049Y-245327866D01*
X153636324Y-245226536D01*
X153707810Y-245131113D01*
X153747383Y-245085617D01*
X153822496Y-245010856D01*
X153902020Y-244946063D01*
X153985955Y-244891238D01*
X154074303Y-244846381D01*
X154167061Y-244811493D01*
X154264232Y-244786572D01*
X154365814Y-244771620D01*
X154471808Y-244766636D01*
X154587516Y-244772595D01*
X154694672Y-244790473D01*
X154793275Y-244820268D01*
X154883326Y-244861982D01*
X154977577Y-244925712D01*
X154990091Y-244936140D01*
X155069078Y-245015885D01*
X155132076Y-245106803D01*
X155179086Y-245208894D01*
X155206655Y-245305294D01*
X155220656Y-245391898D01*
X154969086Y-245423161D01*
X154943777Y-245319999D01*
X154902676Y-245220655D01*
X154848207Y-245139009D01*
X154804466Y-245094410D01*
X154719859Y-245036965D01*
X154621132Y-245000796D01*
X154520204Y-244986435D01*
X154484020Y-244985478D01*
X154372062Y-244993587D01*
X154266997Y-245017916D01*
X154168825Y-245058464D01*
X154077546Y-245115232D01*
X153993161Y-245188218D01*
X153915669Y-245277424D01*
X153886602Y-245317648D01*
X153829608Y-245409714D01*
X153782274Y-245507003D01*
X153744600Y-245609516D01*
X153716586Y-245717252D01*
X153698232Y-245830212D01*
X153689538Y-245948395D01*
X153688765Y-245997131D01*
X153694123Y-246109863D01*
X153710197Y-246212119D01*
X153742495Y-246318177D01*
X153789378Y-246409976D01*
X153841173Y-246477313D01*
X153923147Y-246549548D01*
X154016661Y-246601144D01*
X154121716Y-246632102D01*
X154223106Y-246642260D01*
X154238312Y-246642421D01*
X154340130Y-246633750D01*
X154437003Y-246607739D01*
X154528930Y-246564385D01*
X154615911Y-246503691D01*
X154694649Y-246427121D01*
X154754078Y-246348301D01*
X154804671Y-246258448D01*
X154846428Y-246157563D01*
X154861619Y-246110949D01*
G37*
G36*
X156230048Y-245335589D02*
G01*
X156332316Y-245354242D01*
X156436028Y-245390787D01*
X156525695Y-245443574D01*
X156545918Y-245459309D01*
X156614612Y-245532673D01*
X156657030Y-245628374D01*
X156666574Y-245710879D01*
X156660931Y-245812341D01*
X156645704Y-245917018D01*
X156632380Y-245982965D01*
X156551291Y-246347864D01*
X156530941Y-246450255D01*
X156517261Y-246548340D01*
X156512701Y-246631186D01*
X156523378Y-246734503D01*
X156542987Y-246830000D01*
X156291417Y-246830000D01*
X156271359Y-246731704D01*
X156262596Y-246648771D01*
X156182903Y-246712465D01*
X156097333Y-246768864D01*
X156013957Y-246810949D01*
X155914057Y-246843525D01*
X155817120Y-246858855D01*
X155758479Y-246861263D01*
X155650944Y-246851873D01*
X155555851Y-246823705D01*
X155464785Y-246770381D01*
X155432659Y-246742561D01*
X155367486Y-246661579D01*
X155326452Y-246567622D01*
X155309555Y-246460689D01*
X155309072Y-246437745D01*
X155310197Y-246426999D01*
X155556246Y-246426999D01*
X155574320Y-246525062D01*
X155628542Y-246604319D01*
X155716103Y-246656343D01*
X155817763Y-246673413D01*
X155834194Y-246673684D01*
X155932996Y-246662559D01*
X156028573Y-246629182D01*
X156071598Y-246606273D01*
X156150458Y-246548296D01*
X156220386Y-246468743D01*
X156251361Y-246418695D01*
X156293293Y-246323738D01*
X156322535Y-246228185D01*
X156344700Y-246129755D01*
X156354432Y-246075778D01*
X156257353Y-246105056D01*
X156242568Y-246108018D01*
X156143384Y-246121876D01*
X156042778Y-246131953D01*
X155942302Y-246142609D01*
X155839119Y-246157731D01*
X155742209Y-246180385D01*
X155736497Y-246182267D01*
X155649841Y-246227931D01*
X155601675Y-246279476D01*
X155561614Y-246372982D01*
X155556246Y-246426999D01*
X155310197Y-246426999D01*
X155319731Y-246335885D01*
X155354808Y-246238784D01*
X155364760Y-246220858D01*
X155424909Y-246140737D01*
X155500944Y-246077146D01*
X155512282Y-246069916D01*
X155600920Y-246026078D01*
X155697290Y-245996423D01*
X155737963Y-245987850D01*
X155839850Y-245974627D01*
X155947889Y-245966784D01*
X156055478Y-245961472D01*
X156164411Y-245954694D01*
X156267107Y-245942544D01*
X156364079Y-245921187D01*
X156391557Y-245911646D01*
X156413172Y-245813339D01*
X156420377Y-245733349D01*
X156395762Y-245634202D01*
X156357363Y-245589734D01*
X156266134Y-245539979D01*
X156163827Y-245519509D01*
X156104327Y-245516950D01*
X156003556Y-245525608D01*
X155908896Y-245554803D01*
X155848360Y-245590223D01*
X155776343Y-245659915D01*
X155722222Y-245749923D01*
X155703280Y-245798318D01*
X155452199Y-245767055D01*
X155496193Y-245667251D01*
X155551483Y-245579842D01*
X155618070Y-245504829D01*
X155695953Y-245442212D01*
X155784918Y-245392844D01*
X155884753Y-245357581D01*
X155981023Y-245338297D01*
X156085616Y-245329812D01*
X156117028Y-245329371D01*
X156230048Y-245335589D01*
G37*
G36*
X156817028Y-246830000D02*
G01*
X157237614Y-244797899D01*
X157486253Y-244797899D01*
X157065667Y-246830000D01*
X156817028Y-246830000D01*
G37*
G36*
X157825751Y-246830000D02*
G01*
X157586881Y-245360635D01*
X157828681Y-245360635D01*
X157953734Y-246146608D01*
X157968993Y-246254489D01*
X157981541Y-246357094D01*
X157993522Y-246463553D01*
X158004536Y-246567194D01*
X158047822Y-246478262D01*
X158097444Y-246382375D01*
X158146873Y-246291303D01*
X158187230Y-246219392D01*
X158674739Y-245360635D01*
X158937055Y-245360635D01*
X158101745Y-246830000D01*
X157825751Y-246830000D01*
G37*
G36*
X159795489Y-245337038D02*
G01*
X159894535Y-245360039D01*
X159995423Y-245405102D01*
X160083182Y-245470193D01*
X160103071Y-245489595D01*
X160171459Y-245576728D01*
X160215270Y-245664891D01*
X160244121Y-245764181D01*
X160258012Y-245874597D01*
X160259386Y-245925324D01*
X160255093Y-246025774D01*
X160242213Y-246128370D01*
X160239847Y-246142212D01*
X159165667Y-246142212D01*
X159160293Y-246224277D01*
X159166155Y-246327226D01*
X159186763Y-246427569D01*
X159227063Y-246519847D01*
X159254083Y-246558401D01*
X159330699Y-246628652D01*
X159427032Y-246668168D01*
X159484648Y-246673684D01*
X159587592Y-246659092D01*
X159681473Y-246619719D01*
X159735730Y-246585268D01*
X159814231Y-246515189D01*
X159874376Y-246435352D01*
X159923835Y-246340155D01*
X159928193Y-246329790D01*
X160169993Y-246361053D01*
X160129889Y-246460191D01*
X160076270Y-246545912D01*
X160005738Y-246629375D01*
X159930147Y-246700551D01*
X159844645Y-246763172D01*
X159752271Y-246810412D01*
X159653025Y-246842272D01*
X159546907Y-246858751D01*
X159483182Y-246861263D01*
X159384445Y-246853916D01*
X159281895Y-246828865D01*
X159185695Y-246786036D01*
X159100288Y-246726236D01*
X159030120Y-246650275D01*
X158979554Y-246567194D01*
X158942202Y-246473571D01*
X158918684Y-246372220D01*
X158909346Y-246274396D01*
X158908723Y-246240397D01*
X158914006Y-246135952D01*
X158929854Y-246032909D01*
X158950196Y-245954633D01*
X159205723Y-245954633D01*
X160024425Y-245954633D01*
X160025890Y-245899923D01*
X160016779Y-245792656D01*
X159985709Y-245694168D01*
X159932589Y-245616113D01*
X159855057Y-245555685D01*
X159762413Y-245523148D01*
X159692254Y-245516950D01*
X159585785Y-245529880D01*
X159486010Y-245568668D01*
X159401117Y-245626371D01*
X159332733Y-245696378D01*
X159274859Y-245783850D01*
X159232238Y-245876266D01*
X159205723Y-245954633D01*
X158950196Y-245954633D01*
X158956268Y-245931269D01*
X158993247Y-245831031D01*
X159019121Y-245774382D01*
X159070743Y-245681210D01*
X159128582Y-245599164D01*
X159202297Y-245519022D01*
X159284134Y-245453412D01*
X159305862Y-245439281D01*
X159395591Y-245391195D01*
X159488922Y-245356849D01*
X159585856Y-245336241D01*
X159686393Y-245329371D01*
X159795489Y-245337038D01*
G37*
G36*
X160995046Y-246637048D02*
G01*
X160954013Y-246840258D01*
X160855146Y-246857242D01*
X160780600Y-246861263D01*
X160678041Y-246850821D01*
X160586005Y-246815944D01*
X160544662Y-246787013D01*
X160487570Y-246701566D01*
X160478228Y-246635094D01*
X160490971Y-246532139D01*
X160509998Y-246431447D01*
X160514376Y-246409902D01*
X160691208Y-245548213D01*
X160494836Y-245548213D01*
X160534892Y-245360635D01*
X160731263Y-245360635D01*
X160806979Y-244980104D01*
X161091277Y-244797899D01*
X160979903Y-245360635D01*
X161224634Y-245360635D01*
X161183113Y-245548213D01*
X160939847Y-245548213D01*
X160771319Y-246387431D01*
X160751971Y-246489533D01*
X160739568Y-246579406D01*
X160764969Y-246649260D01*
X160848012Y-246673684D01*
X160948580Y-246657906D01*
X160995046Y-246637048D01*
G37*
D13*
%TO.C,R19*%
X107780000Y-35046359D02*
X107780000Y-35353641D01*
X107020000Y-35046359D02*
X107020000Y-35353641D01*
%TO.C,D113*%
X51815649Y-45021434D02*
X49191362Y-47485803D01*
X49625099Y-42688734D02*
X47000812Y-45153104D01*
X47000812Y-45153104D02*
X49191362Y-47485803D01*
%TO.C,D194*%
X172421233Y-27512838D02*
X169163856Y-25980033D01*
X173783727Y-24617392D02*
X170526349Y-23084586D01*
X170526349Y-23084586D02*
X169163856Y-25980033D01*
%TO.C,D119*%
X27512838Y-77578766D02*
X25980033Y-80836143D01*
X24617392Y-76216272D02*
X23084586Y-79473650D01*
X23084586Y-79473650D02*
X25980033Y-80836143D01*
%TO.C,D145*%
X83793611Y-225272396D02*
X87140807Y-226597645D01*
X82615613Y-228247681D02*
X85962808Y-229572929D01*
X85962808Y-229572929D02*
X87140807Y-226597645D01*
%TO.C,D155*%
X150601967Y-230342580D02*
X154088866Y-229447296D01*
X151397774Y-233442046D02*
X154884674Y-232546762D01*
X154884674Y-232546762D02*
X154088866Y-229447296D01*
%TO.C,D176*%
X233400000Y-126400000D02*
X233400000Y-122800000D01*
X236600000Y-126400000D02*
X236600000Y-122800000D01*
X236600000Y-122800000D02*
X233400000Y-122800000D01*
%TO.C,D152*%
X130409255Y-233274004D02*
X134002151Y-233047958D01*
X130610184Y-236467689D02*
X134203081Y-236241644D01*
X134203081Y-236241644D02*
X134002151Y-233047958D01*
%TO.C,D235*%
X243600000Y-243400000D02*
X247200000Y-243400000D01*
X243600000Y-246600000D02*
X247200000Y-246600000D01*
X247200000Y-246600000D02*
X247200000Y-243400000D01*
%TO.C,D172*%
X229646248Y-153314000D02*
X230541532Y-149827100D01*
X232745714Y-154109807D02*
X233640998Y-150622908D01*
X233640998Y-150622908D02*
X230541532Y-149827100D01*
%TO.C,D230*%
X167600000Y-46400000D02*
X171200000Y-46400000D01*
X167600000Y-49600000D02*
X171200000Y-49600000D01*
X171200000Y-49600000D02*
X171200000Y-46400000D01*
%TO.C,D188*%
X204978565Y-51815649D02*
X202514196Y-49191362D01*
X207311265Y-49625099D02*
X204846895Y-47000812D01*
X204846895Y-47000812D02*
X202514196Y-49191362D01*
%TO.C,D129*%
X18257728Y-143936932D02*
X18932300Y-147473166D01*
X15114409Y-144536552D02*
X15788981Y-148072786D01*
X15788981Y-148072786D02*
X18932300Y-147473166D01*
%TO.C,D195*%
X166206388Y-24727603D02*
X162859192Y-23402354D01*
X167384386Y-21752318D02*
X164037191Y-20427070D01*
X164037191Y-20427070D02*
X162859192Y-23402354D01*
%TO.C,D134*%
X29333901Y-175995269D02*
X31068214Y-179149973D01*
X26529719Y-177536881D02*
X28264032Y-180691585D01*
X28264032Y-180691585D02*
X31068214Y-179149973D01*
%TO.C,D223*%
X111600000Y-46400000D02*
X115200000Y-46400000D01*
X111600000Y-49600000D02*
X115200000Y-49600000D01*
X115200000Y-49600000D02*
X115200000Y-46400000D01*
%TO.C,D166*%
X211874542Y-189848544D02*
X213990569Y-186936083D01*
X214463397Y-191729457D02*
X216579424Y-188816996D01*
X216579424Y-188816996D02*
X213990569Y-186936083D01*
%TO.C,D183*%
X223679343Y-80112282D02*
X222146537Y-76854904D01*
X226574789Y-78749788D02*
X225041984Y-75492411D01*
X225041984Y-75492411D02*
X222146537Y-76854904D01*
%TO.C,D153*%
X137197161Y-232720700D02*
X140768774Y-232269500D01*
X137598228Y-235895467D02*
X141169841Y-235444267D01*
X141169841Y-235444267D02*
X140768774Y-232269500D01*
%TO.C,D222*%
X103600000Y-46400000D02*
X107200000Y-46400000D01*
X103600000Y-49600000D02*
X107200000Y-49600000D01*
X107200000Y-49600000D02*
X107200000Y-46400000D01*
%TO.C,D140*%
X54824521Y-207631241D02*
X57598369Y-209925968D01*
X52784764Y-210096884D02*
X55558612Y-212391610D01*
X55558612Y-212391610D02*
X57598369Y-209925968D01*
%TO.C,D171*%
X227661902Y-159828921D02*
X228774363Y-156405117D01*
X230705283Y-160817775D02*
X231817744Y-157393972D01*
X231817744Y-157393972D02*
X228774363Y-156405117D01*
%TO.C,D126*%
X16600000Y-123600000D02*
X16600000Y-127200000D01*
X13400000Y-123600000D02*
X13400000Y-127200000D01*
X13400000Y-127200000D02*
X16600000Y-127200000D01*
%TO.C,D117*%
X34225010Y-65734316D02*
X32296034Y-68773896D01*
X31523161Y-64019670D02*
X29594184Y-67059251D01*
X29594184Y-67059251D02*
X32296034Y-68773896D01*
%TO.C,D232*%
X183600000Y-46400000D02*
X187200000Y-46400000D01*
X183600000Y-49600000D02*
X187200000Y-49600000D01*
X187200000Y-49600000D02*
X187200000Y-46400000D01*
%TO.C,D105*%
X99398032Y-19657419D02*
X95911133Y-20552703D01*
X98602225Y-16557953D02*
X95115325Y-17453237D01*
X95115325Y-17453237D02*
X95911133Y-20552703D01*
%TO.C,D160*%
X181901565Y-217275304D02*
X184941146Y-215346327D01*
X183616211Y-219977153D02*
X186655791Y-218048177D01*
X186655791Y-218048177D02*
X184941146Y-215346327D01*
%TO.C,D161*%
X187583297Y-213520341D02*
X190495758Y-211404314D01*
X189464210Y-216109196D02*
X192376671Y-213993169D01*
X192376671Y-213993169D02*
X190495758Y-211404314D01*
%TO.C,D228*%
X151600000Y-46400000D02*
X155200000Y-46400000D01*
X151600000Y-49600000D02*
X155200000Y-49600000D01*
X155200000Y-49600000D02*
X155200000Y-46400000D01*
%TO.C,D180*%
X230342580Y-99398032D02*
X229447296Y-95911133D01*
X233442046Y-98602225D02*
X232546762Y-95115325D01*
X232546762Y-95115325D02*
X229447296Y-95911133D01*
%TO.C,D167*%
X215774989Y-184265683D02*
X217703965Y-181226103D01*
X218476838Y-185980329D02*
X220405815Y-182940748D01*
X220405815Y-182940748D02*
X217703965Y-181226103D01*
%TO.C,D137*%
X40583971Y-193018041D02*
X42878697Y-195791889D01*
X38118328Y-195057798D02*
X40413055Y-197831646D01*
X40413055Y-197831646D02*
X42878697Y-195791889D01*
%TO.C,D150*%
X116796269Y-233098191D02*
X120389166Y-233324236D01*
X116595340Y-236291876D02*
X120188236Y-236517922D01*
X120188236Y-236517922D02*
X120389166Y-233324236D01*
%TO.C,D229*%
X159600000Y-46400000D02*
X163200000Y-46400000D01*
X159600000Y-49600000D02*
X163200000Y-49600000D01*
X163200000Y-49600000D02*
X163200000Y-46400000D01*
%TO.C,D138*%
X45021434Y-198184350D02*
X47485803Y-200808637D01*
X42688734Y-200374900D02*
X45153104Y-202999187D01*
X45153104Y-202999187D02*
X47485803Y-200808637D01*
%TO.C,D135*%
X32724695Y-181901565D02*
X34653672Y-184941146D01*
X30022846Y-183616211D02*
X31951822Y-186655791D01*
X31951822Y-186655791D02*
X34653672Y-184941146D01*
%TO.C,D131*%
X21472850Y-157165963D02*
X22585311Y-160589766D01*
X18429469Y-158154817D02*
X19541930Y-161578621D01*
X19541930Y-161578621D02*
X22585311Y-160589766D01*
%TO.C,D227*%
X143600000Y-46400000D02*
X147200000Y-46400000D01*
X143600000Y-49600000D02*
X147200000Y-49600000D01*
X147200000Y-49600000D02*
X147200000Y-46400000D01*
%TO.C,D109*%
X74004730Y-29333901D02*
X70850026Y-31068214D01*
X72463118Y-26529719D02*
X69308414Y-28264032D01*
X69308414Y-28264032D02*
X70850026Y-31068214D01*
%TO.C,D103*%
X112802838Y-17279299D02*
X109231225Y-17730499D01*
X112401771Y-14104532D02*
X108830158Y-14555732D01*
X108830158Y-14555732D02*
X109231225Y-17730499D01*
%TO.C,D184*%
X220666098Y-74004730D02*
X218931785Y-70850026D01*
X223470280Y-72463118D02*
X221735967Y-69308414D01*
X221735967Y-69308414D02*
X218931785Y-70850026D01*
%TO.C,D146*%
X90171078Y-227661902D02*
X93594882Y-228774363D01*
X89182224Y-230705283D02*
X92606027Y-231817744D01*
X92606027Y-231817744D02*
X93594882Y-228774363D01*
%TO.C,D130*%
X19657419Y-150601967D02*
X20552703Y-154088866D01*
X16557953Y-151397774D02*
X17453237Y-154884674D01*
X17453237Y-154884674D02*
X20552703Y-154088866D01*
%TO.C,D193*%
X178448927Y-30682811D02*
X175294223Y-28948498D01*
X179990539Y-27878629D02*
X176835835Y-26144316D01*
X176835835Y-26144316D02*
X175294223Y-28948498D01*
%TO.C,D192*%
X184265683Y-34225010D02*
X181226103Y-32296034D01*
X185980329Y-31523161D02*
X182940748Y-29594184D01*
X182940748Y-29594184D02*
X181226103Y-32296034D01*
%TO.C,D156*%
X157165963Y-228527149D02*
X160589766Y-227414688D01*
X158154817Y-231570530D02*
X161578621Y-230458069D01*
X161578621Y-230458069D02*
X160589766Y-227414688D01*
%TO.C,D179*%
X231742271Y-106063067D02*
X231067699Y-102526833D01*
X234885590Y-105463447D02*
X234211018Y-101927213D01*
X234211018Y-101927213D02*
X231067699Y-102526833D01*
%TO.C,D191*%
X189848544Y-38125457D02*
X186936083Y-36009430D01*
X191729457Y-35536602D02*
X188816996Y-33420575D01*
X188816996Y-33420575D02*
X186936083Y-36009430D01*
%TO.C,D116*%
X38125457Y-60151455D02*
X36009430Y-63063916D01*
X35536602Y-58270542D02*
X33420575Y-61183003D01*
X33420575Y-61183003D02*
X36009430Y-63063916D01*
%TO.C,D217*%
X63600000Y-46400000D02*
X67200000Y-46400000D01*
X63600000Y-49600000D02*
X67200000Y-49600000D01*
X67200000Y-49600000D02*
X67200000Y-46400000D01*
%TO.C,D101*%
X126400000Y-16600000D02*
X122800000Y-16600000D01*
X126400000Y-13400000D02*
X122800000Y-13400000D01*
X122800000Y-13400000D02*
X122800000Y-16600000D01*
%TO.C,D181*%
X228527149Y-92834036D02*
X227414688Y-89410233D01*
X231570530Y-91845182D02*
X230458069Y-88421378D01*
X230458069Y-88421378D02*
X227414688Y-89410233D01*
%TO.C,D224*%
X119600000Y-46400000D02*
X123200000Y-46400000D01*
X119600000Y-49600000D02*
X123200000Y-49600000D01*
X123200000Y-49600000D02*
X123200000Y-46400000D01*
%TO.C,D231*%
X175600000Y-46400000D02*
X179200000Y-46400000D01*
X175600000Y-49600000D02*
X179200000Y-49600000D01*
X179200000Y-49600000D02*
X179200000Y-46400000D01*
%TO.C,D143*%
X71551072Y-219317188D02*
X74705776Y-221051501D01*
X70009460Y-222121370D02*
X73164164Y-223855683D01*
X73164164Y-223855683D02*
X74705776Y-221051501D01*
%TO.C,D187*%
X209416028Y-56981958D02*
X207121302Y-54208110D01*
X211881671Y-54942201D02*
X209586944Y-52168353D01*
X209586944Y-52168353D02*
X207121302Y-54208110D01*
%TO.C,D142*%
X65734316Y-215774989D02*
X68773896Y-217703965D01*
X64019670Y-218476838D02*
X67059251Y-220405815D01*
X67059251Y-220405815D02*
X68773896Y-217703965D01*
%TO.C,D133*%
X26320656Y-169887717D02*
X27853462Y-173145095D01*
X23425210Y-171250211D02*
X24958015Y-174507588D01*
X24958015Y-174507588D02*
X27853462Y-173145095D01*
%TO.C,D174*%
X232369767Y-139975082D02*
X232820967Y-136403469D01*
X235544534Y-140376149D02*
X235995734Y-136804536D01*
X235995734Y-136804536D02*
X232820967Y-136403469D01*
%TO.C,D162*%
X193018041Y-209416028D02*
X195791889Y-207121302D01*
X195057798Y-211881671D02*
X197831646Y-209586944D01*
X197831646Y-209586944D02*
X195791889Y-207121302D01*
%TO.C,D139*%
X49774537Y-203061833D02*
X52398824Y-205526203D01*
X47583987Y-205394533D02*
X50208274Y-207858902D01*
X50208274Y-207858902D02*
X52398824Y-205526203D01*
%TO.C,D173*%
X231217604Y-146687336D02*
X231892176Y-143151102D01*
X234360923Y-147286956D02*
X235035495Y-143750722D01*
X235035495Y-143750722D02*
X231892176Y-143151102D01*
%TO.C,D136*%
X36479658Y-187583297D02*
X38595685Y-190495758D01*
X33890803Y-189464210D02*
X36006830Y-192376671D01*
X36006830Y-192376671D02*
X38595685Y-190495758D01*
%TO.C,D121*%
X22338097Y-90171078D02*
X21225636Y-93594882D01*
X19294716Y-89182224D02*
X18182255Y-92606027D01*
X18182255Y-92606027D02*
X21225636Y-93594882D01*
%TO.C,D158*%
X169887717Y-223679343D02*
X173145095Y-222146537D01*
X171250211Y-226574789D02*
X174507588Y-225041984D01*
X174507588Y-225041984D02*
X173145095Y-222146537D01*
%TO.C,D185*%
X217275304Y-68098434D02*
X215346327Y-65058853D01*
X219977153Y-66383788D02*
X218048177Y-63344208D01*
X218048177Y-63344208D02*
X215346327Y-65058853D01*
%TO.C,D220*%
X87600000Y-46400000D02*
X91200000Y-46400000D01*
X87600000Y-49600000D02*
X91200000Y-49600000D01*
X91200000Y-49600000D02*
X91200000Y-46400000D01*
%TO.C,D169*%
X222487161Y-172421233D02*
X224019966Y-169163856D01*
X225382607Y-173783727D02*
X226915413Y-170526349D01*
X226915413Y-170526349D02*
X224019966Y-169163856D01*
%TO.C,D115*%
X42368758Y-54824521D02*
X40074031Y-57598369D01*
X39903115Y-52784764D02*
X37608389Y-55558612D01*
X37608389Y-55558612D02*
X40074031Y-57598369D01*
%TO.C,D221*%
X95600000Y-46400000D02*
X99200000Y-46400000D01*
X95600000Y-49600000D02*
X99200000Y-49600000D01*
X99200000Y-49600000D02*
X99200000Y-46400000D01*
%TO.C,D197*%
X153314000Y-20353751D02*
X149827100Y-19458467D01*
X154109807Y-17254285D02*
X150622908Y-16359001D01*
X150622908Y-16359001D02*
X149827100Y-19458467D01*
%TO.C,D233*%
X3600000Y-3400000D02*
X7200000Y-3400000D01*
X3600000Y-6600000D02*
X7200000Y-6600000D01*
X7200000Y-6600000D02*
X7200000Y-3400000D01*
%TO.C,D120*%
X24727603Y-83793611D02*
X23402354Y-87140807D01*
X21752318Y-82615613D02*
X20427070Y-85962808D01*
X20427070Y-85962808D02*
X23402354Y-87140807D01*
%TO.C,D114*%
X46938166Y-49774537D02*
X44473796Y-52398824D01*
X44605466Y-47583987D02*
X42141097Y-50208274D01*
X42141097Y-50208274D02*
X44473796Y-52398824D01*
%TO.C,D225*%
X127600000Y-46400000D02*
X131200000Y-46400000D01*
X127600000Y-49600000D02*
X131200000Y-49600000D01*
X131200000Y-49600000D02*
X131200000Y-46400000D01*
%TO.C,D141*%
X60151455Y-211874542D02*
X63063916Y-213990569D01*
X58270542Y-214463397D02*
X61183003Y-216579424D01*
X61183003Y-216579424D02*
X63063916Y-213990569D01*
%TO.C,D165*%
X207631241Y-195175478D02*
X209925968Y-192401630D01*
X210096884Y-197215235D02*
X212391610Y-194441387D01*
X212391610Y-194441387D02*
X209925968Y-192401630D01*
%TO.C,D196*%
X159828921Y-22338097D02*
X156405117Y-21225636D01*
X160817775Y-19294716D02*
X157393972Y-18182255D01*
X157393972Y-18182255D02*
X156405117Y-21225636D01*
%TO.C,D200*%
X133203730Y-16901808D02*
X129610833Y-16675763D01*
X133404659Y-13708123D02*
X129811763Y-13482077D01*
X129811763Y-13482077D02*
X129610833Y-16675763D01*
%TO.C,D122*%
X20353751Y-96685999D02*
X19458467Y-100172899D01*
X17254285Y-95890192D02*
X16359001Y-99377091D01*
X16359001Y-99377091D02*
X19458467Y-100172899D01*
%TO.C,D168*%
X219317188Y-178448927D02*
X221051501Y-175294223D01*
X222121370Y-179990539D02*
X223855683Y-176835835D01*
X223855683Y-176835835D02*
X221051501Y-175294223D01*
%TO.C,D112*%
X56981958Y-40583971D02*
X54208110Y-42878697D01*
X54942201Y-38118328D02*
X52168353Y-40413055D01*
X52168353Y-40413055D02*
X54208110Y-42878697D01*
%TO.C,D164*%
X203061833Y-200225462D02*
X205526203Y-197601175D01*
X205394533Y-202416012D02*
X207858902Y-199791725D01*
X207858902Y-199791725D02*
X205526203Y-197601175D01*
%TO.C,D178*%
X232720700Y-112802838D02*
X232269500Y-109231225D01*
X235895467Y-112401771D02*
X235444267Y-108830158D01*
X235444267Y-108830158D02*
X232269500Y-109231225D01*
%TO.C,D144*%
X77578766Y-222487161D02*
X80836143Y-224019966D01*
X76216272Y-225382607D02*
X79473650Y-226915413D01*
X79473650Y-226915413D02*
X80836143Y-224019966D01*
%TO.C,D175*%
X233098191Y-133203730D02*
X233324236Y-129610833D01*
X236291876Y-133404659D02*
X236517922Y-129811763D01*
X236517922Y-129811763D02*
X233324236Y-129610833D01*
%TO.C,D107*%
X86396985Y-23696854D02*
X83049790Y-25022102D01*
X85218987Y-20721569D02*
X81871791Y-22046818D01*
X81871791Y-22046818D02*
X83049790Y-25022102D01*
%TO.C,D123*%
X18782395Y-103312663D02*
X18107823Y-106848897D01*
X15639076Y-102713043D02*
X14964504Y-106249277D01*
X14964504Y-106249277D02*
X18107823Y-106848897D01*
%TO.C,D148*%
X103312663Y-231217604D02*
X106848897Y-231892176D01*
X102713043Y-234360923D02*
X106249277Y-235035495D01*
X106249277Y-235035495D02*
X106848897Y-231892176D01*
%TO.C,D190*%
X195175478Y-42368758D02*
X192401630Y-40074031D01*
X197215235Y-39903115D02*
X194441387Y-37608389D01*
X194441387Y-37608389D02*
X192401630Y-40074031D01*
%TO.C,D147*%
X96685999Y-229646248D02*
X100172899Y-230541532D01*
X95890192Y-232745714D02*
X99377091Y-233640998D01*
X99377091Y-233640998D02*
X100172899Y-230541532D01*
%TO.C,D236*%
X3600000Y-243400000D02*
X7200000Y-243400000D01*
X3600000Y-246600000D02*
X7200000Y-246600000D01*
X7200000Y-246600000D02*
X7200000Y-243400000D01*
%TO.C,D163*%
X198184350Y-204978565D02*
X200808637Y-202514196D01*
X200374900Y-207311265D02*
X202999187Y-204846895D01*
X202999187Y-204846895D02*
X200808637Y-202514196D01*
%TO.C,D118*%
X30682811Y-71551072D02*
X28948498Y-74705776D01*
X27878629Y-70009460D02*
X26144316Y-73164164D01*
X26144316Y-73164164D02*
X28948498Y-74705776D01*
%TO.C,D110*%
X68098434Y-32724695D02*
X65058853Y-34653672D01*
X66383788Y-30022846D02*
X63344208Y-31951822D01*
X63344208Y-31951822D02*
X65058853Y-34653672D01*
%TO.C,D108*%
X80112282Y-26320656D02*
X76854904Y-27853462D01*
X78749788Y-23425210D02*
X75492411Y-24958015D01*
X75492411Y-24958015D02*
X76854904Y-27853462D01*
%TO.C,D177*%
X233274004Y-119590744D02*
X233047958Y-115997848D01*
X236467689Y-119389815D02*
X236241644Y-115796918D01*
X236241644Y-115796918D02*
X233047958Y-115997848D01*
%TO.C,D102*%
X119590744Y-16725995D02*
X115997848Y-16952041D01*
X119389815Y-13532310D02*
X115796918Y-13758355D01*
X115796918Y-13758355D02*
X115997848Y-16952041D01*
%TO.C,D199*%
X139975082Y-17630232D02*
X136403469Y-17179032D01*
X140376149Y-14455465D02*
X136804536Y-14004265D01*
X136804536Y-14004265D02*
X136403469Y-17179032D01*
%TO.C,D159*%
X175995269Y-220666098D02*
X179149973Y-218931785D01*
X177536881Y-223470280D02*
X180691585Y-221735967D01*
X180691585Y-221735967D02*
X179149973Y-218931785D01*
%TO.C,D234*%
X243600000Y-3400000D02*
X247200000Y-3400000D01*
X243600000Y-6600000D02*
X247200000Y-6600000D01*
X247200000Y-6600000D02*
X247200000Y-3400000D01*
%TO.C,D106*%
X92834036Y-21472850D02*
X89410233Y-22585311D01*
X91845182Y-18429469D02*
X88421378Y-19541930D01*
X88421378Y-19541930D02*
X89410233Y-22585311D01*
%TO.C,D111*%
X62416702Y-36479658D02*
X59504241Y-38595685D01*
X60535789Y-33890803D02*
X57623328Y-36006830D01*
X57623328Y-36006830D02*
X59504241Y-38595685D01*
%TO.C,D127*%
X16725995Y-130409255D02*
X16952041Y-134002151D01*
X13532310Y-130610184D02*
X13758355Y-134203081D01*
X13758355Y-134203081D02*
X16952041Y-134002151D01*
%TO.C,D128*%
X17279299Y-137197161D02*
X17730499Y-140768774D01*
X14104532Y-137598228D02*
X14555732Y-141169841D01*
X14555732Y-141169841D02*
X17730499Y-140768774D01*
%TO.C,D149*%
X110024917Y-232369767D02*
X113596530Y-232820967D01*
X109623850Y-235544534D02*
X113195463Y-235995734D01*
X113195463Y-235995734D02*
X113596530Y-232820967D01*
%TO.C,D170*%
X225272396Y-166206388D02*
X226597645Y-162859192D01*
X228247681Y-167384386D02*
X229572929Y-164037191D01*
X229572929Y-164037191D02*
X226597645Y-162859192D01*
%TO.C,D151*%
X123599999Y-233400000D02*
X127199999Y-233400000D01*
X123599999Y-236600000D02*
X127199999Y-236600000D01*
X127199999Y-236600000D02*
X127199999Y-233400000D01*
%TO.C,D219*%
X79600000Y-46400000D02*
X83200000Y-46400000D01*
X79600000Y-49600000D02*
X83200000Y-49600000D01*
X83200000Y-49600000D02*
X83200000Y-46400000D01*
%TO.C,D154*%
X143936932Y-231742271D02*
X147473166Y-231067699D01*
X144536552Y-234885590D02*
X148072786Y-234211018D01*
X148072786Y-234211018D02*
X147473166Y-231067699D01*
%TO.C,D124*%
X17630232Y-110024917D02*
X17179032Y-113596530D01*
X14455465Y-109623850D02*
X14004265Y-113195463D01*
X14004265Y-113195463D02*
X17179032Y-113596530D01*
%TO.C,D226*%
X135600000Y-46400000D02*
X139200000Y-46400000D01*
X135600000Y-49600000D02*
X139200000Y-49600000D01*
X139200000Y-49600000D02*
X139200000Y-46400000D01*
%TO.C,D186*%
X213520341Y-62416702D02*
X211404314Y-59504241D01*
X216109196Y-60535789D02*
X213993169Y-57623328D01*
X213993169Y-57623328D02*
X211404314Y-59504241D01*
%TO.C,D157*%
X163603014Y-226303145D02*
X166950209Y-224977897D01*
X164781012Y-229278430D02*
X168128208Y-227953181D01*
X168128208Y-227953181D02*
X166950209Y-224977897D01*
%TO.C,D189*%
X200225462Y-46938166D02*
X197601175Y-44473796D01*
X202416012Y-44605466D02*
X199791725Y-42141097D01*
X199791725Y-42141097D02*
X197601175Y-44473796D01*
%TO.C,D132*%
X23696854Y-163603014D02*
X25022102Y-166950209D01*
X20721569Y-164781012D02*
X22046818Y-168128208D01*
X22046818Y-168128208D02*
X25022102Y-166950209D01*
%TO.C,D218*%
X71600000Y-46400000D02*
X75200000Y-46400000D01*
X71600000Y-49600000D02*
X75200000Y-49600000D01*
X75200000Y-49600000D02*
X75200000Y-46400000D01*
%TO.C,D182*%
X226303145Y-86396985D02*
X224977897Y-83049790D01*
X229278430Y-85218987D02*
X227953181Y-81871791D01*
X227953181Y-81871791D02*
X224977897Y-83049790D01*
%TO.C,D125*%
X16901808Y-116796269D02*
X16675763Y-120389166D01*
X13708123Y-116595340D02*
X13482077Y-120188236D01*
X13482077Y-120188236D02*
X16675763Y-120389166D01*
%TO.C,D198*%
X146687336Y-18782395D02*
X143151102Y-18107823D01*
X147286956Y-15639076D02*
X143750722Y-14964504D01*
X143750722Y-14964504D02*
X143151102Y-18107823D01*
%TO.C,D104*%
X106063067Y-18257728D02*
X102526833Y-18932300D01*
X105463447Y-15114409D02*
X101927213Y-15788981D01*
X101927213Y-15788981D02*
X102526833Y-18932300D01*
%TO.C,G\u002A\u002A\u002A*%
D14*
X71900000Y-71900000D02*
X178100000Y-71900000D01*
X178100000Y-178200000D01*
X71900000Y-178200000D01*
X71900000Y-71900000D01*
D15*
G36*
X109897297Y-102174324D02*
G01*
X109897297Y-109897297D01*
X117448648Y-109897297D01*
X125000000Y-109897297D01*
X125000000Y-102174324D01*
X125000000Y-94451351D01*
X140102702Y-94451351D01*
X155205405Y-94451351D01*
X155205405Y-117277027D01*
X155205405Y-140102702D01*
X147654054Y-140102702D01*
X140102702Y-140102702D01*
X140102702Y-147654054D01*
X140102702Y-155205405D01*
X132551351Y-155205405D01*
X125000000Y-155205405D01*
X125000000Y-140102702D01*
X125000000Y-125000000D01*
X132551351Y-125000000D01*
X140102702Y-125000000D01*
X140102702Y-117448648D01*
X140102702Y-109897297D01*
X132551351Y-109897297D01*
X125000000Y-109897297D01*
X125000000Y-117448648D01*
X125000000Y-125000000D01*
X117448648Y-125000000D01*
X109897297Y-125000000D01*
X109897297Y-117448648D01*
X109897297Y-109897297D01*
X102174324Y-109897297D01*
X94451351Y-109897297D01*
X94451351Y-102174324D01*
X94451351Y-94451351D01*
X102174324Y-94451351D01*
X109897297Y-94451351D01*
X109897297Y-102174324D01*
G37*
D13*
%TO.C,D19*%
X18901074Y-76620892D02*
X20433879Y-73363515D01*
X21796520Y-77983386D02*
X23329326Y-74726008D01*
X23329326Y-74726008D02*
X20433879Y-73363515D01*
%TO.C,D64*%
X206159039Y-204231373D02*
X208491738Y-206421923D01*
X208623408Y-201607086D02*
X206159039Y-204231373D01*
X210956108Y-203797636D02*
X208491738Y-206421923D01*
%TO.C,C5*%
X106340000Y-27657836D02*
X106340000Y-27442164D01*
X107060000Y-27657836D02*
X107060000Y-27442164D01*
%TO.C,D68*%
X223313319Y-181558741D02*
X226117501Y-183100353D01*
X225047632Y-178404037D02*
X223313319Y-181558741D01*
X227851814Y-179945649D02*
X226117501Y-183100353D01*
%TO.C,D4*%
X101776136Y-10727640D02*
X105312370Y-10053068D01*
X102375756Y-13870959D02*
X105911990Y-13196387D01*
X105911990Y-13196387D02*
X105312370Y-10053068D01*
%TO.C,D37*%
X36050549Y-200402355D02*
X33755823Y-197628507D01*
X36221465Y-195588750D02*
X33755823Y-197628507D01*
X38516192Y-198362598D02*
X36221465Y-195588750D01*
%TO.C,D206*%
X102800000Y-51400000D02*
X102800000Y-54600000D01*
X106400000Y-51400000D02*
X102800000Y-51400000D01*
X106400000Y-54600000D02*
X102800000Y-54600000D01*
%TO.C,D57*%
X164699815Y-231246527D02*
X165877814Y-234221811D01*
X168047011Y-229921278D02*
X164699815Y-231246527D01*
X169225009Y-232896563D02*
X165877814Y-234221811D01*
%TO.C,D86*%
X215919627Y-57212528D02*
X218035654Y-60124989D01*
X218035654Y-60124989D02*
X220624509Y-58244076D01*
X218508482Y-55331615D02*
X220624509Y-58244076D01*
%TO.C,D54*%
X144088009Y-236803612D02*
X144687629Y-239946931D01*
X147624243Y-236129040D02*
X144088009Y-236803612D01*
X148223863Y-239272359D02*
X144687629Y-239946931D01*
%TO.C,D31*%
X14539433Y-162362860D02*
X13426972Y-158939057D01*
X16470353Y-157950202D02*
X13426972Y-158939057D01*
X17582814Y-161374006D02*
X16470353Y-157950202D01*
%TO.C,R9*%
X75237258Y-207977500D02*
X74762742Y-207977500D01*
X75237258Y-209022500D02*
X74762742Y-209022500D01*
%TO.C,D51*%
X122799999Y-238400000D02*
X122799999Y-241600000D01*
X126399999Y-238400000D02*
X122799999Y-238400000D01*
X126399999Y-241600000D02*
X122799999Y-241600000D01*
%TO.C,D201*%
X62800000Y-51400000D02*
X62800000Y-54600000D01*
X66400000Y-51400000D02*
X62800000Y-51400000D01*
X66400000Y-54600000D02*
X62800000Y-54600000D01*
%TO.C,D11*%
X55331615Y-31491517D02*
X58244076Y-29375490D01*
X57212528Y-34080372D02*
X60124989Y-31964345D01*
X60124989Y-31964345D02*
X58244076Y-29375490D01*
%TO.C,R3*%
X52846359Y-138620000D02*
X53153641Y-138620000D01*
X52846359Y-139380000D02*
X53153641Y-139380000D01*
%TO.C,D240*%
X17800000Y-228400000D02*
X17800000Y-231600000D01*
X21400000Y-228400000D02*
X17800000Y-228400000D01*
X21400000Y-231600000D02*
X17800000Y-231600000D01*
%TO.C,U8*%
X169890000Y-33890000D02*
X170365000Y-33890000D01*
X169890000Y-34365000D02*
X169890000Y-33890000D01*
X169890000Y-37635000D02*
X169890000Y-37810000D01*
X170365000Y-38110000D02*
X170130000Y-38110000D01*
X174110000Y-33890000D02*
X173635000Y-33890000D01*
X174110000Y-34365000D02*
X174110000Y-33890000D01*
X174110000Y-37635000D02*
X174110000Y-38110000D01*
X174110000Y-38110000D02*
X173635000Y-38110000D01*
X169890000Y-38110000D02*
X169560000Y-38350000D01*
X169560000Y-37870000D01*
X169890000Y-38110000D01*
G36*
X169890000Y-38110000D02*
G01*
X169560000Y-38350000D01*
X169560000Y-37870000D01*
X169890000Y-38110000D01*
G37*
%TO.C,D39*%
X45768626Y-206159039D02*
X43578076Y-208491738D01*
X46202363Y-210956108D02*
X43578076Y-208491738D01*
X48392913Y-208623408D02*
X45768626Y-206159039D01*
%TO.C,D18*%
X22148185Y-70054350D02*
X23882498Y-66899646D01*
X24952367Y-71595962D02*
X26686680Y-68441258D01*
X26686680Y-68441258D02*
X23882498Y-66899646D01*
%TO.C,R7*%
X78477500Y-40737258D02*
X78477500Y-40262742D01*
X79522500Y-40737258D02*
X79522500Y-40262742D01*
%TO.C,D214*%
X166800000Y-51400000D02*
X166800000Y-54600000D01*
X170400000Y-51400000D02*
X166800000Y-51400000D01*
X170400000Y-54600000D02*
X166800000Y-54600000D01*
%TO.C,D2*%
X116281388Y-8717990D02*
X119874284Y-8491944D01*
X116482317Y-11911673D02*
X120075214Y-11685630D01*
X120075214Y-11685630D02*
X119874284Y-8491944D01*
%TO.C,D8*%
X74087376Y-20093256D02*
X77344754Y-18560450D01*
X75449870Y-22988702D02*
X78707247Y-21455897D01*
X78707247Y-21455897D02*
X77344754Y-18560450D01*
%TO.C,R22*%
X55120000Y-133346359D02*
X55120000Y-133653641D01*
X55880000Y-133346359D02*
X55880000Y-133653641D01*
%TO.C,C2*%
X58140000Y-140392164D02*
X58140000Y-140607836D01*
X58860000Y-140392164D02*
X58860000Y-140607836D01*
%TO.C,D90*%
X196205161Y-36731405D02*
X198979009Y-39026131D01*
X198244918Y-34265762D02*
X201018766Y-36560489D01*
X198979009Y-39026131D02*
X201018766Y-36560489D01*
%TO.C,D238*%
X227800000Y-18400000D02*
X227800000Y-21600000D01*
X231400000Y-18400000D02*
X227800000Y-18400000D01*
X231400000Y-21600000D02*
X227800000Y-21600000D01*
%TO.C,U4*%
X23890000Y-118390000D02*
X24365000Y-118390000D01*
X23890000Y-118865000D02*
X23890000Y-118390000D01*
X23890000Y-122135000D02*
X23890000Y-122610000D01*
X23890000Y-122610000D02*
X24365000Y-122610000D01*
X27635000Y-118390000D02*
X27870000Y-118390000D01*
X28110000Y-118865000D02*
X28110000Y-118690000D01*
X28110000Y-122135000D02*
X28110000Y-122610000D01*
X28110000Y-122610000D02*
X27635000Y-122610000D01*
X28440000Y-118630000D02*
X28110000Y-118390000D01*
X28440000Y-118150000D01*
X28440000Y-118630000D01*
G36*
X28440000Y-118630000D02*
G01*
X28110000Y-118390000D01*
X28440000Y-118150000D01*
X28440000Y-118630000D01*
G37*
%TO.C,U3*%
X77890000Y-33890000D02*
X77890000Y-34365000D01*
X77890000Y-38110000D02*
X77890000Y-37635000D01*
X78365000Y-33890000D02*
X77890000Y-33890000D01*
X78365000Y-38110000D02*
X77890000Y-38110000D01*
X81635000Y-33890000D02*
X82110000Y-33890000D01*
X81635000Y-38110000D02*
X81810000Y-38110000D01*
X82110000Y-33890000D02*
X82110000Y-34365000D01*
X82110000Y-37635000D02*
X82110000Y-37870000D01*
X82350000Y-38440000D02*
X81870000Y-38440000D01*
X82110000Y-38110000D01*
X82350000Y-38440000D01*
G36*
X82350000Y-38440000D02*
G01*
X81870000Y-38440000D01*
X82110000Y-38110000D01*
X82350000Y-38440000D01*
G37*
%TO.C,D62*%
X195588750Y-213778534D02*
X197628507Y-216244176D01*
X198362598Y-211483807D02*
X195588750Y-213778534D01*
X200402355Y-213949450D02*
X197628507Y-216244176D01*
%TO.C,D49*%
X108604559Y-237230073D02*
X108203490Y-240404840D01*
X111775105Y-240856040D02*
X108203490Y-240404840D01*
X112176172Y-237681273D02*
X108604559Y-237230073D01*
%TO.C,D21*%
X13674186Y-90300097D02*
X14786647Y-86876293D01*
X16717567Y-91288951D02*
X17830028Y-87865148D01*
X17830028Y-87865148D02*
X14786647Y-86876293D01*
%TO.C,D9*%
X67600692Y-23497095D02*
X70755396Y-21762782D01*
X69142304Y-26301277D02*
X72297008Y-24566964D01*
X72297008Y-24566964D02*
X70755396Y-21762782D01*
%TO.C,C10*%
X75107836Y-206640000D02*
X74892164Y-206640000D01*
X75107836Y-207360000D02*
X74892164Y-207360000D01*
%TO.C,D71*%
X232169971Y-162134851D02*
X235213352Y-163123706D01*
X233282432Y-158711048D02*
X232169971Y-162134851D01*
X236325813Y-159699902D02*
X235213352Y-163123706D01*
%TO.C,D204*%
X86800000Y-51400000D02*
X86800000Y-54600000D01*
X90400000Y-51400000D02*
X86800000Y-51400000D01*
X90400000Y-54600000D02*
X86800000Y-54600000D01*
%TO.C,D20*%
X16072687Y-83378364D02*
X17397936Y-80031168D01*
X19047972Y-84556362D02*
X20373220Y-81209167D01*
X20373220Y-81209167D02*
X17397936Y-80031168D01*
%TO.C,D60*%
X183905237Y-221925605D02*
X185619882Y-224627455D01*
X186944817Y-219996629D02*
X183905237Y-221925605D01*
X188659463Y-222698478D02*
X185619882Y-224627455D01*
%TO.C,D45*%
X81209167Y-229626779D02*
X80031168Y-232602063D01*
X83378364Y-233927312D02*
X80031168Y-232602063D01*
X84556362Y-230952027D02*
X81209167Y-229626779D01*
%TO.C,D69*%
X226670673Y-175273991D02*
X229566120Y-176636484D01*
X228203479Y-172016613D02*
X226670673Y-175273991D01*
X231098925Y-173379107D02*
X229566120Y-176636484D01*
%TO.C,D12*%
X49597644Y-36050549D02*
X52371492Y-33755823D01*
X51637401Y-38516192D02*
X54411249Y-36221465D01*
X54411249Y-36221465D02*
X52371492Y-33755823D01*
%TO.C,D3*%
X108997184Y-9494892D02*
X112568797Y-9043692D01*
X109398251Y-12669659D02*
X112969866Y-12218459D01*
X112969866Y-12218459D02*
X112568797Y-9043692D01*
%TO.C,D27*%
X8717990Y-133718611D02*
X8491944Y-130125715D01*
X11685630Y-129924785D02*
X8491944Y-130125715D01*
X11911673Y-133517682D02*
X11685630Y-129924785D01*
%TO.C,D85*%
X219996629Y-63055182D02*
X221925605Y-66094762D01*
X221925605Y-66094762D02*
X224627455Y-64380117D01*
X222698478Y-61340536D02*
X224627455Y-64380117D01*
%TO.C,U9*%
X132890000Y-22890000D02*
X132890000Y-23365000D01*
X132890000Y-27110000D02*
X132890000Y-26635000D01*
X133365000Y-22890000D02*
X132890000Y-22890000D01*
X133365000Y-27110000D02*
X132890000Y-27110000D01*
X136635000Y-22890000D02*
X137110000Y-22890000D01*
X136635000Y-27110000D02*
X136810000Y-27110000D01*
X137110000Y-22890000D02*
X137110000Y-23365000D01*
X137110000Y-26635000D02*
X137110000Y-26870000D01*
X137350000Y-27440000D02*
X136870000Y-27440000D01*
X137110000Y-27110000D01*
X137350000Y-27440000D01*
G36*
X137350000Y-27440000D02*
G01*
X136870000Y-27440000D01*
X137110000Y-27110000D01*
X137350000Y-27440000D01*
G37*
%TO.C,C12*%
X218392164Y-147640000D02*
X218607836Y-147640000D01*
X218392164Y-148360000D02*
X218607836Y-148360000D01*
%TO.C,D22*%
X11715037Y-97358775D02*
X12610321Y-93871875D01*
X14814503Y-98154582D02*
X15709787Y-94667683D01*
X15709787Y-94667683D02*
X12610321Y-93871875D01*
%TO.C,D82*%
X229921278Y-81952988D02*
X231246527Y-85300184D01*
X231246527Y-85300184D02*
X234221811Y-84122185D01*
X232896563Y-80774990D02*
X234221811Y-84122185D01*
%TO.C,C11*%
X160140000Y-213892164D02*
X160140000Y-214107836D01*
X160860000Y-213892164D02*
X160860000Y-214107836D01*
%TO.C,C15*%
X125857836Y-36140000D02*
X125642164Y-36140000D01*
X125857836Y-36860000D02*
X125642164Y-36860000D01*
%TO.C,U1*%
X54890000Y-135390000D02*
X55365000Y-135390000D01*
X54890000Y-135865000D02*
X54890000Y-135390000D01*
X54890000Y-138135000D02*
X54890000Y-138310000D01*
X55365000Y-138610000D02*
X55130000Y-138610000D01*
X58110000Y-135390000D02*
X57635000Y-135390000D01*
X58110000Y-135865000D02*
X58110000Y-135390000D01*
X58110000Y-138135000D02*
X58110000Y-138610000D01*
X58110000Y-138610000D02*
X57635000Y-138610000D01*
X54890000Y-138610000D02*
X54560000Y-138850000D01*
X54560000Y-138370000D01*
X54890000Y-138610000D01*
G36*
X54890000Y-138610000D02*
G01*
X54560000Y-138850000D01*
X54560000Y-138370000D01*
X54890000Y-138610000D01*
G37*
%TO.C,D80*%
X234489164Y-95442549D02*
X235384448Y-98929449D01*
X235384448Y-98929449D02*
X238483914Y-98133641D01*
X237588630Y-94646742D02*
X238483914Y-98133641D01*
%TO.C,D237*%
X17800000Y-18400000D02*
X17800000Y-21600000D01*
X21400000Y-18400000D02*
X17800000Y-18400000D01*
X21400000Y-21600000D02*
X17800000Y-21600000D01*
%TO.C,D79*%
X236129040Y-102375756D02*
X236803612Y-105911990D01*
X236803612Y-105911990D02*
X239946931Y-105312370D01*
X239272359Y-101776136D02*
X239946931Y-105312370D01*
%TO.C,C14*%
X134840000Y-29092164D02*
X134840000Y-29307836D01*
X135560000Y-29092164D02*
X135560000Y-29307836D01*
%TO.C,D42*%
X62379719Y-219567967D02*
X60665074Y-222269817D01*
X63704654Y-224198793D02*
X60665074Y-222269817D01*
X65419300Y-221496944D02*
X62379719Y-219567967D01*
%TO.C,D67*%
X219567967Y-187620280D02*
X222269817Y-189334925D01*
X221496944Y-184580699D02*
X219567967Y-187620280D01*
X224198793Y-186295345D02*
X222269817Y-189334925D01*
%TO.C,R13*%
X133277500Y-30037258D02*
X133277500Y-29562742D01*
X134322500Y-30037258D02*
X134322500Y-29562742D01*
%TO.C,D93*%
X178404037Y-24952367D02*
X181558741Y-26686680D01*
X179945649Y-22148185D02*
X183100353Y-23882498D01*
X181558741Y-26686680D02*
X183100353Y-23882498D01*
%TO.C,D24*%
X9143959Y-111775105D02*
X9595159Y-108203490D01*
X12318726Y-112176172D02*
X12769926Y-108604559D01*
X12769926Y-108604559D02*
X9595159Y-108203490D01*
%TO.C,R17*%
X209153641Y-172120000D02*
X208846359Y-172120000D01*
X209153641Y-172880000D02*
X208846359Y-172880000D01*
%TO.C,D213*%
X158800000Y-51400000D02*
X158800000Y-54600000D01*
X162400000Y-51400000D02*
X158800000Y-51400000D01*
X162400000Y-54600000D02*
X158800000Y-54600000D01*
%TO.C,R6*%
X60346359Y-130620000D02*
X60653641Y-130620000D01*
X60346359Y-131380000D02*
X60653641Y-131380000D01*
%TO.C,D95*%
X165443637Y-19047972D02*
X168790832Y-20373220D01*
X166621635Y-16072687D02*
X169968831Y-17397936D01*
X168790832Y-20373220D02*
X169968831Y-17397936D01*
%TO.C,R10*%
X161477500Y-213262742D02*
X161477500Y-213737258D01*
X162522500Y-213262742D02*
X162522500Y-213737258D01*
%TO.C,D34*%
X23497095Y-182399307D02*
X21762782Y-179244603D01*
X24566964Y-177702991D02*
X21762782Y-179244603D01*
X26301277Y-180857695D02*
X24566964Y-177702991D01*
%TO.C,D205*%
X94800000Y-51400000D02*
X94800000Y-54600000D01*
X98400000Y-51400000D02*
X94800000Y-51400000D01*
X98400000Y-54600000D02*
X94800000Y-54600000D01*
%TO.C,D74*%
X237230073Y-141395440D02*
X240404840Y-141796509D01*
X237681273Y-137823827D02*
X237230073Y-141395440D01*
X240856040Y-138224894D02*
X240404840Y-141796509D01*
%TO.C,D207*%
X110800000Y-51400000D02*
X110800000Y-54600000D01*
X114400000Y-51400000D02*
X110800000Y-51400000D01*
X114400000Y-54600000D02*
X110800000Y-54600000D01*
%TO.C,D239*%
X227800000Y-228400000D02*
X227800000Y-231600000D01*
X231400000Y-228400000D02*
X227800000Y-228400000D01*
X231400000Y-231600000D02*
X227800000Y-231600000D01*
%TO.C,D15*%
X34265762Y-51755081D02*
X36560489Y-48981233D01*
X36731405Y-53794838D02*
X39026131Y-51020990D01*
X39026131Y-51020990D02*
X36560489Y-48981233D01*
%TO.C,D6*%
X87637139Y-14539433D02*
X91060942Y-13426972D01*
X88625993Y-17582814D02*
X92049797Y-16470353D01*
X92049797Y-16470353D02*
X91060942Y-13426972D01*
%TO.C,D210*%
X134800000Y-51400000D02*
X134800000Y-54600000D01*
X138400000Y-51400000D02*
X134800000Y-51400000D01*
X138400000Y-54600000D02*
X134800000Y-54600000D01*
%TO.C,U6*%
X157890000Y-216865000D02*
X157890000Y-216630000D01*
X157890000Y-220610000D02*
X157890000Y-220135000D01*
X158365000Y-216390000D02*
X158190000Y-216390000D01*
X158365000Y-220610000D02*
X157890000Y-220610000D01*
X161635000Y-216390000D02*
X162110000Y-216390000D01*
X161635000Y-220610000D02*
X162110000Y-220610000D01*
X162110000Y-216390000D02*
X162110000Y-216865000D01*
X162110000Y-220610000D02*
X162110000Y-220135000D01*
X157890000Y-216390000D02*
X157650000Y-216060000D01*
X158130000Y-216060000D01*
X157890000Y-216390000D01*
G36*
X157890000Y-216390000D02*
G01*
X157650000Y-216060000D01*
X158130000Y-216060000D01*
X157890000Y-216390000D01*
G37*
%TO.C,U7*%
X220390000Y-145390000D02*
X220865000Y-145390000D01*
X220390000Y-145865000D02*
X220390000Y-145390000D01*
X220390000Y-149135000D02*
X220390000Y-149310000D01*
X220865000Y-149610000D02*
X220630000Y-149610000D01*
X224610000Y-145390000D02*
X224135000Y-145390000D01*
X224610000Y-145865000D02*
X224610000Y-145390000D01*
X224610000Y-149135000D02*
X224610000Y-149610000D01*
X224610000Y-149610000D02*
X224135000Y-149610000D01*
X220390000Y-149610000D02*
X220060000Y-149850000D01*
X220060000Y-149370000D01*
X220390000Y-149610000D01*
G36*
X220390000Y-149610000D02*
G01*
X220060000Y-149850000D01*
X220060000Y-149370000D01*
X220390000Y-149610000D01*
G37*
%TO.C,D35*%
X27301521Y-188659463D02*
X25372544Y-185619882D01*
X28074394Y-183905237D02*
X25372544Y-185619882D01*
X30003370Y-186944817D02*
X28074394Y-183905237D01*
%TO.C,D52*%
X129924785Y-238314369D02*
X130125715Y-241508055D01*
X133517682Y-238088326D02*
X129924785Y-238314369D01*
X133718611Y-241282009D02*
X130125715Y-241508055D01*
%TO.C,D26*%
X8400000Y-126400000D02*
X8400000Y-122800000D01*
X11600000Y-122800000D02*
X8400000Y-122800000D01*
X11600000Y-126400000D02*
X11600000Y-122800000D01*
%TO.C,U2*%
X107390000Y-30390000D02*
X107840000Y-30390000D01*
X107390000Y-30840000D02*
X107390000Y-30390000D01*
X107390000Y-33160000D02*
X107390000Y-33610000D01*
X107390000Y-33610000D02*
X107840000Y-33610000D01*
X110160000Y-30390000D02*
X110370000Y-30390000D01*
X110610000Y-30840000D02*
X110610000Y-30690000D01*
X110610000Y-33160000D02*
X110610000Y-33610000D01*
X110610000Y-33610000D02*
X110160000Y-33610000D01*
X110940000Y-30630000D02*
X110610000Y-30390000D01*
X110940000Y-30150000D01*
X110940000Y-30630000D01*
G36*
X110940000Y-30630000D02*
G01*
X110610000Y-30390000D01*
X110940000Y-30150000D01*
X110940000Y-30630000D01*
G37*
%TO.C,D208*%
X118800000Y-51400000D02*
X118800000Y-54600000D01*
X122400000Y-51400000D02*
X118800000Y-51400000D01*
X122400000Y-54600000D02*
X118800000Y-54600000D01*
%TO.C,D81*%
X232417185Y-88625993D02*
X233529646Y-92049797D01*
X233529646Y-92049797D02*
X236573027Y-91060942D01*
X235460566Y-87637139D02*
X236573027Y-91060942D01*
%TO.C,D72*%
X234290212Y-155332316D02*
X237389678Y-156128124D01*
X235185496Y-151845417D02*
X234290212Y-155332316D01*
X238284962Y-152641224D02*
X237389678Y-156128124D01*
%TO.C,D75*%
X238038091Y-134316103D02*
X241231777Y-134517033D01*
X238264137Y-130723207D02*
X238038091Y-134316103D01*
X241457820Y-130924136D02*
X241231777Y-134517033D01*
%TO.C,D58*%
X171292752Y-228544102D02*
X172655245Y-231439549D01*
X174550129Y-227011297D02*
X171292752Y-228544102D01*
X175912623Y-229906743D02*
X172655245Y-231439549D01*
%TO.C,D23*%
X10202973Y-104526540D02*
X10877545Y-100990306D01*
X13346292Y-105126160D02*
X14020864Y-101589926D01*
X14020864Y-101589926D02*
X10877545Y-100990306D01*
%TO.C,R18*%
X42653641Y-177620000D02*
X42346359Y-177620000D01*
X42653641Y-178380000D02*
X42346359Y-178380000D01*
%TO.C,D98*%
X144873839Y-13346292D02*
X148410073Y-14020864D01*
X145473459Y-10202973D02*
X149009693Y-10877545D01*
X148410073Y-14020864D02*
X149009693Y-10877545D01*
%TO.C,D61*%
X189875010Y-218035654D02*
X191755923Y-220624509D01*
X192787471Y-215919627D02*
X189875010Y-218035654D01*
X194668384Y-218508482D02*
X191755923Y-220624509D01*
%TO.C,C18*%
X105107836Y-32190000D02*
X104892164Y-32190000D01*
X105107836Y-32910000D02*
X104892164Y-32910000D01*
%TO.C,D92*%
X184580699Y-28503055D02*
X187620280Y-30432032D01*
X186295345Y-25801206D02*
X189334925Y-27730182D01*
X187620280Y-30432032D02*
X189334925Y-27730182D01*
%TO.C,U11*%
X42862500Y-76490000D02*
X42062500Y-76490000D01*
X42862500Y-76490000D02*
X43662500Y-76490000D01*
X42862500Y-79610000D02*
X42062500Y-79610000D01*
X42862500Y-79610000D02*
X43662500Y-79610000D01*
X41562500Y-76540000D02*
X41322500Y-76210000D01*
X41802500Y-76210000D01*
X41562500Y-76540000D01*
G36*
X41562500Y-76540000D02*
G01*
X41322500Y-76210000D01*
X41802500Y-76210000D01*
X41562500Y-76540000D01*
G37*
%TO.C,D215*%
X174800000Y-51400000D02*
X174800000Y-54600000D01*
X178400000Y-51400000D02*
X174800000Y-51400000D01*
X178400000Y-54600000D02*
X174800000Y-54600000D01*
%TO.C,D202*%
X70800000Y-51400000D02*
X70800000Y-54600000D01*
X74400000Y-51400000D02*
X70800000Y-51400000D01*
X74400000Y-54600000D02*
X70800000Y-54600000D01*
%TO.C,D14*%
X39043891Y-46202363D02*
X41508261Y-43578076D01*
X41376591Y-48392913D02*
X43840960Y-45768626D01*
X43840960Y-45768626D02*
X41508261Y-43578076D01*
%TO.C,U12*%
X204000000Y-72440000D02*
X203200000Y-72440000D01*
X204000000Y-72440000D02*
X204800000Y-72440000D01*
X204000000Y-75560000D02*
X203200000Y-75560000D01*
X204000000Y-75560000D02*
X204800000Y-75560000D01*
X202700000Y-72490000D02*
X202460000Y-72160000D01*
X202940000Y-72160000D01*
X202700000Y-72490000D01*
G36*
X202700000Y-72490000D02*
G01*
X202460000Y-72160000D01*
X202940000Y-72160000D01*
X202700000Y-72490000D01*
G37*
%TO.C,R1*%
X45120000Y-120346359D02*
X45120000Y-120653641D01*
X45880000Y-120346359D02*
X45880000Y-120653641D01*
%TO.C,D1*%
X123600000Y-8400000D02*
X127200000Y-8400000D01*
X123600000Y-11600000D02*
X127200000Y-11600000D01*
X127200000Y-11600000D02*
X127200000Y-8400000D01*
%TO.C,D5*%
X94646742Y-12411369D02*
X98133641Y-11516085D01*
X95442549Y-15510835D02*
X98929449Y-14615551D01*
X98929449Y-14615551D02*
X98133641Y-11516085D01*
%TO.C,D33*%
X20093256Y-175912623D02*
X18560450Y-172655245D01*
X21455897Y-171292752D02*
X18560450Y-172655245D01*
X22988702Y-174550129D02*
X21455897Y-171292752D01*
%TO.C,C7*%
X112392164Y-29640000D02*
X112607836Y-29640000D01*
X112392164Y-30360000D02*
X112607836Y-30360000D01*
%TO.C,R5*%
X60346359Y-131620000D02*
X60653641Y-131620000D01*
X60346359Y-132380000D02*
X60653641Y-132380000D01*
%TO.C,D203*%
X78800000Y-51400000D02*
X78800000Y-54600000D01*
X82400000Y-51400000D02*
X78800000Y-51400000D01*
X82400000Y-54600000D02*
X78800000Y-54600000D01*
%TO.C,D211*%
X142800000Y-51400000D02*
X142800000Y-54600000D01*
X146400000Y-51400000D02*
X142800000Y-51400000D01*
X146400000Y-54600000D02*
X142800000Y-54600000D01*
%TO.C,R11*%
X217762742Y-145977500D02*
X218237258Y-145977500D01*
X217762742Y-147022500D02*
X218237258Y-147022500D01*
D15*
%TO.C,G\u002A\u002A\u002A*%
G36*
X128862869Y-218442822D02*
G01*
X129034720Y-218603396D01*
X129154712Y-218724962D01*
X129229059Y-218816030D01*
X129263976Y-218885112D01*
X129265675Y-218940719D01*
X129251254Y-218974796D01*
X129206796Y-219028334D01*
X129119634Y-219117715D01*
X129003929Y-219229827D01*
X128873847Y-219351559D01*
X128743550Y-219469800D01*
X128627202Y-219571438D01*
X128538968Y-219643362D01*
X128501063Y-219669248D01*
X128451485Y-219680948D01*
X128348662Y-219690656D01*
X128189104Y-219698463D01*
X127969317Y-219704455D01*
X127685810Y-219708723D01*
X127335089Y-219711356D01*
X126913663Y-219712441D01*
X126803353Y-219712482D01*
X126412721Y-219712373D01*
X126090212Y-219711842D01*
X125828915Y-219710583D01*
X125621915Y-219708288D01*
X125462300Y-219704650D01*
X125343158Y-219699364D01*
X125257573Y-219692121D01*
X125198635Y-219682616D01*
X125159430Y-219670541D01*
X125133044Y-219655590D01*
X125112566Y-219637455D01*
X125112555Y-219637445D01*
X125085354Y-219605104D01*
X125065630Y-219563028D01*
X125052193Y-219499633D01*
X125043855Y-219403334D01*
X125039430Y-219262546D01*
X125037727Y-219065686D01*
X125037518Y-218905835D01*
X125038106Y-218667239D01*
X125040660Y-218492092D01*
X125046370Y-218368809D01*
X125056422Y-218285806D01*
X125072007Y-218231497D01*
X125094310Y-218194298D01*
X125112555Y-218174225D01*
X125132821Y-218156261D01*
X125158929Y-218141418D01*
X125197714Y-218129398D01*
X125256011Y-218119904D01*
X125340655Y-218112638D01*
X125458479Y-218107303D01*
X125616318Y-218103602D01*
X125821007Y-218101237D01*
X126079382Y-218099912D01*
X126398275Y-218099328D01*
X126784522Y-218099189D01*
X126837507Y-218099188D01*
X128487421Y-218099188D01*
X128862869Y-218442822D01*
G37*
G36*
X133468111Y-219582314D02*
G01*
X133544692Y-219642939D01*
X133662694Y-219745644D01*
X133823565Y-219891789D01*
X134028755Y-220082735D01*
X134279713Y-220319841D01*
X134577888Y-220604469D01*
X134924729Y-220937978D01*
X135321686Y-221321729D01*
X135770207Y-221757083D01*
X135794206Y-221780417D01*
X136139850Y-222116760D01*
X136469862Y-222438357D01*
X136780297Y-222741336D01*
X137067208Y-223021825D01*
X137326652Y-223275954D01*
X137554683Y-223499849D01*
X137747355Y-223689639D01*
X137900725Y-223841452D01*
X138010847Y-223951417D01*
X138073776Y-224015660D01*
X138087614Y-224031294D01*
X138074848Y-224064145D01*
X138007459Y-224096522D01*
X137879936Y-224129984D01*
X137686767Y-224166092D01*
X137517696Y-224192567D01*
X137195679Y-224228732D01*
X136864550Y-224245108D01*
X136546524Y-224241703D01*
X136263816Y-224218527D01*
X136105465Y-224191995D01*
X135847852Y-224121703D01*
X135626305Y-224024955D01*
X135421986Y-223890222D01*
X135216061Y-223705974D01*
X135083561Y-223566491D01*
X134955857Y-223424054D01*
X134796645Y-223243399D01*
X134611833Y-223031481D01*
X134407333Y-222795252D01*
X134189053Y-222541666D01*
X133962904Y-222277676D01*
X133734796Y-222010236D01*
X133510638Y-221746298D01*
X133296340Y-221492816D01*
X133097812Y-221256744D01*
X132920964Y-221045034D01*
X132771706Y-220864640D01*
X132655948Y-220722516D01*
X132579599Y-220625615D01*
X132553915Y-220590190D01*
X132529360Y-220548009D01*
X132519873Y-220507756D01*
X132531224Y-220460750D01*
X132569185Y-220398307D01*
X132639523Y-220311744D01*
X132748009Y-220192379D01*
X132900414Y-220031528D01*
X132981341Y-219946972D01*
X133164043Y-219762803D01*
X133302132Y-219638317D01*
X133396013Y-219573164D01*
X133431502Y-219562408D01*
X133468111Y-219582314D01*
G37*
G36*
X130867504Y-216520465D02*
G01*
X131091944Y-216785443D01*
X131302551Y-217032436D01*
X131494210Y-217255562D01*
X131661804Y-217448943D01*
X131800217Y-217606697D01*
X131904335Y-217722945D01*
X131969040Y-217791808D01*
X131988351Y-217808746D01*
X132065213Y-217813669D01*
X132090990Y-217808853D01*
X132126087Y-217777592D01*
X132203819Y-217694405D01*
X132319039Y-217565228D01*
X132466603Y-217395996D01*
X132641366Y-217192641D01*
X132838181Y-216961100D01*
X133051904Y-216707305D01*
X133207992Y-216520573D01*
X134268716Y-215247785D01*
X135220015Y-215247785D01*
X135528468Y-215248238D01*
X135769832Y-215250624D01*
X135952052Y-215256479D01*
X136083076Y-215267341D01*
X136170850Y-215284748D01*
X136223320Y-215310238D01*
X136248434Y-215345348D01*
X136254136Y-215391616D01*
X136248870Y-215446865D01*
X136221671Y-215495521D01*
X136148878Y-215594685D01*
X136035080Y-215739076D01*
X135884865Y-215923413D01*
X135702821Y-216142417D01*
X135493536Y-216390806D01*
X135261600Y-216663299D01*
X135011599Y-216954617D01*
X134748122Y-217259478D01*
X134475758Y-217572602D01*
X134199094Y-217888708D01*
X133922719Y-218202515D01*
X133651221Y-218508744D01*
X133389189Y-218802112D01*
X133141210Y-219077341D01*
X132911872Y-219329148D01*
X132705765Y-219552254D01*
X132527475Y-219741378D01*
X132428470Y-219843796D01*
X132203944Y-220073908D01*
X131943177Y-220342734D01*
X131661443Y-220634429D01*
X131374018Y-220933146D01*
X131096174Y-221223042D01*
X130843187Y-221488270D01*
X130837160Y-221494609D01*
X130626713Y-221715616D01*
X130428388Y-221923266D01*
X130249243Y-222110215D01*
X130096338Y-222269119D01*
X129976732Y-222392635D01*
X129897484Y-222473419D01*
X129872346Y-222498228D01*
X129763661Y-222601403D01*
X128852221Y-222601403D01*
X128539316Y-222600240D01*
X128295005Y-222596542D01*
X128112880Y-222590001D01*
X127986532Y-222580308D01*
X127909552Y-222567154D01*
X127879928Y-222554505D01*
X127819625Y-222472840D01*
X127809033Y-222349583D01*
X127809439Y-222344773D01*
X127835757Y-222308442D01*
X127909420Y-222224018D01*
X128025260Y-222097007D01*
X128178112Y-221932920D01*
X128362809Y-221737263D01*
X128574185Y-221515545D01*
X128807074Y-221273275D01*
X129041082Y-221031627D01*
X129396651Y-220665676D01*
X129703489Y-220349704D01*
X129965182Y-220079902D01*
X130185318Y-219852459D01*
X130367486Y-219663566D01*
X130515273Y-219509413D01*
X130632267Y-219386191D01*
X130722055Y-219290091D01*
X130788225Y-219217302D01*
X130834365Y-219164015D01*
X130864064Y-219126421D01*
X130880907Y-219100710D01*
X130888484Y-219083073D01*
X130890382Y-219069699D01*
X130890399Y-219067975D01*
X130866334Y-219030821D01*
X130796978Y-218942340D01*
X130686586Y-218807559D01*
X130539412Y-218631502D01*
X130359712Y-218419197D01*
X130151742Y-218175669D01*
X129919757Y-217905944D01*
X129668012Y-217615048D01*
X129400762Y-217308007D01*
X129385388Y-217290397D01*
X129116143Y-216981394D01*
X128861061Y-216687423D01*
X128624540Y-216413633D01*
X128410978Y-216165171D01*
X128224772Y-215947187D01*
X128070319Y-215764828D01*
X127952017Y-215623244D01*
X127874264Y-215527583D01*
X127841456Y-215482994D01*
X127841179Y-215482427D01*
X127823311Y-215403010D01*
X127863582Y-215330233D01*
X127870024Y-215322974D01*
X127894735Y-215299625D01*
X127927536Y-215281677D01*
X127977795Y-215268423D01*
X128054879Y-215259154D01*
X128168157Y-215253164D01*
X128326996Y-215249745D01*
X128540762Y-215248189D01*
X128818824Y-215247789D01*
X128865543Y-215247785D01*
X129793016Y-215247785D01*
X130867504Y-216520465D01*
G37*
G36*
X114826541Y-215254263D02*
G01*
X114971892Y-215255613D01*
X116164402Y-215268222D01*
X116427031Y-215371451D01*
X116750742Y-215534863D01*
X117048983Y-215755497D01*
X117307789Y-216020191D01*
X117513192Y-216315784D01*
X117589765Y-216467135D01*
X117630203Y-216560092D01*
X117664384Y-216646962D01*
X117692833Y-216734771D01*
X117716077Y-216830547D01*
X117734640Y-216941316D01*
X117749047Y-217074106D01*
X117759825Y-217235944D01*
X117767498Y-217433858D01*
X117772592Y-217674873D01*
X117775633Y-217966018D01*
X117777144Y-218314319D01*
X117777653Y-218726804D01*
X117777696Y-218980872D01*
X117777519Y-219413409D01*
X117776842Y-219777713D01*
X117775447Y-220080585D01*
X117773113Y-220328829D01*
X117769620Y-220529245D01*
X117764751Y-220688638D01*
X117758284Y-220813809D01*
X117750001Y-220911561D01*
X117739682Y-220988697D01*
X117727108Y-221052018D01*
X117712060Y-221108328D01*
X117708710Y-221119424D01*
X117555814Y-221495496D01*
X117342807Y-221830868D01*
X117075583Y-222119590D01*
X116760034Y-222355715D01*
X116402054Y-222533293D01*
X116258198Y-222583539D01*
X116180520Y-222603909D01*
X116086372Y-222620086D01*
X115965930Y-222632679D01*
X115809367Y-222642300D01*
X115606858Y-222649558D01*
X115348577Y-222655063D01*
X115038848Y-222659269D01*
X114757046Y-222661290D01*
X114487989Y-222661082D01*
X114244420Y-222658817D01*
X114039084Y-222654671D01*
X113884725Y-222648817D01*
X113800738Y-222642336D01*
X113422438Y-222558567D01*
X113069661Y-222409655D01*
X112750380Y-222202539D01*
X112472568Y-221944160D01*
X112244197Y-221641459D01*
X112073240Y-221301375D01*
X111999443Y-221074282D01*
X111985181Y-220979970D01*
X111972785Y-220819862D01*
X111962258Y-220603175D01*
X111953597Y-220339126D01*
X111946803Y-220036933D01*
X111941878Y-219705812D01*
X111938819Y-219354981D01*
X111938812Y-219352791D01*
X113524356Y-219352791D01*
X113524471Y-219771160D01*
X113527003Y-220114755D01*
X113531951Y-220383685D01*
X113539319Y-220578062D01*
X113549107Y-220697998D01*
X113555471Y-220732095D01*
X113612979Y-220850751D01*
X113699907Y-220957244D01*
X113710499Y-220966585D01*
X113825255Y-221063146D01*
X114849074Y-221063146D01*
X115153608Y-221062910D01*
X115392237Y-221061777D01*
X115574097Y-221059109D01*
X115708319Y-221054270D01*
X115804037Y-221046623D01*
X115870384Y-221035530D01*
X115916494Y-221020356D01*
X115951498Y-221000463D01*
X115972499Y-220984797D01*
X116019900Y-220946960D01*
X116059598Y-220910010D01*
X116092276Y-220867305D01*
X116118615Y-220812207D01*
X116139299Y-220738074D01*
X116155010Y-220638265D01*
X116166429Y-220506141D01*
X116174239Y-220335062D01*
X116179123Y-220118385D01*
X116181762Y-219849472D01*
X116182839Y-219521682D01*
X116183037Y-219128374D01*
X116183021Y-218935837D01*
X116182882Y-218526792D01*
X116182354Y-218185990D01*
X116181163Y-217906638D01*
X116179035Y-217681941D01*
X116175695Y-217505106D01*
X116170870Y-217369339D01*
X116164286Y-217267847D01*
X116155667Y-217193836D01*
X116144741Y-217140512D01*
X116131232Y-217101081D01*
X116114868Y-217068749D01*
X116107162Y-217055793D01*
X116061949Y-216988877D01*
X116011201Y-216935956D01*
X115946150Y-216895530D01*
X115858028Y-216866102D01*
X115738069Y-216846175D01*
X115577506Y-216834249D01*
X115367571Y-216828827D01*
X115099497Y-216828412D01*
X114792533Y-216831180D01*
X113820621Y-216842319D01*
X113679365Y-216983611D01*
X113538109Y-217124903D01*
X113526654Y-218859534D01*
X113524356Y-219352791D01*
X111938812Y-219352791D01*
X111937627Y-218993658D01*
X111938302Y-218631059D01*
X111940845Y-218276402D01*
X111945253Y-217938905D01*
X111951530Y-217627784D01*
X111959674Y-217352256D01*
X111969685Y-217121540D01*
X111981564Y-216944852D01*
X111995309Y-216831409D01*
X111999443Y-216812424D01*
X112124913Y-216470391D01*
X112312011Y-216152155D01*
X112550838Y-215867288D01*
X112831494Y-215625367D01*
X113144079Y-215435965D01*
X113478693Y-215308657D01*
X113579218Y-215284558D01*
X113689383Y-215271164D01*
X113871849Y-215261382D01*
X114123965Y-215255268D01*
X114443079Y-215252876D01*
X114826541Y-215254263D01*
G37*
G36*
X121270177Y-215252409D02*
G01*
X121612661Y-215255465D01*
X121944485Y-215259125D01*
X122210485Y-215262857D01*
X122419870Y-215267322D01*
X122581850Y-215273183D01*
X122705636Y-215281099D01*
X122800437Y-215291734D01*
X122875462Y-215305747D01*
X122939923Y-215323800D01*
X123003029Y-215346554D01*
X123030281Y-215357250D01*
X123402277Y-215541498D01*
X123720889Y-215776834D01*
X123983761Y-216060802D01*
X124188537Y-216390946D01*
X124310757Y-216692245D01*
X124355323Y-216842906D01*
X124384157Y-216979725D01*
X124400503Y-217127533D01*
X124407604Y-217311156D01*
X124408761Y-217442615D01*
X124388261Y-217849248D01*
X124321739Y-218204567D01*
X124205043Y-218519526D01*
X124034021Y-218805080D01*
X123804523Y-219072183D01*
X123783163Y-219093427D01*
X123511775Y-219322736D01*
X123218138Y-219494086D01*
X122890545Y-219612351D01*
X122517288Y-219682400D01*
X122325895Y-219699848D01*
X121956265Y-219724072D01*
X123234263Y-221005582D01*
X123541156Y-221313665D01*
X123798494Y-221573435D01*
X124009885Y-221789533D01*
X124178935Y-221966601D01*
X124309252Y-222109283D01*
X124404443Y-222222219D01*
X124468114Y-222310053D01*
X124503874Y-222377427D01*
X124515329Y-222428983D01*
X124506087Y-222469362D01*
X124479754Y-222503209D01*
X124439938Y-222535163D01*
X124428875Y-222542998D01*
X124390831Y-222562195D01*
X124332424Y-222576693D01*
X124244170Y-222587048D01*
X124116583Y-222593815D01*
X123940176Y-222597549D01*
X123705463Y-222598805D01*
X123481534Y-222598441D01*
X123231869Y-222596758D01*
X123005560Y-222593662D01*
X122814003Y-222589437D01*
X122668594Y-222584366D01*
X122580728Y-222578732D01*
X122561300Y-222575584D01*
X122523683Y-222545657D01*
X122438768Y-222468073D01*
X122312234Y-222348321D01*
X122149754Y-222191888D01*
X121957006Y-222004262D01*
X121739667Y-221790932D01*
X121503411Y-221557386D01*
X121332570Y-221387558D01*
X120160118Y-220219428D01*
X120160118Y-221332699D01*
X120159676Y-221656747D01*
X120158078Y-221913864D01*
X120154916Y-222112152D01*
X120149783Y-222259710D01*
X120142272Y-222364642D01*
X120131975Y-222435049D01*
X120118485Y-222479032D01*
X120101393Y-222504694D01*
X120101160Y-222504927D01*
X120068710Y-222526413D01*
X120013665Y-222542125D01*
X119925537Y-222552896D01*
X119793837Y-222559558D01*
X119608076Y-222562943D01*
X119358295Y-222563885D01*
X119081998Y-222561964D01*
X118875594Y-222555993D01*
X118734030Y-222545659D01*
X118652254Y-222530651D01*
X118629365Y-222518863D01*
X118620292Y-222491620D01*
X118612407Y-222426670D01*
X118605644Y-222320120D01*
X118599942Y-222168077D01*
X118595237Y-221966648D01*
X118591465Y-221711940D01*
X118588563Y-221400061D01*
X118586468Y-221027118D01*
X118585116Y-220589217D01*
X118584445Y-220082466D01*
X118584343Y-219750379D01*
X118584542Y-219217988D01*
X118585205Y-218755396D01*
X118586433Y-218357363D01*
X118588325Y-218018651D01*
X118590979Y-217734023D01*
X118591537Y-217696614D01*
X120153936Y-217696614D01*
X120157139Y-217881427D01*
X120169397Y-218043809D01*
X120190860Y-218165989D01*
X120219076Y-218227822D01*
X120245622Y-218245668D01*
X120290992Y-218259585D01*
X120363676Y-218270036D01*
X120472162Y-218277484D01*
X120624939Y-218282390D01*
X120830496Y-218285218D01*
X121097320Y-218286429D01*
X121297731Y-218286571D01*
X121574192Y-218285171D01*
X121832204Y-218281334D01*
X122060378Y-218275427D01*
X122247328Y-218267818D01*
X122381663Y-218258876D01*
X122450877Y-218249290D01*
X122565704Y-218196528D01*
X122677389Y-218114087D01*
X122694747Y-218097054D01*
X122744976Y-218040598D01*
X122777715Y-217985307D01*
X122797369Y-217913179D01*
X122808342Y-217806215D01*
X122815040Y-217646414D01*
X122816457Y-217599697D01*
X122815240Y-217363432D01*
X122792399Y-217187079D01*
X122743125Y-217057419D01*
X122662608Y-216961236D01*
X122558986Y-216892116D01*
X122512291Y-216870666D01*
X122455638Y-216854165D01*
X122379173Y-216841979D01*
X122273039Y-216833475D01*
X122127382Y-216828020D01*
X121932345Y-216824980D01*
X121678072Y-216823723D01*
X121492024Y-216823560D01*
X121170511Y-216824489D01*
X120915042Y-216828533D01*
X120716633Y-216837575D01*
X120566299Y-216853500D01*
X120455057Y-216878192D01*
X120373923Y-216913534D01*
X120313914Y-216961410D01*
X120266046Y-217023706D01*
X120228674Y-217088503D01*
X120197156Y-217185315D01*
X120174094Y-217330786D01*
X120159637Y-217507143D01*
X120153936Y-217696614D01*
X118591537Y-217696614D01*
X118594497Y-217498241D01*
X118598978Y-217306065D01*
X118604520Y-217152258D01*
X118611225Y-217031583D01*
X118619190Y-216938799D01*
X118628517Y-216868671D01*
X118639305Y-216815958D01*
X118640211Y-216812424D01*
X118768058Y-216462766D01*
X118958607Y-216137516D01*
X119201899Y-215849060D01*
X119487976Y-215609787D01*
X119715798Y-215474445D01*
X119840353Y-215414056D01*
X119954626Y-215365173D01*
X120068183Y-215326692D01*
X120190591Y-215297509D01*
X120331413Y-215276519D01*
X120500218Y-215262619D01*
X120706569Y-215254703D01*
X120960034Y-215251668D01*
X121270177Y-215252409D01*
G37*
D13*
%TO.C,D32*%
X17103436Y-169225009D02*
X15778188Y-165877814D01*
X18753472Y-164699815D02*
X15778188Y-165877814D01*
X20078721Y-168047011D02*
X18753472Y-164699815D01*
%TO.C,C6*%
X111140000Y-27442164D02*
X111140000Y-27657836D01*
X111860000Y-27442164D02*
X111860000Y-27657836D01*
%TO.C,D17*%
X25801206Y-63704654D02*
X27730182Y-60665074D01*
X28503055Y-65419300D02*
X30432032Y-62379719D01*
X30432032Y-62379719D02*
X27730182Y-60665074D01*
%TO.C,C13*%
X165792164Y-35440000D02*
X166007836Y-35440000D01*
X165792164Y-36160000D02*
X166007836Y-36160000D01*
%TO.C,D50*%
X115683896Y-238038091D02*
X115482966Y-241231777D01*
X119075863Y-241457820D02*
X115482966Y-241231777D01*
X119276792Y-238264137D02*
X115683896Y-238038091D01*
%TO.C,D30*%
X12411369Y-155353257D02*
X11516085Y-151866358D01*
X14615551Y-151070550D02*
X11516085Y-151866358D01*
X15510835Y-154557450D02*
X14615551Y-151070550D01*
%TO.C,R23*%
X54120000Y-140653641D02*
X54120000Y-140346359D01*
X54880000Y-140653641D02*
X54880000Y-140346359D01*
%TO.C,R16*%
X204653641Y-71120000D02*
X204346359Y-71120000D01*
X204653641Y-71880000D02*
X204346359Y-71880000D01*
%TO.C,D40*%
X51020990Y-210973868D02*
X48981233Y-213439510D01*
X51755081Y-215734237D02*
X48981233Y-213439510D01*
X53794838Y-213268594D02*
X51020990Y-210973868D01*
%TO.C,D88*%
X206706676Y-46351801D02*
X209171046Y-48976088D01*
X209039376Y-44161251D02*
X211503745Y-46785538D01*
X209171046Y-48976088D02*
X211503745Y-46785538D01*
%TO.C,U5*%
X67890000Y-205890000D02*
X68365000Y-205890000D01*
X67890000Y-206365000D02*
X67890000Y-205890000D01*
X67890000Y-209635000D02*
X67890000Y-210110000D01*
X67890000Y-210110000D02*
X68365000Y-210110000D01*
X71635000Y-205890000D02*
X71870000Y-205890000D01*
X72110000Y-206365000D02*
X72110000Y-206190000D01*
X72110000Y-209635000D02*
X72110000Y-210110000D01*
X72110000Y-210110000D02*
X71635000Y-210110000D01*
X72440000Y-206130000D02*
X72110000Y-205890000D01*
X72440000Y-205650000D01*
X72440000Y-206130000D01*
G36*
X72440000Y-206130000D02*
G01*
X72110000Y-205890000D01*
X72440000Y-205650000D01*
X72440000Y-206130000D01*
G37*
%TO.C,D97*%
X151845417Y-14814503D02*
X155332316Y-15709787D01*
X152641224Y-11715037D02*
X156128124Y-12610321D01*
X155332316Y-15709787D02*
X156128124Y-12610321D01*
%TO.C,C8*%
X80140000Y-40107836D02*
X80140000Y-39892164D01*
X80860000Y-40107836D02*
X80860000Y-39892164D01*
%TO.C,D59*%
X177702991Y-225433035D02*
X179244603Y-228237217D01*
X180857695Y-223698722D02*
X177702991Y-225433035D01*
X182399307Y-226502904D02*
X179244603Y-228237217D01*
%TO.C,R15*%
X43653641Y-75120000D02*
X43346359Y-75120000D01*
X43653641Y-75880000D02*
X43346359Y-75880000D01*
%TO.C,D94*%
X172016613Y-21796520D02*
X175273991Y-23329326D01*
X173379107Y-18901074D02*
X176636484Y-20433879D01*
X175273991Y-23329326D02*
X176636484Y-20433879D01*
%TO.C,D16*%
X29845718Y-57596862D02*
X31961745Y-54684401D01*
X32434573Y-59477775D02*
X34550600Y-56565314D01*
X34550600Y-56565314D02*
X31961745Y-54684401D01*
%TO.C,D77*%
X238088326Y-116482317D02*
X238314369Y-120075214D01*
X238314369Y-120075214D02*
X241508055Y-119874284D01*
X241282009Y-116281388D02*
X241508055Y-119874284D01*
%TO.C,D66*%
X215449399Y-193434685D02*
X218038254Y-195315598D01*
X217565426Y-190522224D02*
X215449399Y-193434685D01*
X220154281Y-192403137D02*
X218038254Y-195315598D01*
%TO.C,D7*%
X80774990Y-17103436D02*
X84122185Y-15778188D01*
X81952988Y-20078721D02*
X85300184Y-18753472D01*
X85300184Y-18753472D02*
X84122185Y-15778188D01*
%TO.C,D70*%
X229626779Y-168790832D02*
X232602063Y-169968831D01*
X230952027Y-165443637D02*
X229626779Y-168790832D01*
X233927312Y-166621635D02*
X232602063Y-169968831D01*
%TO.C,D36*%
X31491517Y-194668384D02*
X29375490Y-191755923D01*
X31964345Y-189875010D02*
X29375490Y-191755923D01*
X34080372Y-192787471D02*
X31964345Y-189875010D01*
%TO.C,D55*%
X151070550Y-235384448D02*
X151866358Y-238483914D01*
X154557450Y-234489164D02*
X151070550Y-235384448D01*
X155353257Y-237588630D02*
X151866358Y-238483914D01*
%TO.C,Y1*%
X110650000Y-26150000D02*
X107350000Y-26150000D01*
X110650000Y-28950000D02*
X110650000Y-26150000D01*
%TO.C,D73*%
X235979135Y-148410073D02*
X239122454Y-149009693D01*
X236653707Y-144873839D02*
X235979135Y-148410073D01*
X239797026Y-145473459D02*
X239122454Y-149009693D01*
%TO.C,D91*%
X190522224Y-32434573D02*
X193434685Y-34550600D01*
X192403137Y-29845718D02*
X195315598Y-31961745D01*
X193434685Y-34550600D02*
X195315598Y-31961745D01*
%TO.C,U14*%
X40490000Y-175137500D02*
X40490000Y-174337500D01*
X40490000Y-175137500D02*
X40490000Y-175937500D01*
X43610000Y-175137500D02*
X43610000Y-174337500D01*
X43610000Y-175137500D02*
X43610000Y-175937500D01*
X43890000Y-174077500D02*
X43560000Y-173837500D01*
X43890000Y-173597500D01*
X43890000Y-174077500D01*
G36*
X43890000Y-174077500D02*
G01*
X43560000Y-173837500D01*
X43890000Y-173597500D01*
X43890000Y-174077500D01*
G37*
%TO.C,D38*%
X40828953Y-201023911D02*
X38496254Y-203214461D01*
X40960623Y-205838748D02*
X38496254Y-203214461D01*
X43293323Y-203648198D02*
X40828953Y-201023911D01*
%TO.C,D63*%
X201023911Y-209171046D02*
X203214461Y-211503745D01*
X203648198Y-206706676D02*
X201023911Y-209171046D01*
X205838748Y-209039376D02*
X203214461Y-211503745D01*
%TO.C,D100*%
X130723207Y-11735862D02*
X134316103Y-11961908D01*
X130924136Y-8542179D02*
X134517033Y-8768222D01*
X134316103Y-11961908D02*
X134517033Y-8768222D01*
%TO.C,D99*%
X137823827Y-12318726D02*
X141395440Y-12769926D01*
X138224894Y-9143959D02*
X141796509Y-9595159D01*
X141395440Y-12769926D02*
X141796509Y-9595159D01*
%TO.C,D56*%
X157950202Y-233529646D02*
X158939057Y-236573027D01*
X161374006Y-232417185D02*
X157950202Y-233529646D01*
X162362860Y-235460566D02*
X158939057Y-236573027D01*
%TO.C,R2*%
X47120000Y-120346359D02*
X47120000Y-120653641D01*
X47880000Y-120346359D02*
X47880000Y-120653641D01*
%TO.C,D96*%
X158711048Y-16717567D02*
X162134851Y-17830028D01*
X159699902Y-13674186D02*
X163123706Y-14786647D01*
X162134851Y-17830028D02*
X163123706Y-14786647D01*
%TO.C,D87*%
X211483807Y-51637401D02*
X213778534Y-54411249D01*
X213778534Y-54411249D02*
X216244176Y-52371492D01*
X213949450Y-49597644D02*
X216244176Y-52371492D01*
%TO.C,U10*%
X122890000Y-38365000D02*
X122890000Y-38130000D01*
X122890000Y-42110000D02*
X122890000Y-41635000D01*
X123365000Y-37890000D02*
X123190000Y-37890000D01*
X123365000Y-42110000D02*
X122890000Y-42110000D01*
X126635000Y-37890000D02*
X127110000Y-37890000D01*
X126635000Y-42110000D02*
X127110000Y-42110000D01*
X127110000Y-37890000D02*
X127110000Y-38365000D01*
X127110000Y-42110000D02*
X127110000Y-41635000D01*
X122890000Y-37890000D02*
X122650000Y-37560000D01*
X123130000Y-37560000D01*
X122890000Y-37890000D01*
G36*
X122890000Y-37890000D02*
G01*
X122650000Y-37560000D01*
X123130000Y-37560000D01*
X122890000Y-37890000D01*
G37*
%TO.C,D29*%
X10727640Y-148223863D02*
X10053068Y-144687629D01*
X13196387Y-144088009D02*
X10053068Y-144687629D01*
X13870959Y-147624243D02*
X13196387Y-144088009D01*
%TO.C,D78*%
X237330340Y-109398251D02*
X237781540Y-112969866D01*
X237781540Y-112969866D02*
X240956307Y-112568797D01*
X240505107Y-108997184D02*
X240956307Y-112568797D01*
%TO.C,R4*%
X55120000Y-140346359D02*
X55120000Y-140653641D01*
X55880000Y-140346359D02*
X55880000Y-140653641D01*
%TO.C,D83*%
X227011297Y-75449870D02*
X228544102Y-78707247D01*
X228544102Y-78707247D02*
X231439549Y-77344754D01*
X229906743Y-74087376D02*
X231439549Y-77344754D01*
%TO.C,D43*%
X68441258Y-223313319D02*
X66899646Y-226117501D01*
X70054350Y-227851814D02*
X66899646Y-226117501D01*
X71595962Y-225047632D02*
X68441258Y-223313319D01*
%TO.C,C1*%
X54140000Y-133607836D02*
X54140000Y-133392164D01*
X54860000Y-133607836D02*
X54860000Y-133392164D01*
%TO.C,D25*%
X8542179Y-119075863D02*
X8768222Y-115482966D01*
X11735862Y-119276792D02*
X11961908Y-115683896D01*
X11961908Y-115683896D02*
X8768222Y-115482966D01*
%TO.C,R14*%
X129587258Y-37177500D02*
X129112742Y-37177500D01*
X129587258Y-38222500D02*
X129112742Y-38222500D01*
%TO.C,D28*%
X9494892Y-141002815D02*
X9043692Y-137431202D01*
X12218459Y-137030133D02*
X9043692Y-137431202D01*
X12669659Y-140601748D02*
X12218459Y-137030133D01*
%TO.C,D47*%
X94667683Y-234290212D02*
X93871875Y-237389678D01*
X97358775Y-238284962D02*
X93871875Y-237389678D01*
X98154582Y-235185496D02*
X94667683Y-234290212D01*
%TO.C,C9*%
X29640000Y-120392164D02*
X29640000Y-120607836D01*
X30360000Y-120392164D02*
X30360000Y-120607836D01*
%TO.C,D216*%
X182800000Y-51400000D02*
X182800000Y-54600000D01*
X186400000Y-51400000D02*
X182800000Y-51400000D01*
X186400000Y-54600000D02*
X182800000Y-54600000D01*
%TO.C,U13*%
X208137500Y-173390000D02*
X207337500Y-173390000D01*
X208137500Y-173390000D02*
X208937500Y-173390000D01*
X208137500Y-176510000D02*
X207337500Y-176510000D01*
X208137500Y-176510000D02*
X208937500Y-176510000D01*
X206837500Y-173440000D02*
X206597500Y-173110000D01*
X207077500Y-173110000D01*
X206837500Y-173440000D01*
G36*
X206837500Y-173440000D02*
G01*
X206597500Y-173110000D01*
X207077500Y-173110000D01*
X206837500Y-173440000D01*
G37*
%TO.C,R12*%
X166262742Y-33977500D02*
X166737258Y-33977500D01*
X166262742Y-35022500D02*
X166737258Y-35022500D01*
%TO.C,D53*%
X137030133Y-237781540D02*
X137431202Y-240956307D01*
X140601748Y-237330340D02*
X137030133Y-237781540D01*
X141002815Y-240505107D02*
X137431202Y-240956307D01*
%TO.C,D48*%
X101589926Y-235979135D02*
X100990306Y-239122454D01*
X104526540Y-239797026D02*
X100990306Y-239122454D01*
X105126160Y-236653707D02*
X101589926Y-235979135D01*
%TO.C,D41*%
X56565314Y-215449399D02*
X54684401Y-218038254D01*
X57596862Y-220154281D02*
X54684401Y-218038254D01*
X59477775Y-217565426D02*
X56565314Y-215449399D01*
%TO.C,D84*%
X223698722Y-69142304D02*
X225433035Y-72297008D01*
X225433035Y-72297008D02*
X228237217Y-70755396D01*
X226502904Y-67600692D02*
X228237217Y-70755396D01*
%TO.C,D10*%
X61340536Y-27301521D02*
X64380117Y-25372544D01*
X63055182Y-30003370D02*
X66094762Y-28074394D01*
X66094762Y-28074394D02*
X64380117Y-25372544D01*
%TO.C,D65*%
X210973868Y-198979009D02*
X213439510Y-201018766D01*
X213268594Y-196205161D02*
X210973868Y-198979009D01*
X215734237Y-198244918D02*
X213439510Y-201018766D01*
%TO.C,D44*%
X74726008Y-226670673D02*
X73363515Y-229566120D01*
X76620892Y-231098925D02*
X73363515Y-229566120D01*
X77983386Y-228203479D02*
X74726008Y-226670673D01*
%TO.C,C4*%
X106107836Y-28690000D02*
X105892164Y-28690000D01*
X106107836Y-29410000D02*
X105892164Y-29410000D01*
%TO.C,C3*%
X57140000Y-140392164D02*
X57140000Y-140607836D01*
X57860000Y-140392164D02*
X57860000Y-140607836D01*
%TO.C,R8*%
X29477500Y-123237258D02*
X29477500Y-122762742D01*
X30522500Y-123237258D02*
X30522500Y-122762742D01*
%TO.C,D209*%
X126800000Y-51400000D02*
X126800000Y-54600000D01*
X130400000Y-51400000D02*
X126800000Y-51400000D01*
X130400000Y-54600000D02*
X126800000Y-54600000D01*
%TO.C,D46*%
X87865148Y-232169971D02*
X86876293Y-235213352D01*
X90300097Y-236325813D02*
X86876293Y-235213352D01*
X91288951Y-233282432D02*
X87865148Y-232169971D01*
%TO.C,D76*%
X238400000Y-123600000D02*
X238400000Y-127200000D01*
X238400000Y-127200000D02*
X241600000Y-127200000D01*
X241600000Y-123600000D02*
X241600000Y-127200000D01*
%TO.C,D13*%
X44161251Y-40960623D02*
X46785538Y-38496254D01*
X46351801Y-43293323D02*
X48976088Y-40828953D01*
X48976088Y-40828953D02*
X46785538Y-38496254D01*
%TO.C,D212*%
X150800000Y-51400000D02*
X150800000Y-54600000D01*
X154400000Y-51400000D02*
X150800000Y-51400000D01*
X154400000Y-54600000D02*
X150800000Y-54600000D01*
%TO.C,D89*%
X201607086Y-41376591D02*
X204231373Y-43840960D01*
X203797636Y-39043891D02*
X206421923Y-41508261D01*
X204231373Y-43840960D02*
X206421923Y-41508261D01*
%TD*%
%LPC*%
D16*
%TO.C,R19*%
X107400000Y-34690000D03*
X107400000Y-35710000D03*
%TD*%
D17*
%TO.C,D113*%
X48788607Y-45669134D03*
D18*
X50428787Y-44128903D03*
%TD*%
D19*
%TO.C,D194*%
X170704688Y-24936800D03*
D20*
X172740549Y-25894803D03*
%TD*%
D21*
%TO.C,D119*%
X24936800Y-79295311D03*
D22*
X25894803Y-77259450D03*
%TD*%
D23*
%TO.C,D145*%
X85668520Y-227735569D03*
D24*
X83576523Y-226907288D03*
%TD*%
D25*
%TO.C,D155*%
X153566616Y-231233285D03*
D26*
X151387304Y-231792837D03*
%TD*%
D27*
%TO.C,D176*%
X235000000Y-123750000D03*
D28*
X235000000Y-126000000D03*
%TD*%
D29*
%TO.C,D152*%
X133154490Y-234704452D03*
D30*
X130908930Y-234845731D03*
%TD*%
D31*
%TO.C,D235*%
X246250000Y-245000000D03*
D32*
X244000000Y-245000000D03*
%TD*%
D33*
%TO.C,D172*%
X231855009Y-151145158D03*
D34*
X231295457Y-153324470D03*
%TD*%
D31*
%TO.C,D230*%
X170250000Y-48000000D03*
D32*
X168000000Y-48000000D03*
%TD*%
D35*
%TO.C,D188*%
X204330865Y-48788607D03*
D36*
X205871096Y-50428787D03*
%TD*%
D37*
%TO.C,D129*%
X17182629Y-146839803D03*
D38*
X16761021Y-144629657D03*
%TD*%
D39*
%TO.C,D195*%
X164331479Y-22264430D03*
D40*
X166423476Y-23092711D03*
%TD*%
D41*
%TO.C,D134*%
X29208457Y-179088287D03*
D42*
X28124511Y-177116597D03*
%TD*%
D31*
%TO.C,D223*%
X114250000Y-48000000D03*
D32*
X112000000Y-48000000D03*
%TD*%
D43*
%TO.C,D166*%
X214726601Y-188645106D03*
D44*
X213404084Y-190465394D03*
%TD*%
D45*
%TO.C,D183*%
X223998751Y-77033243D03*
D46*
X224956754Y-79069104D03*
%TD*%
D47*
%TO.C,D153*%
X140026798Y-233975950D03*
D48*
X137794540Y-234257950D03*
%TD*%
D31*
%TO.C,D222*%
X106250000Y-48000000D03*
D32*
X104000000Y-48000000D03*
%TD*%
D49*
%TO.C,D140*%
X55846503Y-210553236D03*
D50*
X54112848Y-209119032D03*
%TD*%
D51*
%TO.C,D171*%
X230002487Y-157803048D03*
D52*
X229307199Y-159942926D03*
%TD*%
D27*
%TO.C,D126*%
X15000000Y-126250000D03*
D28*
X15000000Y-124000000D03*
%TD*%
D53*
%TO.C,D117*%
X31454145Y-67114462D03*
D54*
X32659755Y-65214724D03*
%TD*%
D31*
%TO.C,D232*%
X186250000Y-48000000D03*
D32*
X184000000Y-48000000D03*
%TD*%
D55*
%TO.C,D105*%
X96433383Y-18766714D03*
D56*
X98612695Y-18207162D03*
%TD*%
D57*
%TO.C,D160*%
X184996357Y-217206288D03*
D58*
X183096619Y-218411898D03*
%TD*%
D59*
%TO.C,D161*%
X190667648Y-213257137D03*
D60*
X188847360Y-214579654D03*
%TD*%
D31*
%TO.C,D228*%
X154250000Y-48000000D03*
D32*
X152000000Y-48000000D03*
%TD*%
D61*
%TO.C,D180*%
X231233285Y-96433383D03*
D62*
X231792837Y-98612695D03*
%TD*%
D63*
%TO.C,D167*%
X218545854Y-182885537D03*
D64*
X217340244Y-184785275D03*
%TD*%
D65*
%TO.C,D137*%
X41040323Y-196079780D03*
D66*
X39606119Y-194346125D03*
%TD*%
D67*
%TO.C,D150*%
X119340575Y-234861428D03*
D68*
X117095015Y-234720149D03*
%TD*%
D31*
%TO.C,D229*%
X162250000Y-48000000D03*
D32*
X160000000Y-48000000D03*
%TD*%
D69*
%TO.C,D138*%
X45669134Y-201211392D03*
D70*
X44128903Y-199571212D03*
%TD*%
D71*
%TO.C,D135*%
X32793711Y-184996357D03*
D72*
X31588101Y-183096619D03*
%TD*%
D73*
%TO.C,D131*%
X20770054Y-160180690D03*
D74*
X20074766Y-158040812D03*
%TD*%
D31*
%TO.C,D227*%
X146250000Y-48000000D03*
D32*
X144000000Y-48000000D03*
%TD*%
D75*
%TO.C,D109*%
X70911712Y-29208457D03*
D76*
X72883402Y-28124511D03*
%TD*%
D77*
%TO.C,D103*%
X109973201Y-16024049D03*
D78*
X112205459Y-15742049D03*
%TD*%
D79*
%TO.C,D184*%
X220791542Y-70911712D03*
D80*
X221875488Y-72883402D03*
%TD*%
D81*
%TO.C,D146*%
X92196951Y-230002487D03*
D82*
X90057073Y-229307199D03*
%TD*%
D83*
%TO.C,D130*%
X18766714Y-153566616D03*
D84*
X18207162Y-151387304D03*
%TD*%
D85*
%TO.C,D193*%
X176897521Y-28004073D03*
D86*
X178869211Y-29088019D03*
%TD*%
D87*
%TO.C,D192*%
X182885537Y-31454145D03*
D88*
X184785275Y-32659755D03*
%TD*%
D89*
%TO.C,D156*%
X160180690Y-229229945D03*
D90*
X158040812Y-229925233D03*
%TD*%
D91*
%TO.C,D179*%
X232817370Y-103160196D03*
D92*
X233238978Y-105370342D03*
%TD*%
D93*
%TO.C,D191*%
X188645106Y-35273398D03*
D94*
X190465394Y-36595915D03*
%TD*%
D95*
%TO.C,D116*%
X35273398Y-61354893D03*
D96*
X36595915Y-59534605D03*
%TD*%
D31*
%TO.C,D217*%
X66250000Y-48000000D03*
D32*
X64000000Y-48000000D03*
%TD*%
D31*
%TO.C,D101*%
X123750000Y-15000000D03*
D32*
X126000000Y-15000000D03*
%TD*%
D97*
%TO.C,D181*%
X229229945Y-89819309D03*
D98*
X229925233Y-91959187D03*
%TD*%
D31*
%TO.C,D224*%
X122250000Y-48000000D03*
D32*
X120000000Y-48000000D03*
%TD*%
D31*
%TO.C,D231*%
X178250000Y-48000000D03*
D32*
X176000000Y-48000000D03*
%TD*%
D99*
%TO.C,D143*%
X73102478Y-221995926D03*
D100*
X71130788Y-220911980D03*
%TD*%
D101*
%TO.C,D187*%
X208959676Y-53920219D03*
D102*
X210393880Y-55653874D03*
%TD*%
D103*
%TO.C,D142*%
X67114462Y-218545854D03*
D104*
X65214724Y-217340244D03*
%TD*%
D105*
%TO.C,D133*%
X26001248Y-172966756D03*
D106*
X25043245Y-170930895D03*
%TD*%
D107*
%TO.C,D174*%
X234289284Y-137546512D03*
D108*
X234007284Y-139778770D03*
%TD*%
D109*
%TO.C,D162*%
X196079780Y-208959676D03*
D110*
X194346125Y-210393880D03*
%TD*%
D111*
%TO.C,D139*%
X50611029Y-206042233D03*
D112*
X48970849Y-204502002D03*
%TD*%
D113*
%TO.C,D173*%
X233285824Y-144384085D03*
D114*
X232864216Y-146594231D03*
%TD*%
D115*
%TO.C,D136*%
X36742862Y-190667648D03*
D116*
X35420345Y-188847360D03*
%TD*%
D117*
%TO.C,D121*%
X19997512Y-92196951D03*
D118*
X20692800Y-90057073D03*
%TD*%
D119*
%TO.C,D158*%
X172966756Y-223998751D03*
D120*
X170930895Y-224956754D03*
%TD*%
D121*
%TO.C,D185*%
X217206288Y-65003642D03*
D122*
X218411898Y-66903380D03*
%TD*%
D31*
%TO.C,D220*%
X90250000Y-48000000D03*
D32*
X88000000Y-48000000D03*
%TD*%
D123*
%TO.C,D169*%
X225063199Y-170704688D03*
D124*
X224105196Y-172740549D03*
%TD*%
D125*
%TO.C,D115*%
X39446763Y-55846503D03*
D126*
X40880967Y-54112848D03*
%TD*%
D31*
%TO.C,D221*%
X98250000Y-48000000D03*
D32*
X96000000Y-48000000D03*
%TD*%
D127*
%TO.C,D197*%
X151145158Y-18144990D03*
D128*
X153324470Y-18704542D03*
%TD*%
D31*
%TO.C,D233*%
X6250000Y-5000000D03*
D32*
X4000000Y-5000000D03*
%TD*%
D129*
%TO.C,D120*%
X22264430Y-85668520D03*
D130*
X23092711Y-83576523D03*
%TD*%
D131*
%TO.C,D114*%
X43957766Y-50611029D03*
D132*
X45497997Y-48970849D03*
%TD*%
D31*
%TO.C,D225*%
X130250000Y-48000000D03*
D32*
X128000000Y-48000000D03*
%TD*%
D133*
%TO.C,D141*%
X61354893Y-214726601D03*
D134*
X59534605Y-213404084D03*
%TD*%
D135*
%TO.C,D165*%
X210553236Y-194153496D03*
D136*
X209119032Y-195887151D03*
%TD*%
D137*
%TO.C,D196*%
X157803048Y-19997512D03*
D138*
X159942926Y-20692800D03*
%TD*%
D139*
%TO.C,D200*%
X130659424Y-15138571D03*
D140*
X132904984Y-15279850D03*
%TD*%
D141*
%TO.C,D122*%
X18144990Y-98854841D03*
D142*
X18704542Y-96675529D03*
%TD*%
D143*
%TO.C,D168*%
X221995926Y-176897521D03*
D144*
X220911980Y-178869211D03*
%TD*%
D145*
%TO.C,D112*%
X53920219Y-41040323D03*
D146*
X55653874Y-39606119D03*
%TD*%
D147*
%TO.C,D164*%
X206042233Y-199388970D03*
D148*
X204502002Y-201029150D03*
%TD*%
D149*
%TO.C,D178*%
X233975950Y-109973201D03*
D150*
X234257950Y-112205459D03*
%TD*%
D151*
%TO.C,D144*%
X79295311Y-225063199D03*
D152*
X77259450Y-224105196D03*
%TD*%
D153*
%TO.C,D175*%
X234861428Y-130659424D03*
D154*
X234720149Y-132904984D03*
%TD*%
D155*
%TO.C,D107*%
X83344078Y-23184742D03*
D156*
X85436075Y-22356461D03*
%TD*%
D157*
%TO.C,D123*%
X16714175Y-105615914D03*
D158*
X17135783Y-103405768D03*
%TD*%
D159*
%TO.C,D148*%
X105615914Y-233285824D03*
D160*
X103405768Y-232864216D03*
%TD*%
D161*
%TO.C,D190*%
X194153496Y-39446763D03*
D162*
X195887151Y-40880967D03*
%TD*%
D163*
%TO.C,D147*%
X98854841Y-231855009D03*
D164*
X96675529Y-231295457D03*
%TD*%
D31*
%TO.C,D236*%
X6250000Y-245000000D03*
D32*
X4000000Y-245000000D03*
%TD*%
D165*
%TO.C,D163*%
X201211392Y-204330865D03*
D166*
X199571212Y-205871096D03*
%TD*%
D167*
%TO.C,D118*%
X28004073Y-73102478D03*
D168*
X29088019Y-71130788D03*
%TD*%
D169*
%TO.C,D110*%
X65003642Y-32793711D03*
D170*
X66903380Y-31588101D03*
%TD*%
D171*
%TO.C,D108*%
X77033243Y-26001248D03*
D172*
X79069104Y-25043245D03*
%TD*%
D173*
%TO.C,D177*%
X234704452Y-116845509D03*
D174*
X234845731Y-119091069D03*
%TD*%
D175*
%TO.C,D102*%
X116845509Y-15295547D03*
D176*
X119091069Y-15154268D03*
%TD*%
D177*
%TO.C,D199*%
X137546512Y-15710715D03*
D178*
X139778770Y-15992715D03*
%TD*%
D179*
%TO.C,D159*%
X179088287Y-220791542D03*
D180*
X177116597Y-221875488D03*
%TD*%
D31*
%TO.C,D234*%
X246250000Y-5000000D03*
D32*
X244000000Y-5000000D03*
%TD*%
D181*
%TO.C,D106*%
X89819309Y-20770054D03*
D182*
X91959187Y-20074766D03*
%TD*%
D183*
%TO.C,D111*%
X59332351Y-36742862D03*
D184*
X61152639Y-35420345D03*
%TD*%
D185*
%TO.C,D127*%
X15295547Y-133154490D03*
D186*
X15154268Y-130908930D03*
%TD*%
D187*
%TO.C,D128*%
X16024049Y-140026798D03*
D188*
X15742049Y-137794540D03*
%TD*%
D189*
%TO.C,D149*%
X112453487Y-234289284D03*
D190*
X110221229Y-234007284D03*
%TD*%
D191*
%TO.C,D170*%
X227735569Y-164331479D03*
D192*
X226907288Y-166423476D03*
%TD*%
D31*
%TO.C,D151*%
X126249999Y-235000000D03*
D32*
X123999999Y-235000000D03*
%TD*%
D31*
%TO.C,D219*%
X82250000Y-48000000D03*
D32*
X80000000Y-48000000D03*
%TD*%
D193*
%TO.C,D154*%
X146839803Y-232817370D03*
D194*
X144629657Y-233238978D03*
%TD*%
D195*
%TO.C,D124*%
X15710715Y-112453487D03*
D196*
X15992715Y-110221229D03*
%TD*%
D31*
%TO.C,D226*%
X138250000Y-48000000D03*
D32*
X136000000Y-48000000D03*
%TD*%
D197*
%TO.C,D186*%
X213257137Y-59332351D03*
D198*
X214579654Y-61152639D03*
%TD*%
D199*
%TO.C,D157*%
X166655921Y-226815257D03*
D200*
X164563924Y-227643538D03*
%TD*%
D201*
%TO.C,D189*%
X199388970Y-43957766D03*
D202*
X201029150Y-45497997D03*
%TD*%
D203*
%TO.C,D132*%
X23184742Y-166655921D03*
D204*
X22356461Y-164563924D03*
%TD*%
D31*
%TO.C,D218*%
X74250000Y-48000000D03*
D32*
X72000000Y-48000000D03*
%TD*%
D205*
%TO.C,D182*%
X226815257Y-83344078D03*
D206*
X227643538Y-85436075D03*
%TD*%
D207*
%TO.C,D125*%
X15138571Y-119340575D03*
D208*
X15279850Y-117095015D03*
%TD*%
D209*
%TO.C,D198*%
X144384085Y-16714175D03*
D210*
X146594231Y-17135783D03*
%TD*%
D211*
%TO.C,D104*%
X103160196Y-17182629D03*
D212*
X105370342Y-16761021D03*
%TD*%
D213*
%TO.C,D19*%
X21519690Y-74813864D03*
X20370086Y-77256898D03*
%TD*%
D214*
%TO.C,D64*%
X207907253Y-204707025D03*
X209755531Y-202738809D03*
%TD*%
D215*
%TO.C,C5*%
X106700000Y-28030000D03*
X106700000Y-27070000D03*
%TD*%
D216*
%TO.C,D68*%
X225124901Y-181584686D03*
X226425635Y-179218658D03*
%TD*%
D217*
%TO.C,D4*%
X104777236Y-11784001D03*
X102125060Y-12289931D03*
%TD*%
D218*
%TO.C,D37*%
X35530455Y-197263565D03*
X37251499Y-199343951D03*
%TD*%
D219*
%TO.C,D206*%
X103650000Y-53000000D03*
X106350000Y-53000000D03*
%TD*%
D220*
%TO.C,D57*%
X166079125Y-232421263D03*
X168589521Y-231427327D03*
%TD*%
D221*
%TO.C,D86*%
X218830464Y-58496868D03*
X217243444Y-56312522D03*
%TD*%
D222*
%TO.C,D54*%
X145222763Y-238215998D03*
X147874939Y-237710068D03*
%TD*%
D223*
%TO.C,D31*%
X15211327Y-159253028D03*
X16045673Y-161820880D03*
%TD*%
D224*
%TO.C,R9*%
X75825000Y-208500000D03*
X74175000Y-208500000D03*
%TD*%
D219*
%TO.C,D51*%
X123649999Y-240000000D03*
X126349999Y-240000000D03*
%TD*%
D225*
%TO.C,H3*%
X190000000Y-190000000D03*
%TD*%
D219*
%TO.C,D201*%
X63650000Y-53000000D03*
X66350000Y-53000000D03*
%TD*%
D226*
%TO.C,D11*%
X58496868Y-31169535D03*
X56312522Y-32756555D03*
%TD*%
D227*
%TO.C,R3*%
X52490000Y-139000000D03*
X53510000Y-139000000D03*
%TD*%
D219*
%TO.C,D240*%
X18650000Y-230000000D03*
X21350000Y-230000000D03*
%TD*%
D228*
%TO.C,U8*%
X170750000Y-37937500D03*
X171250000Y-37937500D03*
X171750000Y-37937500D03*
X172250000Y-37937500D03*
X172750000Y-37937500D03*
X173250000Y-37937500D03*
D229*
X173937500Y-37250000D03*
X173937500Y-36750000D03*
X173937500Y-36250000D03*
X173937500Y-35750000D03*
X173937500Y-35250000D03*
X173937500Y-34750000D03*
D228*
X173250000Y-34062500D03*
X172750000Y-34062500D03*
X172250000Y-34062500D03*
X171750000Y-34062500D03*
X171250000Y-34062500D03*
X170750000Y-34062500D03*
D229*
X170062500Y-34750000D03*
X170062500Y-35250000D03*
X170062500Y-35750000D03*
X170062500Y-36250000D03*
X170062500Y-36750000D03*
X170062500Y-37250000D03*
D230*
X172000000Y-36000000D03*
%TD*%
D231*
%TO.C,D39*%
X45292974Y-207907253D03*
X47261190Y-209755531D03*
%TD*%
D232*
%TO.C,D18*%
X24875098Y-68415313D03*
X23574364Y-70781341D03*
%TD*%
D233*
%TO.C,R7*%
X79000000Y-41325000D03*
X79000000Y-39675000D03*
%TD*%
D219*
%TO.C,D214*%
X167650000Y-53000000D03*
X170350000Y-53000000D03*
%TD*%
D234*
%TO.C,D2*%
X119126426Y-10142159D03*
X116431754Y-10311693D03*
%TD*%
D235*
%TO.C,D8*%
X77256898Y-20370086D03*
X74813864Y-21519690D03*
%TD*%
D16*
%TO.C,R22*%
X55500000Y-132990000D03*
X55500000Y-134010000D03*
%TD*%
D236*
%TO.C,C2*%
X58500000Y-140020000D03*
X58500000Y-140980000D03*
%TD*%
D237*
%TO.C,D90*%
X199343951Y-37251499D03*
X197263565Y-35530455D03*
%TD*%
D219*
%TO.C,D238*%
X228650000Y-20000000D03*
X231350000Y-20000000D03*
%TD*%
D238*
%TO.C,U4*%
X27250000Y-118562500D03*
X26750000Y-118562500D03*
X26250000Y-118562500D03*
X25750000Y-118562500D03*
X25250000Y-118562500D03*
X24750000Y-118562500D03*
D239*
X24062500Y-119250000D03*
X24062500Y-119750000D03*
X24062500Y-120250000D03*
X24062500Y-120750000D03*
X24062500Y-121250000D03*
X24062500Y-121750000D03*
D238*
X24750000Y-122437500D03*
X25250000Y-122437500D03*
X25750000Y-122437500D03*
X26250000Y-122437500D03*
X26750000Y-122437500D03*
X27250000Y-122437500D03*
D239*
X27937500Y-121750000D03*
X27937500Y-121250000D03*
X27937500Y-120750000D03*
X27937500Y-120250000D03*
X27937500Y-119750000D03*
X27937500Y-119250000D03*
D230*
X26000000Y-120500000D03*
%TD*%
D240*
%TO.C,U3*%
X81937500Y-37250000D03*
X81937500Y-36750000D03*
X81937500Y-36250000D03*
X81937500Y-35750000D03*
X81937500Y-35250000D03*
X81937500Y-34750000D03*
D241*
X81250000Y-34062500D03*
X80750000Y-34062500D03*
X80250000Y-34062500D03*
X79750000Y-34062500D03*
X79250000Y-34062500D03*
X78750000Y-34062500D03*
D240*
X78062500Y-34750000D03*
X78062500Y-35250000D03*
X78062500Y-35750000D03*
X78062500Y-36250000D03*
X78062500Y-36750000D03*
X78062500Y-37250000D03*
D241*
X78750000Y-37937500D03*
X79250000Y-37937500D03*
X79750000Y-37937500D03*
X80250000Y-37937500D03*
X80750000Y-37937500D03*
X81250000Y-37937500D03*
D230*
X80000000Y-36000000D03*
%TD*%
D242*
%TO.C,D62*%
X197263565Y-214469544D03*
X199343951Y-212748500D03*
%TD*%
D243*
%TO.C,D49*%
X109247323Y-238923990D03*
X111926033Y-239262390D03*
%TD*%
D244*
%TO.C,D21*%
X16045673Y-88179119D03*
X15211327Y-90746971D03*
%TD*%
D245*
%TO.C,D9*%
X70781341Y-23574364D03*
X68415313Y-24875098D03*
%TD*%
D246*
%TO.C,C10*%
X75480000Y-207000000D03*
X74520000Y-207000000D03*
%TD*%
D247*
%TO.C,D71*%
X233954326Y-161820880D03*
X234788672Y-159253028D03*
%TD*%
D219*
%TO.C,D204*%
X87650000Y-53000000D03*
X90350000Y-53000000D03*
%TD*%
D248*
%TO.C,D20*%
X18572672Y-81410478D03*
X17578736Y-83920874D03*
%TD*%
D249*
%TO.C,D60*%
X185480238Y-222821077D03*
X187759924Y-221374345D03*
%TD*%
D250*
%TO.C,D45*%
X81410478Y-231427327D03*
X83920874Y-232421263D03*
%TD*%
D251*
%TO.C,D69*%
X228480309Y-175186135D03*
X229629913Y-172743101D03*
%TD*%
D252*
%TO.C,D12*%
X52736434Y-35530455D03*
X50656048Y-37251499D03*
%TD*%
D253*
%TO.C,D3*%
X111926033Y-10737609D03*
X109247323Y-11076009D03*
%TD*%
D254*
%TO.C,D27*%
X10142159Y-130873573D03*
X10311693Y-133568245D03*
%TD*%
D255*
%TO.C,D85*%
X222821077Y-64519761D03*
X221374345Y-62240075D03*
%TD*%
D240*
%TO.C,U9*%
X136937500Y-26250000D03*
X136937500Y-25750000D03*
X136937500Y-25250000D03*
X136937500Y-24750000D03*
X136937500Y-24250000D03*
X136937500Y-23750000D03*
D241*
X136250000Y-23062500D03*
X135750000Y-23062500D03*
X135250000Y-23062500D03*
X134750000Y-23062500D03*
X134250000Y-23062500D03*
X133750000Y-23062500D03*
D240*
X133062500Y-23750000D03*
X133062500Y-24250000D03*
X133062500Y-24750000D03*
X133062500Y-25250000D03*
X133062500Y-25750000D03*
X133062500Y-26250000D03*
D241*
X133750000Y-26937500D03*
X134250000Y-26937500D03*
X134750000Y-26937500D03*
X135250000Y-26937500D03*
X135750000Y-26937500D03*
X136250000Y-26937500D03*
D230*
X135000000Y-25000000D03*
%TD*%
D256*
%TO.C,C12*%
X218020000Y-148000000D03*
X218980000Y-148000000D03*
%TD*%
D257*
%TO.C,D22*%
X13948667Y-95093075D03*
X13277205Y-97708249D03*
%TD*%
D258*
%TO.C,D82*%
X232421263Y-83920874D03*
X231427327Y-81410478D03*
%TD*%
D236*
%TO.C,C11*%
X160500000Y-213520000D03*
X160500000Y-214480000D03*
%TD*%
D246*
%TO.C,C15*%
X126230000Y-36500000D03*
X125270000Y-36500000D03*
%TD*%
D259*
%TO.C,U1*%
X55750000Y-138462500D03*
X56250000Y-138462500D03*
X56750000Y-138462500D03*
X57250000Y-138462500D03*
D260*
X57962500Y-137750000D03*
X57962500Y-137250000D03*
X57962500Y-136750000D03*
X57962500Y-136250000D03*
D259*
X57250000Y-135537500D03*
X56750000Y-135537500D03*
X56250000Y-135537500D03*
X55750000Y-135537500D03*
D260*
X55037500Y-136250000D03*
X55037500Y-136750000D03*
X55037500Y-137250000D03*
X55037500Y-137750000D03*
D261*
X56500000Y-137000000D03*
%TD*%
D262*
%TO.C,D80*%
X236722794Y-97708249D03*
X236051332Y-95093075D03*
%TD*%
D219*
%TO.C,D237*%
X18650000Y-20000000D03*
X21350000Y-20000000D03*
%TD*%
D263*
%TO.C,D79*%
X238215998Y-104777236D03*
X237710068Y-102125060D03*
%TD*%
D236*
%TO.C,C14*%
X135200000Y-28720000D03*
X135200000Y-29680000D03*
%TD*%
D264*
%TO.C,D42*%
X62240075Y-221374345D03*
X64519761Y-222821077D03*
%TD*%
D265*
%TO.C,D67*%
X221374345Y-187759924D03*
X222821077Y-185480238D03*
%TD*%
D233*
%TO.C,R13*%
X133800000Y-30625000D03*
X133800000Y-28975000D03*
%TD*%
D266*
%TO.C,D93*%
X181584686Y-24875098D03*
X179218658Y-23574364D03*
%TD*%
D267*
%TO.C,D24*%
X11076009Y-109247323D03*
X10737609Y-111926033D03*
%TD*%
D268*
%TO.C,R17*%
X209510000Y-172500000D03*
X208490000Y-172500000D03*
%TD*%
D219*
%TO.C,D213*%
X159650000Y-53000000D03*
X162350000Y-53000000D03*
%TD*%
D227*
%TO.C,R6*%
X59990000Y-131000000D03*
X61010000Y-131000000D03*
%TD*%
D225*
%TO.C,H2*%
X190000000Y-60000000D03*
%TD*%
D269*
%TO.C,D95*%
X168589521Y-18572672D03*
X166079125Y-17578736D03*
%TD*%
D270*
%TO.C,R10*%
X162000000Y-212675000D03*
X162000000Y-214325000D03*
%TD*%
D271*
%TO.C,D34*%
X23574364Y-179218658D03*
X24875098Y-181584686D03*
%TD*%
D219*
%TO.C,D205*%
X95650000Y-53000000D03*
X98350000Y-53000000D03*
%TD*%
D272*
%TO.C,D74*%
X238923990Y-140752676D03*
X239262390Y-138073966D03*
%TD*%
D219*
%TO.C,D207*%
X111650000Y-53000000D03*
X114350000Y-53000000D03*
%TD*%
%TO.C,D239*%
X228650000Y-230000000D03*
X231350000Y-230000000D03*
%TD*%
D273*
%TO.C,D15*%
X37251499Y-50656048D03*
X35530455Y-52736434D03*
%TD*%
D274*
%TO.C,D6*%
X90746971Y-15211327D03*
X88179119Y-16045673D03*
%TD*%
D219*
%TO.C,D210*%
X135650000Y-53000000D03*
X138350000Y-53000000D03*
%TD*%
D275*
%TO.C,U6*%
X158062500Y-217250000D03*
X158062500Y-217750000D03*
X158062500Y-218250000D03*
X158062500Y-218750000D03*
X158062500Y-219250000D03*
X158062500Y-219750000D03*
D276*
X158750000Y-220437500D03*
X159250000Y-220437500D03*
X159750000Y-220437500D03*
X160250000Y-220437500D03*
X160750000Y-220437500D03*
X161250000Y-220437500D03*
D275*
X161937500Y-219750000D03*
X161937500Y-219250000D03*
X161937500Y-218750000D03*
X161937500Y-218250000D03*
X161937500Y-217750000D03*
X161937500Y-217250000D03*
D276*
X161250000Y-216562500D03*
X160750000Y-216562500D03*
X160250000Y-216562500D03*
X159750000Y-216562500D03*
X159250000Y-216562500D03*
X158750000Y-216562500D03*
D230*
X160000000Y-218500000D03*
%TD*%
D228*
%TO.C,U7*%
X221250000Y-149437500D03*
X221750000Y-149437500D03*
X222250000Y-149437500D03*
X222750000Y-149437500D03*
X223250000Y-149437500D03*
X223750000Y-149437500D03*
D229*
X224437500Y-148750000D03*
X224437500Y-148250000D03*
X224437500Y-147750000D03*
X224437500Y-147250000D03*
X224437500Y-146750000D03*
X224437500Y-146250000D03*
D228*
X223750000Y-145562500D03*
X223250000Y-145562500D03*
X222750000Y-145562500D03*
X222250000Y-145562500D03*
X221750000Y-145562500D03*
X221250000Y-145562500D03*
D229*
X220562500Y-146250000D03*
X220562500Y-146750000D03*
X220562500Y-147250000D03*
X220562500Y-147750000D03*
X220562500Y-148250000D03*
X220562500Y-148750000D03*
D230*
X222500000Y-147500000D03*
%TD*%
D277*
%TO.C,D35*%
X27178922Y-185480238D03*
X28625654Y-187759924D03*
%TD*%
D278*
%TO.C,D52*%
X130873573Y-239857840D03*
X133568245Y-239688306D03*
%TD*%
D279*
%TO.C,D26*%
X10000000Y-123650000D03*
X10000000Y-126350000D03*
%TD*%
D280*
%TO.C,U2*%
X109800000Y-30550000D03*
X109400000Y-30550000D03*
X109000000Y-30550000D03*
X108600000Y-30550000D03*
X108200000Y-30550000D03*
D281*
X107550000Y-31200000D03*
X107550000Y-31600000D03*
X107550000Y-32000000D03*
X107550000Y-32400000D03*
X107550000Y-32800000D03*
D280*
X108200000Y-33450000D03*
X108600000Y-33450000D03*
X109000000Y-33450000D03*
X109400000Y-33450000D03*
X109800000Y-33450000D03*
D281*
X110450000Y-32800000D03*
X110450000Y-32400000D03*
X110450000Y-32000000D03*
X110450000Y-31600000D03*
X110450000Y-31200000D03*
D282*
X109000000Y-32000000D03*
%TD*%
D219*
%TO.C,D208*%
X119650000Y-53000000D03*
X122350000Y-53000000D03*
%TD*%
D283*
%TO.C,D81*%
X234788672Y-90746971D03*
X233954326Y-88179119D03*
%TD*%
D284*
%TO.C,D72*%
X236051332Y-154906924D03*
X236722794Y-152291750D03*
%TD*%
D285*
%TO.C,D75*%
X239688306Y-133568245D03*
X239857840Y-130873573D03*
%TD*%
D286*
%TO.C,D58*%
X172743101Y-229629913D03*
X175186135Y-228480309D03*
%TD*%
D287*
%TO.C,D23*%
X12289931Y-102125060D03*
X11784001Y-104777236D03*
%TD*%
D268*
%TO.C,R18*%
X43010000Y-178000000D03*
X41990000Y-178000000D03*
%TD*%
D288*
%TO.C,D98*%
X147874939Y-12289931D03*
X145222763Y-11784001D03*
%TD*%
D289*
%TO.C,D61*%
X191503131Y-218830464D03*
X193687477Y-217243444D03*
%TD*%
D246*
%TO.C,C18*%
X105480000Y-32550000D03*
X104520000Y-32550000D03*
%TD*%
D290*
%TO.C,D92*%
X187759924Y-28625654D03*
X185480238Y-27178922D03*
%TD*%
D225*
%TO.C,H1*%
X60000000Y-60000000D03*
%TD*%
D291*
%TO.C,U11*%
X41725000Y-77100000D03*
X41725000Y-78050000D03*
X41725000Y-79000000D03*
X44000000Y-79000000D03*
X44000000Y-78050000D03*
X44000000Y-77100000D03*
%TD*%
D219*
%TO.C,D215*%
X175650000Y-53000000D03*
X178350000Y-53000000D03*
%TD*%
%TO.C,D202*%
X71650000Y-53000000D03*
X74350000Y-53000000D03*
%TD*%
D292*
%TO.C,D14*%
X42092746Y-45292974D03*
X40244468Y-47261190D03*
%TD*%
D291*
%TO.C,U12*%
X202862500Y-73050000D03*
X202862500Y-74000000D03*
X202862500Y-74950000D03*
X205137500Y-74950000D03*
X205137500Y-74000000D03*
X205137500Y-73050000D03*
%TD*%
D16*
%TO.C,R1*%
X45500000Y-119990000D03*
X45500000Y-121010000D03*
%TD*%
D219*
%TO.C,D1*%
X126350000Y-10000000D03*
X123650000Y-10000000D03*
%TD*%
D293*
%TO.C,D5*%
X97708249Y-13277205D03*
X95093075Y-13948667D03*
%TD*%
D294*
%TO.C,D33*%
X20370086Y-172743101D03*
X21519690Y-175186135D03*
%TD*%
D256*
%TO.C,C7*%
X112020000Y-30000000D03*
X112980000Y-30000000D03*
%TD*%
D227*
%TO.C,R5*%
X59990000Y-132000000D03*
X61010000Y-132000000D03*
%TD*%
D219*
%TO.C,D203*%
X79650000Y-53000000D03*
X82350000Y-53000000D03*
%TD*%
%TO.C,D211*%
X143650000Y-53000000D03*
X146350000Y-53000000D03*
%TD*%
D295*
%TO.C,R11*%
X217175000Y-146500000D03*
X218825000Y-146500000D03*
%TD*%
D296*
%TO.C,D32*%
X17578736Y-166079125D03*
X18572672Y-168589521D03*
%TD*%
D236*
%TO.C,C6*%
X111500000Y-27070000D03*
X111500000Y-28030000D03*
%TD*%
D297*
%TO.C,D17*%
X28625654Y-62240075D03*
X27178922Y-64519761D03*
%TD*%
D256*
%TO.C,C13*%
X165420000Y-35800000D03*
X166380000Y-35800000D03*
%TD*%
D298*
%TO.C,D50*%
X116431754Y-239688306D03*
X119126426Y-239857840D03*
%TD*%
D299*
%TO.C,D30*%
X13277205Y-152291750D03*
X13948667Y-154906924D03*
%TD*%
D300*
%TO.C,R23*%
X54500000Y-141010000D03*
X54500000Y-139990000D03*
%TD*%
D268*
%TO.C,R16*%
X205010000Y-71500000D03*
X203990000Y-71500000D03*
%TD*%
D301*
%TO.C,D40*%
X50656048Y-212748500D03*
X52736434Y-214469544D03*
%TD*%
D302*
%TO.C,D88*%
X209755531Y-47261190D03*
X207907253Y-45292974D03*
%TD*%
D238*
%TO.C,U5*%
X71250000Y-206062500D03*
X70750000Y-206062500D03*
X70250000Y-206062500D03*
X69750000Y-206062500D03*
X69250000Y-206062500D03*
X68750000Y-206062500D03*
D239*
X68062500Y-206750000D03*
X68062500Y-207250000D03*
X68062500Y-207750000D03*
X68062500Y-208250000D03*
X68062500Y-208750000D03*
X68062500Y-209250000D03*
D238*
X68750000Y-209937500D03*
X69250000Y-209937500D03*
X69750000Y-209937500D03*
X70250000Y-209937500D03*
X70750000Y-209937500D03*
X71250000Y-209937500D03*
D239*
X71937500Y-209250000D03*
X71937500Y-208750000D03*
X71937500Y-208250000D03*
X71937500Y-207750000D03*
X71937500Y-207250000D03*
X71937500Y-206750000D03*
D230*
X70000000Y-208000000D03*
%TD*%
D303*
%TO.C,D97*%
X154906924Y-13948667D03*
X152291750Y-13277205D03*
%TD*%
D215*
%TO.C,C8*%
X80500000Y-40480000D03*
X80500000Y-39520000D03*
%TD*%
D304*
%TO.C,D59*%
X179218658Y-226425635D03*
X181584686Y-225124901D03*
%TD*%
D268*
%TO.C,R15*%
X44010000Y-75500000D03*
X42990000Y-75500000D03*
%TD*%
D305*
%TO.C,D94*%
X175186135Y-21519690D03*
X172743101Y-20370086D03*
%TD*%
D306*
%TO.C,D16*%
X32756555Y-56312522D03*
X31169535Y-58496868D03*
%TD*%
D307*
%TO.C,D77*%
X239857840Y-119126426D03*
X239688306Y-116431754D03*
%TD*%
D308*
%TO.C,D66*%
X217243444Y-193687477D03*
X218830464Y-191503131D03*
%TD*%
D309*
%TO.C,D7*%
X83920874Y-17578736D03*
X81410478Y-18572672D03*
%TD*%
D310*
%TO.C,D70*%
X231427327Y-168589521D03*
X232421263Y-166079125D03*
%TD*%
D225*
%TO.C,H4*%
X60000000Y-190000000D03*
%TD*%
D311*
%TO.C,D36*%
X31169535Y-191503131D03*
X32756555Y-193687477D03*
%TD*%
D312*
%TO.C,D55*%
X152291750Y-236722794D03*
X154906924Y-236051332D03*
%TD*%
D313*
%TO.C,Y1*%
X109875000Y-26850000D03*
X108125000Y-26850000D03*
X108125000Y-28250000D03*
X109875000Y-28250000D03*
%TD*%
D314*
%TO.C,D73*%
X237710068Y-147874939D03*
X238215998Y-145222763D03*
%TD*%
D315*
%TO.C,D91*%
X193687477Y-32756555D03*
X191503131Y-31169535D03*
%TD*%
D316*
%TO.C,U14*%
X43000000Y-174000000D03*
X42050000Y-174000000D03*
X41100000Y-174000000D03*
X41100000Y-176275000D03*
X42050000Y-176275000D03*
X43000000Y-176275000D03*
%TD*%
D317*
%TO.C,D38*%
X40244468Y-202738809D03*
X42092746Y-204707025D03*
%TD*%
D318*
%TO.C,D63*%
X202738809Y-209755531D03*
X204707025Y-207907253D03*
%TD*%
D319*
%TO.C,D100*%
X133568245Y-10311693D03*
X130873573Y-10142159D03*
%TD*%
D320*
%TO.C,D99*%
X140752676Y-11076009D03*
X138073966Y-10737609D03*
%TD*%
D321*
%TO.C,D56*%
X159253028Y-234788672D03*
X161820880Y-233954326D03*
%TD*%
D16*
%TO.C,R2*%
X47500000Y-119990000D03*
X47500000Y-121010000D03*
%TD*%
D322*
%TO.C,D96*%
X161820880Y-16045673D03*
X159253028Y-15211327D03*
%TD*%
D323*
%TO.C,D87*%
X214469544Y-52736434D03*
X212748500Y-50656048D03*
%TD*%
D275*
%TO.C,U10*%
X123062500Y-38750000D03*
X123062500Y-39250000D03*
X123062500Y-39750000D03*
X123062500Y-40250000D03*
X123062500Y-40750000D03*
X123062500Y-41250000D03*
D276*
X123750000Y-41937500D03*
X124250000Y-41937500D03*
X124750000Y-41937500D03*
X125250000Y-41937500D03*
X125750000Y-41937500D03*
X126250000Y-41937500D03*
D275*
X126937500Y-41250000D03*
X126937500Y-40750000D03*
X126937500Y-40250000D03*
X126937500Y-39750000D03*
X126937500Y-39250000D03*
X126937500Y-38750000D03*
D276*
X126250000Y-38062500D03*
X125750000Y-38062500D03*
X125250000Y-38062500D03*
X124750000Y-38062500D03*
X124250000Y-38062500D03*
X123750000Y-38062500D03*
D230*
X125000000Y-40000000D03*
%TD*%
D324*
%TO.C,D29*%
X11784001Y-145222763D03*
X12289931Y-147874939D03*
%TD*%
D325*
%TO.C,D78*%
X239262390Y-111926033D03*
X238923990Y-109247323D03*
%TD*%
D16*
%TO.C,R4*%
X55500000Y-139990000D03*
X55500000Y-141010000D03*
%TD*%
D326*
%TO.C,D83*%
X229629913Y-77256898D03*
X228480309Y-74813864D03*
%TD*%
D327*
%TO.C,D43*%
X68415313Y-225124901D03*
X70781341Y-226425635D03*
%TD*%
D215*
%TO.C,C1*%
X54500000Y-133980000D03*
X54500000Y-133020000D03*
%TD*%
D328*
%TO.C,D25*%
X10311693Y-116431754D03*
X10142159Y-119126426D03*
%TD*%
D224*
%TO.C,R14*%
X130175000Y-37700000D03*
X128525000Y-37700000D03*
%TD*%
D329*
%TO.C,D28*%
X10737609Y-138073966D03*
X11076009Y-140752676D03*
%TD*%
D330*
%TO.C,D47*%
X95093075Y-236051332D03*
X97708249Y-236722794D03*
%TD*%
D236*
%TO.C,C9*%
X30000000Y-120020000D03*
X30000000Y-120980000D03*
%TD*%
D219*
%TO.C,D216*%
X183650000Y-53000000D03*
X186350000Y-53000000D03*
%TD*%
D291*
%TO.C,U13*%
X207000000Y-174000000D03*
X207000000Y-174950000D03*
X207000000Y-175900000D03*
X209275000Y-175900000D03*
X209275000Y-174950000D03*
X209275000Y-174000000D03*
%TD*%
D295*
%TO.C,R12*%
X165675000Y-34500000D03*
X167325000Y-34500000D03*
%TD*%
D331*
%TO.C,D53*%
X138073966Y-239262390D03*
X140752676Y-238923990D03*
%TD*%
D332*
%TO.C,D48*%
X102125060Y-237710068D03*
X104777236Y-238215998D03*
%TD*%
D333*
%TO.C,D41*%
X56312522Y-217243444D03*
X58496868Y-218830464D03*
%TD*%
D334*
%TO.C,D84*%
X226425635Y-70781341D03*
X225124901Y-68415313D03*
%TD*%
D335*
%TO.C,D10*%
X64519761Y-27178922D03*
X62240075Y-28625654D03*
%TD*%
D336*
%TO.C,D65*%
X212748500Y-199343951D03*
X214469544Y-197263565D03*
%TD*%
D337*
%TO.C,D44*%
X74813864Y-228480309D03*
X77256898Y-229629913D03*
%TD*%
D246*
%TO.C,C4*%
X106480000Y-29050000D03*
X105520000Y-29050000D03*
%TD*%
D236*
%TO.C,C3*%
X57500000Y-140020000D03*
X57500000Y-140980000D03*
%TD*%
D233*
%TO.C,R8*%
X30000000Y-123825000D03*
X30000000Y-122175000D03*
%TD*%
D219*
%TO.C,D209*%
X127650000Y-53000000D03*
X130350000Y-53000000D03*
%TD*%
D338*
%TO.C,D46*%
X88179119Y-233954326D03*
X90746971Y-234788672D03*
%TD*%
D279*
%TO.C,D76*%
X240000000Y-126350000D03*
X240000000Y-123650000D03*
%TD*%
D339*
%TO.C,D13*%
X47261190Y-40244468D03*
X45292974Y-42092746D03*
%TD*%
D219*
%TO.C,D212*%
X151650000Y-53000000D03*
X154350000Y-53000000D03*
%TD*%
D340*
%TO.C,D89*%
X204707025Y-42092746D03*
X202738809Y-40244468D03*
%TD*%
D341*
%TO.C,J3*%
X127525000Y-30000000D03*
D342*
X124985000Y-30000000D03*
X122445000Y-30000000D03*
%TD*%
D343*
%TO.C,J1*%
X50250000Y-125165000D03*
D344*
X42750000Y-125165000D03*
D345*
X48900000Y-127315000D03*
X48900000Y-123015000D03*
X44100000Y-127315000D03*
X44100000Y-123015000D03*
%TD*%
D346*
%TO.C,SW1*%
X57857500Y-122500000D03*
D347*
X57857500Y-125000000D03*
X57857500Y-127500000D03*
X61157500Y-127500000D03*
X61157500Y-125000000D03*
X61157500Y-122500000D03*
%TD*%
D348*
%TO.C,J2*%
X60500000Y-147950000D03*
D349*
X58500000Y-147950000D03*
%TD*%
%LPD*%
M02*
