%TF.GenerationSoftware,KiCad,Pcbnew,8.0.4*%
%TF.CreationDate,2024-08-19T15:11:55+02:00*%
%TF.ProjectId,RocSync_testing,526f6353-796e-4635-9f74-657374696e67,rev?*%
%TF.SameCoordinates,Original*%
%TF.FileFunction,Paste,Top*%
%TF.FilePolarity,Positive*%
%FSLAX46Y46*%
G04 Gerber Fmt 4.6, Leading zero omitted, Abs format (unit mm)*
G04 Created by KiCad (PCBNEW 8.0.4) date 2024-08-19 15:11:55*
%MOMM*%
%LPD*%
G01*
G04 APERTURE LIST*
G04 Aperture macros list*
%AMRoundRect*
0 Rectangle with rounded corners*
0 $1 Rounding radius*
0 $2 $3 $4 $5 $6 $7 $8 $9 X,Y pos of 4 corners*
0 Add a 4 corners polygon primitive as box body*
4,1,4,$2,$3,$4,$5,$6,$7,$8,$9,$2,$3,0*
0 Add four circle primitives for the rounded corners*
1,1,$1+$1,$2,$3*
1,1,$1+$1,$4,$5*
1,1,$1+$1,$6,$7*
1,1,$1+$1,$8,$9*
0 Add four rect primitives between the rounded corners*
20,1,$1+$1,$2,$3,$4,$5,0*
20,1,$1+$1,$4,$5,$6,$7,0*
20,1,$1+$1,$6,$7,$8,$9,0*
20,1,$1+$1,$8,$9,$2,$3,0*%
%AMRotRect*
0 Rectangle, with rotation*
0 The origin of the aperture is its center*
0 $1 length*
0 $2 width*
0 $3 Rotation angle, in degrees counterclockwise*
0 Add horizontal line*
21,1,$1,$2,0,0,$3*%
G04 Aperture macros list end*
%ADD10RoundRect,0.135000X-0.185000X0.135000X-0.185000X-0.135000X0.185000X-0.135000X0.185000X0.135000X0*%
%ADD11RotRect,1.500000X2.200000X223.200000*%
%ADD12RotRect,2.000000X2.200000X223.200000*%
%ADD13RotRect,1.500000X2.200000X154.800000*%
%ADD14RotRect,2.000000X2.200000X154.800000*%
%ADD15RotRect,1.500000X2.200000X244.800000*%
%ADD16RotRect,2.000000X2.200000X244.800000*%
%ADD17RotRect,1.500000X2.200000X338.400000*%
%ADD18RotRect,2.000000X2.200000X338.400000*%
%ADD19RotRect,1.500000X2.200000X14.400000*%
%ADD20RotRect,2.000000X2.200000X14.400000*%
%ADD21R,2.200000X1.500000*%
%ADD22R,2.200000X2.000000*%
%ADD23RotRect,1.500000X2.200000X3.600000*%
%ADD24RotRect,2.000000X2.200000X3.600000*%
%ADD25R,1.500000X2.200000*%
%ADD26R,2.000000X2.200000*%
%ADD27RotRect,1.500000X2.200000X75.600000*%
%ADD28RotRect,2.000000X2.200000X75.600000*%
%ADD29RotRect,1.500000X2.200000X133.200000*%
%ADD30RotRect,2.000000X2.200000X133.200000*%
%ADD31RotRect,1.500000X2.200000X280.800000*%
%ADD32RotRect,2.000000X2.200000X280.800000*%
%ADD33RotRect,1.500000X2.200000X158.400000*%
%ADD34RotRect,2.000000X2.200000X158.400000*%
%ADD35RotRect,1.500000X2.200000X298.800000*%
%ADD36RotRect,2.000000X2.200000X298.800000*%
%ADD37RotRect,1.500000X2.200000X54.000000*%
%ADD38RotRect,2.000000X2.200000X54.000000*%
%ADD39RotRect,1.500000X2.200000X115.200000*%
%ADD40RotRect,2.000000X2.200000X115.200000*%
%ADD41RotRect,1.500000X2.200000X7.200000*%
%ADD42RotRect,2.000000X2.200000X7.200000*%
%ADD43RotRect,1.500000X2.200000X320.400000*%
%ADD44RotRect,2.000000X2.200000X320.400000*%
%ADD45RotRect,1.500000X2.200000X72.000000*%
%ADD46RotRect,2.000000X2.200000X72.000000*%
%ADD47RotRect,1.500000X2.200000X237.600000*%
%ADD48RotRect,2.000000X2.200000X237.600000*%
%ADD49RotRect,1.500000X2.200000X194.400000*%
%ADD50RotRect,2.000000X2.200000X194.400000*%
%ADD51RotRect,1.500000X2.200000X32.400000*%
%ADD52RotRect,2.000000X2.200000X32.400000*%
%ADD53RotRect,1.500000X2.200000X36.000000*%
%ADD54RotRect,2.000000X2.200000X36.000000*%
%ADD55RotRect,1.500000X2.200000X104.400000*%
%ADD56RotRect,2.000000X2.200000X104.400000*%
%ADD57RotRect,1.500000X2.200000X57.600000*%
%ADD58RotRect,2.000000X2.200000X57.600000*%
%ADD59RotRect,1.500000X2.200000X309.600000*%
%ADD60RotRect,2.000000X2.200000X309.600000*%
%ADD61RotRect,1.500000X2.200000X356.400000*%
%ADD62RotRect,2.000000X2.200000X356.400000*%
%ADD63RotRect,1.500000X2.200000X313.200000*%
%ADD64RotRect,2.000000X2.200000X313.200000*%
%ADD65RotRect,1.500000X2.200000X302.400000*%
%ADD66RotRect,2.000000X2.200000X302.400000*%
%ADD67RotRect,1.500000X2.200000X288.000000*%
%ADD68RotRect,2.000000X2.200000X288.000000*%
%ADD69RotRect,1.500000X2.200000X208.800000*%
%ADD70RotRect,2.000000X2.200000X208.800000*%
%ADD71RotRect,1.500000X2.200000X187.200000*%
%ADD72RotRect,2.000000X2.200000X187.200000*%
%ADD73RotRect,1.500000X2.200000X118.800000*%
%ADD74RotRect,2.000000X2.200000X118.800000*%
%ADD75RotRect,1.500000X2.200000X342.000000*%
%ADD76RotRect,2.000000X2.200000X342.000000*%
%ADD77RotRect,1.500000X2.200000X284.400000*%
%ADD78RotRect,2.000000X2.200000X284.400000*%
%ADD79RotRect,1.500000X2.200000X151.200000*%
%ADD80RotRect,2.000000X2.200000X151.200000*%
%ADD81RotRect,1.500000X2.200000X147.600000*%
%ADD82RotRect,2.000000X2.200000X147.600000*%
%ADD83RotRect,1.500000X2.200000X18.000000*%
%ADD84RotRect,2.000000X2.200000X18.000000*%
%ADD85RotRect,1.500000X2.200000X100.800000*%
%ADD86RotRect,2.000000X2.200000X100.800000*%
%ADD87RotRect,1.500000X2.200000X144.000000*%
%ADD88RotRect,2.000000X2.200000X144.000000*%
%ADD89RotRect,1.500000X2.200000X234.000000*%
%ADD90RotRect,2.000000X2.200000X234.000000*%
%ADD91RotRect,1.500000X2.200000X108.000000*%
%ADD92RotRect,2.000000X2.200000X108.000000*%
%ADD93RotRect,1.500000X2.200000X331.200000*%
%ADD94RotRect,2.000000X2.200000X331.200000*%
%ADD95RotRect,1.500000X2.200000X129.600000*%
%ADD96RotRect,2.000000X2.200000X129.600000*%
%ADD97RotRect,1.500000X2.200000X327.600000*%
%ADD98RotRect,2.000000X2.200000X327.600000*%
%ADD99RotRect,1.500000X2.200000X295.200000*%
%ADD100RotRect,2.000000X2.200000X295.200000*%
%ADD101RotRect,1.500000X2.200000X82.800000*%
%ADD102RotRect,2.000000X2.200000X82.800000*%
%ADD103RotRect,1.500000X2.200000X39.600000*%
%ADD104RotRect,2.000000X2.200000X39.600000*%
%ADD105RotRect,1.500000X2.200000X316.800000*%
%ADD106RotRect,2.000000X2.200000X316.800000*%
%ADD107RotRect,1.500000X2.200000X79.200000*%
%ADD108RotRect,2.000000X2.200000X79.200000*%
%ADD109RotRect,1.500000X2.200000X306.000000*%
%ADD110RotRect,2.000000X2.200000X306.000000*%
%ADD111RotRect,1.500000X2.200000X252.000000*%
%ADD112RotRect,2.000000X2.200000X252.000000*%
%ADD113RotRect,1.500000X2.200000X25.200000*%
%ADD114RotRect,2.000000X2.200000X25.200000*%
%ADD115RotRect,1.500000X2.200000X122.400000*%
%ADD116RotRect,2.000000X2.200000X122.400000*%
%ADD117RotRect,1.500000X2.200000X64.800000*%
%ADD118RotRect,2.000000X2.200000X64.800000*%
%ADD119RotRect,1.500000X2.200000X230.400000*%
%ADD120RotRect,2.000000X2.200000X230.400000*%
%ADD121RotRect,1.500000X2.200000X165.600000*%
%ADD122RotRect,2.000000X2.200000X165.600000*%
%ADD123RotRect,1.500000X2.200000X248.400000*%
%ADD124RotRect,2.000000X2.200000X248.400000*%
%ADD125RotRect,1.500000X2.200000X226.800000*%
%ADD126RotRect,2.000000X2.200000X226.800000*%
%ADD127RotRect,1.500000X2.200000X324.000000*%
%ADD128RotRect,2.000000X2.200000X324.000000*%
%ADD129RotRect,1.500000X2.200000X50.400000*%
%ADD130RotRect,2.000000X2.200000X50.400000*%
%ADD131RotRect,1.500000X2.200000X162.000000*%
%ADD132RotRect,2.000000X2.200000X162.000000*%
%ADD133RotRect,1.500000X2.200000X176.400000*%
%ADD134RotRect,2.000000X2.200000X176.400000*%
%ADD135RotRect,1.500000X2.200000X255.600000*%
%ADD136RotRect,2.000000X2.200000X255.600000*%
%ADD137RotRect,1.500000X2.200000X61.200000*%
%ADD138RotRect,2.000000X2.200000X61.200000*%
%ADD139RotRect,1.500000X2.200000X219.600000*%
%ADD140RotRect,2.000000X2.200000X219.600000*%
%ADD141RotRect,1.500000X2.200000X46.800000*%
%ADD142RotRect,2.000000X2.200000X46.800000*%
%ADD143RotRect,1.500000X2.200000X97.200000*%
%ADD144RotRect,2.000000X2.200000X97.200000*%
%ADD145RotRect,1.500000X2.200000X334.800000*%
%ADD146RotRect,2.000000X2.200000X334.800000*%
%ADD147RotRect,1.500000X2.200000X86.400000*%
%ADD148RotRect,2.000000X2.200000X86.400000*%
%ADD149RotRect,1.500000X2.200000X201.600000*%
%ADD150RotRect,2.000000X2.200000X201.600000*%
%ADD151RotRect,1.500000X2.200000X259.200000*%
%ADD152RotRect,2.000000X2.200000X259.200000*%
%ADD153RotRect,1.500000X2.200000X349.200000*%
%ADD154RotRect,2.000000X2.200000X349.200000*%
%ADD155RotRect,1.500000X2.200000X140.400000*%
%ADD156RotRect,2.000000X2.200000X140.400000*%
%ADD157RotRect,1.500000X2.200000X345.600000*%
%ADD158RotRect,2.000000X2.200000X345.600000*%
%ADD159RotRect,1.500000X2.200000X43.200000*%
%ADD160RotRect,2.000000X2.200000X43.200000*%
%ADD161RotRect,1.500000X2.200000X241.200000*%
%ADD162RotRect,2.000000X2.200000X241.200000*%
%ADD163RotRect,1.500000X2.200000X212.400000*%
%ADD164RotRect,2.000000X2.200000X212.400000*%
%ADD165RotRect,1.500000X2.200000X205.200000*%
%ADD166RotRect,2.000000X2.200000X205.200000*%
%ADD167RotRect,1.500000X2.200000X93.600000*%
%ADD168RotRect,2.000000X2.200000X93.600000*%
%ADD169RotRect,1.500000X2.200000X183.600000*%
%ADD170RotRect,2.000000X2.200000X183.600000*%
%ADD171RotRect,1.500000X2.200000X172.800000*%
%ADD172RotRect,2.000000X2.200000X172.800000*%
%ADD173RotRect,1.500000X2.200000X28.800000*%
%ADD174RotRect,2.000000X2.200000X28.800000*%
%ADD175RotRect,1.500000X2.200000X198.000000*%
%ADD176RotRect,2.000000X2.200000X198.000000*%
%ADD177RotRect,1.500000X2.200000X216.000000*%
%ADD178RotRect,2.000000X2.200000X216.000000*%
%ADD179RotRect,1.500000X2.200000X273.600000*%
%ADD180RotRect,2.000000X2.200000X273.600000*%
%ADD181RotRect,1.500000X2.200000X277.200000*%
%ADD182RotRect,2.000000X2.200000X277.200000*%
%ADD183RotRect,1.500000X2.200000X352.800000*%
%ADD184RotRect,2.000000X2.200000X352.800000*%
%ADD185RotRect,1.500000X2.200000X68.400000*%
%ADD186RotRect,2.000000X2.200000X68.400000*%
%ADD187RotRect,1.500000X2.200000X10.800000*%
%ADD188RotRect,2.000000X2.200000X10.800000*%
%ADD189RotRect,1.500000X2.200000X262.800000*%
%ADD190RotRect,2.000000X2.200000X262.800000*%
%ADD191RotRect,1.500000X2.200000X126.000000*%
%ADD192RotRect,2.000000X2.200000X126.000000*%
%ADD193RotRect,1.500000X2.200000X21.600000*%
%ADD194RotRect,2.000000X2.200000X21.600000*%
%ADD195RotRect,1.500000X2.200000X136.800000*%
%ADD196RotRect,2.000000X2.200000X136.800000*%
%ADD197RotRect,1.500000X2.200000X291.600000*%
%ADD198RotRect,2.000000X2.200000X291.600000*%
%ADD199RotRect,1.500000X2.200000X111.600000*%
%ADD200RotRect,2.000000X2.200000X111.600000*%
%ADD201RotRect,1.500000X2.200000X266.400000*%
%ADD202RotRect,2.000000X2.200000X266.400000*%
%ADD203RotRect,1.500000X2.200000X169.200000*%
%ADD204RotRect,2.000000X2.200000X169.200000*%
%ADD205RotRect,1.500000X2.200000X190.800000*%
%ADD206RotRect,2.000000X2.200000X190.800000*%
%ADD207RotRect,1.000000X2.400000X244.800000*%
%ADD208RotRect,1.000000X2.400000X46.800000*%
%ADD209RoundRect,0.140000X0.170000X-0.140000X0.170000X0.140000X-0.170000X0.140000X-0.170000X-0.140000X0*%
%ADD210RotRect,1.000000X2.400000X61.200000*%
%ADD211RotRect,1.000000X2.400000X190.800000*%
%ADD212RotRect,1.000000X2.400000X309.600000*%
%ADD213R,1.000000X2.400000*%
%ADD214RotRect,1.000000X2.400000X21.600000*%
%ADD215RotRect,1.000000X2.400000X126.000000*%
%ADD216RotRect,1.000000X2.400000X10.800000*%
%ADD217RotRect,1.000000X2.400000X288.000000*%
%ADD218RoundRect,0.200000X0.200000X0.275000X-0.200000X0.275000X-0.200000X-0.275000X0.200000X-0.275000X0*%
%ADD219RotRect,1.000000X2.400000X216.000000*%
%ADD220RoundRect,0.135000X-0.135000X-0.185000X0.135000X-0.185000X0.135000X0.185000X-0.135000X0.185000X0*%
%ADD221RoundRect,0.212500X0.212500X-0.212500X0.212500X0.212500X-0.212500X0.212500X-0.212500X-0.212500X0*%
%ADD222RoundRect,0.062500X0.062500X-0.375000X0.062500X0.375000X-0.062500X0.375000X-0.062500X-0.375000X0*%
%ADD223RoundRect,0.062500X0.375000X-0.062500X0.375000X0.062500X-0.375000X0.062500X-0.375000X-0.062500X0*%
%ADD224RotRect,1.000000X2.400000X316.800000*%
%ADD225RotRect,1.000000X2.400000X241.200000*%
%ADD226RoundRect,0.200000X0.275000X-0.200000X0.275000X0.200000X-0.275000X0.200000X-0.275000X-0.200000X0*%
%ADD227RotRect,1.000000X2.400000X183.600000*%
%ADD228RotRect,1.000000X2.400000X205.200000*%
%ADD229RoundRect,0.140000X-0.170000X0.140000X-0.170000X-0.140000X0.170000X-0.140000X0.170000X0.140000X0*%
%ADD230RotRect,1.000000X2.400000X140.400000*%
%ADD231RoundRect,0.212500X-0.212500X0.212500X-0.212500X-0.212500X0.212500X-0.212500X0.212500X0.212500X0*%
%ADD232RoundRect,0.062500X-0.062500X0.375000X-0.062500X-0.375000X0.062500X-0.375000X0.062500X0.375000X0*%
%ADD233RoundRect,0.062500X-0.375000X0.062500X-0.375000X-0.062500X0.375000X-0.062500X0.375000X0.062500X0*%
%ADD234RoundRect,0.212500X0.212500X0.212500X-0.212500X0.212500X-0.212500X-0.212500X0.212500X-0.212500X0*%
%ADD235RoundRect,0.062500X0.375000X0.062500X-0.375000X0.062500X-0.375000X-0.062500X0.375000X-0.062500X0*%
%ADD236RoundRect,0.062500X0.062500X0.375000X-0.062500X0.375000X-0.062500X-0.375000X0.062500X-0.375000X0*%
%ADD237RotRect,1.000000X2.400000X39.600000*%
%ADD238RotRect,1.000000X2.400000X352.800000*%
%ADD239RotRect,1.000000X2.400000X252.000000*%
%ADD240RotRect,1.000000X2.400000X208.800000*%
%ADD241RoundRect,0.140000X0.140000X0.170000X-0.140000X0.170000X-0.140000X-0.170000X0.140000X-0.170000X0*%
%ADD242RotRect,1.000000X2.400000X72.000000*%
%ADD243RotRect,1.000000X2.400000X248.400000*%
%ADD244RotRect,1.000000X2.400000X32.400000*%
%ADD245RotRect,1.000000X2.400000X338.400000*%
%ADD246RotRect,1.000000X2.400000X64.800000*%
%ADD247RotRect,1.000000X2.400000X219.600000*%
%ADD248RotRect,1.000000X2.400000X187.200000*%
%ADD249RotRect,1.000000X2.400000X273.600000*%
%ADD250RotRect,1.000000X2.400000X122.400000*%
%ADD251RoundRect,0.140000X-0.140000X-0.170000X0.140000X-0.170000X0.140000X0.170000X-0.140000X0.170000X0*%
%ADD252RotRect,1.000000X2.400000X255.600000*%
%ADD253RotRect,1.000000X2.400000X111.600000*%
%ADD254RoundRect,0.182500X0.182500X-0.182500X0.182500X0.182500X-0.182500X0.182500X-0.182500X-0.182500X0*%
%ADD255RoundRect,0.062500X0.062500X-0.350000X0.062500X0.350000X-0.062500X0.350000X-0.062500X-0.350000X0*%
%ADD256RoundRect,0.062500X0.350000X-0.062500X0.350000X0.062500X-0.350000X0.062500X-0.350000X-0.062500X0*%
%ADD257RotRect,1.000000X2.400000X104.400000*%
%ADD258RotRect,1.000000X2.400000X100.800000*%
%ADD259RotRect,1.000000X2.400000X327.600000*%
%ADD260RotRect,1.000000X2.400000X57.600000*%
%ADD261RotRect,1.000000X2.400000X151.200000*%
%ADD262RotRect,1.000000X2.400000X262.800000*%
%ADD263RoundRect,0.135000X0.135000X0.185000X-0.135000X0.185000X-0.135000X-0.185000X0.135000X-0.185000X0*%
%ADD264RotRect,1.000000X2.400000X158.400000*%
%ADD265RoundRect,0.200000X-0.275000X0.200000X-0.275000X-0.200000X0.275000X-0.200000X0.275000X0.200000X0*%
%ADD266RotRect,1.000000X2.400000X298.800000*%
%ADD267RotRect,1.000000X2.400000X82.800000*%
%ADD268RotRect,1.000000X2.400000X230.400000*%
%ADD269RotRect,1.000000X2.400000X198.000000*%
%ADD270RoundRect,0.212500X-0.212500X-0.212500X0.212500X-0.212500X0.212500X0.212500X-0.212500X0.212500X0*%
%ADD271RoundRect,0.062500X-0.375000X-0.062500X0.375000X-0.062500X0.375000X0.062500X-0.375000X0.062500X0*%
%ADD272RoundRect,0.062500X-0.062500X-0.375000X0.062500X-0.375000X0.062500X0.375000X-0.062500X0.375000X0*%
%ADD273RotRect,1.000000X2.400000X302.400000*%
%ADD274RotRect,1.000000X2.400000X3.600000*%
%ADD275R,2.400000X1.000000*%
%ADD276RoundRect,0.172500X-0.172500X0.172500X-0.172500X-0.172500X0.172500X-0.172500X0.172500X0.172500X0*%
%ADD277RoundRect,0.050000X-0.050000X0.375000X-0.050000X-0.375000X0.050000X-0.375000X0.050000X0.375000X0*%
%ADD278RoundRect,0.050000X-0.375000X0.050000X-0.375000X-0.050000X0.375000X-0.050000X0.375000X0.050000X0*%
%ADD279RotRect,1.000000X2.400000X108.000000*%
%ADD280RotRect,1.000000X2.400000X75.600000*%
%ADD281RotRect,1.000000X2.400000X86.400000*%
%ADD282RotRect,1.000000X2.400000X25.200000*%
%ADD283RotRect,1.000000X2.400000X259.200000*%
%ADD284RotRect,1.000000X2.400000X169.200000*%
%ADD285RotRect,1.000000X2.400000X36.000000*%
%ADD286RotRect,1.000000X2.400000X147.600000*%
%ADD287RoundRect,0.150000X-0.512500X-0.150000X0.512500X-0.150000X0.512500X0.150000X-0.512500X0.150000X0*%
%ADD288RotRect,1.000000X2.400000X226.800000*%
%ADD289RotRect,1.000000X2.400000X194.400000*%
%ADD290RotRect,1.000000X2.400000X295.200000*%
%ADD291RoundRect,0.200000X-0.200000X-0.275000X0.200000X-0.275000X0.200000X0.275000X-0.200000X0.275000X0*%
%ADD292RotRect,1.000000X2.400000X291.600000*%
%ADD293RotRect,1.000000X2.400000X237.600000*%
%ADD294RotRect,1.000000X2.400000X356.400000*%
%ADD295RotRect,1.000000X2.400000X284.400000*%
%ADD296RoundRect,0.135000X0.185000X-0.135000X0.185000X0.135000X-0.185000X0.135000X-0.185000X-0.135000X0*%
%ADD297RotRect,1.000000X2.400000X320.400000*%
%ADD298RotRect,1.000000X2.400000X133.200000*%
%ADD299RotRect,1.000000X2.400000X165.600000*%
%ADD300RotRect,1.000000X2.400000X28.800000*%
%ADD301RotRect,1.000000X2.400000X154.800000*%
%ADD302RotRect,1.000000X2.400000X234.000000*%
%ADD303RotRect,1.000000X2.400000X93.600000*%
%ADD304RotRect,1.000000X2.400000X54.000000*%
%ADD305RotRect,1.000000X2.400000X201.600000*%
%ADD306RotRect,1.000000X2.400000X68.400000*%
%ADD307RotRect,1.000000X2.400000X306.000000*%
%ADD308RotRect,1.000000X2.400000X14.400000*%
%ADD309R,1.150000X1.000000*%
%ADD310RotRect,1.000000X2.400000X79.200000*%
%ADD311RotRect,1.000000X2.400000X144.000000*%
%ADD312RoundRect,0.150000X-0.150000X0.512500X-0.150000X-0.512500X0.150000X-0.512500X0.150000X0.512500X0*%
%ADD313RotRect,1.000000X2.400000X313.200000*%
%ADD314RotRect,1.000000X2.400000X43.200000*%
%ADD315RotRect,1.000000X2.400000X176.400000*%
%ADD316RotRect,1.000000X2.400000X172.800000*%
%ADD317RotRect,1.000000X2.400000X18.000000*%
%ADD318RotRect,1.000000X2.400000X162.000000*%
%ADD319RotRect,1.000000X2.400000X129.600000*%
%ADD320RotRect,1.000000X2.400000X280.800000*%
%ADD321RotRect,1.000000X2.400000X97.200000*%
%ADD322RotRect,1.000000X2.400000X115.200000*%
%ADD323RotRect,1.000000X2.400000X331.200000*%
%ADD324RotRect,1.000000X2.400000X266.400000*%
%ADD325RotRect,1.000000X2.400000X277.200000*%
%ADD326RotRect,1.000000X2.400000X345.600000*%
%ADD327RotRect,1.000000X2.400000X7.200000*%
%ADD328RotRect,1.000000X2.400000X349.200000*%
%ADD329RotRect,1.000000X2.400000X324.000000*%
%ADD330RotRect,1.000000X2.400000X118.800000*%
%ADD331RotRect,1.000000X2.400000X212.400000*%
%ADD332RotRect,1.000000X2.400000X50.400000*%
%ADD333RotRect,1.000000X2.400000X334.800000*%
%ADD334RotRect,1.000000X2.400000X342.000000*%
%ADD335RotRect,1.000000X2.400000X223.200000*%
%ADD336RotRect,1.000000X2.400000X136.800000*%
G04 APERTURE END LIST*
D10*
%TO.C,R19*%
X107400000Y-34690000D03*
X107400000Y-35710000D03*
%TD*%
D11*
%TO.C,D113*%
X48788607Y-45669134D03*
D12*
X50428787Y-44128903D03*
%TD*%
D13*
%TO.C,D194*%
X170704688Y-24936800D03*
D14*
X172740549Y-25894803D03*
%TD*%
D15*
%TO.C,D119*%
X24936800Y-79295311D03*
D16*
X25894803Y-77259450D03*
%TD*%
D17*
%TO.C,D145*%
X85668520Y-227735569D03*
D18*
X83576523Y-226907288D03*
%TD*%
D19*
%TO.C,D155*%
X153566616Y-231233285D03*
D20*
X151387304Y-231792837D03*
%TD*%
D21*
%TO.C,D176*%
X235000000Y-123750000D03*
D22*
X235000000Y-126000000D03*
%TD*%
D23*
%TO.C,D152*%
X133154490Y-234704452D03*
D24*
X130908930Y-234845731D03*
%TD*%
D25*
%TO.C,D235*%
X246250000Y-245000000D03*
D26*
X244000000Y-245000000D03*
%TD*%
D27*
%TO.C,D172*%
X231855009Y-151145158D03*
D28*
X231295457Y-153324470D03*
%TD*%
D25*
%TO.C,D230*%
X170250000Y-48000000D03*
D26*
X168000000Y-48000000D03*
%TD*%
D29*
%TO.C,D188*%
X204330865Y-48788607D03*
D30*
X205871096Y-50428787D03*
%TD*%
D31*
%TO.C,D129*%
X17182629Y-146839803D03*
D32*
X16761021Y-144629657D03*
%TD*%
D33*
%TO.C,D195*%
X164331479Y-22264430D03*
D34*
X166423476Y-23092711D03*
%TD*%
D35*
%TO.C,D134*%
X29208457Y-179088287D03*
D36*
X28124511Y-177116597D03*
%TD*%
D25*
%TO.C,D223*%
X114250000Y-48000000D03*
D26*
X112000000Y-48000000D03*
%TD*%
D37*
%TO.C,D166*%
X214726601Y-188645106D03*
D38*
X213404084Y-190465394D03*
%TD*%
D39*
%TO.C,D183*%
X223998751Y-77033243D03*
D40*
X224956754Y-79069104D03*
%TD*%
D41*
%TO.C,D153*%
X140026798Y-233975950D03*
D42*
X137794540Y-234257950D03*
%TD*%
D25*
%TO.C,D222*%
X106250000Y-48000000D03*
D26*
X104000000Y-48000000D03*
%TD*%
D43*
%TO.C,D140*%
X55846503Y-210553236D03*
D44*
X54112848Y-209119032D03*
%TD*%
D45*
%TO.C,D171*%
X230002487Y-157803048D03*
D46*
X229307199Y-159942926D03*
%TD*%
D21*
%TO.C,D126*%
X15000000Y-126250000D03*
D22*
X15000000Y-124000000D03*
%TD*%
D47*
%TO.C,D117*%
X31454145Y-67114462D03*
D48*
X32659755Y-65214724D03*
%TD*%
D25*
%TO.C,D232*%
X186250000Y-48000000D03*
D26*
X184000000Y-48000000D03*
%TD*%
D49*
%TO.C,D105*%
X96433383Y-18766714D03*
D50*
X98612695Y-18207162D03*
%TD*%
D51*
%TO.C,D160*%
X184996357Y-217206288D03*
D52*
X183096619Y-218411898D03*
%TD*%
D53*
%TO.C,D161*%
X190667648Y-213257137D03*
D54*
X188847360Y-214579654D03*
%TD*%
D25*
%TO.C,D228*%
X154250000Y-48000000D03*
D26*
X152000000Y-48000000D03*
%TD*%
D55*
%TO.C,D180*%
X231233285Y-96433383D03*
D56*
X231792837Y-98612695D03*
%TD*%
D57*
%TO.C,D167*%
X218545854Y-182885537D03*
D58*
X217340244Y-184785275D03*
%TD*%
D59*
%TO.C,D137*%
X41040323Y-196079780D03*
D60*
X39606119Y-194346125D03*
%TD*%
D61*
%TO.C,D150*%
X119340575Y-234861428D03*
D62*
X117095015Y-234720149D03*
%TD*%
D25*
%TO.C,D229*%
X162250000Y-48000000D03*
D26*
X160000000Y-48000000D03*
%TD*%
D63*
%TO.C,D138*%
X45669134Y-201211392D03*
D64*
X44128903Y-199571212D03*
%TD*%
D65*
%TO.C,D135*%
X32793711Y-184996357D03*
D66*
X31588101Y-183096619D03*
%TD*%
D67*
%TO.C,D131*%
X20770054Y-160180690D03*
D68*
X20074766Y-158040812D03*
%TD*%
D25*
%TO.C,D227*%
X146250000Y-48000000D03*
D26*
X144000000Y-48000000D03*
%TD*%
D69*
%TO.C,D109*%
X70911712Y-29208457D03*
D70*
X72883402Y-28124511D03*
%TD*%
D71*
%TO.C,D103*%
X109973201Y-16024049D03*
D72*
X112205459Y-15742049D03*
%TD*%
D73*
%TO.C,D184*%
X220791542Y-70911712D03*
D74*
X221875488Y-72883402D03*
%TD*%
D75*
%TO.C,D146*%
X92196951Y-230002487D03*
D76*
X90057073Y-229307199D03*
%TD*%
D77*
%TO.C,D130*%
X18766714Y-153566616D03*
D78*
X18207162Y-151387304D03*
%TD*%
D79*
%TO.C,D193*%
X176897521Y-28004073D03*
D80*
X178869211Y-29088019D03*
%TD*%
D81*
%TO.C,D192*%
X182885537Y-31454145D03*
D82*
X184785275Y-32659755D03*
%TD*%
D83*
%TO.C,D156*%
X160180690Y-229229945D03*
D84*
X158040812Y-229925233D03*
%TD*%
D85*
%TO.C,D179*%
X232817370Y-103160196D03*
D86*
X233238978Y-105370342D03*
%TD*%
D87*
%TO.C,D191*%
X188645106Y-35273398D03*
D88*
X190465394Y-36595915D03*
%TD*%
D89*
%TO.C,D116*%
X35273398Y-61354893D03*
D90*
X36595915Y-59534605D03*
%TD*%
D25*
%TO.C,D217*%
X66250000Y-48000000D03*
D26*
X64000000Y-48000000D03*
%TD*%
D25*
%TO.C,D101*%
X123750000Y-15000000D03*
D26*
X126000000Y-15000000D03*
%TD*%
D91*
%TO.C,D181*%
X229229945Y-89819309D03*
D92*
X229925233Y-91959187D03*
%TD*%
D25*
%TO.C,D224*%
X122250000Y-48000000D03*
D26*
X120000000Y-48000000D03*
%TD*%
D25*
%TO.C,D231*%
X178250000Y-48000000D03*
D26*
X176000000Y-48000000D03*
%TD*%
D93*
%TO.C,D143*%
X73102478Y-221995926D03*
D94*
X71130788Y-220911980D03*
%TD*%
D95*
%TO.C,D187*%
X208959676Y-53920219D03*
D96*
X210393880Y-55653874D03*
%TD*%
D97*
%TO.C,D142*%
X67114462Y-218545854D03*
D98*
X65214724Y-217340244D03*
%TD*%
D99*
%TO.C,D133*%
X26001248Y-172966756D03*
D100*
X25043245Y-170930895D03*
%TD*%
D101*
%TO.C,D174*%
X234289284Y-137546512D03*
D102*
X234007284Y-139778770D03*
%TD*%
D103*
%TO.C,D162*%
X196079780Y-208959676D03*
D104*
X194346125Y-210393880D03*
%TD*%
D105*
%TO.C,D139*%
X50611029Y-206042233D03*
D106*
X48970849Y-204502002D03*
%TD*%
D107*
%TO.C,D173*%
X233285824Y-144384085D03*
D108*
X232864216Y-146594231D03*
%TD*%
D109*
%TO.C,D136*%
X36742862Y-190667648D03*
D110*
X35420345Y-188847360D03*
%TD*%
D111*
%TO.C,D121*%
X19997512Y-92196951D03*
D112*
X20692800Y-90057073D03*
%TD*%
D113*
%TO.C,D158*%
X172966756Y-223998751D03*
D114*
X170930895Y-224956754D03*
%TD*%
D115*
%TO.C,D185*%
X217206288Y-65003642D03*
D116*
X218411898Y-66903380D03*
%TD*%
D25*
%TO.C,D220*%
X90250000Y-48000000D03*
D26*
X88000000Y-48000000D03*
%TD*%
D117*
%TO.C,D169*%
X225063199Y-170704688D03*
D118*
X224105196Y-172740549D03*
%TD*%
D119*
%TO.C,D115*%
X39446763Y-55846503D03*
D120*
X40880967Y-54112848D03*
%TD*%
D25*
%TO.C,D221*%
X98250000Y-48000000D03*
D26*
X96000000Y-48000000D03*
%TD*%
D121*
%TO.C,D197*%
X151145158Y-18144990D03*
D122*
X153324470Y-18704542D03*
%TD*%
D25*
%TO.C,D233*%
X6250000Y-5000000D03*
D26*
X4000000Y-5000000D03*
%TD*%
D123*
%TO.C,D120*%
X22264430Y-85668520D03*
D124*
X23092711Y-83576523D03*
%TD*%
D125*
%TO.C,D114*%
X43957766Y-50611029D03*
D126*
X45497997Y-48970849D03*
%TD*%
D25*
%TO.C,D225*%
X130250000Y-48000000D03*
D26*
X128000000Y-48000000D03*
%TD*%
D127*
%TO.C,D141*%
X61354893Y-214726601D03*
D128*
X59534605Y-213404084D03*
%TD*%
D129*
%TO.C,D165*%
X210553236Y-194153496D03*
D130*
X209119032Y-195887151D03*
%TD*%
D131*
%TO.C,D196*%
X157803048Y-19997512D03*
D132*
X159942926Y-20692800D03*
%TD*%
D133*
%TO.C,D200*%
X130659424Y-15138571D03*
D134*
X132904984Y-15279850D03*
%TD*%
D135*
%TO.C,D122*%
X18144990Y-98854841D03*
D136*
X18704542Y-96675529D03*
%TD*%
D137*
%TO.C,D168*%
X221995926Y-176897521D03*
D138*
X220911980Y-178869211D03*
%TD*%
D139*
%TO.C,D112*%
X53920219Y-41040323D03*
D140*
X55653874Y-39606119D03*
%TD*%
D141*
%TO.C,D164*%
X206042233Y-199388970D03*
D142*
X204502002Y-201029150D03*
%TD*%
D143*
%TO.C,D178*%
X233975950Y-109973201D03*
D144*
X234257950Y-112205459D03*
%TD*%
D145*
%TO.C,D144*%
X79295311Y-225063199D03*
D146*
X77259450Y-224105196D03*
%TD*%
D147*
%TO.C,D175*%
X234861428Y-130659424D03*
D148*
X234720149Y-132904984D03*
%TD*%
D149*
%TO.C,D107*%
X83344078Y-23184742D03*
D150*
X85436075Y-22356461D03*
%TD*%
D151*
%TO.C,D123*%
X16714175Y-105615914D03*
D152*
X17135783Y-103405768D03*
%TD*%
D153*
%TO.C,D148*%
X105615914Y-233285824D03*
D154*
X103405768Y-232864216D03*
%TD*%
D155*
%TO.C,D190*%
X194153496Y-39446763D03*
D156*
X195887151Y-40880967D03*
%TD*%
D157*
%TO.C,D147*%
X98854841Y-231855009D03*
D158*
X96675529Y-231295457D03*
%TD*%
D25*
%TO.C,D236*%
X6250000Y-245000000D03*
D26*
X4000000Y-245000000D03*
%TD*%
D159*
%TO.C,D163*%
X201211392Y-204330865D03*
D160*
X199571212Y-205871096D03*
%TD*%
D161*
%TO.C,D118*%
X28004073Y-73102478D03*
D162*
X29088019Y-71130788D03*
%TD*%
D163*
%TO.C,D110*%
X65003642Y-32793711D03*
D164*
X66903380Y-31588101D03*
%TD*%
D165*
%TO.C,D108*%
X77033243Y-26001248D03*
D166*
X79069104Y-25043245D03*
%TD*%
D167*
%TO.C,D177*%
X234704452Y-116845509D03*
D168*
X234845731Y-119091069D03*
%TD*%
D169*
%TO.C,D102*%
X116845509Y-15295547D03*
D170*
X119091069Y-15154268D03*
%TD*%
D171*
%TO.C,D199*%
X137546512Y-15710715D03*
D172*
X139778770Y-15992715D03*
%TD*%
D173*
%TO.C,D159*%
X179088287Y-220791542D03*
D174*
X177116597Y-221875488D03*
%TD*%
D25*
%TO.C,D234*%
X246250000Y-5000000D03*
D26*
X244000000Y-5000000D03*
%TD*%
D175*
%TO.C,D106*%
X89819309Y-20770054D03*
D176*
X91959187Y-20074766D03*
%TD*%
D177*
%TO.C,D111*%
X59332351Y-36742862D03*
D178*
X61152639Y-35420345D03*
%TD*%
D179*
%TO.C,D127*%
X15295547Y-133154490D03*
D180*
X15154268Y-130908930D03*
%TD*%
D181*
%TO.C,D128*%
X16024049Y-140026798D03*
D182*
X15742049Y-137794540D03*
%TD*%
D183*
%TO.C,D149*%
X112453487Y-234289284D03*
D184*
X110221229Y-234007284D03*
%TD*%
D185*
%TO.C,D170*%
X227735569Y-164331479D03*
D186*
X226907288Y-166423476D03*
%TD*%
D25*
%TO.C,D151*%
X126249999Y-235000000D03*
D26*
X123999999Y-235000000D03*
%TD*%
D25*
%TO.C,D219*%
X82250000Y-48000000D03*
D26*
X80000000Y-48000000D03*
%TD*%
D187*
%TO.C,D154*%
X146839803Y-232817370D03*
D188*
X144629657Y-233238978D03*
%TD*%
D189*
%TO.C,D124*%
X15710715Y-112453487D03*
D190*
X15992715Y-110221229D03*
%TD*%
D25*
%TO.C,D226*%
X138250000Y-48000000D03*
D26*
X136000000Y-48000000D03*
%TD*%
D191*
%TO.C,D186*%
X213257137Y-59332351D03*
D192*
X214579654Y-61152639D03*
%TD*%
D193*
%TO.C,D157*%
X166655921Y-226815257D03*
D194*
X164563924Y-227643538D03*
%TD*%
D195*
%TO.C,D189*%
X199388970Y-43957766D03*
D196*
X201029150Y-45497997D03*
%TD*%
D197*
%TO.C,D132*%
X23184742Y-166655921D03*
D198*
X22356461Y-164563924D03*
%TD*%
D25*
%TO.C,D218*%
X74250000Y-48000000D03*
D26*
X72000000Y-48000000D03*
%TD*%
D199*
%TO.C,D182*%
X226815257Y-83344078D03*
D200*
X227643538Y-85436075D03*
%TD*%
D201*
%TO.C,D125*%
X15138571Y-119340575D03*
D202*
X15279850Y-117095015D03*
%TD*%
D203*
%TO.C,D198*%
X144384085Y-16714175D03*
D204*
X146594231Y-17135783D03*
%TD*%
D205*
%TO.C,D104*%
X103160196Y-17182629D03*
D206*
X105370342Y-16761021D03*
%TD*%
D207*
%TO.C,D19*%
X21519690Y-74813864D03*
X20370086Y-77256898D03*
%TD*%
D208*
%TO.C,D64*%
X207907253Y-204707025D03*
X209755531Y-202738809D03*
%TD*%
D209*
%TO.C,C5*%
X106700000Y-28030000D03*
X106700000Y-27070000D03*
%TD*%
D210*
%TO.C,D68*%
X225124901Y-181584686D03*
X226425635Y-179218658D03*
%TD*%
D211*
%TO.C,D4*%
X104777236Y-11784001D03*
X102125060Y-12289931D03*
%TD*%
D212*
%TO.C,D37*%
X35530455Y-197263565D03*
X37251499Y-199343951D03*
%TD*%
D213*
%TO.C,D206*%
X103650000Y-53000000D03*
X106350000Y-53000000D03*
%TD*%
D214*
%TO.C,D57*%
X166079125Y-232421263D03*
X168589521Y-231427327D03*
%TD*%
D215*
%TO.C,D86*%
X218830464Y-58496868D03*
X217243444Y-56312522D03*
%TD*%
D216*
%TO.C,D54*%
X145222763Y-238215998D03*
X147874939Y-237710068D03*
%TD*%
D217*
%TO.C,D31*%
X15211327Y-159253028D03*
X16045673Y-161820880D03*
%TD*%
D218*
%TO.C,R9*%
X75825000Y-208500000D03*
X74175000Y-208500000D03*
%TD*%
D213*
%TO.C,D51*%
X123649999Y-240000000D03*
X126349999Y-240000000D03*
%TD*%
%TO.C,D201*%
X63650000Y-53000000D03*
X66350000Y-53000000D03*
%TD*%
D219*
%TO.C,D11*%
X58496868Y-31169535D03*
X56312522Y-32756555D03*
%TD*%
D220*
%TO.C,R3*%
X52490000Y-139000000D03*
X53510000Y-139000000D03*
%TD*%
D213*
%TO.C,D240*%
X18650000Y-230000000D03*
X21350000Y-230000000D03*
%TD*%
D221*
%TO.C,U8*%
X171475000Y-36525000D03*
X172525000Y-36525000D03*
X171475000Y-35475000D03*
X172525000Y-35475000D03*
D222*
X170750000Y-37937500D03*
X171250000Y-37937500D03*
X171750000Y-37937500D03*
X172250000Y-37937500D03*
X172750000Y-37937500D03*
X173250000Y-37937500D03*
D223*
X173937500Y-37250000D03*
X173937500Y-36750000D03*
X173937500Y-36250000D03*
X173937500Y-35750000D03*
X173937500Y-35250000D03*
X173937500Y-34750000D03*
D222*
X173250000Y-34062500D03*
X172750000Y-34062500D03*
X172250000Y-34062500D03*
X171750000Y-34062500D03*
X171250000Y-34062500D03*
X170750000Y-34062500D03*
D223*
X170062500Y-34750000D03*
X170062500Y-35250000D03*
X170062500Y-35750000D03*
X170062500Y-36250000D03*
X170062500Y-36750000D03*
X170062500Y-37250000D03*
%TD*%
D224*
%TO.C,D39*%
X45292974Y-207907253D03*
X47261190Y-209755531D03*
%TD*%
D225*
%TO.C,D18*%
X24875098Y-68415313D03*
X23574364Y-70781341D03*
%TD*%
D226*
%TO.C,R7*%
X79000000Y-41325000D03*
X79000000Y-39675000D03*
%TD*%
D213*
%TO.C,D214*%
X167650000Y-53000000D03*
X170350000Y-53000000D03*
%TD*%
D227*
%TO.C,D2*%
X119126426Y-10142159D03*
X116431754Y-10311693D03*
%TD*%
D228*
%TO.C,D8*%
X77256898Y-20370086D03*
X74813864Y-21519690D03*
%TD*%
D10*
%TO.C,R22*%
X55500000Y-132990000D03*
X55500000Y-134010000D03*
%TD*%
D229*
%TO.C,C2*%
X58500000Y-140020000D03*
X58500000Y-140980000D03*
%TD*%
D230*
%TO.C,D90*%
X199343951Y-37251499D03*
X197263565Y-35530455D03*
%TD*%
D213*
%TO.C,D238*%
X228650000Y-20000000D03*
X231350000Y-20000000D03*
%TD*%
D231*
%TO.C,U4*%
X26525000Y-119975000D03*
X25475000Y-119975000D03*
X26525000Y-121025000D03*
X25475000Y-121025000D03*
D232*
X27250000Y-118562500D03*
X26750000Y-118562500D03*
X26250000Y-118562500D03*
X25750000Y-118562500D03*
X25250000Y-118562500D03*
X24750000Y-118562500D03*
D233*
X24062500Y-119250000D03*
X24062500Y-119750000D03*
X24062500Y-120250000D03*
X24062500Y-120750000D03*
X24062500Y-121250000D03*
X24062500Y-121750000D03*
D232*
X24750000Y-122437500D03*
X25250000Y-122437500D03*
X25750000Y-122437500D03*
X26250000Y-122437500D03*
X26750000Y-122437500D03*
X27250000Y-122437500D03*
D233*
X27937500Y-121750000D03*
X27937500Y-121250000D03*
X27937500Y-120750000D03*
X27937500Y-120250000D03*
X27937500Y-119750000D03*
X27937500Y-119250000D03*
%TD*%
D234*
%TO.C,U3*%
X80525000Y-36525000D03*
X80525000Y-35475000D03*
X79475000Y-36525000D03*
X79475000Y-35475000D03*
D235*
X81937500Y-37250000D03*
X81937500Y-36750000D03*
X81937500Y-36250000D03*
X81937500Y-35750000D03*
X81937500Y-35250000D03*
X81937500Y-34750000D03*
D236*
X81250000Y-34062500D03*
X80750000Y-34062500D03*
X80250000Y-34062500D03*
X79750000Y-34062500D03*
X79250000Y-34062500D03*
X78750000Y-34062500D03*
D235*
X78062500Y-34750000D03*
X78062500Y-35250000D03*
X78062500Y-35750000D03*
X78062500Y-36250000D03*
X78062500Y-36750000D03*
X78062500Y-37250000D03*
D236*
X78750000Y-37937500D03*
X79250000Y-37937500D03*
X79750000Y-37937500D03*
X80250000Y-37937500D03*
X80750000Y-37937500D03*
X81250000Y-37937500D03*
%TD*%
D237*
%TO.C,D62*%
X197263565Y-214469544D03*
X199343951Y-212748500D03*
%TD*%
D238*
%TO.C,D49*%
X109247323Y-238923990D03*
X111926033Y-239262390D03*
%TD*%
D239*
%TO.C,D21*%
X16045673Y-88179119D03*
X15211327Y-90746971D03*
%TD*%
D240*
%TO.C,D9*%
X70781341Y-23574364D03*
X68415313Y-24875098D03*
%TD*%
D241*
%TO.C,C10*%
X75480000Y-207000000D03*
X74520000Y-207000000D03*
%TD*%
D242*
%TO.C,D71*%
X233954326Y-161820880D03*
X234788672Y-159253028D03*
%TD*%
D213*
%TO.C,D204*%
X87650000Y-53000000D03*
X90350000Y-53000000D03*
%TD*%
D243*
%TO.C,D20*%
X18572672Y-81410478D03*
X17578736Y-83920874D03*
%TD*%
D244*
%TO.C,D60*%
X185480238Y-222821077D03*
X187759924Y-221374345D03*
%TD*%
D245*
%TO.C,D45*%
X81410478Y-231427327D03*
X83920874Y-232421263D03*
%TD*%
D246*
%TO.C,D69*%
X228480309Y-175186135D03*
X229629913Y-172743101D03*
%TD*%
D247*
%TO.C,D12*%
X52736434Y-35530455D03*
X50656048Y-37251499D03*
%TD*%
D248*
%TO.C,D3*%
X111926033Y-10737609D03*
X109247323Y-11076009D03*
%TD*%
D249*
%TO.C,D27*%
X10142159Y-130873573D03*
X10311693Y-133568245D03*
%TD*%
D250*
%TO.C,D85*%
X222821077Y-64519761D03*
X221374345Y-62240075D03*
%TD*%
D234*
%TO.C,U9*%
X135525000Y-25525000D03*
X135525000Y-24475000D03*
X134475000Y-25525000D03*
X134475000Y-24475000D03*
D235*
X136937500Y-26250000D03*
X136937500Y-25750000D03*
X136937500Y-25250000D03*
X136937500Y-24750000D03*
X136937500Y-24250000D03*
X136937500Y-23750000D03*
D236*
X136250000Y-23062500D03*
X135750000Y-23062500D03*
X135250000Y-23062500D03*
X134750000Y-23062500D03*
X134250000Y-23062500D03*
X133750000Y-23062500D03*
D235*
X133062500Y-23750000D03*
X133062500Y-24250000D03*
X133062500Y-24750000D03*
X133062500Y-25250000D03*
X133062500Y-25750000D03*
X133062500Y-26250000D03*
D236*
X133750000Y-26937500D03*
X134250000Y-26937500D03*
X134750000Y-26937500D03*
X135250000Y-26937500D03*
X135750000Y-26937500D03*
X136250000Y-26937500D03*
%TD*%
D251*
%TO.C,C12*%
X218020000Y-148000000D03*
X218980000Y-148000000D03*
%TD*%
D252*
%TO.C,D22*%
X13948667Y-95093075D03*
X13277205Y-97708249D03*
%TD*%
D253*
%TO.C,D82*%
X232421263Y-83920874D03*
X231427327Y-81410478D03*
%TD*%
D229*
%TO.C,C11*%
X160500000Y-213520000D03*
X160500000Y-214480000D03*
%TD*%
D241*
%TO.C,C15*%
X126230000Y-36500000D03*
X125270000Y-36500000D03*
%TD*%
D254*
%TO.C,U1*%
X56080000Y-137420000D03*
X56920000Y-137420000D03*
X56080000Y-136580000D03*
X56920000Y-136580000D03*
D255*
X55750000Y-138462500D03*
X56250000Y-138462500D03*
X56750000Y-138462500D03*
X57250000Y-138462500D03*
D256*
X57962500Y-137750000D03*
X57962500Y-137250000D03*
X57962500Y-136750000D03*
X57962500Y-136250000D03*
D255*
X57250000Y-135537500D03*
X56750000Y-135537500D03*
X56250000Y-135537500D03*
X55750000Y-135537500D03*
D256*
X55037500Y-136250000D03*
X55037500Y-136750000D03*
X55037500Y-137250000D03*
X55037500Y-137750000D03*
%TD*%
D257*
%TO.C,D80*%
X236722794Y-97708249D03*
X236051332Y-95093075D03*
%TD*%
D213*
%TO.C,D237*%
X18650000Y-20000000D03*
X21350000Y-20000000D03*
%TD*%
D258*
%TO.C,D79*%
X238215998Y-104777236D03*
X237710068Y-102125060D03*
%TD*%
D229*
%TO.C,C14*%
X135200000Y-28720000D03*
X135200000Y-29680000D03*
%TD*%
D259*
%TO.C,D42*%
X62240075Y-221374345D03*
X64519761Y-222821077D03*
%TD*%
D260*
%TO.C,D67*%
X221374345Y-187759924D03*
X222821077Y-185480238D03*
%TD*%
D226*
%TO.C,R13*%
X133800000Y-30625000D03*
X133800000Y-28975000D03*
%TD*%
D261*
%TO.C,D93*%
X181584686Y-24875098D03*
X179218658Y-23574364D03*
%TD*%
D262*
%TO.C,D24*%
X11076009Y-109247323D03*
X10737609Y-111926033D03*
%TD*%
D263*
%TO.C,R17*%
X209510000Y-172500000D03*
X208490000Y-172500000D03*
%TD*%
D213*
%TO.C,D213*%
X159650000Y-53000000D03*
X162350000Y-53000000D03*
%TD*%
D220*
%TO.C,R6*%
X59990000Y-131000000D03*
X61010000Y-131000000D03*
%TD*%
D264*
%TO.C,D95*%
X168589521Y-18572672D03*
X166079125Y-17578736D03*
%TD*%
D265*
%TO.C,R10*%
X162000000Y-212675000D03*
X162000000Y-214325000D03*
%TD*%
D266*
%TO.C,D34*%
X23574364Y-179218658D03*
X24875098Y-181584686D03*
%TD*%
D213*
%TO.C,D205*%
X95650000Y-53000000D03*
X98350000Y-53000000D03*
%TD*%
D267*
%TO.C,D74*%
X238923990Y-140752676D03*
X239262390Y-138073966D03*
%TD*%
D213*
%TO.C,D207*%
X111650000Y-53000000D03*
X114350000Y-53000000D03*
%TD*%
%TO.C,D239*%
X228650000Y-230000000D03*
X231350000Y-230000000D03*
%TD*%
D268*
%TO.C,D15*%
X37251499Y-50656048D03*
X35530455Y-52736434D03*
%TD*%
D269*
%TO.C,D6*%
X90746971Y-15211327D03*
X88179119Y-16045673D03*
%TD*%
D213*
%TO.C,D210*%
X135650000Y-53000000D03*
X138350000Y-53000000D03*
%TD*%
D270*
%TO.C,U6*%
X159475000Y-217975000D03*
X159475000Y-219025000D03*
X160525000Y-217975000D03*
X160525000Y-219025000D03*
D271*
X158062500Y-217250000D03*
X158062500Y-217750000D03*
X158062500Y-218250000D03*
X158062500Y-218750000D03*
X158062500Y-219250000D03*
X158062500Y-219750000D03*
D272*
X158750000Y-220437500D03*
X159250000Y-220437500D03*
X159750000Y-220437500D03*
X160250000Y-220437500D03*
X160750000Y-220437500D03*
X161250000Y-220437500D03*
D271*
X161937500Y-219750000D03*
X161937500Y-219250000D03*
X161937500Y-218750000D03*
X161937500Y-218250000D03*
X161937500Y-217750000D03*
X161937500Y-217250000D03*
D272*
X161250000Y-216562500D03*
X160750000Y-216562500D03*
X160250000Y-216562500D03*
X159750000Y-216562500D03*
X159250000Y-216562500D03*
X158750000Y-216562500D03*
%TD*%
D221*
%TO.C,U7*%
X221975000Y-148025000D03*
X223025000Y-148025000D03*
X221975000Y-146975000D03*
X223025000Y-146975000D03*
D222*
X221250000Y-149437500D03*
X221750000Y-149437500D03*
X222250000Y-149437500D03*
X222750000Y-149437500D03*
X223250000Y-149437500D03*
X223750000Y-149437500D03*
D223*
X224437500Y-148750000D03*
X224437500Y-148250000D03*
X224437500Y-147750000D03*
X224437500Y-147250000D03*
X224437500Y-146750000D03*
X224437500Y-146250000D03*
D222*
X223750000Y-145562500D03*
X223250000Y-145562500D03*
X222750000Y-145562500D03*
X222250000Y-145562500D03*
X221750000Y-145562500D03*
X221250000Y-145562500D03*
D223*
X220562500Y-146250000D03*
X220562500Y-146750000D03*
X220562500Y-147250000D03*
X220562500Y-147750000D03*
X220562500Y-148250000D03*
X220562500Y-148750000D03*
%TD*%
D273*
%TO.C,D35*%
X27178922Y-185480238D03*
X28625654Y-187759924D03*
%TD*%
D274*
%TO.C,D52*%
X130873573Y-239857840D03*
X133568245Y-239688306D03*
%TD*%
D275*
%TO.C,D26*%
X10000000Y-123650000D03*
X10000000Y-126350000D03*
%TD*%
D276*
%TO.C,U2*%
X109410000Y-31590000D03*
X108590000Y-31590000D03*
X109410000Y-32410000D03*
X108590000Y-32410000D03*
D277*
X109800000Y-30550000D03*
X109400000Y-30550000D03*
X109000000Y-30550000D03*
X108600000Y-30550000D03*
X108200000Y-30550000D03*
D278*
X107550000Y-31200000D03*
X107550000Y-31600000D03*
X107550000Y-32000000D03*
X107550000Y-32400000D03*
X107550000Y-32800000D03*
D277*
X108200000Y-33450000D03*
X108600000Y-33450000D03*
X109000000Y-33450000D03*
X109400000Y-33450000D03*
X109800000Y-33450000D03*
D278*
X110450000Y-32800000D03*
X110450000Y-32400000D03*
X110450000Y-32000000D03*
X110450000Y-31600000D03*
X110450000Y-31200000D03*
%TD*%
D213*
%TO.C,D208*%
X119650000Y-53000000D03*
X122350000Y-53000000D03*
%TD*%
D279*
%TO.C,D81*%
X234788672Y-90746971D03*
X233954326Y-88179119D03*
%TD*%
D280*
%TO.C,D72*%
X236051332Y-154906924D03*
X236722794Y-152291750D03*
%TD*%
D281*
%TO.C,D75*%
X239688306Y-133568245D03*
X239857840Y-130873573D03*
%TD*%
D282*
%TO.C,D58*%
X172743101Y-229629913D03*
X175186135Y-228480309D03*
%TD*%
D283*
%TO.C,D23*%
X12289931Y-102125060D03*
X11784001Y-104777236D03*
%TD*%
D263*
%TO.C,R18*%
X43010000Y-178000000D03*
X41990000Y-178000000D03*
%TD*%
D284*
%TO.C,D98*%
X147874939Y-12289931D03*
X145222763Y-11784001D03*
%TD*%
D285*
%TO.C,D61*%
X191503131Y-218830464D03*
X193687477Y-217243444D03*
%TD*%
D241*
%TO.C,C18*%
X105480000Y-32550000D03*
X104520000Y-32550000D03*
%TD*%
D286*
%TO.C,D92*%
X187759924Y-28625654D03*
X185480238Y-27178922D03*
%TD*%
D287*
%TO.C,U11*%
X41725000Y-77100000D03*
X41725000Y-78050000D03*
X41725000Y-79000000D03*
X44000000Y-79000000D03*
X44000000Y-78050000D03*
X44000000Y-77100000D03*
%TD*%
D213*
%TO.C,D215*%
X175650000Y-53000000D03*
X178350000Y-53000000D03*
%TD*%
%TO.C,D202*%
X71650000Y-53000000D03*
X74350000Y-53000000D03*
%TD*%
D288*
%TO.C,D14*%
X42092746Y-45292974D03*
X40244468Y-47261190D03*
%TD*%
D287*
%TO.C,U12*%
X202862500Y-73050000D03*
X202862500Y-74000000D03*
X202862500Y-74950000D03*
X205137500Y-74950000D03*
X205137500Y-74000000D03*
X205137500Y-73050000D03*
%TD*%
D10*
%TO.C,R1*%
X45500000Y-119990000D03*
X45500000Y-121010000D03*
%TD*%
D213*
%TO.C,D1*%
X126350000Y-10000000D03*
X123650000Y-10000000D03*
%TD*%
D289*
%TO.C,D5*%
X97708249Y-13277205D03*
X95093075Y-13948667D03*
%TD*%
D290*
%TO.C,D33*%
X20370086Y-172743101D03*
X21519690Y-175186135D03*
%TD*%
D251*
%TO.C,C7*%
X112020000Y-30000000D03*
X112980000Y-30000000D03*
%TD*%
D220*
%TO.C,R5*%
X59990000Y-132000000D03*
X61010000Y-132000000D03*
%TD*%
D213*
%TO.C,D203*%
X79650000Y-53000000D03*
X82350000Y-53000000D03*
%TD*%
%TO.C,D211*%
X143650000Y-53000000D03*
X146350000Y-53000000D03*
%TD*%
D291*
%TO.C,R11*%
X217175000Y-146500000D03*
X218825000Y-146500000D03*
%TD*%
D292*
%TO.C,D32*%
X17578736Y-166079125D03*
X18572672Y-168589521D03*
%TD*%
D229*
%TO.C,C6*%
X111500000Y-27070000D03*
X111500000Y-28030000D03*
%TD*%
D293*
%TO.C,D17*%
X28625654Y-62240075D03*
X27178922Y-64519761D03*
%TD*%
D251*
%TO.C,C13*%
X165420000Y-35800000D03*
X166380000Y-35800000D03*
%TD*%
D294*
%TO.C,D50*%
X116431754Y-239688306D03*
X119126426Y-239857840D03*
%TD*%
D295*
%TO.C,D30*%
X13277205Y-152291750D03*
X13948667Y-154906924D03*
%TD*%
D296*
%TO.C,R23*%
X54500000Y-141010000D03*
X54500000Y-139990000D03*
%TD*%
D263*
%TO.C,R16*%
X205010000Y-71500000D03*
X203990000Y-71500000D03*
%TD*%
D297*
%TO.C,D40*%
X50656048Y-212748500D03*
X52736434Y-214469544D03*
%TD*%
D298*
%TO.C,D88*%
X209755531Y-47261190D03*
X207907253Y-45292974D03*
%TD*%
D231*
%TO.C,U5*%
X70525000Y-207475000D03*
X69475000Y-207475000D03*
X70525000Y-208525000D03*
X69475000Y-208525000D03*
D232*
X71250000Y-206062500D03*
X70750000Y-206062500D03*
X70250000Y-206062500D03*
X69750000Y-206062500D03*
X69250000Y-206062500D03*
X68750000Y-206062500D03*
D233*
X68062500Y-206750000D03*
X68062500Y-207250000D03*
X68062500Y-207750000D03*
X68062500Y-208250000D03*
X68062500Y-208750000D03*
X68062500Y-209250000D03*
D232*
X68750000Y-209937500D03*
X69250000Y-209937500D03*
X69750000Y-209937500D03*
X70250000Y-209937500D03*
X70750000Y-209937500D03*
X71250000Y-209937500D03*
D233*
X71937500Y-209250000D03*
X71937500Y-208750000D03*
X71937500Y-208250000D03*
X71937500Y-207750000D03*
X71937500Y-207250000D03*
X71937500Y-206750000D03*
%TD*%
D299*
%TO.C,D97*%
X154906924Y-13948667D03*
X152291750Y-13277205D03*
%TD*%
D209*
%TO.C,C8*%
X80500000Y-40480000D03*
X80500000Y-39520000D03*
%TD*%
D300*
%TO.C,D59*%
X179218658Y-226425635D03*
X181584686Y-225124901D03*
%TD*%
D263*
%TO.C,R15*%
X44010000Y-75500000D03*
X42990000Y-75500000D03*
%TD*%
D301*
%TO.C,D94*%
X175186135Y-21519690D03*
X172743101Y-20370086D03*
%TD*%
D302*
%TO.C,D16*%
X32756555Y-56312522D03*
X31169535Y-58496868D03*
%TD*%
D303*
%TO.C,D77*%
X239857840Y-119126426D03*
X239688306Y-116431754D03*
%TD*%
D304*
%TO.C,D66*%
X217243444Y-193687477D03*
X218830464Y-191503131D03*
%TD*%
D305*
%TO.C,D7*%
X83920874Y-17578736D03*
X81410478Y-18572672D03*
%TD*%
D306*
%TO.C,D70*%
X231427327Y-168589521D03*
X232421263Y-166079125D03*
%TD*%
D307*
%TO.C,D36*%
X31169535Y-191503131D03*
X32756555Y-193687477D03*
%TD*%
D308*
%TO.C,D55*%
X152291750Y-236722794D03*
X154906924Y-236051332D03*
%TD*%
D309*
%TO.C,Y1*%
X109875000Y-26850000D03*
X108125000Y-26850000D03*
X108125000Y-28250000D03*
X109875000Y-28250000D03*
%TD*%
D310*
%TO.C,D73*%
X237710068Y-147874939D03*
X238215998Y-145222763D03*
%TD*%
D311*
%TO.C,D91*%
X193687477Y-32756555D03*
X191503131Y-31169535D03*
%TD*%
D312*
%TO.C,U14*%
X43000000Y-174000000D03*
X42050000Y-174000000D03*
X41100000Y-174000000D03*
X41100000Y-176275000D03*
X42050000Y-176275000D03*
X43000000Y-176275000D03*
%TD*%
D313*
%TO.C,D38*%
X40244468Y-202738809D03*
X42092746Y-204707025D03*
%TD*%
D314*
%TO.C,D63*%
X202738809Y-209755531D03*
X204707025Y-207907253D03*
%TD*%
D315*
%TO.C,D100*%
X133568245Y-10311693D03*
X130873573Y-10142159D03*
%TD*%
D316*
%TO.C,D99*%
X140752676Y-11076009D03*
X138073966Y-10737609D03*
%TD*%
D317*
%TO.C,D56*%
X159253028Y-234788672D03*
X161820880Y-233954326D03*
%TD*%
D10*
%TO.C,R2*%
X47500000Y-119990000D03*
X47500000Y-121010000D03*
%TD*%
D318*
%TO.C,D96*%
X161820880Y-16045673D03*
X159253028Y-15211327D03*
%TD*%
D319*
%TO.C,D87*%
X214469544Y-52736434D03*
X212748500Y-50656048D03*
%TD*%
D270*
%TO.C,U10*%
X124475000Y-39475000D03*
X124475000Y-40525000D03*
X125525000Y-39475000D03*
X125525000Y-40525000D03*
D271*
X123062500Y-38750000D03*
X123062500Y-39250000D03*
X123062500Y-39750000D03*
X123062500Y-40250000D03*
X123062500Y-40750000D03*
X123062500Y-41250000D03*
D272*
X123750000Y-41937500D03*
X124250000Y-41937500D03*
X124750000Y-41937500D03*
X125250000Y-41937500D03*
X125750000Y-41937500D03*
X126250000Y-41937500D03*
D271*
X126937500Y-41250000D03*
X126937500Y-40750000D03*
X126937500Y-40250000D03*
X126937500Y-39750000D03*
X126937500Y-39250000D03*
X126937500Y-38750000D03*
D272*
X126250000Y-38062500D03*
X125750000Y-38062500D03*
X125250000Y-38062500D03*
X124750000Y-38062500D03*
X124250000Y-38062500D03*
X123750000Y-38062500D03*
%TD*%
D320*
%TO.C,D29*%
X11784001Y-145222763D03*
X12289931Y-147874939D03*
%TD*%
D321*
%TO.C,D78*%
X239262390Y-111926033D03*
X238923990Y-109247323D03*
%TD*%
D10*
%TO.C,R4*%
X55500000Y-139990000D03*
X55500000Y-141010000D03*
%TD*%
D322*
%TO.C,D83*%
X229629913Y-77256898D03*
X228480309Y-74813864D03*
%TD*%
D323*
%TO.C,D43*%
X68415313Y-225124901D03*
X70781341Y-226425635D03*
%TD*%
D209*
%TO.C,C1*%
X54500000Y-133980000D03*
X54500000Y-133020000D03*
%TD*%
D324*
%TO.C,D25*%
X10311693Y-116431754D03*
X10142159Y-119126426D03*
%TD*%
D218*
%TO.C,R14*%
X130175000Y-37700000D03*
X128525000Y-37700000D03*
%TD*%
D325*
%TO.C,D28*%
X10737609Y-138073966D03*
X11076009Y-140752676D03*
%TD*%
D326*
%TO.C,D47*%
X95093075Y-236051332D03*
X97708249Y-236722794D03*
%TD*%
D229*
%TO.C,C9*%
X30000000Y-120020000D03*
X30000000Y-120980000D03*
%TD*%
D213*
%TO.C,D216*%
X183650000Y-53000000D03*
X186350000Y-53000000D03*
%TD*%
D287*
%TO.C,U13*%
X207000000Y-174000000D03*
X207000000Y-174950000D03*
X207000000Y-175900000D03*
X209275000Y-175900000D03*
X209275000Y-174950000D03*
X209275000Y-174000000D03*
%TD*%
D291*
%TO.C,R12*%
X165675000Y-34500000D03*
X167325000Y-34500000D03*
%TD*%
D327*
%TO.C,D53*%
X138073966Y-239262390D03*
X140752676Y-238923990D03*
%TD*%
D328*
%TO.C,D48*%
X102125060Y-237710068D03*
X104777236Y-238215998D03*
%TD*%
D329*
%TO.C,D41*%
X56312522Y-217243444D03*
X58496868Y-218830464D03*
%TD*%
D330*
%TO.C,D84*%
X226425635Y-70781341D03*
X225124901Y-68415313D03*
%TD*%
D331*
%TO.C,D10*%
X64519761Y-27178922D03*
X62240075Y-28625654D03*
%TD*%
D332*
%TO.C,D65*%
X212748500Y-199343951D03*
X214469544Y-197263565D03*
%TD*%
D333*
%TO.C,D44*%
X74813864Y-228480309D03*
X77256898Y-229629913D03*
%TD*%
D241*
%TO.C,C4*%
X106480000Y-29050000D03*
X105520000Y-29050000D03*
%TD*%
D229*
%TO.C,C3*%
X57500000Y-140020000D03*
X57500000Y-140980000D03*
%TD*%
D226*
%TO.C,R8*%
X30000000Y-123825000D03*
X30000000Y-122175000D03*
%TD*%
D213*
%TO.C,D209*%
X127650000Y-53000000D03*
X130350000Y-53000000D03*
%TD*%
D334*
%TO.C,D46*%
X88179119Y-233954326D03*
X90746971Y-234788672D03*
%TD*%
D275*
%TO.C,D76*%
X240000000Y-126350000D03*
X240000000Y-123650000D03*
%TD*%
D335*
%TO.C,D13*%
X47261190Y-40244468D03*
X45292974Y-42092746D03*
%TD*%
D213*
%TO.C,D212*%
X151650000Y-53000000D03*
X154350000Y-53000000D03*
%TD*%
D336*
%TO.C,D89*%
X204707025Y-42092746D03*
X202738809Y-40244468D03*
%TD*%
M02*
