%TF.GenerationSoftware,KiCad,Pcbnew,8.0.4*%
%TF.CreationDate,2024-08-19T15:11:55+02:00*%
%TF.ProjectId,RocSync_testing,526f6353-796e-4635-9f74-657374696e67,rev?*%
%TF.SameCoordinates,Original*%
%TF.FileFunction,Soldermask,Bot*%
%TF.FilePolarity,Negative*%
%FSLAX46Y46*%
G04 Gerber Fmt 4.6, Leading zero omitted, Abs format (unit mm)*
G04 Created by KiCad (PCBNEW 8.0.4) date 2024-08-19 15:11:55*
%MOMM*%
%LPD*%
G01*
G04 APERTURE LIST*
G04 Aperture macros list*
%AMRoundRect*
0 Rectangle with rounded corners*
0 $1 Rounding radius*
0 $2 $3 $4 $5 $6 $7 $8 $9 X,Y pos of 4 corners*
0 Add a 4 corners polygon primitive as box body*
4,1,4,$2,$3,$4,$5,$6,$7,$8,$9,$2,$3,0*
0 Add four circle primitives for the rounded corners*
1,1,$1+$1,$2,$3*
1,1,$1+$1,$4,$5*
1,1,$1+$1,$6,$7*
1,1,$1+$1,$8,$9*
0 Add four rect primitives between the rounded corners*
20,1,$1+$1,$2,$3,$4,$5,0*
20,1,$1+$1,$4,$5,$6,$7,0*
20,1,$1+$1,$6,$7,$8,$9,0*
20,1,$1+$1,$8,$9,$2,$3,0*%
%AMFreePoly0*
4,1,19,0.500000,-0.750000,0.000000,-0.750000,0.000000,-0.744911,-0.071157,-0.744911,-0.207708,-0.704816,-0.327430,-0.627875,-0.420627,-0.520320,-0.479746,-0.390866,-0.500000,-0.250000,-0.500000,0.250000,-0.479746,0.390866,-0.420627,0.520320,-0.327430,0.627875,-0.207708,0.704816,-0.071157,0.744911,0.000000,0.744911,0.000000,0.750000,0.500000,0.750000,0.500000,-0.750000,0.500000,-0.750000,
$1*%
%AMFreePoly1*
4,1,19,0.000000,0.744911,0.071157,0.744911,0.207708,0.704816,0.327430,0.627875,0.420627,0.520320,0.479746,0.390866,0.500000,0.250000,0.500000,-0.250000,0.479746,-0.390866,0.420627,-0.520320,0.327430,-0.627875,0.207708,-0.704816,0.071157,-0.744911,0.000000,-0.744911,0.000000,-0.750000,-0.500000,-0.750000,-0.500000,0.750000,0.000000,0.750000,0.000000,0.744911,0.000000,0.744911,
$1*%
G04 Aperture macros list end*
%ADD10RoundRect,0.218750X0.218750X0.256250X-0.218750X0.256250X-0.218750X-0.256250X0.218750X-0.256250X0*%
%ADD11C,3.200000*%
%ADD12R,1.550000X1.300000*%
%ADD13R,1.700000X1.700000*%
%ADD14O,1.700000X1.700000*%
%ADD15FreePoly0,180.000000*%
%ADD16FreePoly1,180.000000*%
%ADD17C,0.660000*%
%ADD18O,1.000000X0.580000*%
%ADD19R,0.300000X0.850000*%
%ADD20C,1.100000*%
%ADD21RoundRect,0.250000X-0.450000X0.450000X-0.450000X-0.450000X0.450000X-0.450000X0.450000X0.450000X0*%
%ADD22C,1.400000*%
%ADD23RoundRect,0.250000X0.350000X0.625000X-0.350000X0.625000X-0.350000X-0.625000X0.350000X-0.625000X0*%
%ADD24O,1.200000X1.750000*%
G04 APERTURE END LIST*
D10*
%TO.C,D243*%
X175787500Y-110000000D03*
X174212500Y-110000000D03*
%TD*%
D11*
%TO.C,H3*%
X190000000Y-190000000D03*
%TD*%
%TO.C,H2*%
X190000000Y-60000000D03*
%TD*%
%TO.C,H1*%
X60000000Y-60000000D03*
%TD*%
%TO.C,H4*%
X60000000Y-190000000D03*
%TD*%
D12*
%TO.C,SW3*%
X178975000Y-112750000D03*
X171025000Y-112750000D03*
X178975000Y-117250000D03*
X171025000Y-117250000D03*
%TD*%
D13*
%TO.C,J3*%
X127525000Y-30000000D03*
D14*
X124985000Y-30000000D03*
X122445000Y-30000000D03*
%TD*%
D15*
%TO.C,JP1*%
X71150000Y-129000000D03*
D16*
X69850000Y-129000000D03*
%TD*%
D17*
%TO.C,J1*%
X50250000Y-125165000D03*
D18*
X42750000Y-125165000D03*
D19*
X49250000Y-124330000D03*
X48750000Y-124330000D03*
X48250000Y-124330000D03*
X47750000Y-124330000D03*
X47250000Y-124330000D03*
X46750000Y-124330000D03*
X46250000Y-124330000D03*
X45750000Y-124330000D03*
X45250000Y-124330000D03*
X44750000Y-124330000D03*
X44250000Y-124330000D03*
X43750000Y-124330000D03*
X43750000Y-126000000D03*
X44250000Y-126000000D03*
X44750000Y-126000000D03*
X45250000Y-126000000D03*
X45750000Y-126000000D03*
X46250000Y-126000000D03*
X46750000Y-126000000D03*
X47250000Y-126000000D03*
X47750000Y-126000000D03*
X48250000Y-126000000D03*
X48750000Y-126000000D03*
X49250000Y-126000000D03*
D20*
X48900000Y-127315000D03*
X48900000Y-123015000D03*
X44100000Y-127315000D03*
X44100000Y-123015000D03*
%TD*%
D10*
%TO.C,D242*%
X71287500Y-121000000D03*
X69712500Y-121000000D03*
%TD*%
D21*
%TO.C,SW1*%
X57857500Y-122500000D03*
D22*
X57857500Y-125000000D03*
X57857500Y-127500000D03*
X61157500Y-127500000D03*
X61157500Y-125000000D03*
X61157500Y-122500000D03*
%TD*%
D23*
%TO.C,J2*%
X60500000Y-147950000D03*
D24*
X58500000Y-147950000D03*
%TD*%
D10*
%TO.C,D241*%
X71287500Y-125000000D03*
X69712500Y-125000000D03*
%TD*%
D12*
%TO.C,SW2*%
X178975000Y-132750000D03*
X171025000Y-132750000D03*
X178975000Y-137250000D03*
X171025000Y-137250000D03*
%TD*%
M02*
