%TF.GenerationSoftware,KiCad,Pcbnew,9.0.6*%
%TF.CreationDate,2025-12-09T15:20:41-08:00*%
%TF.ProjectId,RocSync_testing,526f6353-796e-4635-9f74-657374696e67,rev?*%
%TF.SameCoordinates,Original*%
%TF.FileFunction,Soldermask,Top*%
%TF.FilePolarity,Negative*%
%FSLAX46Y46*%
G04 Gerber Fmt 4.6, Leading zero omitted, Abs format (unit mm)*
G04 Created by KiCad (PCBNEW 9.0.6) date 2025-12-09 15:20:41*
%MOMM*%
%LPD*%
G01*
G04 APERTURE LIST*
G04 Aperture macros list*
%AMRoundRect*
0 Rectangle with rounded corners*
0 $1 Rounding radius*
0 $2 $3 $4 $5 $6 $7 $8 $9 X,Y pos of 4 corners*
0 Add a 4 corners polygon primitive as box body*
4,1,4,$2,$3,$4,$5,$6,$7,$8,$9,$2,$3,0*
0 Add four circle primitives for the rounded corners*
1,1,$1+$1,$2,$3*
1,1,$1+$1,$4,$5*
1,1,$1+$1,$6,$7*
1,1,$1+$1,$8,$9*
0 Add four rect primitives between the rounded corners*
20,1,$1+$1,$2,$3,$4,$5,0*
20,1,$1+$1,$4,$5,$6,$7,0*
20,1,$1+$1,$6,$7,$8,$9,0*
20,1,$1+$1,$8,$9,$2,$3,0*%
%AMRotRect*
0 Rectangle, with rotation*
0 The origin of the aperture is its center*
0 $1 length*
0 $2 width*
0 $3 Rotation angle, in degrees counterclockwise*
0 Add horizontal line*
21,1,$1,$2,0,0,$3*%
G04 Aperture macros list end*
%ADD10RoundRect,0.140000X-0.140000X-0.170000X0.140000X-0.170000X0.140000X0.170000X-0.140000X0.170000X0*%
%ADD11C,1.700000*%
%ADD12R,1.700000X1.700000*%
%ADD13R,1.650000X1.650000*%
%ADD14RoundRect,0.050000X-0.375000X0.050000X-0.375000X-0.050000X0.375000X-0.050000X0.375000X0.050000X0*%
%ADD15RoundRect,0.050000X-0.050000X0.375000X-0.050000X-0.375000X0.050000X-0.375000X0.050000X0.375000X0*%
%ADD16RotRect,1.000000X2.400000X244.800000*%
%ADD17R,1.500000X2.200000*%
%ADD18R,2.000000X2.200000*%
%ADD19RotRect,1.000000X2.400000X46.800000*%
%ADD20RotRect,1.000000X2.400000X61.200000*%
%ADD21RotRect,1.000000X2.400000X190.800000*%
%ADD22RotRect,1.000000X2.400000X309.600000*%
%ADD23RotRect,1.500000X2.200000X223.200000*%
%ADD24RotRect,2.000000X2.200000X223.200000*%
%ADD25RotRect,1.500000X2.200000X154.800000*%
%ADD26RotRect,2.000000X2.200000X154.800000*%
%ADD27RotRect,1.000000X2.400000X21.600000*%
%ADD28RoundRect,0.135000X-0.135000X-0.185000X0.135000X-0.185000X0.135000X0.185000X-0.135000X0.185000X0*%
%ADD29R,1.000000X2.400000*%
%ADD30RotRect,1.000000X2.400000X126.000000*%
%ADD31RotRect,1.500000X2.200000X244.800000*%
%ADD32RotRect,2.000000X2.200000X244.800000*%
%ADD33RotRect,1.000000X2.400000X10.800000*%
%ADD34RoundRect,0.150000X-0.512500X-0.150000X0.512500X-0.150000X0.512500X0.150000X-0.512500X0.150000X0*%
%ADD35RotRect,1.500000X2.200000X338.400000*%
%ADD36RotRect,2.000000X2.200000X338.400000*%
%ADD37RotRect,1.000000X2.400000X288.000000*%
%ADD38RoundRect,0.135000X0.135000X0.185000X-0.135000X0.185000X-0.135000X-0.185000X0.135000X-0.185000X0*%
%ADD39RotRect,1.500000X2.200000X14.400000*%
%ADD40RotRect,2.000000X2.200000X14.400000*%
%ADD41R,2.200000X1.500000*%
%ADD42R,2.200000X2.000000*%
%ADD43RotRect,1.000000X2.400000X216.000000*%
%ADD44RoundRect,0.062500X0.062500X-0.375000X0.062500X0.375000X-0.062500X0.375000X-0.062500X-0.375000X0*%
%ADD45RoundRect,0.062500X0.375000X-0.062500X0.375000X0.062500X-0.375000X0.062500X-0.375000X-0.062500X0*%
%ADD46R,2.100000X2.100000*%
%ADD47RotRect,1.000000X2.400000X316.800000*%
%ADD48RotRect,1.500000X2.200000X3.600000*%
%ADD49RotRect,2.000000X2.200000X3.600000*%
%ADD50RotRect,1.000000X2.400000X241.200000*%
%ADD51RoundRect,0.135000X0.185000X-0.135000X0.185000X0.135000X-0.185000X0.135000X-0.185000X-0.135000X0*%
%ADD52RoundRect,0.140000X-0.170000X0.140000X-0.170000X-0.140000X0.170000X-0.140000X0.170000X0.140000X0*%
%ADD53RotRect,1.000000X2.400000X183.600000*%
%ADD54RotRect,1.500000X2.200000X75.600000*%
%ADD55RotRect,2.000000X2.200000X75.600000*%
%ADD56RotRect,1.000000X2.400000X205.200000*%
%ADD57RoundRect,0.135000X-0.185000X0.135000X-0.185000X-0.135000X0.185000X-0.135000X0.185000X0.135000X0*%
%ADD58RotRect,1.000000X2.400000X140.400000*%
%ADD59RoundRect,0.062500X-0.062500X0.375000X-0.062500X-0.375000X0.062500X-0.375000X0.062500X0.375000X0*%
%ADD60RoundRect,0.062500X-0.375000X0.062500X-0.375000X-0.062500X0.375000X-0.062500X0.375000X0.062500X0*%
%ADD61RotRect,1.500000X2.200000X133.200000*%
%ADD62RotRect,2.000000X2.200000X133.200000*%
%ADD63RoundRect,0.062500X0.375000X0.062500X-0.375000X0.062500X-0.375000X-0.062500X0.375000X-0.062500X0*%
%ADD64RoundRect,0.062500X0.062500X0.375000X-0.062500X0.375000X-0.062500X-0.375000X0.062500X-0.375000X0*%
%ADD65RotRect,1.000000X2.400000X39.600000*%
%ADD66RotRect,1.500000X2.200000X280.800000*%
%ADD67RotRect,2.000000X2.200000X280.800000*%
%ADD68RotRect,1.000000X2.400000X352.800000*%
%ADD69RotRect,1.000000X2.400000X252.000000*%
%ADD70RotRect,1.500000X2.200000X158.400000*%
%ADD71RotRect,2.000000X2.200000X158.400000*%
%ADD72RotRect,1.000000X2.400000X208.800000*%
%ADD73RoundRect,0.140000X0.140000X0.170000X-0.140000X0.170000X-0.140000X-0.170000X0.140000X-0.170000X0*%
%ADD74RotRect,1.000000X2.400000X72.000000*%
%ADD75RotRect,1.500000X2.200000X298.800000*%
%ADD76RotRect,2.000000X2.200000X298.800000*%
%ADD77RotRect,1.500000X2.200000X54.000000*%
%ADD78RotRect,2.000000X2.200000X54.000000*%
%ADD79RotRect,1.000000X2.400000X248.400000*%
%ADD80RotRect,1.000000X2.400000X32.400000*%
%ADD81RotRect,1.500000X2.200000X115.200000*%
%ADD82RotRect,2.000000X2.200000X115.200000*%
%ADD83RotRect,1.000000X2.400000X338.400000*%
%ADD84RotRect,1.000000X2.400000X64.800000*%
%ADD85RotRect,1.000000X2.400000X219.600000*%
%ADD86RotRect,1.000000X2.400000X187.200000*%
%ADD87RotRect,1.500000X2.200000X7.200000*%
%ADD88RotRect,2.000000X2.200000X7.200000*%
%ADD89RotRect,1.000000X2.400000X273.600000*%
%ADD90RotRect,1.500000X2.200000X320.400000*%
%ADD91RotRect,2.000000X2.200000X320.400000*%
%ADD92RotRect,1.000000X2.400000X122.400000*%
%ADD93RotRect,1.500000X2.200000X72.000000*%
%ADD94RotRect,2.000000X2.200000X72.000000*%
%ADD95RotRect,1.500000X2.200000X237.600000*%
%ADD96RotRect,2.000000X2.200000X237.600000*%
%ADD97RotRect,1.000000X2.400000X255.600000*%
%ADD98RotRect,1.500000X2.200000X194.400000*%
%ADD99RotRect,2.000000X2.200000X194.400000*%
%ADD100RotRect,1.500000X2.200000X32.400000*%
%ADD101RotRect,2.000000X2.200000X32.400000*%
%ADD102RotRect,1.000000X2.400000X111.600000*%
%ADD103RoundRect,0.062500X0.062500X-0.350000X0.062500X0.350000X-0.062500X0.350000X-0.062500X-0.350000X0*%
%ADD104RoundRect,0.062500X0.350000X-0.062500X0.350000X0.062500X-0.350000X0.062500X-0.350000X-0.062500X0*%
%ADD105R,1.680000X1.680000*%
%ADD106RotRect,1.500000X2.200000X36.000000*%
%ADD107RotRect,2.000000X2.200000X36.000000*%
%ADD108RotRect,1.000000X2.400000X104.400000*%
%ADD109RotRect,1.500000X2.200000X104.400000*%
%ADD110RotRect,2.000000X2.200000X104.400000*%
%ADD111RotRect,1.000000X2.400000X100.800000*%
%ADD112RotRect,1.500000X2.200000X57.600000*%
%ADD113RotRect,2.000000X2.200000X57.600000*%
%ADD114RotRect,1.500000X2.200000X309.600000*%
%ADD115RotRect,2.000000X2.200000X309.600000*%
%ADD116RotRect,1.500000X2.200000X356.400000*%
%ADD117RotRect,2.000000X2.200000X356.400000*%
%ADD118RotRect,1.500000X2.200000X313.200000*%
%ADD119RotRect,2.000000X2.200000X313.200000*%
%ADD120RotRect,1.000000X2.400000X327.600000*%
%ADD121RotRect,1.000000X2.400000X57.600000*%
%ADD122RotRect,1.500000X2.200000X302.400000*%
%ADD123RotRect,2.000000X2.200000X302.400000*%
%ADD124RotRect,1.500000X2.200000X288.000000*%
%ADD125RotRect,2.000000X2.200000X288.000000*%
%ADD126RotRect,1.500000X2.200000X208.800000*%
%ADD127RotRect,2.000000X2.200000X208.800000*%
%ADD128RotRect,1.000000X2.400000X151.200000*%
%ADD129RotRect,1.500000X2.200000X187.200000*%
%ADD130RotRect,2.000000X2.200000X187.200000*%
%ADD131RotRect,1.000000X2.400000X262.800000*%
%ADD132RotRect,1.500000X2.200000X118.800000*%
%ADD133RotRect,2.000000X2.200000X118.800000*%
%ADD134RotRect,1.500000X2.200000X342.000000*%
%ADD135RotRect,2.000000X2.200000X342.000000*%
%ADD136RotRect,1.000000X2.400000X158.400000*%
%ADD137RotRect,1.000000X2.400000X298.800000*%
%ADD138RotRect,1.000000X2.400000X82.800000*%
%ADD139RotRect,1.500000X2.200000X284.400000*%
%ADD140RotRect,2.000000X2.200000X284.400000*%
%ADD141RotRect,1.000000X2.400000X230.400000*%
%ADD142RotRect,1.500000X2.200000X151.200000*%
%ADD143RotRect,2.000000X2.200000X151.200000*%
%ADD144RotRect,1.500000X2.200000X147.600000*%
%ADD145RotRect,2.000000X2.200000X147.600000*%
%ADD146RotRect,1.000000X2.400000X198.000000*%
%ADD147RoundRect,0.062500X-0.375000X-0.062500X0.375000X-0.062500X0.375000X0.062500X-0.375000X0.062500X0*%
%ADD148RoundRect,0.062500X-0.062500X-0.375000X0.062500X-0.375000X0.062500X0.375000X-0.062500X0.375000X0*%
%ADD149RotRect,1.500000X2.200000X18.000000*%
%ADD150RotRect,2.000000X2.200000X18.000000*%
%ADD151RotRect,1.500000X2.200000X100.800000*%
%ADD152RotRect,2.000000X2.200000X100.800000*%
%ADD153RotRect,1.500000X2.200000X144.000000*%
%ADD154RotRect,2.000000X2.200000X144.000000*%
%ADD155RotRect,1.500000X2.200000X234.000000*%
%ADD156RotRect,2.000000X2.200000X234.000000*%
%ADD157RotRect,1.000000X2.400000X302.400000*%
%ADD158RotRect,1.000000X2.400000X3.600000*%
%ADD159R,2.400000X1.000000*%
%ADD160RotRect,1.000000X2.400000X108.000000*%
%ADD161RotRect,1.500000X2.200000X108.000000*%
%ADD162RotRect,2.000000X2.200000X108.000000*%
%ADD163RotRect,1.000000X2.400000X75.600000*%
%ADD164RotRect,1.000000X2.400000X86.400000*%
%ADD165RotRect,1.000000X2.400000X25.200000*%
%ADD166RotRect,1.000000X2.400000X259.200000*%
%ADD167RotRect,1.000000X2.400000X169.200000*%
%ADD168RotRect,1.000000X2.400000X36.000000*%
%ADD169RotRect,1.000000X2.400000X147.600000*%
%ADD170RotRect,1.500000X2.200000X331.200000*%
%ADD171RotRect,2.000000X2.200000X331.200000*%
%ADD172RotRect,1.000000X2.400000X226.800000*%
%ADD173RotRect,1.500000X2.200000X129.600000*%
%ADD174RotRect,2.000000X2.200000X129.600000*%
%ADD175RotRect,1.000000X2.400000X194.400000*%
%ADD176RotRect,1.000000X2.400000X295.200000*%
%ADD177RoundRect,0.150000X0.512500X0.150000X-0.512500X0.150000X-0.512500X-0.150000X0.512500X-0.150000X0*%
%ADD178RotRect,1.500000X2.200000X327.600000*%
%ADD179RotRect,2.000000X2.200000X327.600000*%
%ADD180RotRect,1.500000X2.200000X295.200000*%
%ADD181RotRect,2.000000X2.200000X295.200000*%
%ADD182RotRect,1.500000X2.200000X82.800000*%
%ADD183RotRect,2.000000X2.200000X82.800000*%
%ADD184RotRect,1.500000X2.200000X39.600000*%
%ADD185RotRect,2.000000X2.200000X39.600000*%
%ADD186RotRect,1.500000X2.200000X316.800000*%
%ADD187RotRect,2.000000X2.200000X316.800000*%
%ADD188RotRect,1.500000X2.200000X79.200000*%
%ADD189RotRect,2.000000X2.200000X79.200000*%
%ADD190RotRect,1.500000X2.200000X306.000000*%
%ADD191RotRect,2.000000X2.200000X306.000000*%
%ADD192RotRect,1.000000X2.400000X291.600000*%
%ADD193RotRect,1.500000X2.200000X252.000000*%
%ADD194RotRect,2.000000X2.200000X252.000000*%
%ADD195RotRect,1.500000X2.200000X25.200000*%
%ADD196RotRect,2.000000X2.200000X25.200000*%
%ADD197RotRect,1.500000X2.200000X122.400000*%
%ADD198RotRect,2.000000X2.200000X122.400000*%
%ADD199RotRect,1.000000X2.400000X237.600000*%
%ADD200RotRect,1.500000X2.200000X64.800000*%
%ADD201RotRect,2.000000X2.200000X64.800000*%
%ADD202RotRect,1.500000X2.200000X230.400000*%
%ADD203RotRect,2.000000X2.200000X230.400000*%
%ADD204RotRect,1.000000X2.400000X356.400000*%
%ADD205RotRect,1.000000X2.400000X284.400000*%
%ADD206RotRect,1.500000X2.200000X165.600000*%
%ADD207RotRect,2.000000X2.200000X165.600000*%
%ADD208RotRect,1.500000X2.200000X248.400000*%
%ADD209RotRect,2.000000X2.200000X248.400000*%
%ADD210RotRect,1.500000X2.200000X226.800000*%
%ADD211RotRect,2.000000X2.200000X226.800000*%
%ADD212RotRect,1.000000X2.400000X320.400000*%
%ADD213RotRect,1.000000X2.400000X133.200000*%
%ADD214RoundRect,0.140000X0.170000X-0.140000X0.170000X0.140000X-0.170000X0.140000X-0.170000X-0.140000X0*%
%ADD215RotRect,1.500000X2.200000X324.000000*%
%ADD216RotRect,2.000000X2.200000X324.000000*%
%ADD217RotRect,1.500000X2.200000X50.400000*%
%ADD218RotRect,2.000000X2.200000X50.400000*%
%ADD219RotRect,1.000000X2.400000X165.600000*%
%ADD220RotRect,1.500000X2.200000X162.000000*%
%ADD221RotRect,2.000000X2.200000X162.000000*%
%ADD222RotRect,1.000000X2.400000X28.800000*%
%ADD223RotRect,1.500000X2.200000X176.400000*%
%ADD224RotRect,2.000000X2.200000X176.400000*%
%ADD225RotRect,1.500000X2.200000X255.600000*%
%ADD226RotRect,2.000000X2.200000X255.600000*%
%ADD227RotRect,1.000000X2.400000X154.800000*%
%ADD228RotRect,1.500000X2.200000X61.200000*%
%ADD229RotRect,2.000000X2.200000X61.200000*%
%ADD230RotRect,1.500000X2.200000X219.600000*%
%ADD231RotRect,2.000000X2.200000X219.600000*%
%ADD232RotRect,1.000000X2.400000X234.000000*%
%ADD233RotRect,1.500000X2.200000X46.800000*%
%ADD234RotRect,2.000000X2.200000X46.800000*%
%ADD235RotRect,1.500000X2.200000X97.200000*%
%ADD236RotRect,2.000000X2.200000X97.200000*%
%ADD237RotRect,1.000000X2.400000X93.600000*%
%ADD238RotRect,1.500000X2.200000X334.800000*%
%ADD239RotRect,2.000000X2.200000X334.800000*%
%ADD240RotRect,1.000000X2.400000X54.000000*%
%ADD241RotRect,1.500000X2.200000X86.400000*%
%ADD242RotRect,2.000000X2.200000X86.400000*%
%ADD243RotRect,1.500000X2.200000X201.600000*%
%ADD244RotRect,2.000000X2.200000X201.600000*%
%ADD245RotRect,1.000000X2.400000X201.600000*%
%ADD246RotRect,1.500000X2.200000X259.200000*%
%ADD247RotRect,2.000000X2.200000X259.200000*%
%ADD248RotRect,1.500000X2.200000X349.200000*%
%ADD249RotRect,2.000000X2.200000X349.200000*%
%ADD250RotRect,1.000000X2.400000X68.400000*%
%ADD251RotRect,1.000000X2.400000X306.000000*%
%ADD252RotRect,1.500000X2.200000X140.400000*%
%ADD253RotRect,2.000000X2.200000X140.400000*%
%ADD254RotRect,1.500000X2.200000X345.600000*%
%ADD255RotRect,2.000000X2.200000X345.600000*%
%ADD256RotRect,1.500000X2.200000X43.200000*%
%ADD257RotRect,2.000000X2.200000X43.200000*%
%ADD258RotRect,1.500000X2.200000X241.200000*%
%ADD259RotRect,2.000000X2.200000X241.200000*%
%ADD260RotRect,1.500000X2.200000X212.400000*%
%ADD261RotRect,2.000000X2.200000X212.400000*%
%ADD262RotRect,1.000000X2.400000X14.400000*%
%ADD263RotRect,1.000000X2.400000X79.200000*%
%ADD264RotRect,1.500000X2.200000X205.200000*%
%ADD265RotRect,2.000000X2.200000X205.200000*%
%ADD266RotRect,1.000000X2.400000X144.000000*%
%ADD267RoundRect,0.150000X-0.150000X0.512500X-0.150000X-0.512500X0.150000X-0.512500X0.150000X0.512500X0*%
%ADD268RotRect,1.500000X2.200000X93.600000*%
%ADD269RotRect,2.000000X2.200000X93.600000*%
%ADD270RotRect,1.000000X2.400000X313.200000*%
%ADD271RotRect,1.500000X2.200000X183.600000*%
%ADD272RotRect,2.000000X2.200000X183.600000*%
%ADD273RotRect,1.500000X2.200000X172.800000*%
%ADD274RotRect,2.000000X2.200000X172.800000*%
%ADD275RotRect,1.500000X2.200000X28.800000*%
%ADD276RotRect,2.000000X2.200000X28.800000*%
%ADD277RotRect,1.500000X2.200000X198.000000*%
%ADD278RotRect,2.000000X2.200000X198.000000*%
%ADD279RotRect,1.000000X2.400000X43.200000*%
%ADD280RotRect,1.000000X2.400000X176.400000*%
%ADD281RotRect,1.000000X2.400000X172.800000*%
%ADD282RotRect,1.000000X2.400000X18.000000*%
%ADD283RotRect,1.500000X2.200000X216.000000*%
%ADD284RotRect,2.000000X2.200000X216.000000*%
%ADD285RotRect,1.000000X2.400000X162.000000*%
%ADD286RotRect,1.000000X2.400000X129.600000*%
%ADD287RotRect,1.000000X2.400000X280.800000*%
%ADD288RotRect,1.000000X2.400000X97.200000*%
%ADD289RotRect,1.500000X2.200000X273.600000*%
%ADD290RotRect,2.000000X2.200000X273.600000*%
%ADD291RotRect,1.000000X2.400000X115.200000*%
%ADD292RotRect,1.500000X2.200000X277.200000*%
%ADD293RotRect,2.000000X2.200000X277.200000*%
%ADD294RotRect,1.000000X2.400000X331.200000*%
%ADD295RotRect,1.500000X2.200000X352.800000*%
%ADD296RotRect,2.000000X2.200000X352.800000*%
%ADD297RotRect,1.000000X2.400000X266.400000*%
%ADD298RotRect,1.500000X2.200000X68.400000*%
%ADD299RotRect,2.000000X2.200000X68.400000*%
%ADD300RotRect,1.000000X2.400000X277.200000*%
%ADD301RotRect,1.000000X2.400000X345.600000*%
%ADD302RotRect,1.500000X2.200000X10.800000*%
%ADD303RotRect,2.000000X2.200000X10.800000*%
%ADD304RotRect,1.500000X2.200000X262.800000*%
%ADD305RotRect,2.000000X2.200000X262.800000*%
%ADD306RotRect,1.000000X2.400000X7.200000*%
%ADD307RotRect,1.000000X2.400000X349.200000*%
%ADD308RotRect,1.000000X2.400000X324.000000*%
%ADD309RotRect,1.500000X2.200000X126.000000*%
%ADD310RotRect,2.000000X2.200000X126.000000*%
%ADD311RotRect,1.000000X2.400000X118.800000*%
%ADD312RotRect,1.500000X2.200000X21.600000*%
%ADD313RotRect,2.000000X2.200000X21.600000*%
%ADD314RotRect,1.000000X2.400000X212.400000*%
%ADD315RotRect,1.000000X2.400000X50.400000*%
%ADD316RotRect,1.000000X2.400000X334.800000*%
%ADD317RotRect,1.500000X2.200000X136.800000*%
%ADD318RotRect,2.000000X2.200000X136.800000*%
%ADD319RotRect,1.500000X2.200000X291.600000*%
%ADD320RotRect,2.000000X2.200000X291.600000*%
%ADD321RotRect,1.500000X2.200000X111.600000*%
%ADD322RotRect,2.000000X2.200000X111.600000*%
%ADD323RotRect,1.000000X2.400000X342.000000*%
%ADD324RotRect,1.500000X2.200000X266.400000*%
%ADD325RotRect,2.000000X2.200000X266.400000*%
%ADD326RotRect,1.000000X2.400000X223.200000*%
%ADD327RoundRect,0.200000X-0.200000X0.300000X-0.200000X-0.300000X0.200000X-0.300000X0.200000X0.300000X0*%
%ADD328RotRect,1.500000X2.200000X169.200000*%
%ADD329RotRect,2.000000X2.200000X169.200000*%
%ADD330RotRect,1.500000X2.200000X190.800000*%
%ADD331RotRect,2.000000X2.200000X190.800000*%
%ADD332RotRect,1.000000X2.400000X136.800000*%
%ADD333RoundRect,0.250000X-0.450000X0.450000X-0.450000X-0.450000X0.450000X-0.450000X0.450000X0.450000X0*%
%ADD334C,1.400000*%
%ADD335RoundRect,0.250000X0.350000X0.625000X-0.350000X0.625000X-0.350000X-0.625000X0.350000X-0.625000X0*%
%ADD336O,1.200000X1.750000*%
%ADD337C,1.100000*%
G04 APERTURE END LIST*
D10*
%TO.C,C19*%
X205990000Y-103000000D03*
X205030000Y-103000000D03*
%TD*%
D11*
%TO.C,J3*%
X43960000Y-109250000D03*
X46500000Y-109250000D03*
D12*
X49040000Y-109250000D03*
%TD*%
D13*
%TO.C,U2*%
X39925000Y-97400000D03*
D14*
X41375000Y-96600000D03*
X41375000Y-97000000D03*
X41375000Y-97400000D03*
X41375000Y-97800000D03*
X41375000Y-98200000D03*
D15*
X40725000Y-98850000D03*
X40325000Y-98850000D03*
X39925000Y-98850000D03*
X39525000Y-98850000D03*
X39125000Y-98850000D03*
D14*
X38475000Y-98200000D03*
X38475000Y-97800000D03*
X38475000Y-97400000D03*
X38475000Y-97000000D03*
X38475000Y-96600000D03*
D15*
X39125000Y-95950000D03*
X39525000Y-95950000D03*
X39925000Y-95950000D03*
X40325000Y-95950000D03*
X40725000Y-95950000D03*
%TD*%
D12*
%TO.C,J4*%
X128810000Y-21000000D03*
D11*
X126270000Y-21000000D03*
X123730000Y-21000000D03*
X121190000Y-21000000D03*
%TD*%
D16*
%TO.C,D19*%
X21519690Y-74813864D03*
X20370086Y-77256898D03*
%TD*%
D17*
%TO.C,D218*%
X156250000Y-47000000D03*
D18*
X154000000Y-47000000D03*
%TD*%
D19*
%TO.C,D64*%
X207907253Y-204707025D03*
X209755531Y-202738809D03*
%TD*%
D20*
%TO.C,D68*%
X225124901Y-181584686D03*
X226425635Y-179218658D03*
%TD*%
D21*
%TO.C,D4*%
X104777236Y-11784001D03*
X102125060Y-12289931D03*
%TD*%
D22*
%TO.C,D37*%
X35530455Y-197263565D03*
X37251499Y-199343951D03*
%TD*%
D23*
%TO.C,D113*%
X48788607Y-45669134D03*
D24*
X50428787Y-44128903D03*
%TD*%
D25*
%TO.C,D194*%
X170704688Y-24936800D03*
D26*
X172740549Y-25894803D03*
%TD*%
D27*
%TO.C,D57*%
X166079125Y-232421263D03*
X168589521Y-231427327D03*
%TD*%
D28*
%TO.C,R23*%
X205000000Y-100000000D03*
X206020000Y-100000000D03*
%TD*%
D17*
%TO.C,D236*%
X132250000Y-59000000D03*
D18*
X130000000Y-59000000D03*
%TD*%
D17*
%TO.C,D217*%
X144250000Y-47000000D03*
D18*
X142000000Y-47000000D03*
%TD*%
D29*
%TO.C,D222*%
X81650000Y-53000000D03*
X84350000Y-53000000D03*
%TD*%
D30*
%TO.C,D86*%
X218830464Y-58496868D03*
X217243444Y-56312522D03*
%TD*%
D31*
%TO.C,D119*%
X24936800Y-79295311D03*
D32*
X25894803Y-77259450D03*
%TD*%
D33*
%TO.C,D54*%
X145222763Y-238215998D03*
X147874939Y-237710068D03*
%TD*%
D34*
%TO.C,U15*%
X42862500Y-68050000D03*
X42862500Y-69000000D03*
X42862500Y-69950000D03*
X45137500Y-69950000D03*
X45137500Y-69000000D03*
X45137500Y-68050000D03*
%TD*%
D35*
%TO.C,D145*%
X85668520Y-227735569D03*
D36*
X83576523Y-226907288D03*
%TD*%
D37*
%TO.C,D31*%
X15211327Y-159253028D03*
X16045673Y-161820880D03*
%TD*%
D28*
%TO.C,R38*%
X149240000Y-30250000D03*
X150260000Y-30250000D03*
%TD*%
D17*
%TO.C,D220*%
X180250000Y-47000000D03*
D18*
X178000000Y-47000000D03*
%TD*%
D38*
%TO.C,R9*%
X52510000Y-192700000D03*
X51490000Y-192700000D03*
%TD*%
D29*
%TO.C,D51*%
X123649999Y-240000000D03*
X126349999Y-240000000D03*
%TD*%
D17*
%TO.C,D239*%
X168250000Y-59000000D03*
D18*
X166000000Y-59000000D03*
%TD*%
D29*
%TO.C,D230*%
X177650000Y-53000000D03*
X180350000Y-53000000D03*
%TD*%
D39*
%TO.C,D155*%
X153566616Y-231233285D03*
D40*
X151387304Y-231792837D03*
%TD*%
D41*
%TO.C,D176*%
X235000000Y-123750000D03*
D42*
X235000000Y-126000000D03*
%TD*%
D43*
%TO.C,D11*%
X58496868Y-31169535D03*
X56312522Y-32756555D03*
%TD*%
D17*
%TO.C,D219*%
X168250000Y-47000000D03*
D18*
X166000000Y-47000000D03*
%TD*%
D17*
%TO.C,D213*%
X96250000Y-47000000D03*
D18*
X94000000Y-47000000D03*
%TD*%
D28*
%TO.C,R4*%
X52490000Y-139000000D03*
X53510000Y-139000000D03*
%TD*%
D29*
%TO.C,D272*%
X18650000Y-230000000D03*
X21350000Y-230000000D03*
%TD*%
D44*
%TO.C,U8*%
X191750000Y-52437500D03*
X192250000Y-52437500D03*
X192750000Y-52437500D03*
X193250000Y-52437500D03*
X193750000Y-52437500D03*
X194250000Y-52437500D03*
D45*
X194937500Y-51750000D03*
X194937500Y-51250000D03*
X194937500Y-50750000D03*
X194937500Y-50250000D03*
X194937500Y-49750000D03*
X194937500Y-49250000D03*
D44*
X194250000Y-48562500D03*
X193750000Y-48562500D03*
X193250000Y-48562500D03*
X192750000Y-48562500D03*
X192250000Y-48562500D03*
X191750000Y-48562500D03*
D45*
X191062500Y-49250000D03*
X191062500Y-49750000D03*
X191062500Y-50250000D03*
X191062500Y-50750000D03*
X191062500Y-51250000D03*
X191062500Y-51750000D03*
D46*
X193000000Y-50500000D03*
%TD*%
D47*
%TO.C,D39*%
X45292974Y-207907253D03*
X47261190Y-209755531D03*
%TD*%
D48*
%TO.C,D152*%
X133154490Y-234704452D03*
D49*
X130908930Y-234845731D03*
%TD*%
D50*
%TO.C,D18*%
X24875098Y-68415313D03*
X23574364Y-70781341D03*
%TD*%
D51*
%TO.C,R7*%
X83500000Y-35760000D03*
X83500000Y-34740000D03*
%TD*%
D17*
%TO.C,D269*%
X246250000Y-245000000D03*
D18*
X244000000Y-245000000D03*
%TD*%
D52*
%TO.C,C6*%
X101500000Y-26520000D03*
X101500000Y-27480000D03*
%TD*%
D53*
%TO.C,D2*%
X119126426Y-10142159D03*
X116431754Y-10311693D03*
%TD*%
D54*
%TO.C,D172*%
X231855009Y-151145158D03*
D55*
X231295457Y-153324470D03*
%TD*%
D56*
%TO.C,D8*%
X77256898Y-20370086D03*
X74813864Y-21519690D03*
%TD*%
D57*
%TO.C,R3*%
X55500000Y-132990000D03*
X55500000Y-134010000D03*
%TD*%
D29*
%TO.C,D201*%
X69650000Y-41000000D03*
X72350000Y-41000000D03*
%TD*%
D52*
%TO.C,C3*%
X58500000Y-140020000D03*
X58500000Y-140980000D03*
%TD*%
D58*
%TO.C,D90*%
X199343951Y-37251499D03*
X197263565Y-35530455D03*
%TD*%
D29*
%TO.C,D268*%
X228650000Y-20000000D03*
X231350000Y-20000000D03*
%TD*%
D59*
%TO.C,U4*%
X27250000Y-118562500D03*
X26750000Y-118562500D03*
X26250000Y-118562500D03*
X25750000Y-118562500D03*
X25250000Y-118562500D03*
X24750000Y-118562500D03*
D60*
X24062500Y-119250000D03*
X24062500Y-119750000D03*
X24062500Y-120250000D03*
X24062500Y-120750000D03*
X24062500Y-121250000D03*
X24062500Y-121750000D03*
D59*
X24750000Y-122437500D03*
X25250000Y-122437500D03*
X25750000Y-122437500D03*
X26250000Y-122437500D03*
X26750000Y-122437500D03*
X27250000Y-122437500D03*
D60*
X27937500Y-121750000D03*
X27937500Y-121250000D03*
X27937500Y-120750000D03*
X27937500Y-120250000D03*
X27937500Y-119750000D03*
X27937500Y-119250000D03*
D46*
X26000000Y-120500000D03*
%TD*%
D29*
%TO.C,D226*%
X129650000Y-53000000D03*
X132350000Y-53000000D03*
%TD*%
%TO.C,D202*%
X81650000Y-41000000D03*
X84350000Y-41000000D03*
%TD*%
D61*
%TO.C,D188*%
X204330865Y-48788607D03*
D62*
X205871096Y-50428787D03*
%TD*%
D29*
%TO.C,D274*%
X3650000Y-20000000D03*
X6350000Y-20000000D03*
%TD*%
D63*
%TO.C,U3*%
X86937500Y-32250000D03*
X86937500Y-31750000D03*
X86937500Y-31250000D03*
X86937500Y-30750000D03*
X86937500Y-30250000D03*
X86937500Y-29750000D03*
D64*
X86250000Y-29062500D03*
X85750000Y-29062500D03*
X85250000Y-29062500D03*
X84750000Y-29062500D03*
X84250000Y-29062500D03*
X83750000Y-29062500D03*
D63*
X83062500Y-29750000D03*
X83062500Y-30250000D03*
X83062500Y-30750000D03*
X83062500Y-31250000D03*
X83062500Y-31750000D03*
X83062500Y-32250000D03*
D64*
X83750000Y-32937500D03*
X84250000Y-32937500D03*
X84750000Y-32937500D03*
X85250000Y-32937500D03*
X85750000Y-32937500D03*
X86250000Y-32937500D03*
D46*
X85000000Y-31000000D03*
%TD*%
D17*
%TO.C,D273*%
X6250000Y-5000000D03*
D18*
X4000000Y-5000000D03*
%TD*%
D65*
%TO.C,D62*%
X197263565Y-214469544D03*
X199343951Y-212748500D03*
%TD*%
D29*
%TO.C,D228*%
X153650000Y-53000000D03*
X156350000Y-53000000D03*
%TD*%
D66*
%TO.C,D129*%
X17182629Y-146839803D03*
D67*
X16761021Y-144629657D03*
%TD*%
D68*
%TO.C,D49*%
X109247323Y-238923990D03*
X111926033Y-239262390D03*
%TD*%
D69*
%TO.C,D21*%
X16045673Y-88179119D03*
X15211327Y-90746971D03*
%TD*%
D70*
%TO.C,D195*%
X164331479Y-22264430D03*
D71*
X166423476Y-23092711D03*
%TD*%
D72*
%TO.C,D9*%
X70781341Y-23574364D03*
X68415313Y-24875098D03*
%TD*%
D73*
%TO.C,C10*%
X52480000Y-191200000D03*
X51520000Y-191200000D03*
%TD*%
D74*
%TO.C,D71*%
X233954326Y-161820880D03*
X234788672Y-159253028D03*
%TD*%
D17*
%TO.C,D233*%
X96250000Y-59000000D03*
D18*
X94000000Y-59000000D03*
%TD*%
D38*
%TO.C,R26*%
X39885000Y-93950000D03*
X38865000Y-93950000D03*
%TD*%
D75*
%TO.C,D134*%
X29208457Y-179088287D03*
D76*
X28124511Y-177116597D03*
%TD*%
D29*
%TO.C,D210*%
X177650000Y-41000000D03*
X180350000Y-41000000D03*
%TD*%
D77*
%TO.C,D166*%
X214726601Y-188645106D03*
D78*
X213404084Y-190465394D03*
%TD*%
D79*
%TO.C,D20*%
X18572672Y-81410478D03*
X17578736Y-83920874D03*
%TD*%
D80*
%TO.C,D60*%
X185480238Y-222821077D03*
X187759924Y-221374345D03*
%TD*%
D81*
%TO.C,D183*%
X223998751Y-77033243D03*
D82*
X224956754Y-79069104D03*
%TD*%
D83*
%TO.C,D45*%
X81410478Y-231427327D03*
X83920874Y-232421263D03*
%TD*%
D84*
%TO.C,D69*%
X228480309Y-175186135D03*
X229629913Y-172743101D03*
%TD*%
D85*
%TO.C,D12*%
X52736434Y-35530455D03*
X50656048Y-37251499D03*
%TD*%
D86*
%TO.C,D3*%
X111926033Y-10737609D03*
X109247323Y-11076009D03*
%TD*%
D87*
%TO.C,D153*%
X140026798Y-233975949D03*
D88*
X137794540Y-234257950D03*
%TD*%
D28*
%TO.C,R25*%
X46490000Y-68000000D03*
X47510000Y-68000000D03*
%TD*%
D89*
%TO.C,D27*%
X10142159Y-130873573D03*
X10311693Y-133568245D03*
%TD*%
D90*
%TO.C,D140*%
X55846503Y-210553236D03*
D91*
X54112848Y-209119032D03*
%TD*%
D92*
%TO.C,D85*%
X222821077Y-64519761D03*
X221374345Y-62240075D03*
%TD*%
D63*
%TO.C,U9*%
X136937500Y-26250000D03*
X136937500Y-25750000D03*
X136937500Y-25250000D03*
X136937500Y-24750000D03*
X136937500Y-24250000D03*
X136937500Y-23750000D03*
D64*
X136250000Y-23062500D03*
X135750000Y-23062500D03*
X135250000Y-23062500D03*
X134750000Y-23062500D03*
X134250000Y-23062500D03*
X133750000Y-23062500D03*
D63*
X133062500Y-23750000D03*
X133062500Y-24250000D03*
X133062500Y-24750000D03*
X133062500Y-25250000D03*
X133062500Y-25750000D03*
X133062500Y-26250000D03*
D64*
X133750000Y-26937500D03*
X134250000Y-26937500D03*
X134750000Y-26937500D03*
X135250000Y-26937500D03*
X135750000Y-26937500D03*
X136250000Y-26937500D03*
D46*
X135000000Y-25000000D03*
%TD*%
D10*
%TO.C,C18*%
X40875000Y-93950000D03*
X41835000Y-93950000D03*
%TD*%
%TO.C,C12*%
X218020000Y-148000000D03*
X218980000Y-148000000D03*
%TD*%
D93*
%TO.C,D171*%
X230002487Y-157803048D03*
D94*
X229307199Y-159942926D03*
%TD*%
D41*
%TO.C,D126*%
X15000000Y-126250000D03*
D42*
X15000000Y-124000000D03*
%TD*%
D95*
%TO.C,D117*%
X31454145Y-67114462D03*
D96*
X32659755Y-65214724D03*
%TD*%
D97*
%TO.C,D22*%
X13948667Y-95093075D03*
X13277205Y-97708249D03*
%TD*%
D98*
%TO.C,D105*%
X96433383Y-18766714D03*
D99*
X98612695Y-18207162D03*
%TD*%
D100*
%TO.C,D160*%
X184996357Y-217206288D03*
D101*
X183096619Y-218411898D03*
%TD*%
D102*
%TO.C,D82*%
X232421263Y-83920874D03*
X231427327Y-81410478D03*
%TD*%
D52*
%TO.C,C11*%
X160500000Y-213520000D03*
X160500000Y-214480000D03*
%TD*%
D103*
%TO.C,U1*%
X55750000Y-138462500D03*
X56250000Y-138462500D03*
X56750000Y-138462500D03*
X57250000Y-138462500D03*
D104*
X57962500Y-137750000D03*
X57962500Y-137250000D03*
X57962500Y-136750000D03*
X57962500Y-136250000D03*
D103*
X57250000Y-135537500D03*
X56750000Y-135537500D03*
X56250000Y-135537500D03*
X55750000Y-135537500D03*
D104*
X55037500Y-136250000D03*
X55037500Y-136750000D03*
X55037500Y-137250000D03*
X55037500Y-137750000D03*
D105*
X56500000Y-137000000D03*
%TD*%
D106*
%TO.C,D161*%
X190667648Y-213257137D03*
D107*
X188847360Y-214579654D03*
%TD*%
D108*
%TO.C,D80*%
X236722794Y-97708249D03*
X236051332Y-95093075D03*
%TD*%
D29*
%TO.C,D266*%
X18650000Y-20000000D03*
X21350000Y-20000000D03*
%TD*%
D109*
%TO.C,D180*%
X231233285Y-96433383D03*
D110*
X231792837Y-98612695D03*
%TD*%
D111*
%TO.C,D79*%
X238215998Y-104777236D03*
X237710068Y-102125060D03*
%TD*%
D112*
%TO.C,D167*%
X218545854Y-182885537D03*
D113*
X217340244Y-184785275D03*
%TD*%
D114*
%TO.C,D137*%
X41040323Y-196079780D03*
D115*
X39606119Y-194346125D03*
%TD*%
D52*
%TO.C,C29*%
X149500000Y-31520000D03*
X149500000Y-32480000D03*
%TD*%
%TO.C,C14*%
X135200000Y-28720000D03*
X135200000Y-29680000D03*
%TD*%
D116*
%TO.C,D150*%
X119340575Y-234861428D03*
D117*
X117095015Y-234720149D03*
%TD*%
D118*
%TO.C,D138*%
X45669134Y-201211392D03*
D119*
X44128903Y-199571212D03*
%TD*%
D120*
%TO.C,D42*%
X62240075Y-221374345D03*
X64519761Y-222821077D03*
%TD*%
D121*
%TO.C,D67*%
X221374345Y-187759924D03*
X222821077Y-185480238D03*
%TD*%
D122*
%TO.C,D135*%
X32793711Y-184996357D03*
D123*
X31588101Y-183096619D03*
%TD*%
D124*
%TO.C,D131*%
X20770054Y-160180690D03*
D125*
X20074766Y-158040812D03*
%TD*%
D51*
%TO.C,R13*%
X133800000Y-30310000D03*
X133800000Y-29290000D03*
%TD*%
D126*
%TO.C,D109*%
X70911712Y-29208457D03*
D127*
X72883402Y-28124511D03*
%TD*%
D128*
%TO.C,D93*%
X181584686Y-24875098D03*
X179218658Y-23574364D03*
%TD*%
D129*
%TO.C,D103*%
X109973201Y-16024050D03*
D130*
X112205459Y-15742049D03*
%TD*%
D131*
%TO.C,D24*%
X11076009Y-109247323D03*
X10737609Y-111926033D03*
%TD*%
D29*
%TO.C,D223*%
X93650000Y-53000000D03*
X96350000Y-53000000D03*
%TD*%
D132*
%TO.C,D184*%
X220791542Y-70911712D03*
D133*
X221875488Y-72883402D03*
%TD*%
D134*
%TO.C,D146*%
X92196951Y-230002487D03*
D135*
X90057073Y-229307199D03*
%TD*%
D38*
%TO.C,R17*%
X209510000Y-172500000D03*
X208490000Y-172500000D03*
%TD*%
D28*
%TO.C,R19*%
X59990000Y-131000000D03*
X61010000Y-131000000D03*
%TD*%
%TO.C,R22*%
X205000000Y-99000000D03*
X206020000Y-99000000D03*
%TD*%
D136*
%TO.C,D95*%
X168589521Y-18572672D03*
X166079125Y-17578736D03*
%TD*%
D57*
%TO.C,R10*%
X162000000Y-212990000D03*
X162000000Y-214010000D03*
%TD*%
D137*
%TO.C,D34*%
X23574364Y-179218658D03*
X24875098Y-181584686D03*
%TD*%
D138*
%TO.C,D74*%
X238923990Y-140752676D03*
X239262390Y-138073966D03*
%TD*%
D139*
%TO.C,D130*%
X18766714Y-153566616D03*
D140*
X18207162Y-151387304D03*
%TD*%
D29*
%TO.C,D270*%
X228650000Y-230000000D03*
X231350000Y-230000000D03*
%TD*%
D141*
%TO.C,D15*%
X37251499Y-50656048D03*
X35530455Y-52736434D03*
%TD*%
D142*
%TO.C,D193*%
X176897521Y-28004073D03*
D143*
X178869211Y-29088019D03*
%TD*%
D144*
%TO.C,D192*%
X182885537Y-31454145D03*
D145*
X184785275Y-32659755D03*
%TD*%
D146*
%TO.C,D6*%
X90746971Y-15211327D03*
X88179119Y-16045673D03*
%TD*%
D29*
%TO.C,D227*%
X141650000Y-53000000D03*
X144350000Y-53000000D03*
%TD*%
D147*
%TO.C,U6*%
X158062500Y-217250000D03*
X158062500Y-217750000D03*
X158062500Y-218250000D03*
X158062500Y-218750000D03*
X158062500Y-219250000D03*
X158062500Y-219750000D03*
D148*
X158750000Y-220437500D03*
X159250000Y-220437500D03*
X159750000Y-220437500D03*
X160250000Y-220437500D03*
X160750000Y-220437500D03*
X161250000Y-220437500D03*
D147*
X161937500Y-219750000D03*
X161937500Y-219250000D03*
X161937500Y-218750000D03*
X161937500Y-218250000D03*
X161937500Y-217750000D03*
X161937500Y-217250000D03*
D148*
X161250000Y-216562500D03*
X160750000Y-216562500D03*
X160250000Y-216562500D03*
X159750000Y-216562500D03*
X159250000Y-216562500D03*
X158750000Y-216562500D03*
D46*
X160000000Y-218500000D03*
%TD*%
D29*
%TO.C,D229*%
X165650000Y-53000000D03*
X168350000Y-53000000D03*
%TD*%
D57*
%TO.C,R20*%
X38000000Y-99740000D03*
X38000000Y-100760000D03*
%TD*%
D17*
%TO.C,D211*%
X72250000Y-47000000D03*
D18*
X70000000Y-47000000D03*
%TD*%
D149*
%TO.C,D156*%
X160180690Y-229229945D03*
D150*
X158040812Y-229925233D03*
%TD*%
D151*
%TO.C,D179*%
X232817370Y-103160196D03*
D152*
X233238978Y-105370342D03*
%TD*%
D153*
%TO.C,D191*%
X188645106Y-35273398D03*
D154*
X190465394Y-36595915D03*
%TD*%
D44*
%TO.C,U7*%
X221250000Y-149437500D03*
X221750000Y-149437500D03*
X222250000Y-149437500D03*
X222750000Y-149437500D03*
X223250000Y-149437500D03*
X223750000Y-149437500D03*
D45*
X224437500Y-148750000D03*
X224437500Y-148250000D03*
X224437500Y-147750000D03*
X224437500Y-147250000D03*
X224437500Y-146750000D03*
X224437500Y-146250000D03*
D44*
X223750000Y-145562500D03*
X223250000Y-145562500D03*
X222750000Y-145562500D03*
X222250000Y-145562500D03*
X221750000Y-145562500D03*
X221250000Y-145562500D03*
D45*
X220562500Y-146250000D03*
X220562500Y-146750000D03*
X220562500Y-147250000D03*
X220562500Y-147750000D03*
X220562500Y-148250000D03*
X220562500Y-148750000D03*
D46*
X222500000Y-147500000D03*
%TD*%
D17*
%TO.C,D234*%
X108250000Y-59000000D03*
D18*
X106000000Y-59000000D03*
%TD*%
D155*
%TO.C,D116*%
X35273398Y-61354893D03*
D156*
X36595915Y-59534605D03*
%TD*%
D157*
%TO.C,D35*%
X27178922Y-185480238D03*
X28625654Y-187759924D03*
%TD*%
D158*
%TO.C,D52*%
X130873573Y-239857840D03*
X133568245Y-239688306D03*
%TD*%
D159*
%TO.C,D26*%
X10000000Y-123650000D03*
X10000000Y-126350000D03*
%TD*%
D17*
%TO.C,D232*%
X84250000Y-59000000D03*
D18*
X82000000Y-59000000D03*
%TD*%
D160*
%TO.C,D81*%
X234788672Y-90746971D03*
X233954326Y-88179119D03*
%TD*%
D17*
%TO.C,D101*%
X123750000Y-15000000D03*
D18*
X126000000Y-15000000D03*
%TD*%
D161*
%TO.C,D181*%
X229229945Y-89819309D03*
D162*
X229925233Y-91959187D03*
%TD*%
D29*
%TO.C,D221*%
X69650000Y-53000000D03*
X72350000Y-53000000D03*
%TD*%
D163*
%TO.C,D72*%
X236051332Y-154906924D03*
X236722794Y-152291750D03*
%TD*%
D164*
%TO.C,D75*%
X239688306Y-133568245D03*
X239857840Y-130873573D03*
%TD*%
D29*
%TO.C,D224*%
X105650000Y-53000000D03*
X108350000Y-53000000D03*
%TD*%
D52*
%TO.C,C16*%
X46750000Y-94270000D03*
X46750000Y-95230000D03*
%TD*%
D165*
%TO.C,D58*%
X172743101Y-229629913D03*
X175186135Y-228480309D03*
%TD*%
D166*
%TO.C,D23*%
X12289931Y-102125060D03*
X11784001Y-104777236D03*
%TD*%
D38*
%TO.C,R18*%
X43010000Y-178000000D03*
X41990000Y-178000000D03*
%TD*%
D167*
%TO.C,D98*%
X147874939Y-12289931D03*
X145222763Y-11784001D03*
%TD*%
D168*
%TO.C,D61*%
X191503131Y-218830464D03*
X193687477Y-217243444D03*
%TD*%
D29*
%TO.C,D204*%
X105650000Y-41000000D03*
X108350000Y-41000000D03*
%TD*%
D169*
%TO.C,D92*%
X187759924Y-28625654D03*
X185480238Y-27178922D03*
%TD*%
D170*
%TO.C,D143*%
X73102478Y-221995926D03*
D171*
X71130788Y-220911980D03*
%TD*%
D34*
%TO.C,U11*%
X42862500Y-71550000D03*
X42862500Y-72500000D03*
X42862500Y-73450000D03*
X45137500Y-73450000D03*
X45137500Y-72500000D03*
X45137500Y-71550000D03*
%TD*%
D172*
%TO.C,D14*%
X42092746Y-45292974D03*
X40244468Y-47261190D03*
%TD*%
D34*
%TO.C,U12*%
X202862500Y-73050000D03*
X202862500Y-74000000D03*
X202862500Y-74950000D03*
X205137500Y-74950000D03*
X205137500Y-74000000D03*
X205137500Y-73050000D03*
%TD*%
D29*
%TO.C,D1*%
X126350000Y-10000000D03*
X123650000Y-10000000D03*
%TD*%
D173*
%TO.C,D187*%
X208959676Y-53920219D03*
D174*
X210393880Y-55653874D03*
%TD*%
D175*
%TO.C,D5*%
X97708249Y-13277205D03*
X95093075Y-13948667D03*
%TD*%
D17*
%TO.C,D238*%
X156250000Y-59000000D03*
D18*
X154000000Y-59000000D03*
%TD*%
D176*
%TO.C,D33*%
X20370086Y-172743101D03*
X21519690Y-175186135D03*
%TD*%
D10*
%TO.C,C5*%
X42270000Y-95400000D03*
X43230000Y-95400000D03*
%TD*%
D28*
%TO.C,R6*%
X59990000Y-132000000D03*
X61010000Y-132000000D03*
%TD*%
D177*
%TO.C,U16*%
X49062500Y-92850000D03*
X49062500Y-91900000D03*
X49062500Y-90950000D03*
X46787500Y-90950000D03*
X46787500Y-92850000D03*
%TD*%
D178*
%TO.C,D142*%
X67114462Y-218545854D03*
D179*
X65214724Y-217340244D03*
%TD*%
D180*
%TO.C,D133*%
X26001248Y-172966756D03*
D181*
X25043245Y-170930895D03*
%TD*%
D28*
%TO.C,R11*%
X217490000Y-146500000D03*
X218510000Y-146500000D03*
%TD*%
D182*
%TO.C,D174*%
X234289285Y-137546512D03*
D183*
X234007284Y-139778770D03*
%TD*%
D184*
%TO.C,D162*%
X196079780Y-208959676D03*
D185*
X194346125Y-210393880D03*
%TD*%
D147*
%TO.C,U18*%
X99062500Y-29750000D03*
X99062500Y-30250000D03*
X99062500Y-30750000D03*
X99062500Y-31250000D03*
X99062500Y-31750000D03*
X99062500Y-32250000D03*
D148*
X99750000Y-32937500D03*
X100250000Y-32937500D03*
X100750000Y-32937500D03*
X101250000Y-32937500D03*
X101750000Y-32937500D03*
X102250000Y-32937500D03*
D147*
X102937500Y-32250000D03*
X102937500Y-31750000D03*
X102937500Y-31250000D03*
X102937500Y-30750000D03*
X102937500Y-30250000D03*
X102937500Y-29750000D03*
D148*
X102250000Y-29062500D03*
X101750000Y-29062500D03*
X101250000Y-29062500D03*
X100750000Y-29062500D03*
X100250000Y-29062500D03*
X99750000Y-29062500D03*
D46*
X101000000Y-31000000D03*
%TD*%
D186*
%TO.C,D139*%
X50611029Y-206042233D03*
D187*
X48970849Y-204502002D03*
%TD*%
D188*
%TO.C,D173*%
X233285824Y-144384085D03*
D189*
X232864216Y-146594231D03*
%TD*%
D190*
%TO.C,D136*%
X36742862Y-190667648D03*
D191*
X35420345Y-188847360D03*
%TD*%
D192*
%TO.C,D32*%
X17578736Y-166079125D03*
X18572672Y-168589521D03*
%TD*%
D193*
%TO.C,D121*%
X19997512Y-92196951D03*
D194*
X20692800Y-90057073D03*
%TD*%
D195*
%TO.C,D158*%
X172966756Y-223998751D03*
D196*
X170930895Y-224956754D03*
%TD*%
D197*
%TO.C,D185*%
X217206288Y-65003642D03*
D198*
X218411898Y-66903380D03*
%TD*%
D199*
%TO.C,D17*%
X28625654Y-62240075D03*
X27178922Y-64519761D03*
%TD*%
D28*
%TO.C,R21*%
X205000000Y-98000000D03*
X206020000Y-98000000D03*
%TD*%
D44*
%TO.C,U26*%
X151750000Y-35937500D03*
X152250000Y-35937500D03*
X152750000Y-35937500D03*
X153250000Y-35937500D03*
X153750000Y-35937500D03*
X154250000Y-35937500D03*
D45*
X154937500Y-35250000D03*
X154937500Y-34750000D03*
X154937500Y-34250000D03*
X154937500Y-33750000D03*
X154937500Y-33250000D03*
X154937500Y-32750000D03*
D44*
X154250000Y-32062500D03*
X153750000Y-32062500D03*
X153250000Y-32062500D03*
X152750000Y-32062500D03*
X152250000Y-32062500D03*
X151750000Y-32062500D03*
D45*
X151062500Y-32750000D03*
X151062500Y-33250000D03*
X151062500Y-33750000D03*
X151062500Y-34250000D03*
X151062500Y-34750000D03*
X151062500Y-35250000D03*
D46*
X153000000Y-34000000D03*
%TD*%
D10*
%TO.C,C13*%
X188020000Y-50500000D03*
X188980000Y-50500000D03*
%TD*%
D200*
%TO.C,D169*%
X225063199Y-170704688D03*
D201*
X224105196Y-172740549D03*
%TD*%
D202*
%TO.C,D115*%
X39446763Y-55846503D03*
D203*
X40880967Y-54112848D03*
%TD*%
D17*
%TO.C,D214*%
X108250000Y-47000000D03*
D18*
X106000000Y-47000000D03*
%TD*%
D204*
%TO.C,D50*%
X116431754Y-239688306D03*
X119126426Y-239857840D03*
%TD*%
D205*
%TO.C,D30*%
X13277205Y-152291750D03*
X13948667Y-154906924D03*
%TD*%
D206*
%TO.C,D197*%
X151145158Y-18144990D03*
D207*
X153324470Y-18704542D03*
%TD*%
D38*
%TO.C,R16*%
X205010000Y-71500000D03*
X203990000Y-71500000D03*
%TD*%
D17*
%TO.C,D265*%
X21250000Y-5000000D03*
D18*
X19000000Y-5000000D03*
%TD*%
D208*
%TO.C,D120*%
X22264430Y-85668520D03*
D209*
X23092711Y-83576523D03*
%TD*%
D210*
%TO.C,D114*%
X43957766Y-50611029D03*
D211*
X45497997Y-48970849D03*
%TD*%
D212*
%TO.C,D40*%
X50656048Y-212748500D03*
X52736434Y-214469544D03*
%TD*%
D213*
%TO.C,D88*%
X209755531Y-47261190D03*
X207907253Y-45292974D03*
%TD*%
D214*
%TO.C,C17*%
X43375000Y-92430000D03*
X43375000Y-91470000D03*
%TD*%
D215*
%TO.C,D141*%
X61354893Y-214726601D03*
D216*
X59534605Y-213404084D03*
%TD*%
D17*
%TO.C,D215*%
X120250000Y-47000000D03*
D18*
X118000000Y-47000000D03*
%TD*%
D59*
%TO.C,U5*%
X48250000Y-190262500D03*
X47750000Y-190262500D03*
X47250000Y-190262500D03*
X46750000Y-190262500D03*
X46250000Y-190262500D03*
X45750000Y-190262500D03*
D60*
X45062500Y-190950000D03*
X45062500Y-191450000D03*
X45062500Y-191950000D03*
X45062500Y-192450000D03*
X45062500Y-192950000D03*
X45062500Y-193450000D03*
D59*
X45750000Y-194137500D03*
X46250000Y-194137500D03*
X46750000Y-194137500D03*
X47250000Y-194137500D03*
X47750000Y-194137500D03*
X48250000Y-194137500D03*
D60*
X48937500Y-193450000D03*
X48937500Y-192950000D03*
X48937500Y-192450000D03*
X48937500Y-191950000D03*
X48937500Y-191450000D03*
X48937500Y-190950000D03*
D46*
X47000000Y-192200000D03*
%TD*%
D217*
%TO.C,D165*%
X210553236Y-194153496D03*
D218*
X209119032Y-195887151D03*
%TD*%
D219*
%TO.C,D97*%
X154906924Y-13948667D03*
X152291750Y-13277205D03*
%TD*%
D214*
%TO.C,C8*%
X84500000Y-35730000D03*
X84500000Y-34770000D03*
%TD*%
D220*
%TO.C,D196*%
X157803048Y-19997512D03*
D221*
X159942926Y-20692800D03*
%TD*%
D29*
%TO.C,D203*%
X93650000Y-41000000D03*
X96350000Y-41000000D03*
%TD*%
D222*
%TO.C,D59*%
X179218658Y-226425635D03*
X181584686Y-225124901D03*
%TD*%
D223*
%TO.C,D200*%
X130659424Y-15138571D03*
D224*
X132904984Y-15279850D03*
%TD*%
D225*
%TO.C,D122*%
X18144990Y-98854841D03*
D226*
X18704542Y-96675529D03*
%TD*%
D28*
%TO.C,R15*%
X46490000Y-71500000D03*
X47510000Y-71500000D03*
%TD*%
D227*
%TO.C,D94*%
X175186135Y-21519690D03*
X172743101Y-20370086D03*
%TD*%
D228*
%TO.C,D168*%
X221995926Y-176897521D03*
D229*
X220911980Y-178869211D03*
%TD*%
D17*
%TO.C,D235*%
X120250000Y-59000000D03*
D18*
X118000000Y-59000000D03*
%TD*%
D230*
%TO.C,D112*%
X53920219Y-41040323D03*
D231*
X55653874Y-39606119D03*
%TD*%
D232*
%TO.C,D16*%
X32756555Y-56312522D03*
X31169535Y-58496868D03*
%TD*%
D233*
%TO.C,D164*%
X206042233Y-199388970D03*
D234*
X204502002Y-201029150D03*
%TD*%
D52*
%TO.C,C7*%
X49925000Y-93920000D03*
X49925000Y-94880000D03*
%TD*%
D235*
%TO.C,D178*%
X233975949Y-109973201D03*
D236*
X234257950Y-112205459D03*
%TD*%
D237*
%TO.C,D77*%
X239857840Y-119126426D03*
X239688306Y-116431754D03*
%TD*%
D238*
%TO.C,D144*%
X79295311Y-225063199D03*
D239*
X77259450Y-224105196D03*
%TD*%
D240*
%TO.C,D66*%
X217243444Y-193687477D03*
X218830464Y-191503131D03*
%TD*%
D241*
%TO.C,D175*%
X234861428Y-130659424D03*
D242*
X234720149Y-132904984D03*
%TD*%
D243*
%TO.C,D107*%
X83344078Y-23184742D03*
D244*
X85436075Y-22356461D03*
%TD*%
D245*
%TO.C,D7*%
X83920874Y-17578736D03*
X81410478Y-18572672D03*
%TD*%
D246*
%TO.C,D123*%
X16714175Y-105615914D03*
D247*
X17135783Y-103405768D03*
%TD*%
D29*
%TO.C,D209*%
X165650000Y-41000000D03*
X168350000Y-41000000D03*
%TD*%
D248*
%TO.C,D148*%
X105615914Y-233285824D03*
D249*
X103405768Y-232864216D03*
%TD*%
D250*
%TO.C,D70*%
X231427327Y-168589521D03*
X232421263Y-166079125D03*
%TD*%
D29*
%TO.C,D207*%
X141650000Y-41000000D03*
X144350000Y-41000000D03*
%TD*%
D28*
%TO.C,R24*%
X205000000Y-101000000D03*
X206020000Y-101000000D03*
%TD*%
D251*
%TO.C,D36*%
X31169535Y-191503131D03*
X32756555Y-193687477D03*
%TD*%
D252*
%TO.C,D190*%
X194153496Y-39446763D03*
D253*
X195887151Y-40880967D03*
%TD*%
D254*
%TO.C,D147*%
X98854841Y-231855009D03*
D255*
X96675529Y-231295457D03*
%TD*%
D17*
%TO.C,D271*%
X6250000Y-245000000D03*
D18*
X4000000Y-245000000D03*
%TD*%
D256*
%TO.C,D163*%
X201211392Y-204330865D03*
D257*
X199571212Y-205871096D03*
%TD*%
D258*
%TO.C,D118*%
X28004073Y-73102478D03*
D259*
X29088019Y-71130788D03*
%TD*%
D260*
%TO.C,D110*%
X65003642Y-32793711D03*
D261*
X66903380Y-31588101D03*
%TD*%
D262*
%TO.C,D55*%
X152291750Y-236722794D03*
X154906924Y-236051332D03*
%TD*%
D263*
%TO.C,D73*%
X237710068Y-147874939D03*
X238215998Y-145222763D03*
%TD*%
D264*
%TO.C,D108*%
X77033243Y-26001248D03*
D265*
X79069104Y-25043245D03*
%TD*%
D266*
%TO.C,D91*%
X193687477Y-32756555D03*
X191503131Y-31169535D03*
%TD*%
D29*
%TO.C,D225*%
X117650000Y-53000000D03*
X120350000Y-53000000D03*
%TD*%
D17*
%TO.C,D212*%
X84250000Y-47000000D03*
D18*
X82000000Y-47000000D03*
%TD*%
D267*
%TO.C,U14*%
X43000000Y-174000000D03*
X42050000Y-174000000D03*
X41100000Y-174000000D03*
X41100000Y-176275000D03*
X42050000Y-176275000D03*
X43000000Y-176275000D03*
%TD*%
D268*
%TO.C,D177*%
X234704452Y-116845509D03*
D269*
X234845731Y-119091069D03*
%TD*%
D270*
%TO.C,D38*%
X40244468Y-202738809D03*
X42092746Y-204707025D03*
%TD*%
D271*
%TO.C,D102*%
X116845509Y-15295547D03*
D272*
X119091069Y-15154268D03*
%TD*%
D273*
%TO.C,D199*%
X137546512Y-15710714D03*
D274*
X139778770Y-15992715D03*
%TD*%
D275*
%TO.C,D159*%
X179088287Y-220791542D03*
D276*
X177116597Y-221875488D03*
%TD*%
D17*
%TO.C,D267*%
X246250000Y-5000000D03*
D18*
X244000000Y-5000000D03*
%TD*%
D28*
%TO.C,R27*%
X205000000Y-102000000D03*
X206020000Y-102000000D03*
%TD*%
D277*
%TO.C,D106*%
X89819309Y-20770054D03*
D278*
X91959187Y-20074766D03*
%TD*%
D279*
%TO.C,D63*%
X202738809Y-209755531D03*
X204707025Y-207907253D03*
%TD*%
D29*
%TO.C,D205*%
X117650000Y-41000000D03*
X120350000Y-41000000D03*
%TD*%
%TO.C,D208*%
X153650000Y-41000000D03*
X156350000Y-41000000D03*
%TD*%
D280*
%TO.C,D100*%
X133568245Y-10311693D03*
X130873573Y-10142159D03*
%TD*%
D281*
%TO.C,D99*%
X140752676Y-11076009D03*
X138073966Y-10737609D03*
%TD*%
D282*
%TO.C,D56*%
X159253028Y-234788672D03*
X161820880Y-233954326D03*
%TD*%
D283*
%TO.C,D111*%
X59332351Y-36742862D03*
D284*
X61152639Y-35420345D03*
%TD*%
D285*
%TO.C,D96*%
X161820880Y-16045673D03*
X159253028Y-15211327D03*
%TD*%
D286*
%TO.C,D87*%
X214469544Y-52736434D03*
X212748500Y-50656048D03*
%TD*%
D17*
%TO.C,D231*%
X72250000Y-59000000D03*
D18*
X70000000Y-59000000D03*
%TD*%
D287*
%TO.C,D29*%
X11784001Y-145222763D03*
X12289931Y-147874939D03*
%TD*%
D57*
%TO.C,R32*%
X102500000Y-26490000D03*
X102500000Y-27510000D03*
%TD*%
D288*
%TO.C,D78*%
X239262390Y-111926033D03*
X238923990Y-109247323D03*
%TD*%
D57*
%TO.C,R5*%
X55500000Y-139990000D03*
X55500000Y-141010000D03*
%TD*%
D289*
%TO.C,D127*%
X15295547Y-133154490D03*
D290*
X15154268Y-130908930D03*
%TD*%
D291*
%TO.C,D83*%
X229629913Y-77256898D03*
X228480309Y-74813864D03*
%TD*%
D292*
%TO.C,D128*%
X16024050Y-140026798D03*
D293*
X15742049Y-137794540D03*
%TD*%
D294*
%TO.C,D43*%
X68415313Y-225124901D03*
X70781341Y-226425635D03*
%TD*%
D295*
%TO.C,D149*%
X112453487Y-234289285D03*
D296*
X110221229Y-234007284D03*
%TD*%
D17*
%TO.C,D216*%
X132250000Y-47000000D03*
D18*
X130000000Y-47000000D03*
%TD*%
D214*
%TO.C,C1*%
X54500000Y-133980000D03*
X54500000Y-133020000D03*
%TD*%
D17*
%TO.C,D240*%
X180250000Y-59000000D03*
D18*
X178000000Y-59000000D03*
%TD*%
D297*
%TO.C,D25*%
X10311693Y-116431754D03*
X10142159Y-119126426D03*
%TD*%
D298*
%TO.C,D170*%
X227735569Y-164331479D03*
D299*
X226907288Y-166423476D03*
%TD*%
D17*
%TO.C,D151*%
X126249999Y-235000000D03*
D18*
X123999999Y-235000000D03*
%TD*%
D300*
%TO.C,D28*%
X10737609Y-138073966D03*
X11076009Y-140752676D03*
%TD*%
D301*
%TO.C,D47*%
X95093075Y-236051332D03*
X97708249Y-236722794D03*
%TD*%
D52*
%TO.C,C9*%
X30000000Y-120020000D03*
X30000000Y-120980000D03*
%TD*%
D34*
%TO.C,U13*%
X207000000Y-174000000D03*
X207000000Y-174950000D03*
X207000000Y-175900000D03*
X209275000Y-175900000D03*
X209275000Y-174950000D03*
X209275000Y-174000000D03*
%TD*%
D302*
%TO.C,D154*%
X146839803Y-232817370D03*
D303*
X144629657Y-233238978D03*
%TD*%
D304*
%TO.C,D124*%
X15710714Y-112453487D03*
D305*
X15992715Y-110221229D03*
%TD*%
D28*
%TO.C,R12*%
X187990000Y-49500000D03*
X189010000Y-49500000D03*
%TD*%
D306*
%TO.C,D53*%
X138073966Y-239262390D03*
X140752676Y-238923990D03*
%TD*%
D307*
%TO.C,D48*%
X102125060Y-237710068D03*
X104777236Y-238215998D03*
%TD*%
D308*
%TO.C,D41*%
X56312522Y-217243444D03*
X58496868Y-218830464D03*
%TD*%
D309*
%TO.C,D186*%
X213257137Y-59332351D03*
D310*
X214579654Y-61152639D03*
%TD*%
D311*
%TO.C,D84*%
X226425635Y-70781341D03*
X225124901Y-68415313D03*
%TD*%
D17*
%TO.C,D237*%
X144250000Y-59000000D03*
D18*
X142000000Y-59000000D03*
%TD*%
D312*
%TO.C,D157*%
X166655921Y-226815257D03*
D313*
X164563924Y-227643538D03*
%TD*%
D314*
%TO.C,D10*%
X64519761Y-27178922D03*
X62240075Y-28625654D03*
%TD*%
D315*
%TO.C,D65*%
X212748500Y-199343951D03*
X214469544Y-197263565D03*
%TD*%
D316*
%TO.C,D44*%
X74813864Y-228480309D03*
X77256898Y-229629913D03*
%TD*%
D73*
%TO.C,C4*%
X37480000Y-95500000D03*
X36520000Y-95500000D03*
%TD*%
D52*
%TO.C,C2*%
X57500000Y-140020000D03*
X57500000Y-140980000D03*
%TD*%
D317*
%TO.C,D189*%
X199388970Y-43957766D03*
D318*
X201029150Y-45497997D03*
%TD*%
D319*
%TO.C,D132*%
X23184742Y-166655921D03*
D320*
X22356461Y-164563924D03*
%TD*%
D51*
%TO.C,R8*%
X30000000Y-123510000D03*
X30000000Y-122490000D03*
%TD*%
D321*
%TO.C,D182*%
X226815257Y-83344078D03*
D322*
X227643538Y-85436075D03*
%TD*%
D323*
%TO.C,D46*%
X88179119Y-233954326D03*
X90746971Y-234788672D03*
%TD*%
D324*
%TO.C,D125*%
X15138571Y-119340575D03*
D325*
X15279850Y-117095015D03*
%TD*%
D29*
%TO.C,D206*%
X129650000Y-41000000D03*
X132350000Y-41000000D03*
%TD*%
D159*
%TO.C,D76*%
X240000000Y-126350000D03*
X240000000Y-123650000D03*
%TD*%
D326*
%TO.C,D13*%
X47261190Y-40244468D03*
X45292974Y-42092746D03*
%TD*%
D327*
%TO.C,Y1*%
X41925000Y-91000000D03*
X39825000Y-91000000D03*
X39825000Y-92400000D03*
X41925000Y-92400000D03*
%TD*%
D328*
%TO.C,D198*%
X144384085Y-16714175D03*
D329*
X146594231Y-17135783D03*
%TD*%
D330*
%TO.C,D104*%
X103160196Y-17182629D03*
D331*
X105370342Y-16761021D03*
%TD*%
D332*
%TO.C,D89*%
X204707025Y-42092746D03*
X202738809Y-40244468D03*
%TD*%
D333*
%TO.C,SW1*%
X57857500Y-122500000D03*
D334*
X57857500Y-125000000D03*
X57857500Y-127500000D03*
X61157500Y-127500000D03*
X61157500Y-125000000D03*
X61157500Y-122500000D03*
%TD*%
D335*
%TO.C,J2*%
X62000000Y-148500000D03*
D336*
X60000000Y-148500000D03*
%TD*%
D337*
%TO.C,J1*%
X48900000Y-127150000D03*
X48900000Y-122850000D03*
X44100000Y-127150000D03*
X44100000Y-122850000D03*
%TD*%
D57*
%TO.C,R1*%
X45500000Y-120845000D03*
X45500000Y-119825000D03*
%TD*%
%TO.C,R2*%
X47500000Y-120845000D03*
X47500000Y-119825000D03*
%TD*%
M02*
