M48
; DRILL file {KiCad 9.0.6} date 2025-12-09T15:20:41-0800
; FORMAT={-:-/ absolute / inch / decimal}
; #@! TF.CreationDate,2025-12-09T15:20:41-08:00
; #@! TF.GenerationSoftware,Kicad,Pcbnew,9.0.6
; #@! TF.FileFunction,Plated,1,2,PTH
FMAT,2
INCH
; #@! TA.AperFunction,Plated,PTH,ComponentDrill
T1C0.0079
; #@! TA.AperFunction,Plated,PTH,ViaDrill
T2C0.0118
; #@! TA.AperFunction,Plated,PTH,ViaDrill
T3C0.0236
; #@! TA.AperFunction,Plated,PTH,ComponentDrill
T4C0.0276
; #@! TA.AperFunction,Plated,PTH,ComponentDrill
T5C0.0295
; #@! TA.AperFunction,Plated,PTH,ComponentDrill
T6C0.0354
; #@! TA.AperFunction,Plated,PTH,ComponentDrill
T7C0.0394
%
G90
G05
T1
X0.9921Y-4.7126
X0.9921Y-4.7441
X0.9921Y-4.7756
X1.0236Y-4.7126
X1.0236Y-4.7441
X1.0236Y-4.7756
X1.0551Y-4.7126
X1.0551Y-4.7441
X1.0551Y-4.7756
X1.5492Y-3.812
X1.5492Y-3.8573
X1.5945Y-3.812
X1.5945Y-3.8573
X1.8189Y-7.5354
X1.8189Y-7.5669
X1.8189Y-7.5984
X1.8504Y-7.5354
X1.8504Y-7.5669
X1.8504Y-7.5984
X1.8819Y-7.5354
X1.8819Y-7.5669
X1.8819Y-7.5984
X2.2012Y-5.3705
X2.2012Y-5.4169
X2.2476Y-5.3705
X2.2476Y-5.4169
X3.315Y-1.189
X3.315Y-1.2205
X3.315Y-1.252
X3.3465Y-1.189
X3.3465Y-1.2205
X3.3465Y-1.252
X3.378Y-1.189
X3.378Y-1.2205
X3.378Y-1.252
X3.9449Y-1.189
X3.9449Y-1.2205
X3.9449Y-1.252
X3.9764Y-1.189
X3.9764Y-1.2205
X3.9764Y-1.252
X4.0079Y-1.189
X4.0079Y-1.2205
X4.0079Y-1.252
X5.2835Y-0.9528
X5.2835Y-0.9843
X5.2835Y-1.0157
X5.315Y-0.9528
X5.315Y-0.9843
X5.315Y-1.0157
X5.3465Y-0.9528
X5.3465Y-0.9843
X5.3465Y-1.0157
X5.9921Y-1.3071
X5.9921Y-1.3386
X5.9921Y-1.3701
X6.0236Y-1.3071
X6.0236Y-1.3386
X6.0236Y-1.3701
X6.0551Y-1.3071
X6.0551Y-1.3386
X6.0551Y-1.3701
X6.2677Y-8.5709
X6.2677Y-8.6024
X6.2677Y-8.6339
X6.2992Y-8.5709
X6.2992Y-8.6024
X6.2992Y-8.6339
X6.3307Y-8.5709
X6.3307Y-8.6024
X6.3307Y-8.6339
X7.5669Y-1.9567
X7.5669Y-1.9882
X7.5669Y-2.0197
X7.5984Y-1.9567
X7.5984Y-1.9882
X7.5984Y-2.0197
X7.6299Y-1.9567
X7.6299Y-1.9882
X7.6299Y-2.0197
X8.7283Y-5.7756
X8.7283Y-5.8071
X8.7283Y-5.8386
X8.7598Y-5.7756
X8.7598Y-5.8071
X8.7598Y-5.8386
X8.7913Y-5.7756
X8.7913Y-5.8071
X8.7913Y-5.8386
T2
X0.2362Y-2.9528
X0.2559Y-6.5748
X0.2795Y-0.4909
X0.3937Y-1.4567
X0.3937Y-7.3031
X0.4331Y-8.7402
X0.5118Y-2.4213
X0.5315Y-0.9843
X0.5906Y-8.2677
X0.748Y-4.7835
X0.8858Y-7.9331
X0.9055Y-2.2047
X0.9252Y-1.7323
X0.9449Y-9.5276
X0.9646Y-2.2244
X1.0039Y-1.122
X1.063Y-8.622
X1.0728Y-4.8603
X1.0787Y-3.9272
X1.0882Y-4.617
X1.0984Y-3.878
X1.1002Y-4.8411
X1.1043Y-4.5866
X1.1104Y-4.6713
X1.128Y-3.7303
X1.1324Y-4.75
X1.1417Y-1.4961
X1.1811Y-4.685
X1.1811Y-4.9213
X1.189Y-3.8476
X1.1909Y-3.7303
X1.1909Y-4.4882
X1.2106Y-4.8917
X1.2205Y-3.9187
X1.2205Y-3.7894
X1.2303Y-3.6319
X1.2303Y-3.8681
X1.2598Y-3.9961
X1.3189Y-8.0906
X1.3583Y-3.9961
X1.3681Y-3.8976
X1.378Y-3.7598
X1.378Y-5.2362
X1.378Y-6.2598
X1.378Y-8.3661
X1.3878Y-3.622
X1.3878Y-3.8681
X1.437Y-3.4744
X1.4567Y-3.7008
X1.4567Y-6.7913
X1.4694Y-3.8022
X1.4961Y-9.5472
X1.503Y-3.6575
X1.5157Y-3.8976
X1.5551Y-2.7559
X1.5551Y-3.7402
X1.5748Y-2.7165
X1.5748Y-9.252
X1.5915Y-3.935
X1.6142Y-3.5236
X1.6142Y-6.7913
X1.6339Y-3.9764
X1.6364Y-3.7789
X1.6657Y-0.6965
X1.6929Y-3.7106
X1.7031Y-3.8678
X1.7126Y-3.6713
X1.7323Y-8.7598
X1.769Y-3.9338
X1.7717Y-8.0709
X1.7913Y-5.0132
X1.7913Y-3.4055
X1.8209Y-3.622
X1.8448Y-4.4882
X1.8452Y-4.0098
X1.8504Y-7.0669
X1.8602Y-3.8091
X1.8701Y-4.0394
X1.8701Y-4.8163
X1.8728Y-3.4453
X1.8832Y-3.3688
X1.8835Y-7.4271
X1.8868Y-3.5984
X1.8868Y-3.6378
X1.9038Y-7.3912
X1.9128Y-3.4115
X1.9225Y-3.4652
X1.9244Y-7.6684
X1.936Y-7.4922
X1.9619Y-7.5433
X1.9634Y-7.5767
X1.9685Y-6.437
X1.9783Y-4.0945
X1.9882Y-7.4803
X1.9941Y-7.7354
X1.998Y-4.1339
X2.0276Y-7.6969
X2.0332Y-5.2306
X2.0571Y-4.2224
X2.0669Y-4.189
X2.1437Y-2.6181
X2.1457Y-7.5984
X2.1821Y-3.5591
X2.2047Y-2.8543
X2.2146Y-7.7264
X2.2638Y-5.2953
X2.3265Y-5.3621
X2.3425Y-9.5472
X2.3789Y-3.6181
X2.4016Y-2.126
X2.4409Y-3.248
X2.4412Y-5.1828
X2.4492Y-5.146
X2.5394Y-2.4409
X2.5984Y-1.9094
X2.6181Y-0.9843
X2.6181Y-1.0236
X2.6181Y-1.063
X2.6235Y-1.6482
X2.646Y-1.5043
X2.6772Y-2.2638
X2.874Y-0.3543
X2.9134Y-1.7323
X2.9134Y-2.3031
X2.9331Y-1.811
X2.9528Y-2.126
X2.9626Y-1.4272
X3.0118Y-2.4213
X3.0315Y-1.6929
X3.0315Y-1.9094
X3.0807Y-1.4764
X3.1688Y-1.2381
X3.189Y-1.2874
X3.2087Y-1.3681
X3.2185Y-1.4173
X3.2192Y-1.3364
X3.2677Y-1.4665
X3.3071Y-1.5354
X3.3661Y-1.5157
X3.376Y-1.3681
X3.3858Y-1.811
X3.3858Y-2.2638
X3.4366Y-1.313
X3.4449Y-2.4409
X3.4449Y-8.1693
X3.5236Y-1.2303
X3.5236Y-2.2835
X3.6811Y-0.6496
X3.6811Y-1.1614
X3.7008Y-1.1024
X3.7402Y-1.063
X3.7402Y-1.4961
X3.7795Y-1.063
X3.7894Y-2.2146
X3.7992Y-1.4173
X3.809Y-1.2453
X3.8189Y-1.2008
X3.8327Y-1.752
X3.8399Y-1.2581
X3.8583Y-1.1614
X3.8583Y-1.4173
X3.8617Y-1.2835
X3.8917Y-1.2996
X3.8976Y-1.4567
X3.9162Y-1.3661
X3.937Y-0.9843
X3.937Y-1.4902
X3.937Y-2.3819
X3.9477Y-1.3549
X3.9764Y-2.2441
X3.9785Y-1.3657
X4.0107Y-1.3588
X4.0317Y-1.3352
X4.0748Y-0.9449
X4.1142Y-1.1614
X4.1302Y-1.3407
X4.1535Y-1.122
X4.1535Y-1.3189
X4.1994Y-2.2112
X4.2323Y-1.752
X4.4094Y-2.2047
X4.4094Y-2.4016
X4.4435Y-1.6451
X4.4785Y-1.8275
X4.4882Y-1.0827
X4.4882Y-1.6339
X4.5118Y-1.8307
X4.5341Y-1.9128
X4.5352Y-1.6331
X4.5571Y-1.939
X4.5669Y-1.6437
X4.7047Y-1.7972
X4.7244Y-2.2244
X4.8031Y-1.1811
X4.9016Y-2.3622
X4.9213Y-1.9685
X5.0394Y-1.2205
X5.1575Y-2.2244
X5.1761Y-1.052
X5.1768Y-1.0855
X5.1969Y-1.7776
X5.2195Y-1.0768
X5.374Y-1.1614
X5.374Y-2.2835
X5.3929Y-1.0613
X5.3996Y-1.1161
X5.4921Y-1.063
X5.5065Y-1.3301
X5.5512Y-1.3386
X5.6102Y-1.3976
X5.6674Y-1.2531
X5.6791Y-1.7815
X5.7087Y-2.2441
X5.7615Y-1.2531
X5.8268Y-1.8504
X5.8465Y-2.3425
X5.9055Y-1.3976
X5.9055Y-1.9685
X5.9252Y-0.9449
X5.9646Y-1.4567
X5.9843Y-1.6535
X5.9941Y-1.4862
X6.0258Y-1.4968
X6.063Y-1.4567
X6.063Y-1.4961
X6.1516Y-1.7815
X6.1795Y-8.4827
X6.1811Y-8.5591
X6.2087Y-8.5335
X6.2205Y-0.9449
X6.2205Y-2.2835
X6.2318Y-8.5079
X6.2598Y-8.4252
X6.3091Y-8.4646
X6.3386Y-1.6535
X6.378Y-1.6535
X6.4014Y-8.4897
X6.4114Y-8.5217
X6.4173Y-1.6535
X6.437Y-1.2598
X6.4508Y-8.5531
X6.4567Y-1.9685
X6.4764Y-8.4055
X6.4961Y-1.9685
X6.5Y-8.7717
X6.5748Y-2.2047
X6.624Y-1.7618
X6.6634Y-1.3681
X6.6929Y-8.3858
X6.752Y-1.6339
X6.7717Y-0.1969
X6.7717Y-1.811
X6.8504Y-1.6339
X6.8504Y-8.189
X6.9094Y-1.9094
X7.0472Y-2.0866
X7.1063Y-1.752
X7.1654Y-2.1063
X7.3622Y-4.4685
X7.3622Y-4.872
X7.4016Y-1.8504
X7.4409Y-0.4134
X7.4409Y-1.9154
X7.4763Y-1.9134
X7.4999Y-2.0669
X7.5Y-1.8898
X7.5Y-4.8819
X7.5098Y-4.4882
X7.5197Y-3.6024
X7.5295Y-5.3346
X7.5394Y-2.1063
X7.6969Y-2.8937
X7.6969Y-9.5276
X7.7264Y-5.0492
X7.8543Y-7.3425
X7.8957Y-2.9016
X7.9134Y-2.5984
X7.9281Y-3.9272
X8.0217Y-4.0748
X8.0315Y-3.8583
X8.0315Y-3.8976
X8.0315Y-3.937
X8.0413Y-4.626
X8.1299Y-0.6693
X8.1496Y-3.189
X8.2283Y-5.9252
X8.2283Y-9.2717
X8.2677Y-7.1654
X8.2874Y-2.9528
X8.3465Y-6.6339
X8.4055Y-6.9094
X8.4547Y-5.8366
X8.5433Y-5.4331
X8.5925Y-5.6693
X8.6417Y-5.8071
X8.6811Y-8.5039
X8.6988Y-5.9185
X8.7008Y-1.9882
X8.7132Y-5.693
X8.8189Y-7.7165
X8.9173Y-9.685
X8.937Y-6.0236
X9.0157Y-4.0157
X9.252Y-7.5591
X9.2717Y-3.9469
X9.6063Y-8.9961
X9.626Y-6.7126
T3
X0.2559Y-4.4882
X0.2953Y-4.4882
X0.3346Y-4.4882
X0.374Y-4.4882
X2.0472Y-4.4488
X5.0689Y-0.4331
T4
X1.7362Y-4.8366
X1.7362Y-5.0059
X1.9252Y-4.8366
X1.9252Y-5.0059
T5
X2.3622Y-5.8465
X2.4409Y-5.8465
T6
X2.2779Y-4.8228
X2.2779Y-4.9213
X2.2779Y-5.0197
X2.4078Y-4.8228
X2.4078Y-4.9213
X2.4078Y-5.0197
T7
X1.7307Y-4.3012
X1.8307Y-4.3012
X1.9307Y-4.3012
X4.7713Y-0.8268
X4.8713Y-0.8268
X4.9713Y-0.8268
X5.0713Y-0.8268
M30
